<svg xmlns="http://www.w3.org/2000/svg" viewBox="0 0 6.5 10.95"><title>Recurso 1</title><g id="Capa_2" data-name="Capa 2"><g id="Capa_1-2" data-name="Capa 1"><g id="Capa_2-2" data-name="Capa 2"><g id="Layer_1" data-name="Layer 1"><path d="M6.12,6.12c-.4.5-1.7,1.7-1.7,1.7l-2.6,2.6-.3.3a.91.91,0,0,1-1.2,0,.91.91,0,0,1,0-1.2l.3-.3,3.1-3.1.8-.8-4-3.7-.3-.2a.91.91,0,0,1,0-1.2.91.91,0,0,1,1.2,0l.3.3,3.1,3.1,1.4,1.3c.1.1.1.2.2.3a.64.64,0,0,1,0,.6l-.1.1C6.22,6,6.22,6.12,6.12,6.12Z"/></g></g></g></g></svg>