<?xml version="1.0" encoding="utf-8"?>
<!-- Generator: Adobe Illustrator 20.1.0, SVG Export Plug-In . SVG Version: 6.00 Build 0)  -->
<svg version="1.1" id="Capa_1" xmlns="http://www.w3.org/2000/svg" xmlns:xlink="http://www.w3.org/1999/xlink" x="0px" y="0px"
	 viewBox="0 0 6.4 11.1" style="enable-background:new 0 0 6.4 11.1;" xml:space="preserve">
<style type="text/css">
	.st0{fill:#FFFFFF;}
</style>
<title>before_1</title>
<g id="Capa_2">
	<g id="Layer_1">
		<path class="st0" d="M6.1,6.2C5.7,6.7,4.4,7.9,4.4,7.9l-2.6,2.6l-0.3,0.3c-0.3,0.3-0.9,0.3-1.2,0c-0.3-0.3-0.3-0.9,0-1.2l0.3-0.3
			l3.1-3.1l0.8-0.8L0.5,1.7L0.2,1.5c-0.3-0.3-0.3-0.9,0-1.2c0.3-0.3,0.9-0.3,1.2,0l0.3,0.3l3.1,3.1L6.2,5c0.1,0.1,0.1,0.2,0.2,0.3
			c0.1,0.2,0.1,0.4,0,0.6c0,0-0.1,0.1-0.1,0.1C6.2,6.1,6.2,6.2,6.1,6.2z"/>
	</g>
</g>
</svg>
