<svg xmlns="http://www.w3.org/2000/svg" viewBox="0 0 19.78 19.82"><defs><style>.cls-1{fill:#030608;}</style></defs><title>ornamentos</title><g id="Capa_2" data-name="Capa 2"><g id="Capa_1-2" data-name="Capa 1"><path class="cls-1" d="M19.78,9.85c0,.17-.22.25-.66.25a7.87,7.87,0,0,0-3.06.52,8.1,8.1,0,0,0-3,2.47c-.27.33-.86,1.14-1.78,2.41a20.33,20.33,0,0,1-1.78,2.21,8.17,8.17,0,0,1-2,1.59A5.61,5.61,0,0,1,5,19.82a4.84,4.84,0,0,1-3.33-1.19A3.73,3.73,0,0,1,.31,15.77a3.09,3.09,0,0,1,.89-2.23,3,3,0,0,1,2.15-.89,1.75,1.75,0,0,1,1.23.52,1.68,1.68,0,0,1,.55,1.25,1.84,1.84,0,0,1-.36,1.19,1.15,1.15,0,0,1-.95.45c-.24,0-.49-.18-.76-.55S2.59,15,2.45,15a.7.7,0,0,0-.56.34,1.43,1.43,0,0,0-.25.88A2.54,2.54,0,0,0,2.25,18a2.08,2.08,0,0,0,1.6.66,2.43,2.43,0,0,0,1.77-.95l1.56-2a15.83,15.83,0,0,1,3.26-2.82q1.49-1,4.77-3l.13-.18a.45.45,0,0,1-.13-.16c-2-1-3.26-1.7-3.78-2A17,17,0,0,1,8.8,5.8,16.85,16.85,0,0,1,6,2.84c-.79-1.09-1.5-1.62-2.13-1.62A2.43,2.43,0,0,0,2.15,2a2.4,2.4,0,0,0-.78,1.75,1.63,1.63,0,0,0,.19.74c.13.23.25.34.35.34a2.15,2.15,0,0,0,.75-.42A1.73,1.73,0,0,1,3.47,4a1.11,1.11,0,0,1,.86.45A1.7,1.7,0,0,1,4.7,5.53a2,2,0,0,1-.58,1.39,1.78,1.78,0,0,1-1.31.62,2.51,2.51,0,0,1-2-.94A3.86,3.86,0,0,1,0,4.07,3.76,3.76,0,0,1,1.33,1.24,4.46,4.46,0,0,1,4.5,0,6.76,6.76,0,0,1,9.38,2.23a26,26,0,0,1,1.77,2.13,27.33,27.33,0,0,0,2.1,2.48,9.23,9.23,0,0,0,6,2.65C19.6,9.53,19.78,9.65,19.78,9.85Z"/></g></g></svg>