<?xml version="1.0" encoding="utf-8"?>
<!-- Generator: Adobe Illustrator 20.1.0, SVG Export Plug-In . SVG Version: 6.00 Build 0)  -->
<svg version="1.1" id="Capa_1" xmlns="http://www.w3.org/2000/svg" xmlns:xlink="http://www.w3.org/1999/xlink" x="0px" y="0px"
	 viewBox="0 0 13.8 13.8" style="enable-background:new 0 0 13.8 13.8;" xml:space="preserve">
<style type="text/css">
	.st0{fill:#FFFFFF;}
</style>
<title>search</title>
<g id="Capa_2">
	<g id="Layer_1">
		<path class="st0" d="M13.5,12.3L10.2,9C12,6.5,11.5,3,9,1.1S3-0.2,1.1,2.3s-1.3,6,1.2,7.9c2,1.5,4.7,1.5,6.7,0l3.4,3.4
			c0.4,0.3,0.9,0.2,1.2-0.1C13.8,13.1,13.8,12.6,13.5,12.3z M5.6,9.6c-2.2,0-4-1.8-4-4s1.8-4,4-4s4,1.8,4,4S7.8,9.6,5.6,9.6z"/>
	</g>
</g>
</svg>
