<?xml version="1.0" encoding="utf-8"?>
<!-- Generator: Adobe Illustrator 20.1.0, SVG Export Plug-In . SVG Version: 6.00 Build 0)  -->
<svg version="1.1" id="Capa_1" xmlns="http://www.w3.org/2000/svg" xmlns:xlink="http://www.w3.org/1999/xlink" x="0px" y="0px"
	 viewBox="0 0 11.2 11.2" style="enable-background:new 0 0 11.2 11.2;" xml:space="preserve">
<style type="text/css">
	.st0{fill:#FFFFFF;}
</style>
<title>close</title>
<g id="Capa_2">
	<g id="Capa_2-2">
		<path class="st0" d="M5.1,6.3L1.6,2.8L0.2,1.5c-0.4-0.3-0.4-0.8-0.1-1.2S1-0.1,1.4,0.2c0,0,0,0,0.1,0.1L3.2,2l2.9,2.9l3.5,3.5
			L11,9.8c0.3,0.3,0.3,0.9,0,1.2s-0.9,0.3-1.2,0L8,9.2L5.1,6.3z"/>
		<path class="st0" d="M4.9,5.1l3.5-3.5l1.4-1.4c0.3-0.3,0.9-0.4,1.2,0c0.3,0.3,0.4,0.9,0,1.2L9.2,3.2L6.3,6.1L2.8,9.6L1.5,11
			c-0.3,0.4-0.8,0.4-1.2,0.1c-0.4-0.3-0.4-0.8-0.1-1.2c0,0,0,0,0.1-0.1L2,8L4.9,5.1z"/>
	</g>
</g>
</svg>
