<?xml version="1.0" standalone="no"?>
<!DOCTYPE svg PUBLIC "-//W3C//DTD SVG 1.1//EN" "http://www.w3.org/Graphics/SVG/1.1/DTD/svg11.dtd" >
<svg xmlns="http://www.w3.org/2000/svg" xmlns:xlink="http://www.w3.org/1999/xlink" version="1.1">
<metadata>
Created by FontForge 20170731 at Thu Jun  6 19:07:22 2002
 By Aleksey,,,
Copyright (c) 1989, 2002 Adobe Systems Incorporated.  All Rights Reserved.
</metadata>
<defs>
<font id="BauerBodoniStd-Black" horiz-adv-x="667" >
  <font-face 
    font-family="Bauer Bodoni Std Black"
    font-weight="900"
    font-stretch="normal"
    units-per-em="1000"
    panose-1="2 7 9 3 8 7 6 2 3 3"
    ascent="735"
    descent="-265"
    x-height="453"
    cap-height="704"
    bbox="-163 -265 1000 958"
    underline-thickness="50"
    underline-position="-200"
    unicode-range="U+0020-FB02"
  />
<missing-glyph horiz-adv-x="500" 
d="M0 0v700h500v-700h-500zM250 395l170 255h-340zM280 350l170 -255v510zM80 50h340l-170 255zM50 605v-510l170 255z" />
    <glyph glyph-name="fi" unicode="fi" 
d="M25 0v19h55v415h-55v19h55q0 269 301 269q50 0 91.5 -10t75 -40.5t33.5 -79.5q0 -38 -25 -62t-60 -24q-44 0 -66.5 24t-22.5 59q0 22 6.5 38.5t15 23.5t15 14t6.5 14q0 24 -84 24q-106 0 -106 -113v-137h152q137 0 175 18v-452h55v-19h-290v19h55v415h-147v-415h55v-19
h-290z" />
    <glyph glyph-name="fl" unicode="fl" 
d="M25 0v19h55v415h-55v19h55v29q0 59 14 103t35.5 69.5t54 41.5t63.5 21t70 5t75 -9q43 -9 77 -9q74 0 118 25v-710h55v-19h-290v19h55v512q-28 7 -44.5 28.5t-16.5 49.5q0 24 9.5 39t19.5 23t10 14q0 8 -16.5 13t-37.5 5q-71 0 -71 -85v-165h63v-19h-63v-415h55v-19h-290z
" />
    <glyph glyph-name=".notdef" horiz-adv-x="500" 
d="M0 0v700h500v-700h-500zM250 395l170 255h-340zM280 350l170 -255v510zM80 50h340l-170 255zM50 605v-510l170 255z" />
    <glyph glyph-name=".null" horiz-adv-x="0" 
 />
    <glyph glyph-name="nonmarkingreturn" horiz-adv-x="333" 
 />
    <glyph glyph-name="space" unicode=" " horiz-adv-x="306" 
 />
    <glyph glyph-name="exclam" unicode="!" horiz-adv-x="390" 
d="M205 200h-19q-5 123 -27.5 219.5t-80.5 169.5q43 16 73 52t41 81h6q11 -45 41 -81t73 -52q-59 -73 -81 -170t-26 -219zM102 79q0 38 27.5 65.5t65.5 27.5t65.5 -27.5t27.5 -65.5t-27.5 -65.5t-65.5 -27.5t-65.5 27.5t-27.5 65.5z" />
    <glyph glyph-name="quotedbl" unicode="&#x22;" horiz-adv-x="610" 
d="M172 416l-20 196q-2 32 -2 46q0 64 55 64q57 0 57 -64q0 -22 -3 -46l-20 -196q-1 -11 -9.5 -23t-24.5 -12q-15 0 -23.5 12t-9.5 23zM370 416l-20 196q-2 32 -2 46q0 64 55 64q57 0 57 -64q0 -22 -3 -46l-20 -196q-1 -11 -9.5 -23t-24.5 -12q-15 0 -23.5 12t-9.5 23z" />
    <glyph glyph-name="numbersign" unicode="#" horiz-adv-x="612" 
d="M117 0l28 204h-90v90h102l17 122h-90v90h103l27 198h92l-27 -198h96l28 198h92l-28 -198h90v-90h-102l-17 -122h90v-90h-103l-27 -204h-92l27 204h-96l-28 -204h-92zM362 416h-96l-16 -122h95z" />
    <glyph glyph-name="dollar" unicode="$" horiz-adv-x="612" 
d="M279 473v226q-55 0 -91 -33.5t-36 -88.5q0 -49 32.5 -71t94.5 -33zM310 266v-259q62 3 106 41.5t44 99.5q0 58 -38 82t-112 36zM64 0v216h19q4 -60 58.5 -131t137.5 -78v264q-30 5 -47.5 9t-44.5 12t-43.5 17.5t-36 26t-30 37.5t-18 50.5t-7.5 66.5q0 98 64.5 163
t162.5 65v63h31v-65q40 -6 85.5 -27t56.5 -21q17 0 23.5 8.5t6.5 27.5h19v-192h-19q-4 21 -14.5 47t-29.5 55.5t-53 52t-75 29.5v-229q64 -11 102 -22.5t76 -35.5t55 -65.5t17 -103.5q0 -110 -65.5 -181t-184.5 -71v-113h-31v113q-50 3 -98 28.5t-64 25.5q-17 0 -25.5 -12.5
t-8.5 -29.5h-19z" />
    <glyph glyph-name="percent" unicode="%" horiz-adv-x="1000" 
d="M118 532q0 75 45 130.5t117 55.5q73 0 117.5 -55.5t44.5 -130.5q0 -76 -44 -131.5t-118 -55.5t-118 55.5t-44 131.5zM236 626v-191q0 -71 44 -71t44 71v191q0 35 -9 54t-35 19t-35 -19t-9 -54zM558 173q0 75 45 130.5t117 55.5q73 0 117.5 -55.5t44.5 -130.5
q0 -76 -44 -131.5t-118 -55.5t-118 55.5t-44 131.5zM676 267v-191q0 -71 44 -71t44 71v191q0 35 -9 54t-35 19t-35 -19t-9 -54zM282 -22l391 748h44l-391 -748h-44z" />
    <glyph glyph-name="ampersand" unicode="&#x26;" horiz-adv-x="833" 
d="M394 444l130 -176q39 65 69 90t70 25q39 0 64 -23.5t25 -62.5q0 -38 -22.5 -60t-56.5 -22q-35 0 -53 22.5t-18 49.5q0 5 2 13.5t2 14.5q0 11 -6 11q-11 0 -33.5 -30t-28.5 -46q60 -84 95 -120t63 -36q47 0 71 69l20 -7q-18 -67 -70.5 -120.5t-118.5 -53.5q-56 0 -95 29.5
t-83 85.5q-45 -55 -95.5 -85t-123.5 -30q-64 0 -109.5 46.5t-45.5 110.5q0 70 52 127t126 97q-22 30 -33.5 47.5t-24 50.5t-12.5 66q0 72 55.5 115t129.5 43q59 0 100.5 -29t41.5 -88q0 -40 -24 -72.5t-63 -51.5zM409 113l-176 234q-26 -17 -37.5 -32t-11.5 -42
q0 -48 55 -122.5t96 -74.5q39 0 74 37zM462 567q0 35 -25 61t-60 26q-36 0 -54.5 -16.5t-18.5 -42.5q0 -29 79 -136q79 41 79 108z" />
    <glyph glyph-name="quotesingle" unicode="'" horiz-adv-x="334" 
d="M133 416l-20 196q-2 32 -2 46q0 64 55 64q57 0 57 -64q0 -22 -3 -46l-20 -196q-1 -11 -9.5 -23t-24.5 -12q-15 0 -23.5 12t-9.5 23z" />
    <glyph glyph-name="parenleft" unicode="(" horiz-adv-x="389" 
d="M332 -214l-46 -42q-91 100 -143.5 236t-52.5 288t52.5 288t143.5 236l46 -42q-88 -105 -132 -220.5t-44 -261.5t44 -261.5t132 -220.5z" />
    <glyph glyph-name="parenright" unicode=")" horiz-adv-x="389" 
d="M57 750l46 42q91 -100 143.5 -236t52.5 -288t-52.5 -288t-143.5 -236l-46 42q88 105 132 220.5t44 261.5t-44 261.5t-132 220.5z" />
    <glyph glyph-name="asterisk" unicode="*" horiz-adv-x="610" 
d="M321 722q19 0 35 -63h26q27 0 27 -12q0 -4 -11.5 -16t-26.5 -27.5t-31 -43t-24 -57.5q38 13 68.5 39.5t46 47t19.5 20.5q14 0 12 -52q23 0 45 -6.5t23 -19.5q0 -5 -2.5 -9.5t-8 -10t-10 -9t-15 -10.5t-15.5 -11q14 -33 14 -44q0 -8 -11 -8l-22 12q-22 13 -60 24.5
t-78 8.5q14 -18 34.5 -33.5t38.5 -25t34.5 -16.5t26 -12t9.5 -8t-1 -5.5t-4.5 -4.5t-6.5 -4t-8.5 -3.5t-9 -3t-9.5 -3t-9 -2.5q10 -21 10 -46q0 -29 -16 -31q-4 -1 -9 0.5t-11 5.5t-11 8t-13.5 10.5t-14.5 10.5q-29 -26 -41 -26q-4 -1 -6.5 2.5t-2.5 8.5q13 42 13 85
q0 45 -18 78q-22 -31 -33.5 -73.5t-15.5 -68t-10 -25.5q-15 0 -31 38q-34 -27 -58 -27q-5 0 -10 5.5t-5 12.5q0 28 16 58q-4 3 -15.5 10t-17 12t-5.5 10q0 13 26 13q23 0 64.5 14.5t71.5 39.5q-33 10 -61 10q-25 0 -47.5 -5.5t-36.5 -10.5t-17 -5q-11 0 -11 6q0 11 21 47
q-6 8 -18.5 21t-18 20.5t-5.5 12.5q0 23 45 23q17 0 30 -4q5 46 19 46q5 0 18 -23t37.5 -56t56.5 -53q0 39 -15 73.5t-30.5 55.5t-15.5 26q0 10 11 10q5 0 13.5 -1.5t17.5 -4t12 -3.5q2 3 10 20t16 27.5t16 10.5z" />
    <glyph glyph-name="plus" unicode="+" horiz-adv-x="600" 
d="M244 197h-197v112h197v197h112v-197h197v-112h-197v-197h-112v197z" />
    <glyph glyph-name="comma" unicode="," horiz-adv-x="306" 
d="M76 -180l-4 18q122 51 122 145q0 19 -3 28q-23 -13 -56 -13q-30 0 -54 24t-24 59q0 45 26 68t59 23q55 0 81 -38t26 -98q0 -81 -46 -137t-127 -79z" />
    <glyph glyph-name="hyphen" unicode="-" horiz-adv-x="500" 
d="M267 303q38 0 164 6q-23 -45 -42 -112q-73 6 -147 6q-86 0 -173 -6q30 65 43 112q93 -6 155 -6z" />
    <glyph glyph-name="period" unicode="." horiz-adv-x="306" 
d="M60 79q0 38 27.5 65.5t65.5 27.5t65.5 -27.5t27.5 -65.5t-27.5 -65.5t-65.5 -27.5t-65.5 27.5t-27.5 65.5z" />
    <glyph glyph-name="slash" unicode="/" horiz-adv-x="444" 
d="M27 -18l285 740h105l-287 -740h-103z" />
    <glyph glyph-name="zero" unicode="0" horiz-adv-x="612" 
d="M38 352q0 97 22 170t61 114.5t85 61.5t100 20t100 -20t85 -61.5t61 -114.5t22 -170q0 -96 -26 -170t-67 -115t-85.5 -61t-89.5 -20t-89.5 20t-85.5 61t-67 115t-26 170zM236 599v-494q0 -50 15.5 -75t54.5 -25t54.5 25t15.5 75v494q0 50 -15.5 75t-54.5 25t-54.5 -25
t-15.5 -75z" />
    <glyph glyph-name="one" unicode="1" horiz-adv-x="612" 
d="M173 0v19h73v532q0 17 -12 17q-9 0 -39 -14t-66.5 -32t-52.5 -24v25q139 65 255 181h113v-685h73v-19h-344z" />
    <glyph glyph-name="two" unicode="2" horiz-adv-x="612" 
d="M546 209l-25 -209h-478q34 55 94 127.5t99 120.5t70 123t31 157q0 83 -25 124t-92 41q-45 0 -82.5 -26t-37.5 -69q26 8 51 8q26 0 51 -23t25 -57q0 -44 -26 -66t-66 -22q-42 0 -66 31t-24 73q0 76 58.5 126t150.5 50q125 0 203 -53.5t78 -169.5q0 -52 -21.5 -96
t-54.5 -72.5t-75 -54.5t-80 -42.5t-72 -36.5t-49 -37h335l9 53h19z" />
    <glyph glyph-name="three" unicode="3" horiz-adv-x="612" 
d="M353 133v131q0 60 -29 85.5t-83 25.5h-73v19h64q57 0 80.5 21.5t23.5 76.5v105q0 50 -17 76t-66 26q-30 0 -60.5 -15t-33.5 -45q40 5 64.5 -17.5t24.5 -60.5q0 -36 -21.5 -57t-57.5 -21q-37 0 -59.5 27.5t-23.5 66.5q-1 63 55.5 102t129.5 39q113 0 182 -42.5t69 -128.5
q0 -73 -56 -113.5t-134 -47.5v-2q96 -9 160.5 -58t64.5 -130q0 -71 -43.5 -120t-107 -69.5t-141.5 -20.5q-102 0 -156 44t-54 100q0 39 24 66t58 27q37 0 61.5 -21.5t24.5 -57.5q0 -43 -28 -63t-71 -20q40 -56 130 -56q47 0 73 35.5t26 92.5z" />
    <glyph glyph-name="four" unicode="4" horiz-adv-x="612" 
d="M245 0v19h64v185h-278v51l359 449h81v-406h95v-94h-95v-185h58v-19h-284zM309 298v266h-2l-209 -266h211z" />
    <glyph glyph-name="five" unicode="5" horiz-adv-x="612" 
d="M118 704h286q72 0 72 25h13q0 -78 -27 -123q-36 -58 -114 -58h-205l-15 -163q78 57 161 57q102 0 179.5 -57.5t77.5 -160.5q0 -110 -80.5 -174t-208.5 -64q-84 0 -143.5 40.5t-59.5 108.5q0 36 22.5 62t59.5 26q39 0 62.5 -24.5t23.5 -61.5q0 -79 -97 -88q49 -44 105 -44
q32 0 53.5 9t34.5 24.5t19.5 45t8.5 60t2 80.5q0 106 -27 146.5t-78 40.5q-57 0 -143 -74q22 114 22 264q0 64 -4 103z" />
    <glyph glyph-name="six" unicode="6" horiz-adv-x="612" 
d="M239 306v-185q0 -67 16 -91.5t49 -24.5q37 0 53 22t16 78v201q0 57 -14.5 78t-43.5 21q-76 0 -76 -99zM346 718q75 0 125 -27.5t50 -75.5q0 -35 -21.5 -58.5t-59.5 -23.5q-32 0 -53.5 22t-21.5 50q0 21 6.5 37t13.5 22.5t13.5 11.5t6.5 6q0 6 -15.5 11.5t-37.5 5.5
q-63 0 -88 -49.5t-25 -175.5v-85h2q26 29 53 41t68 12q94 0 151.5 -65t57.5 -155q0 -97 -79 -166.5t-178 -69.5q-74 0 -129 29t-85.5 79.5t-44.5 110.5t-14 131q0 98 38 185t109 142t158 55z" />
    <glyph glyph-name="seven" unicode="7" horiz-adv-x="612" 
d="M319 0h-137q97 247 287 542h-381l-9 -55h-21q22 118 30 217h484q-199 -403 -253 -704z" />
    <glyph glyph-name="eight" unicode="8" horiz-adv-x="612" 
d="M307 379q39 1 51 43.5t12 148.5q0 70 -12.5 99.5t-50.5 28.5q-38 1 -50.5 -28.5t-12.5 -99.5q0 -106 12 -148.5t51 -43.5zM37 179q0 40 16.5 72t37.5 50.5t57.5 33.5t59 21t59.5 14v2q-93 16 -145 63t-52 110q0 55 39 96t91.5 59t105.5 18q108 0 173 -52t65 -121
q0 -132 -195 -173v-2q92 -13 159 -61.5t67 -129.5q0 -66 -45 -111.5t-103.5 -63.5t-120.5 -18q-114 0 -191.5 47.5t-77.5 145.5zM229 182q0 -100 16.5 -138.5t60.5 -38.5t60.5 38.5t16.5 138.5q0 40 -3 69.5t-11 55.5t-23.5 39.5t-39.5 13.5q-44 0 -60.5 -47t-16.5 -131z
" />
    <glyph glyph-name="nine" unicode="9" horiz-adv-x="612" 
d="M308 699q-37 0 -53 -22t-16 -78v-201q0 -57 14.5 -78t43.5 -21q76 0 76 99v185q0 67 -16 91.5t-49 24.5zM266 -14q-75 0 -125 27.5t-50 75.5q0 35 21.5 58.5t59.5 23.5q32 0 53.5 -22t21.5 -50q0 -21 -6.5 -37t-13.5 -22.5t-13.5 -11.5t-6.5 -6q0 -6 15.5 -11.5
t37.5 -5.5q63 0 88 49.5t25 175.5v85h-2q-26 -29 -53 -41t-68 -12q-94 0 -151.5 65t-57.5 155q0 97 79 166.5t178 69.5q74 0 129 -29t85.5 -79.5t44.5 -110.5t14 -131q0 -98 -38 -185t-109 -142t-158 -55z" />
    <glyph glyph-name="colon" unicode=":" horiz-adv-x="306" 
d="M60 79q0 38 27.5 65.5t65.5 27.5t65.5 -27.5t27.5 -65.5t-27.5 -65.5t-65.5 -27.5t-65.5 27.5t-27.5 65.5zM60 378q0 38 27.5 65.5t65.5 27.5t65.5 -27.5t27.5 -65.5t-27.5 -65.5t-65.5 -27.5t-65.5 27.5t-27.5 65.5z" />
    <glyph glyph-name="semicolon" unicode=";" horiz-adv-x="306" 
d="M76 -180l-4 18q122 51 122 145q0 19 -3 28q-23 -13 -56 -13q-30 0 -54 24t-24 59q0 45 26 68t59 23q55 0 81 -38t26 -98q0 -81 -46 -137t-127 -79zM60 378q0 38 27.5 65.5t65.5 27.5t65.5 -27.5t27.5 -65.5t-27.5 -65.5t-65.5 -27.5t-65.5 27.5t-27.5 65.5z" />
    <glyph glyph-name="less" unicode="&#x3c;" horiz-adv-x="600" 
d="M553 100v-108l-506 216v90l506 216v-108l-363 -153z" />
    <glyph glyph-name="equal" unicode="=" horiz-adv-x="600" 
d="M553 415v-112h-506v112h506zM553 200v-112h-506v112h506z" />
    <glyph glyph-name="greater" unicode="&#x3e;" horiz-adv-x="600" 
d="M553 298v-90l-506 -216v108l363 153l-363 153v108z" />
    <glyph glyph-name="question" unicode="?" horiz-adv-x="500" 
d="M189 215v203q0 26 21 50.5t46 42t46 46.5t21 63q0 40 -27.5 64.5t-67.5 24.5q-48 0 -61 -35q68 -14 68 -81q0 -34 -24.5 -55t-58.5 -21q-33 0 -54 25.5t-21 62.5q0 56 45.5 86.5t105.5 30.5q85 0 140 -47t55 -130q0 -43 -16 -80.5t-40 -62.5t-51.5 -50t-51.5 -43
t-40 -40.5t-16 -44.5v-9h-19zM120 79q0 38 27.5 65.5t65.5 27.5t65.5 -27.5t27.5 -65.5t-27.5 -65.5t-65.5 -27.5t-65.5 27.5t-27.5 65.5z" />
    <glyph glyph-name="at" unicode="@" horiz-adv-x="800" 
d="M505 416q0 35 -8.5 50.5t-31.5 15.5q-43 0 -80 -54t-37 -134q0 -79 48 -79q37 0 68 50.5t41 150.5zM618 531l-55 -234q-6 -28 -6 -53q0 -44 28 -44q38 0 72.5 64.5t34.5 140.5q0 109 -72.5 177t-200.5 68q-47 0 -91.5 -18t-84.5 -54.5t-64.5 -102t-24.5 -150.5
q0 -114 78 -192.5t185 -78.5q72 0 120 13.5t100 41.5l10 -61q-117 -66 -229 -66q-95 0 -171 34.5t-120.5 89t-67.5 114t-23 116.5q0 169 112 277.5t271 108.5q149 0 247 -87t98 -229q0 -59 -22 -116t-68 -98t-105 -41q-46 0 -71 29t-24 48h-2q-7 -20 -44.5 -48.5
t-75.5 -28.5q-39 0 -71.5 31.5t-32.5 100.5q0 51 21 109.5t69.5 107t110.5 48.5q29 0 47.5 -10t32.5 -38l10 31h79z" />
    <glyph glyph-name="A" unicode="A" 
d="M322 250l-80 230h-2l-77 -230h159zM16 0v19h9q38 0 59 64l207 621h80l242 -685h38v-19h-292v19h45l-75 212h-172l-44 -134q-7 -23 -7 -44q0 -34 48 -34h14v-19h-152z" />
    <glyph glyph-name="B" unicode="B" horiz-adv-x="722" 
d="M290 368v-349h66q32 0 54.5 10.5t34.5 25.5t19 41t8.5 47.5t1.5 53.5q0 102 -33 136.5t-88 34.5h-63zM290 685v-298h35q75 0 102 31.5t27 116.5q0 27 -1.5 44.5t-7.5 39.5t-17.5 35t-33.5 22t-53 9h-51zM22 0v19h64v666h-64v19h365q118 0 185.5 -40t67.5 -113
q0 -140 -209 -173v-2q44 -3 84.5 -14.5t78.5 -32.5t61 -58.5t23 -85.5q0 -185 -305 -185h-351z" />
    <glyph glyph-name="C" unicode="C" horiz-adv-x="722" 
d="M657 228v-228h-19q0 36 -30 36q-14 0 -40.5 -13.5t-68.5 -27t-95 -13.5q-160 0 -264 108.5t-104 261.5q0 169 108 269.5t261 100.5q51 0 95.5 -14t72 -28.5t38.5 -14.5q27 0 27 39h19v-231h-19q-18 99 -71 164.5t-146 65.5q-26 0 -48 -6t-38 -15.5t-28 -27.5t-20 -34
t-14 -44.5t-8.5 -49.5t-4 -58t-2 -61.5t-0.5 -67.5q0 -39 0.5 -60.5t2 -55.5t4 -53.5t8.5 -46t14 -42t20.5 -33t28.5 -26.5t37.5 -15t48.5 -6q66 0 117.5 39t75 90t23.5 98h19z" />
    <glyph glyph-name="D" unicode="D" horiz-adv-x="778" 
d="M290 685v-666h34q40 0 72 11t53 28.5t36 45.5t22.5 54t12 63.5t5.5 64t1 65.5q0 67 -4 113.5t-16 91t-33.5 71t-57 42.5t-85.5 16h-40zM22 0v19h64v666h-64v19h357q164 0 263.5 -96.5t99.5 -252.5q0 -87 -30.5 -156t-83 -111.5t-120 -65t-143.5 -22.5h-343z" />
    <glyph glyph-name="E" unicode="E" 
d="M22 0v19h64v666h-64v19h570v-182h-19q-8 77 -50 120t-145 43h-88v-310h88q104 0 104 126h19v-273h-19q0 128 -108 128h-84v-337h74q118 0 166.5 48t64.5 144h19v-211h-592z" />
    <glyph glyph-name="F" unicode="F" horiz-adv-x="611" 
d="M22 0v19h64v666h-64v19h558v-182h-19q0 21 -8 46.5t-25.5 53t-51 45.5t-77.5 18h-109v-310h39q72 -1 105 27t33 99h19v-272h-19q0 53 -25 89t-76 38h-76v-337h64v-19h-332z" />
    <glyph glyph-name="G" unicode="G" horiz-adv-x="778" 
d="M464 241v19h296v-19h-52v-156q-1 -1 -27.5 -18t-38 -23.5t-42.5 -21t-56.5 -21.5t-63.5 -13t-78 -6q-173 0 -269.5 101.5t-96.5 261.5q0 158 101 267.5t259 109.5q54 0 97 -13t68 -25.5t35 -12.5q31 0 31 33h19v-234h-19q0 26 -11.5 62.5t-34 76t-65 67t-95.5 27.5
q-24 0 -43.5 -3.5t-35 -13t-27.5 -19t-21 -28t-15 -33t-10 -42t-6 -47t-3.5 -55t-1.5 -59v-66.5q0 -42 0.5 -66t2 -60.5t5.5 -58t11 -49t18 -43.5t26 -31t36.5 -21.5t48.5 -6.5q58 0 87 36t29 94v110h-58z" />
    <glyph glyph-name="H" unicode="H" horiz-adv-x="778" 
d="M22 0v19h64v666h-64v19h332v-19h-64v-310h198v310h-64v19h332v-19h-64v-666h64v-19h-332v19h64v337h-198v-337h64v-19h-332z" />
    <glyph glyph-name="I" unicode="I" horiz-adv-x="388" 
d="M28 0v19h64v666h-64v19h332v-19h-64v-666h64v-19h-332z" />
    <glyph glyph-name="J" unicode="J" horiz-adv-x="444" 
d="M78 685v19h332v-19h-64v-539q0 -61 -17 -105t-48 -67.5t-67 -34t-80 -10.5q-56 0 -95 23t-39 73q0 28 18.5 48t47.5 20q30 0 47 -18.5t17 -41.5q0 -26 -12 -40.5t-24 -20.5t-12 -11q0 -13 36 -13q26 0 43.5 18.5t17.5 55.5q0 24 -18.5 73t-18.5 82v508h-64z" />
    <glyph glyph-name="K" unicode="K" horiz-adv-x="778" 
d="M22 0v19h64v666h-64v19h332v-19h-64v-308l242 230q39 36 39 60q0 18 -43 18h-12v19h216v-19h-9q-46 0 -95 -30.5t-126 -106.5l-57 -56l276 -473h43v-19h-334v19h60l-188 340l-12 -9v-331h64v-19h-332z" />
    <glyph glyph-name="L" unicode="L" horiz-adv-x="611" 
d="M22 0v19h64v666h-64v19h332v-19h-64v-666h46q110 0 166.5 56t56.5 136h19v-211h-556z" />
    <glyph glyph-name="M" unicode="M" horiz-adv-x="889" 
d="M14 0v19q37 0 52.5 13.5t15.5 49.5v603h-64v19h270l155 -434h2l152 434h267v-19h-64v-666h64v-19h-326v19h64v627h-2l-226 -646h-41l-224 638h-2v-556q0 -36 15.5 -49.5t52.5 -13.5v-19h-161z" />
    <glyph glyph-name="N" unicode="N" horiz-adv-x="722" 
d="M16 0v19q44 0 63.5 13.5t19.5 57.5v510l-59 85h-26v19h253l348 -506h2v421q0 66 -73 66v19h164v-19q-66 0 -66 -66v-619h-126l-390 566h-2v-476q0 -46 15.5 -58.5t61.5 -12.5v-19h-185z" />
    <glyph glyph-name="O" unicode="O" horiz-adv-x="778" 
d="M742 352q0 -153 -97 -261.5t-256 -108.5t-256 108.5t-97 261.5t97 261.5t256 108.5t256 -108.5t97 -261.5zM258 352q0 -213 23 -282t108 -69t108 69t23 282t-23 282t-108 69t-108 -69t-23 -282z" />
    <glyph glyph-name="P" unicode="P" 
d="M290 685v-328h25q62 0 90 32.5t28 121.5q0 38 -1.5 60.5t-7 47t-16 37t-30 21t-47.5 8.5h-41zM22 0v19h64v666h-64v19h359q256 0 256 -177q0 -189 -283 -189h-64v-319h64v-19h-332z" />
    <glyph glyph-name="Q" unicode="Q" horiz-adv-x="778" 
d="M313 -109v99q-127 26 -202 127.5t-75 234.5q0 153 97 261.5t256 108.5t256 -108.5t97 -261.5q0 -135 -77 -237.5t-208 -125.5v-101q0 -45 17 -67.5t57 -22.5q35 0 71 14l4 -14q-47 -19 -138 -19q-155 0 -155 112zM258 352q0 -213 23 -282t108 -69t108 69t23 282t-23 282
t-108 69t-108 -69t-23 -282z" />
    <glyph glyph-name="R" unicode="R" horiz-adv-x="722" 
d="M22 0v19h64v666h-64v19h395q57 0 106 -17.5t83.5 -58.5t34.5 -98q0 -70 -55 -112.5t-130 -50.5v-2q178 -12 178 -127v-148q0 -37 7 -51t22 -14q24 0 43 44l13 -10q-18 -42 -49 -56.5t-84 -14.5q-63 0 -103.5 36t-40.5 100v106q0 64 -17.5 95t-62.5 31h-72v-337h64v-19
h-332zM290 685v-310h44q61 0 85 33.5t24 110.5q0 91 -22.5 128.5t-74.5 37.5h-56z" />
    <glyph glyph-name="S" unicode="S" horiz-adv-x="611" 
d="M500 704v-192h-19q-4 24 -16.5 53t-35.5 62t-63.5 54.5t-90.5 21.5q-53 0 -88 -35t-35 -88q0 -39 22.5 -62.5t58.5 -33t79.5 -16t86.5 -18.5t79 -33t58.5 -66t22.5 -112q0 -113 -67.5 -185t-191.5 -72q-46 0 -82.5 13.5t-60.5 27t-41 13.5t-25.5 -11t-8.5 -25h-19v216h19
q1 -21 10.5 -48.5t27.5 -56.5t42 -53.5t59 -40.5t73 -16q67 0 116 40t49 105q0 43 -22.5 68.5t-58.5 35.5t-79 16.5t-86.5 17.5t-79.5 31.5t-58.5 65t-22.5 111.5q0 98 62 164t166 66q39 0 75.5 -13.5t61 -27t34.5 -13.5q30 0 30 36h19z" />
    <glyph glyph-name="T" unicode="T" horiz-adv-x="666" 
d="M167 0v19h64v666q-46 0 -81.5 -16t-55 -38.5t-32.5 -51.5t-17 -51t-4 -41h-19v217h622v-217h-19q0 19 -4 41t-17 51t-32.5 51.5t-55 38.5t-81.5 16v-666h64v-19h-332z" />
    <glyph glyph-name="U" unicode="U" horiz-adv-x="722" 
d="M22 685v19h332v-19h-64v-513q0 -77 43.5 -115t104.5 -38q173 0 173 183v412q0 24 -5.5 39t-17.5 21.5t-22.5 8.5t-28.5 2v19h167v-19q-37 0 -52.5 -15t-15.5 -54v-420q0 -62 -19.5 -105.5t-55.5 -66.5t-78.5 -32.5t-97.5 -9.5q-60 0 -109.5 10t-94 33.5t-70 68.5
t-25.5 109v482h-64z" />
    <glyph glyph-name="V" unicode="V" 
d="M295 0l-241 685h-38v19h291v-19h-41l153 -454h2l124 358q10 33 10 58q0 22 -12 30t-39 8h-10v19h157v-19h-14q-22 0 -34.5 -16.5t-22.5 -46.5l-215 -622h-70z" />
    <glyph glyph-name="W" unicode="W" horiz-adv-x="1000" 
d="M664 0l-157 482h-2l-164 -482h-59l-229 685h-37v19h280v-19h-43l147 -437h2l91 268l-52 169h-43v19h284v-19h-43l140 -429h2l99 319q10 30 10 65q0 45 -49 45h-12v19h155v-19h-10q-22 0 -34.5 -18.5t-26.5 -62.5l-190 -604h-59z" />
    <glyph glyph-name="X" unicode="X" horiz-adv-x="722" 
d="M18 0v19h22q55 0 95 57l157 217l-208 392h-43v19h315v-19h-48l116 -209l95 134q22 29 22 50q0 25 -38 25h-13v19h174v-19h-11q-53 0 -95 -58l-123 -173l227 -435h42v-19h-319v19h54l-135 253l-123 -170q-23 -34 -23 -55q0 -28 39 -28h19v-19h-198z" />
    <glyph glyph-name="Y" unicode="Y" 
d="M169 0v19h64v295l-174 371h-37v19h298v-19h-43l150 -319l101 218q15 30 15 66q0 35 -48 35h-12v19h162v-19h-8q-23 0 -37.5 -15t-30.5 -50l-132 -284v-317h64v-19h-332z" />
    <glyph glyph-name="Z" unicode="Z" 
d="M84 492v212h551l-374 -685h93q59 0 102.5 13t67.5 31.5t40.5 50t22.5 56t12 61.5h19v-231h-586l371 685h-75q-69 0 -113 -13.5t-66.5 -43t-31 -58.5t-14.5 -78h-19z" />
    <glyph glyph-name="bracketleft" unicode="[" horiz-adv-x="389" 
d="M139 -214v964h204v-60h-138v-844h138v-60h-204z" />
    <glyph glyph-name="backslash" unicode="\" horiz-adv-x="444" 
d="M314 -18l-287 740h105l285 -740h-103z" />
    <glyph glyph-name="bracketright" unicode="]" horiz-adv-x="389" 
d="M46 -214v60h138v844h-138v60h204v-964h-204z" />
    <glyph glyph-name="asciicircum" unicode="^" horiz-adv-x="600" 
d="M415 339l-115 253l-116 -253h-109l175 365h100l175 -365h-110z" />
    <glyph glyph-name="underscore" unicode="_" horiz-adv-x="500" 
d="M500 -125h-500v50h500v-50z" />
    <glyph glyph-name="grave" unicode="`" horiz-adv-x="278" 
d="M156 525l-130 101q-3 2 -14.5 10.5t-16.5 12.5t-12.5 11.5t-10.5 15t-3 15.5q0 23 16 30.5t45 7.5q38 0 55 -15.5t34 -55.5l60 -133h-23z" />
    <glyph glyph-name="a" unicode="a" horiz-adv-x="556" 
d="M474 328v-263q0 -34 16 -34q5 0 9.5 2t9 6.5l7 7t7 8.5t5.5 7l13 -9q-23 -40 -52.5 -55.5t-75.5 -15.5q-64 0 -96 54q-35 -54 -138 -54q-58 0 -102.5 34.5t-44.5 90.5q0 30 10.5 54.5t24.5 40t41 27.5t45.5 17.5t54 10t50 5t48.5 2.5v121q0 67 -66 67q-21 0 -43.5 -9.5
t-22.5 -28.5q0 -8 17.5 -26t17.5 -43q0 -29 -24 -44t-54 -15t-48 18.5t-18 45.5q0 57 59.5 89t132.5 32q34 0 68 -6.5t69.5 -21t57.5 -44.5t22 -71zM306 85v160q-61 0 -83.5 -22.5t-22.5 -82.5q0 -70 11 -98.5t43 -28.5q26 0 39 20t13 52z" />
    <glyph glyph-name="b" unicode="b" 
d="M25 0v19h55v666h-55v19h75q53 0 101 7.5t59 17.5v-345h2q27 44 63 65.5t94 21.5q99 0 157.5 -69.5t58.5 -165.5q0 -102 -62 -173t-160 -71q-103 0 -151 77h-2v-69h-235zM260 312v-202q30 -75 98 -75q42 0 60.5 35t18.5 108v126q0 124 -77 124q-47 0 -73.5 -39t-26.5 -77z
" />
    <glyph glyph-name="c" unicode="c" horiz-adv-x="556" 
d="M504 141l20 -7q-30 -69 -80.5 -110.5t-138.5 -41.5q-112 0 -192.5 68.5t-80.5 175.5t80.5 176t192.5 69q75 0 134 -28.5t59 -87.5q0 -33 -22 -53.5t-57 -20.5q-30 0 -50.5 20t-20.5 49q0 25 10 41t20.5 24t10.5 14q0 23 -58 23q-29 0 -48.5 -10t-30 -24.5t-15.5 -47.5
t-6 -60.5t-1 -83.5q0 -43 0.5 -65.5t3.5 -52.5t10 -44.5t19 -30t30.5 -21t44.5 -5.5q51 0 98.5 39t67.5 95z" />
    <glyph glyph-name="d" unicode="d" 
d="M407 0v69h-2q-48 -77 -151 -77q-98 0 -160 71t-62 173q0 96 59 165.5t156 69.5q58 0 95 -21t63 -66h2v301h-55v19h75q53 0 101 7.5t59 17.5v-710h55v-19h-235zM407 110v202q0 38 -26.5 77t-73.5 39q-77 0 -77 -132v-132q0 -129 79 -129q68 0 98 75z" />
    <glyph glyph-name="e" unicode="e" horiz-adv-x="556" 
d="M230 260h114v110q0 82 -57 82q-32 0 -44.5 -24t-12.5 -84v-84zM524 241h-294v-103q0 -73 24.5 -102t73.5 -29q58 0 105 42t68 100l19 -6q-61 -161 -224 -161q-115 0 -189.5 67.5t-74.5 174.5q0 109 73.5 178t182.5 69q101 0 168.5 -67t67.5 -163z" />
    <glyph glyph-name="f" unicode="f" horiz-adv-x="389" 
d="M45 0v19h55v415h-55v19h55v52q0 102 55.5 159.5t152.5 57.5q62 0 100.5 -24t38.5 -69q0 -30 -18 -47.5t-48 -17.5t-48 18t-18 47q0 47 43 67q-12 7 -31 7q-47 0 -47 -61v-189h78v-19h-78v-415h55v-19h-290z" />
    <glyph glyph-name="g" unicode="g" horiz-adv-x="556" 
d="M138 120h207q100 0 137.5 -39t37.5 -107q0 -57 -20 -101t-49 -68t-68.5 -39t-71.5 -19.5t-65 -4.5q-87 0 -149.5 31t-62.5 90q0 72 105 96v2q-98 13 -98 112q0 46 29.5 85.5t77.5 54.5v2q-92 38 -92 119q0 61 64.5 99t142.5 38q88 0 137 -28q15 36 40 60.5t58 24.5
q26 0 41 -14.5t15 -39.5t-15.5 -38.5t-39.5 -13.5q-23 0 -37 18.5t-14 43.5q-17 -14 -32 -51q64 -43 64 -102q0 -71 -64 -109t-142 -38q-38 0 -71 8t-35 8q-19 0 -48.5 -19t-29.5 -34q0 -27 48 -27zM366 -42h-175q-34 0 -59.5 -27t-25.5 -64q0 -49 45.5 -74.5t112.5 -25.5
q86 0 146.5 39.5t60.5 91.5q0 34 -27 47t-78 13zM212 381v-107q0 -30 14.5 -50.5t41.5 -20.5t41.5 20.5t14.5 50.5v107q0 30 -14.5 50.5t-41.5 20.5t-41.5 -20.5t-14.5 -50.5z" />
    <glyph glyph-name="h" unicode="h" 
d="M25 0v19h55v666h-55v19h75q53 0 101 7.5t59 17.5v-345h2q54 87 168 87q72 0 114.5 -39.5t42.5 -121.5v-291h55v-19h-290v19h55v351q0 64 -49 64q-35 -1 -66.5 -39.5t-31.5 -76.5v-299h55v-19h-290z" />
    <glyph glyph-name="i" unicode="i" horiz-adv-x="334" 
d="M22 0v19h55v415h-55v19h60q137 0 175 18v-452h55v-19h-290zM74 625q0 38 27.5 65.5t65.5 27.5t65.5 -27.5t27.5 -65.5t-27.5 -65.5t-65.5 -27.5t-65.5 27.5t-27.5 65.5z" />
    <glyph glyph-name="j" unicode="j" horiz-adv-x="334" 
d="M257 471v-504q0 -105 -46 -165t-144 -60q-44 0 -73 21.5t-29 52.5q0 24 15.5 42t39.5 18q26 0 41.5 -14.5t15.5 -38.5q0 -16 -9 -32t-9 -20q0 -10 18 -10q24 0 35 17.5t11 40.5q0 20 -23 64t-23 67v484h-55v19h60q137 0 175 18zM74 625q0 38 27.5 65.5t65.5 27.5
t65.5 -27.5t27.5 -65.5t-27.5 -65.5t-65.5 -27.5t-65.5 27.5t-27.5 65.5z" />
    <glyph glyph-name="k" unicode="k" 
d="M25 0v19h55v666h-55v19h75q53 0 101 7.5t59 17.5v-501l157 130q4 4 14 11.5t14.5 11.5t11 10.5t9 12t2.5 10.5q0 9 -6 13.5t-14 5.5t-24 1h-14v19h198v-19h-20q-45 0 -91 -37l-69 -56l198 -322h31v-19h-293v19h49l-126 208l-27 -22v-186h55v-19h-290z" />
    <glyph glyph-name="l" unicode="l" horiz-adv-x="334" 
d="M22 0v19h55v666h-55v19h75q53 0 101 7.5t59 17.5v-710h55v-19h-290z" />
    <glyph glyph-name="m" unicode="m" horiz-adv-x="944" 
d="M17 0v19h50v415h-50v19h55q137 0 175 18v-87h2q51 87 160 87q50 0 88.5 -23.5t59.5 -67.5q22 45 68.5 68t101.5 23q63 0 106.5 -35.5t43.5 -109.5v-307h50v-19h-280v19h50v323q0 45 -10.5 65.5t-38.5 20.5q-32 0 -59 -34t-27 -82v-293h50v-19h-280v19h50v323
q0 45 -10 65.5t-35 20.5q-32 0 -61 -38t-29 -85v-286h50v-19h-280z" />
    <glyph glyph-name="n" unicode="n" 
d="M25 0v19h55v415h-55v19h60q137 0 175 18v-87h2q51 87 160 87q77 0 121 -39.5t44 -121.5v-291h55v-19h-290v19h55v351q0 64 -49 64q-34 0 -66 -40.5t-32 -83.5v-291h55v-19h-290z" />
    <glyph glyph-name="o" unicode="o" horiz-adv-x="611" 
d="M32 226q0 107 80.5 176t192.5 69q113 0 193.5 -69t80.5 -176t-80.5 -175.5t-193.5 -68.5q-112 0 -192.5 68.5t-80.5 175.5zM381 106v241q0 105 -76 105q-75 0 -75 -105v-241q0 -105 75 -105q76 0 76 105z" />
    <glyph glyph-name="p" unicode="p" 
d="M260 312v-202q30 -75 98 -75q42 0 60.5 35t18.5 108v126q0 124 -77 124q-47 0 -73.5 -39t-26.5 -77zM25 -251v19h55v666h-55v19h60q137 0 175 18v-87h2q27 44 63 65.5t94 21.5q99 0 157.5 -69.5t58.5 -165.5q0 -102 -62 -173t-160 -71q-103 0 -151 77h-2v-301h55v-19
h-290z" />
    <glyph glyph-name="q" unicode="q" 
d="M352 -251v19h55v301h-2q-48 -77 -151 -77q-98 0 -160 71t-62 173q0 96 59 165.5t156 69.5q58 0 95 -21t63 -66h2v87q20 -10 76 -15q47 -3 99 -3h60v-19h-55v-666h55v-19h-290zM407 110v202q0 38 -26.5 77t-73.5 39q-77 0 -77 -132v-132q0 -129 79 -129q68 0 98 75z" />
    <glyph glyph-name="r" unicode="r" horiz-adv-x="500" 
d="M22 0v19h55v415h-55v19h60q137 0 175 18v-86h2q38 86 129 86q47 0 74 -26.5t27 -69.5q0 -39 -25.5 -64.5t-64.5 -25.5q-37 0 -60.5 22.5t-23.5 58.5q0 55 37 78v2q-46 -16 -70.5 -60t-24.5 -107v-260h55v-19h-290z" />
    <glyph glyph-name="s" unicode="s" horiz-adv-x="444" 
d="M359 471v-128h-13q-30 109 -130 109q-43 0 -72.5 -18.5t-29.5 -53.5q0 -37 29.5 -50.5t72 -15t85 -7.5t72 -40.5t29.5 -101.5q0 -79 -49 -131t-131 -52q-44 0 -80 12.5t-46 12.5q-27 0 -27 -29h-13v165h13q12 -64 52 -103t99 -39q42 0 73 21.5t31 62.5q0 37 -29 51.5
t-70.5 16.5t-83 8.5t-70.5 39.5t-29 98q0 76 46 124t129 48q31 0 62 -9q7 -1 16 -3.5t14.5 -4t9.5 -1.5q21 0 27 18h13z" />
    <glyph glyph-name="t" unicode="t" horiz-adv-x="389" 
d="M77 108v326h-39v19q68 0 135.5 77.5t67.5 129.5h16v-207h91v-19h-91v-322q0 -70 37 -70q29 0 53 40l12 -9q-45 -91 -156 -91q-62 0 -94 35.5t-32 90.5z" />
    <glyph glyph-name="u" unicode="u" 
d="M80 117v317h-55v19h60q137 0 175 18v-347q0 -46 10 -66.5t37 -20.5q44 0 72 40.5t28 70.5v286h-55v19h60q137 0 175 18v-452h55v-19h-236v83h-2q-54 -95 -178 -95q-67 0 -106.5 36t-39.5 93z" />
    <glyph glyph-name="v" unicode="v" horiz-adv-x="500" 
d="M235 -6l-185 440h-37v19h270v-19h-42l91 -243h2l59 163q12 32 12 54q0 26 -36 26h-21v19h139v-19h-4q-13 0 -23 -5.5t-17.5 -17.5t-10 -18t-8.5 -20l-145 -379h-44z" />
    <glyph glyph-name="w" unicode="w" horiz-adv-x="778" 
d="M227 -6l-185 440h-41v19h268v-19h-36l91 -243h2l52 143l-42 100h-37v19h264v-19h-36l91 -243h2l59 163q12 32 12 54q0 26 -36 26h-21v19h143v-19h-8q-13 0 -23 -5.5t-17.5 -17.5t-10 -18t-8.5 -20l-145 -379h-44l-131 311l-119 -311h-44z" />
    <glyph glyph-name="x" unicode="x" horiz-adv-x="611" 
d="M18 0v19h17q45 0 113 68l86 86l-175 261h-40v19h302v-19h-43l83 -124l47 49q27 29 27 50q0 12 -14 18.5t-29 6.5h-15v19h198v-19h-12q-46 0 -93 -47l-95 -97l181 -271h37v-19h-298v19h43l-89 133l-51 -50q-26 -26 -26 -53q0 -30 44 -30h18v-19h-216z" />
    <glyph glyph-name="y" unicode="y" horiz-adv-x="500" 
d="M488 453v-19h-3q-33 0 -62 -70l-162 -412q-6 -49 -13 -81.5t-20.5 -64.5t-37 -48t-57.5 -16q-33 0 -54.5 18.5t-21.5 52.5q0 27 18.5 47t48.5 20q25 0 45 -18t20 -44t-10 -37l2 -2q27 17 40 62.5t21 129.5l-193 463h-37v19h272v-19h-43l90 -241h2l60 163q11 30 11 50
q0 13 -13.5 20.5t-32.5 7.5h-14v19h144z" />
    <glyph glyph-name="z" unicode="z" horiz-adv-x="556" 
d="M487 163v-163h-457l266 434h-42q-45 0 -78.5 -15.5t-50.5 -40t-25 -46.5t-9 -44h-19v165h440l-260 -434h48q47 0 77.5 9t48.5 30t26.5 44t15.5 61h19z" />
    <glyph glyph-name="braceleft" unicode="{" horiz-adv-x="334" 
d="M112 -62v206q0 55 -15.5 82.5t-60.5 41.5q45 14 60.5 41.5t15.5 82.5v206q0 93 41 122.5t145 29.5v-19q-72 -7 -96 -36.5t-24 -90.5v-196q0 -63 -16 -94.5t-65 -44.5v-2q49 -13 65 -44.5t16 -94.5v-196q0 -61 24 -90.5t96 -36.5v-19q-104 0 -145 29.5t-41 122.5z" />
    <glyph glyph-name="bar" unicode="|" horiz-adv-x="222" 
d="M55 -18v740h112v-740h-112z" />
    <glyph glyph-name="braceright" unicode="}" horiz-adv-x="334" 
d="M156 -68v196q0 63 16 94.5t65 44.5v2q-49 13 -65 44.5t-16 94.5v196q0 61 -24 90.5t-96 36.5v19q104 0 145 -29.5t41 -122.5v-206q0 -55 15.5 -82.5t60.5 -41.5q-45 -14 -60.5 -41.5t-15.5 -82.5v-206q0 -93 -41 -122.5t-145 -29.5v19q72 7 96 36.5t24 90.5z" />
    <glyph glyph-name="asciitilde" unicode="~" horiz-adv-x="600" 
d="M495 346l36 -96q-20 -27 -33 -42t-38 -29.5t-54 -14.5q-39 0 -102.5 32.5t-107.5 32.5q-60 0 -91 -69l-36 95q20 27 33 42t38 29.5t54 14.5q39 0 102.5 -32.5t107.5 -32.5q60 0 91 70z" />
    <glyph glyph-name="uni00A0" unicode="&#xa0;" horiz-adv-x="306" 
 />
    <glyph glyph-name="exclamdown" unicode="&#xa1;" horiz-adv-x="390" 
d="M185 257h19q5 -123 27.5 -219.5t80.5 -169.5q-43 -16 -73 -52t-41 -81h-6q-11 45 -41 81t-73 52q59 73 81 170t26 219zM288 378q0 -38 -27.5 -65.5t-65.5 -27.5t-65.5 27.5t-27.5 65.5t27.5 65.5t65.5 27.5t65.5 -27.5t27.5 -65.5z" />
    <glyph glyph-name="cent" unicode="&#xa2;" horiz-adv-x="612" 
d="M257 291v-142q0 -68 25 -103t83 -35q51 0 98.5 39t68.5 95l21 -7q-14 -31 -30.5 -54.5t-40.5 -46.5t-59 -36t-79 -15v-111h-31v111q-102 6 -178 71.5t-76 167.5q0 107 74 173.5t180 72.5v86h31v-86q41 0 80 -10t70 -37t31 -67q0 -33 -22 -53.5t-57 -20.5q-30 0 -50.5 20
t-20.5 49q0 24 10.5 39.5t20.5 23.5t10 14q0 23 -58 23q-62 0 -81.5 -39.5t-19.5 -121.5z" />
    <glyph glyph-name="sterling" unicode="&#xa3;" horiz-adv-x="612" 
d="M78 316v31h66q-75 64 -75 163q0 68 42 117t102.5 70t131.5 21q104 0 157 -52.5t53 -132.5q0 -36 -26 -64t-68 -28q-34 0 -56.5 24t-22.5 56q0 35 20.5 58.5t53.5 23.5q31 0 50 -8q0 46 -34.5 72t-83.5 26q-72 0 -96.5 -51t-24.5 -156q0 -61 6 -139h128v-31h-128
q0 -8 9 -116q12 -4 46.5 -16.5t51.5 -18.5t45.5 -11.5t52.5 -5.5q39 0 61.5 24.5t22.5 61.5h19q-1 -52 -19.5 -107t-59.5 -98t-93 -43q-12 0 -23.5 3t-24 10t-22 12.5t-23 16.5t-19.5 16.5t-19.5 18t-16.5 15.5q-41 -82 -124 -82q-48 0 -77 32t-29 78q0 54 35.5 89.5
t91.5 35.5q37 0 103 -24q-18 41 -86 109h-97zM56 92q0 -31 24 -54t55 -23q81 0 111 77q-19 22 -31 33t-36.5 22.5t-52.5 11.5q-31 0 -50.5 -18t-19.5 -49z" />
    <glyph glyph-name="currency" unicode="&#xa4;" horiz-adv-x="612" 
d="M107 84l-62 62l57 56q-46 63 -46 143t45 144l-56 55l63 62l55 -55q65 46 145 46q79 0 143 -45l53 54l63 -62l-53 -53q46 -67 46 -146q0 -81 -46 -146l53 -53l-61 -62l-54 54q-65 -45 -144 -45q-80 0 -146 47zM308 205q58 0 99 41t41 99t-41 99t-99 41t-99 -41t-41 -99
t41 -99t99 -41z" />
    <glyph glyph-name="yen" unicode="&#xa5;" horiz-adv-x="612" 
d="M160 0v19h69v171h-123v37h123v83h-123v37h122l-145 338h-60v19h298v-19h-60l121 -329l89 228q17 42 17 66q0 35 -48 35h-13v19h162v-19h-7q-23 0 -38.5 -15.5t-29.5 -49.5l-112 -273h118v-37h-123v-83h123v-37h-123v-171h69v-19h-306z" />
    <glyph glyph-name="brokenbar" unicode="&#xa6;" horiz-adv-x="222" 
d="M55 -18v276h112v-276h-112zM55 446v276h112v-276h-112z" />
    <glyph glyph-name="section" unicode="&#xa7;" horiz-adv-x="610" 
d="M216 220l217 -110q14 9 26.5 26.5t12.5 32.5q0 13 -2.5 23.5t-9 19.5t-11 15t-15.5 13t-16.5 10t-19.5 10l-18 9l-148 76q-21 10 -51 33q-36 -27 -36 -66q0 -26 10.5 -43.5t22 -25.5t38.5 -23zM73 212q0 51 26.5 101t68.5 77q-50 45 -50 134q0 93 59.5 145.5t151.5 52.5
q63 0 109.5 -28.5t46.5 -89.5q0 -37 -22 -60t-58 -23q-30 0 -50 21.5t-20 51.5q0 28 19 49.5t47 21.5q10 0 28 -4q-20 42 -91 42q-51 0 -85.5 -23t-34.5 -72q0 -41 33 -70t80 -49.5t94 -44t80 -67.5t33 -107q0 -102 -90 -174q64 -47 64 -146q0 -92 -60.5 -146.5
t-152.5 -54.5q-80 0 -132.5 30.5t-52.5 92.5q0 35 22 57t57 22q37 0 60 -19.5t23 -55.5q0 -32 -20.5 -50.5t-52.5 -18.5q-9 0 -25 2q29 -41 115 -41q48 0 83.5 24.5t35.5 72.5q0 26 -14.5 47.5t-38.5 35t-54.5 28.5t-62 27.5t-62 31.5t-54.5 41.5t-38.5 57.5t-14.5 78z" />
    <glyph glyph-name="dieresis" unicode="&#xa8;" horiz-adv-x="278" 
d="M170 622q0 34 25 59t59 25t59 -25t25 -59t-25 -59t-59 -25t-59 25t-25 59zM-60 622q0 34 25 59t59 25t59 -25t25 -59t-25 -59t-59 -25t-59 25t-25 59z" />
    <glyph glyph-name="copyright" unicode="&#xa9;" horiz-adv-x="800" 
d="M572 274l-17 -90q-59 -32 -136 -32q-106 0 -164.5 54.5t-58.5 157.5q0 37 11.5 70.5t36.5 65.5t73.5 51.5t114.5 19.5q79 0 123 -35v-84h-25q-10 39 -34.5 66.5t-65.5 27.5q-51 0 -77 -47.5t-27 -128.5q-2 -193 102 -193q39 0 70.5 26.5t48.5 70.5h25zM30 352
q0 153 108.5 261.5t261.5 108.5t261.5 -108.5t108.5 -261.5t-108.5 -261.5t-261.5 -108.5t-261.5 108.5t-108.5 261.5zM114 352q0 -119 83 -205.5t203 -86.5t203 86.5t83 205.5t-83 205.5t-203 86.5t-203 -86.5t-83 -205.5z" />
    <glyph glyph-name="ordfeminine" unicode="&#xaa;" horiz-adv-x="361" 
d="M311 632v-158q0 -19 9 -19t23 17l9 -5q-30 -43 -84 -43q-44 0 -62 33q-23 -33 -90 -33q-39 0 -68.5 20.5t-29.5 54.5q0 21 7.5 37t25 26t31 16t39.5 9t36.5 4t35.5 2v73q0 39 -37 39q-43 0 -43 -25q0 -4 10.5 -13.5t10.5 -24.5q0 -41 -49 -41q-20 0 -32.5 14.5
t-12.5 34.5q0 33 38.5 50.5t88.5 17.5q23 0 46 -4t46 -12.5t37.5 -26.5t14.5 -43zM193 486v94q-57 -1 -57 -72q0 -36 5.5 -50.5t23.5 -14.5q13 0 20.5 12t7.5 31z" />
    <glyph glyph-name="guillemotleft" unicode="&#xab;" horiz-adv-x="610" 
d="M120 253l143 174h78l-143 -174l143 -174h-78zM271 253l141 174h78l-142 -174l142 -174h-78z" />
    <glyph glyph-name="logicalnot" unicode="&#xac;" horiz-adv-x="600" 
d="M441 108v195h-394v112h506v-307h-112z" />
    <glyph glyph-name="uni00AD" unicode="&#xad;" horiz-adv-x="500" 
d="M267 303q38 0 164 6q-23 -45 -42 -112q-73 6 -147 6q-86 0 -173 -6q30 65 43 112q93 -6 155 -6z" />
    <glyph glyph-name="registered" unicode="&#xae;" horiz-adv-x="800" 
d="M229 163v19q15 0 22.5 1t14.5 8.5t7 22.5v293q0 14 -7 21t-14.5 8t-22.5 1v21h201q55 0 89.5 -26.5t34.5 -78.5q0 -81 -82 -104l59 -115q2 -3 8 -13.5t8 -13t7 -9.5t8 -9.5t8 -6t10 -4.5t11 -1v-14h-90q-15 3 -25 13.5t-22 33.5l-62 127h-29v-123q-1 -15 5 -22.5t14 -8.5
t25 -1v-19h-178zM363 362h31q54 0 54 90q0 81 -50 81h-35v-171zM30 352q0 153 108.5 261.5t261.5 108.5t261.5 -108.5t108.5 -261.5t-108.5 -261.5t-261.5 -108.5t-261.5 108.5t-108.5 261.5zM114 352q0 -119 83 -205.5t203 -86.5t203 86.5t83 205.5t-83 205.5t-203 86.5
t-203 -86.5t-83 -205.5z" />
    <glyph glyph-name="macron" unicode="&#xaf;" horiz-adv-x="278" 
d="M-32 572v78h342v-78h-342z" />
    <glyph glyph-name="degree" unicode="&#xb0;" horiz-adv-x="400" 
d="M57 575q0 59 42 101t101 42t101 -42t42 -101t-42 -101t-101 -42t-101 42t-42 101zM200 492q34 0 58.5 24t24.5 59t-24.5 59t-58.5 24t-58.5 -24t-24.5 -59t24.5 -59t58.5 -24z" />
    <glyph glyph-name="plusminus" unicode="&#xb1;" horiz-adv-x="600" 
d="M244 382v124h112v-124h197v-112h-197v-125h-112v125h-197v112h197zM47 0v112h506v-112h-506z" />
    <glyph glyph-name="twosuperior" unicode="&#xb2;" horiz-adv-x="397" 
d="M364 418l-16 -131h-315q32 54 114 143q41 45 57 85.5t16 88.5q0 49 -15.5 72t-56.5 23q-29 0 -54 -15t-24 -38q19 7 33 7q21 0 35.5 -13.5t14.5 -40.5q0 -52 -60 -52q-29 0 -44.5 19t-15.5 46q0 48 38.5 77t104.5 29q79 0 129.5 -32t50.5 -102q0 -45 -31.5 -80.5
t-70 -52.5t-75.5 -34.5t-43 -29.5h206l6 31h16z" />
    <glyph glyph-name="threesuperior" unicode="&#xb3;" horiz-adv-x="397" 
d="M220 367v89q0 31 -16 42t-56 11h-39v19h35q71 0 71 54v58q0 32 -11 45.5t-40 13.5q-21 0 -40 -7t-21 -19q27 0 44 -12.5t17 -36.5t-14.5 -37.5t-40.5 -13.5q-28 0 -42.5 15.5t-14.5 41.5q-1 43 40 65.5t93 22.5q64 0 109 -25.5t45 -77.5q0 -43 -36.5 -68t-87.5 -28v-2
q149 -11 149 -112q0 -63 -55.5 -94.5t-132.5 -31.5q-68 0 -105.5 24.5t-37.5 61.5q0 25 15.5 41.5t38.5 16.5q26 0 42 -13t16 -37q0 -48 -65 -50q20 -25 79 -25q61 0 61 69z" />
    <glyph glyph-name="acute" unicode="&#xb4;" horiz-adv-x="278" 
d="M93 525l60 133q17 40 34 55.5t55 15.5q29 0 45 -7.5t16 -30.5q0 -8 -3 -15.5t-10.5 -15t-12.5 -11.5t-16.5 -12.5t-14.5 -10.5l-130 -101h-23z" />
    <glyph glyph-name="mu" unicode="&#xb5;" 
d="M80 76v358h-55v19h60q137 0 175 18v-347q0 -46 10 -66.5t37 -20.5q44 0 72 40.5t28 70.5v286h-55v19h60q137 0 175 18v-452h55v-19h-236v83h-2q-25 -45 -71 -70t-97 -25q-23 0 -34 10q2 -43 12.5 -99t10.5 -78q0 -38 -25.5 -58.5t-53.5 -20.5q-32 0 -55.5 20t-23.5 59
q0 22 6.5 104t6.5 151z" />
    <glyph glyph-name="paragraph" unicode="&#xb6;" horiz-adv-x="620" 
d="M117 -233v19h85v506q-161 0 -161 206t161 206h380v-19h-85v-899h85v-19h-197v918h-71v-918h-197z" />
    <glyph glyph-name="periodcentered" unicode="&#xb7;" horiz-adv-x="306" 
d="M57 269q0 40 28 68t68 28t68 -28t28 -68t-28 -68t-68 -28t-68 28t-28 68z" />
    <glyph glyph-name="cedilla" unicode="&#xb8;" horiz-adv-x="278" 
d="M96 -100l63 100h30l-50 -79l2 -2q21 8 55 8q36 0 61 -17t25 -54q0 -26 -12.5 -43t-35.5 -24t-42 -9t-45 -2q-59 0 -104 15l8 20q34 -10 64 -10q27 0 47 11.5t20 37.5q0 21 -11.5 32.5t-30.5 11.5q-14 0 -33 -8z" />
    <glyph glyph-name="onesuperior" unicode="&#xb9;" horiz-adv-x="397" 
d="M102 287v19h47v304q0 16 -11 16q-2 0 -98 -48v26q84 36 166 106h73v-404h47v-19h-224z" />
    <glyph glyph-name="ordmasculine" unicode="&#xba;" horiz-adv-x="397" 
d="M376 571q0 -59 -48.5 -103t-129.5 -44t-129 44t-48 103t48 103t129 44t129.5 -44t48.5 -103zM240 505v132q0 68 -42 68q-41 0 -41 -68v-132q0 -68 41 -68q42 0 42 68z" />
    <glyph glyph-name="guillemotright" unicode="&#xbb;" horiz-adv-x="610" 
d="M263 253l-143 174h79l141 -174l-141 -174h-79zM413 253l-144 174h79l142 -174l-142 -174h-79z" />
    <glyph glyph-name="onequarter" unicode="&#xbc;" horiz-adv-x="916" 
d="M656 0v19h41v98h-177v48l221 258h74v-240h61v-66h-61v-98h37v-19h-196zM697 183v156h-1l-135 -156h136zM256 -18h-44l449 740h44zM102 287v19h47v304q0 16 -11 16q-2 0 -98 -48v26q84 36 166 106h73v-404h47v-19h-224z" />
    <glyph glyph-name="onehalf" unicode="&#xbd;" horiz-adv-x="916" 
d="M247 -18h-44l449 740h44zM876 131l-16 -131h-315q32 54 114 143q41 45 57 85.5t16 88.5q0 49 -15.5 72t-56.5 23q-29 0 -54 -15t-24 -38q19 7 33 7q21 0 35.5 -13.5t14.5 -40.5q0 -52 -60 -52q-29 0 -44.5 19t-15.5 46q0 48 38.5 77t104.5 29q79 0 129.5 -32t50.5 -102
q0 -45 -31.5 -80.5t-70 -52.5t-75.5 -34.5t-43 -29.5h206l6 31h16zM102 287v19h47v304q0 16 -11 16q-2 0 -98 -48v26q84 36 166 106h73v-404h47v-19h-224z" />
    <glyph glyph-name="threequarters" unicode="&#xbe;" horiz-adv-x="916" 
d="M656 0v19h41v98h-177v48l221 258h74v-240h61v-66h-61v-98h37v-19h-196zM697 183v156h-1l-135 -156h136zM256 -18h-44l449 740h44zM227 367v89q0 31 -16 42t-56 11h-39v19h35q71 0 71 54v58q0 32 -11 45.5t-40 13.5q-21 0 -40 -7t-21 -19q27 0 44 -12.5t17 -36.5
t-14.5 -37.5t-40.5 -13.5q-28 0 -42.5 15.5t-14.5 41.5q-1 43 40 65.5t93 22.5q64 0 109 -25.5t45 -77.5q0 -43 -36.5 -68t-87.5 -28v-2q149 -11 149 -112q0 -63 -55.5 -94.5t-132.5 -31.5q-68 0 -105.5 24.5t-37.5 61.5q0 25 15.5 41.5t38.5 16.5q26 0 42 -13t16 -37
q0 -48 -65 -50q20 -25 79 -25q61 0 61 69z" />
    <glyph glyph-name="questiondown" unicode="&#xbf;" horiz-adv-x="500" 
d="M311 242v-203q0 -26 -21 -50.5t-46 -42t-46 -46.5t-21 -63q0 -40 27.5 -64.5t67.5 -24.5q48 0 61 35q-68 14 -68 81q0 34 24.5 55t58.5 21q33 0 54 -25.5t21 -62.5q0 -56 -45.5 -86.5t-105.5 -30.5q-85 0 -140 47t-55 130q0 43 16 80.5t40 62.5t51.5 50t51.5 43t40 40.5
t16 44.5v9h19zM380 378q0 -38 -27.5 -65.5t-65.5 -27.5t-65.5 27.5t-27.5 65.5t27.5 65.5t65.5 27.5t65.5 -27.5t27.5 -65.5z" />
    <glyph glyph-name="Agrave" unicode="&#xc0;" 
d="M322 250l-80 230h-2l-77 -230h159zM16 0v19h9q38 0 59 64l207 621h80l242 -685h38v-19h-292v19h45l-75 212h-172l-44 -134q-7 -23 -7 -44q0 -34 48 -34h14v-19h-152zM351 754l-130 101q-3 2 -14.5 10.5t-16.5 12.5t-12.5 11.5t-10.5 15t-3 15.5q0 23 16 30.5t45 7.5
q38 0 55 -15.5t34 -55.5l60 -133h-23z" />
    <glyph glyph-name="Aacute" unicode="&#xc1;" 
d="M322 250l-80 230h-2l-77 -230h159zM16 0v19h9q38 0 59 64l207 621h80l242 -685h38v-19h-292v19h45l-75 212h-172l-44 -134q-7 -23 -7 -44q0 -34 48 -34h14v-19h-152zM288 754l60 133q17 40 34 55.5t55 15.5q29 0 45 -7.5t16 -30.5q0 -8 -3 -15.5t-10.5 -15t-12.5 -11.5
t-16.5 -12.5t-14.5 -10.5l-130 -101h-23z" />
    <glyph glyph-name="Acircumflex" unicode="&#xc2;" 
d="M322 250l-80 230h-2l-77 -230h159zM16 0v19h9q38 0 59 64l207 621h80l242 -685h38v-19h-292v19h45l-75 212h-172l-44 -134q-7 -23 -7 -44q0 -34 48 -34h14v-19h-152zM172 754l111 204h103l110 -204h-25l-139 114l-135 -114h-25z" />
    <glyph glyph-name="Atilde" unicode="&#xc3;" 
d="M322 250l-80 230h-2l-77 -230h159zM16 0v19h9q38 0 59 64l207 621h80l242 -685h38v-19h-292v19h45l-75 212h-172l-44 -134q-7 -23 -7 -44q0 -34 48 -34h14v-19h-152zM492 931h25q0 -54 -25.5 -95t-75.5 -41q-32 0 -104 23t-83 23q-53 0 -53 -46h-25q0 54 25.5 95t75.5 41
q32 0 104 -23t83 -23q53 0 53 46z" />
    <glyph glyph-name="Adieresis" unicode="&#xc4;" 
d="M322 250l-80 230h-2l-77 -230h159zM16 0v19h9q38 0 59 64l207 621h80l242 -685h38v-19h-292v19h45l-75 212h-172l-44 -134q-7 -23 -7 -44q0 -34 48 -34h14v-19h-152zM365 851q0 35 24.5 59.5t59.5 24.5t59.5 -24.5t24.5 -59.5t-24.5 -59.5t-59.5 -24.5t-59.5 24.5
t-24.5 59.5zM135 851q0 35 24.5 59.5t59.5 24.5t59.5 -24.5t24.5 -59.5t-24.5 -59.5t-59.5 -24.5t-59.5 24.5t-24.5 59.5z" />
    <glyph glyph-name="Aring" unicode="&#xc5;" 
d="M322 250l-80 230h-2l-77 -230h159zM16 0v19h9q38 0 59 64l207 621h80l242 -685h38v-19h-292v19h45l-75 212h-172l-44 -134q-7 -23 -7 -44q0 -34 48 -34h14v-19h-152zM225 836q0 43 30 73t73 30t73 -30t30 -73t-30 -73t-73 -30t-73 30t-30 73zM262 836q0 -27 19.5 -46.5
t46.5 -19.5t46.5 19.5t19.5 46.5t-19.5 46.5t-46.5 19.5t-46.5 -19.5t-19.5 -46.5z" />
    <glyph glyph-name="AE" unicode="&#xc6;" horiz-adv-x="1000" 
d="M442 250v423h-2l-231 -423h233zM16 0v19h11q20 0 34.5 17.5t35.5 54.5l324 594h-60v19h565l4 -182h-21q0 16 -9 41.5t-25.5 53.5t-47 48t-66.5 20h-115v-310h80q51 0 73 36.5t22 90.5h19v-274h-19q0 49 -22 88.5t-66 39.5h-87v-337h86q49 0 89 22.5t62 54.5t33.5 63
t11.5 53h19v-212h-569v19h64v212h-244l-69 -129q-17 -28 -17 -51q0 -32 53 -32h12v-19h-161z" />
    <glyph glyph-name="Ccedilla" unicode="&#xc7;" horiz-adv-x="722" 
d="M318 -100l53 83q-148 12 -241.5 118t-93.5 251q0 169 108 269.5t261 100.5q51 0 95.5 -14t72 -28.5t38.5 -14.5q27 0 27 39h19v-231h-19q-18 99 -71 164.5t-146 65.5q-26 0 -48 -6t-38 -15.5t-28 -27.5t-20 -34t-14 -44.5t-8.5 -49.5t-4 -58t-2 -61.5t-0.5 -67.5
q0 -39 0.5 -60.5t2 -55.5t4 -53.5t8.5 -46t14 -42t20.5 -33t28.5 -26.5t37.5 -15t48.5 -6q66 0 117.5 39t75 90t23.5 98h19v-228h-19q0 36 -30 36q-14 0 -40.5 -13.5t-68.5 -27t-95 -13.5h-4l-39 -61l2 -2q21 8 55 8q36 0 61 -17t25 -54q0 -26 -12.5 -43t-35.5 -24t-42 -9
t-45 -2q-59 0 -104 15l8 20q34 -10 64 -10q27 0 47 11.5t20 37.5q0 21 -11.5 32.5t-30.5 11.5q-14 0 -33 -8z" />
    <glyph glyph-name="Egrave" unicode="&#xc8;" 
d="M22 0v19h64v666h-64v19h570v-182h-19q-8 77 -50 120t-145 43h-88v-310h88q104 0 104 126h19v-273h-19q0 128 -108 128h-84v-337h74q118 0 166.5 48t64.5 144h19v-211h-592zM383 754l-130 101q-3 2 -14.5 10.5t-16.5 12.5t-12.5 11.5t-10.5 15t-3 15.5q0 23 16 30.5
t45 7.5q38 0 55 -15.5t34 -55.5l60 -133h-23z" />
    <glyph glyph-name="Eacute" unicode="&#xc9;" 
d="M22 0v19h64v666h-64v19h570v-182h-19q-8 77 -50 120t-145 43h-88v-310h88q104 0 104 126h19v-273h-19q0 128 -108 128h-84v-337h74q118 0 166.5 48t64.5 144h19v-211h-592zM288 754l60 133q17 40 34 55.5t55 15.5q29 0 45 -7.5t16 -30.5q0 -8 -3 -15.5t-10.5 -15
t-12.5 -11.5t-16.5 -12.5t-14.5 -10.5l-130 -101h-23z" />
    <glyph glyph-name="Ecircumflex" unicode="&#xca;" 
d="M22 0v19h64v666h-64v19h570v-182h-19q-8 77 -50 120t-145 43h-88v-310h88q104 0 104 126h19v-273h-19q0 128 -108 128h-84v-337h74q118 0 166.5 48t64.5 144h19v-211h-592zM172 754l111 204h103l110 -204h-25l-139 114l-135 -114h-25z" />
    <glyph glyph-name="Edieresis" unicode="&#xcb;" 
d="M22 0v19h64v666h-64v19h570v-182h-19q-8 77 -50 120t-145 43h-88v-310h88q104 0 104 126h19v-273h-19q0 128 -108 128h-84v-337h74q118 0 166.5 48t64.5 144h19v-211h-592zM365 851q0 35 24.5 59.5t59.5 24.5t59.5 -24.5t24.5 -59.5t-24.5 -59.5t-59.5 -24.5t-59.5 24.5
t-24.5 59.5zM135 851q0 35 24.5 59.5t59.5 24.5t59.5 -24.5t24.5 -59.5t-24.5 -59.5t-59.5 -24.5t-59.5 24.5t-24.5 59.5z" />
    <glyph glyph-name="Igrave" unicode="&#xcc;" horiz-adv-x="388" 
d="M28 0v19h64v666h-64v19h332v-19h-64v-666h64v-19h-332zM243 754l-130 101q-3 2 -14.5 10.5t-16.5 12.5t-12.5 11.5t-10.5 15t-3 15.5q0 23 16 30.5t45 7.5q38 0 55 -15.5t34 -55.5l60 -133h-23z" />
    <glyph glyph-name="Iacute" unicode="&#xcd;" horiz-adv-x="388" 
d="M28 0v19h64v666h-64v19h332v-19h-64v-666h64v-19h-332zM132 754l60 133q17 40 34 55.5t55 15.5q29 0 45 -7.5t16 -30.5q0 -8 -3 -15.5t-10.5 -15t-12.5 -11.5t-16.5 -12.5t-14.5 -10.5l-130 -101h-23z" />
    <glyph glyph-name="Icircumflex" unicode="&#xce;" horiz-adv-x="388" 
d="M28 0v19h64v666h-64v19h332v-19h-64v-666h64v-19h-332zM32 754l111 204h103l110 -204h-25l-139 114l-135 -114h-25z" />
    <glyph glyph-name="Idieresis" unicode="&#xcf;" horiz-adv-x="388" 
d="M28 0v19h64v666h-64v19h332v-19h-64v-666h64v-19h-332zM225 851q0 35 24.5 59.5t59.5 24.5t59.5 -24.5t24.5 -59.5t-24.5 -59.5t-59.5 -24.5t-59.5 24.5t-24.5 59.5zM-5 851q0 35 24.5 59.5t59.5 24.5t59.5 -24.5t24.5 -59.5t-24.5 -59.5t-59.5 -24.5t-59.5 24.5
t-24.5 59.5z" />
    <glyph glyph-name="Eth" unicode="&#xd0;" horiz-adv-x="778" 
d="M290 356v-337h34q40 0 72 11t53 28.5t36 45.5t22.5 54t12 63.5t5.5 64t1 65.5q0 67 -4 113.5t-16 91t-33.5 71t-57 42.5t-85.5 16h-40v-292h134v-37h-134zM22 0v19h64v337h-61v37h61v292h-64v19h357q164 0 263.5 -96.5t99.5 -252.5q0 -87 -30.5 -156t-83 -111.5t-120 -65
t-143.5 -22.5h-343z" />
    <glyph glyph-name="Ntilde" unicode="&#xd1;" horiz-adv-x="722" 
d="M16 0v19q44 0 63.5 13.5t19.5 57.5v510l-59 85h-26v19h253l348 -506h2v421q0 66 -73 66v19h164v-19q-66 0 -66 -66v-619h-126l-390 566h-2v-476q0 -46 15.5 -58.5t61.5 -12.5v-19h-185zM519 931h25q0 -54 -25.5 -95t-75.5 -41q-33 0 -104 23t-83 23q-53 0 -53 -46h-25
q0 54 25.5 95t75.5 41q33 0 104 -23t83 -23q53 0 53 46z" />
    <glyph glyph-name="Ograve" unicode="&#xd2;" horiz-adv-x="778" 
d="M742 352q0 -153 -97 -261.5t-256 -108.5t-256 108.5t-97 261.5t97 261.5t256 108.5t256 -108.5t97 -261.5zM258 352q0 -213 23 -282t108 -69t108 69t23 282t-23 282t-108 69t-108 -69t-23 -282zM406 754l-130 101q-3 2 -14.5 10.5t-16.5 12.5t-12.5 11.5t-10.5 15
t-3 15.5q0 23 16 30.5t45 7.5q38 0 55 -15.5t34 -55.5l60 -133h-23z" />
    <glyph glyph-name="Oacute" unicode="&#xd3;" horiz-adv-x="778" 
d="M742 352q0 -153 -97 -261.5t-256 -108.5t-256 108.5t-97 261.5t97 261.5t256 108.5t256 -108.5t97 -261.5zM258 352q0 -213 23 -282t108 -69t108 69t23 282t-23 282t-108 69t-108 -69t-23 -282zM343 754l60 133q17 40 34 55.5t55 15.5q29 0 45 -7.5t16 -30.5
q0 -8 -3 -15.5t-10.5 -15t-12.5 -11.5t-16.5 -12.5t-14.5 -10.5l-130 -101h-23z" />
    <glyph glyph-name="Ocircumflex" unicode="&#xd4;" horiz-adv-x="778" 
d="M742 352q0 -153 -97 -261.5t-256 -108.5t-256 108.5t-97 261.5t97 261.5t256 108.5t256 -108.5t97 -261.5zM258 352q0 -213 23 -282t108 -69t108 69t23 282t-23 282t-108 69t-108 -69t-23 -282zM227 754l111 204h103l110 -204h-25l-139 114l-135 -114h-25z" />
    <glyph glyph-name="Otilde" unicode="&#xd5;" horiz-adv-x="778" 
d="M742 352q0 -153 -97 -261.5t-256 -108.5t-256 108.5t-97 261.5t97 261.5t256 108.5t256 -108.5t97 -261.5zM258 352q0 -213 23 -282t108 -69t108 69t23 282t-23 282t-108 69t-108 -69t-23 -282zM547 931h25q0 -54 -25.5 -95t-75.5 -41q-33 0 -104 23t-83 23
q-53 0 -53 -46h-25q0 54 25.5 95t75.5 41q33 0 104.5 -23t82.5 -23q53 0 53 46z" />
    <glyph glyph-name="Odieresis" unicode="&#xd6;" horiz-adv-x="778" 
d="M742 352q0 -153 -97 -261.5t-256 -108.5t-256 108.5t-97 261.5t97 261.5t256 108.5t256 -108.5t97 -261.5zM258 352q0 -213 23 -282t108 -69t108 69t23 282t-23 282t-108 69t-108 -69t-23 -282zM420 851q0 35 25 59.5t59 24.5t59 -24.5t25 -59.5t-25 -59.5t-59 -24.5
t-59 24.5t-25 59.5zM190 851q0 35 25 59.5t59 24.5t59 -24.5t25 -59.5t-25 -59.5t-59 -24.5t-59 24.5t-25 59.5z" />
    <glyph glyph-name="multiply" unicode="&#xd7;" horiz-adv-x="600" 
d="M223 253l-158 158l77 77l158 -158l158 158l77 -77l-159 -158l159 -158l-77 -77l-158 158l-158 -158l-77 77z" />
    <glyph glyph-name="Oslash" unicode="&#xd8;" horiz-adv-x="778" 
d="M263 177l242 423q-10 56 -37 79.5t-79 23.5q-85 0 -108 -69t-23 -282q0 -104 3 -175h2zM512 551l-244 -427q10 -68 37.5 -95.5t83.5 -27.5q85 0 108 69t23 282q0 140 -6 199h-2zM147 -24l39 68q-71 50 -110.5 131.5t-39.5 176.5q0 153 97 261.5t256 108.5q91 0 164 -39
l40 70l27 -16l-40 -69q77 -50 119.5 -133.5t42.5 -182.5q0 -153 -97 -261.5t-256 -108.5q-98 0 -176 46l-39 -68z" />
    <glyph glyph-name="Ugrave" unicode="&#xd9;" horiz-adv-x="722" 
d="M22 685v19h332v-19h-64v-513q0 -77 43.5 -115t104.5 -38q173 0 173 183v412q0 24 -5.5 39t-17.5 21.5t-22.5 8.5t-28.5 2v19h167v-19q-37 0 -52.5 -15t-15.5 -54v-420q0 -62 -19.5 -105.5t-55.5 -66.5t-78.5 -32.5t-97.5 -9.5q-60 0 -109.5 10t-94 33.5t-70 68.5
t-25.5 109v482h-64zM426 754l-130 101q-3 2 -14.5 10.5t-16.5 12.5t-12.5 11.5t-10.5 15t-3 15.5q0 23 16 30.5t45 7.5q38 0 55 -15.5t34 -55.5l60 -133h-23z" />
    <glyph glyph-name="Uacute" unicode="&#xda;" horiz-adv-x="722" 
d="M22 685v19h332v-19h-64v-513q0 -77 43.5 -115t104.5 -38q173 0 173 183v412q0 24 -5.5 39t-17.5 21.5t-22.5 8.5t-28.5 2v19h167v-19q-37 0 -52.5 -15t-15.5 -54v-420q0 -62 -19.5 -105.5t-55.5 -66.5t-78.5 -32.5t-97.5 -9.5q-60 0 -109.5 10t-94 33.5t-70 68.5
t-25.5 109v482h-64zM363 754l60 133q17 40 34 55.5t55 15.5q29 0 45 -7.5t16 -30.5q0 -8 -3 -15.5t-10.5 -15t-12.5 -11.5t-16.5 -12.5t-14.5 -10.5l-130 -101h-23z" />
    <glyph glyph-name="Ucircumflex" unicode="&#xdb;" horiz-adv-x="722" 
d="M22 685v19h332v-19h-64v-513q0 -77 43.5 -115t104.5 -38q173 0 173 183v412q0 24 -5.5 39t-17.5 21.5t-22.5 8.5t-28.5 2v19h167v-19q-37 0 -52.5 -15t-15.5 -54v-420q0 -62 -19.5 -105.5t-55.5 -66.5t-78.5 -32.5t-97.5 -9.5q-60 0 -109.5 10t-94 33.5t-70 68.5
t-25.5 109v482h-64zM199 754l111 204h103l110 -204h-25l-139 114l-135 -114h-25z" />
    <glyph glyph-name="Udieresis" unicode="&#xdc;" horiz-adv-x="722" 
d="M22 685v19h332v-19h-64v-513q0 -77 43.5 -115t104.5 -38q173 0 173 183v412q0 24 -5.5 39t-17.5 21.5t-22.5 8.5t-28.5 2v19h167v-19q-37 0 -52.5 -15t-15.5 -54v-420q0 -62 -19.5 -105.5t-55.5 -66.5t-78.5 -32.5t-97.5 -9.5q-60 0 -109.5 10t-94 33.5t-70 68.5
t-25.5 109v482h-64zM392 851q0 35 25 59.5t59 24.5t59 -24.5t25 -59.5t-25 -59.5t-59 -24.5t-59 24.5t-25 59.5zM162 851q0 35 25 59.5t59 24.5t59 -24.5t25 -59.5t-25 -59.5t-59 -24.5t-59 24.5t-25 59.5z" />
    <glyph glyph-name="Yacute" unicode="&#xdd;" 
d="M169 0v19h64v295l-174 371h-37v19h298v-19h-43l150 -319l101 218q15 30 15 66q0 35 -48 35h-12v19h162v-19h-8q-23 0 -37.5 -15t-30.5 -50l-132 -284v-317h64v-19h-332zM336 754l60 133q17 40 34 55.5t55 15.5q29 0 45 -7.5t16 -30.5q0 -8 -3 -15.5t-10.5 -15
t-12.5 -11.5t-16.5 -12.5t-14.5 -10.5l-130 -101h-23z" />
    <glyph glyph-name="Thorn" unicode="&#xde;" 
d="M22 0v19h64v666h-64v19h332v-19h-64v-95h90q257 0 257 -177q0 -97 -70 -143t-173 -46h-104v-205h64v-19h-332zM290 571v-328h25q62 0 90 32t28 120q0 38 -1.5 61t-7 48t-16 37.5t-30 21t-47.5 8.5h-41z" />
    <glyph glyph-name="germandbls" unicode="&#xdf;" 
d="M22 0v19h55v451q0 72 21.5 123.5t59.5 78t81.5 38.5t96.5 12q47 0 86.5 -11t70.5 -42.5t31 -81.5q0 -24 -18 -49.5t-40 -43t-40 -36t-18 -30.5q0 -8 21.5 -20t52 -29t61.5 -40t52.5 -61t21.5 -83q0 -81 -48 -142t-134 -61q-69 0 -100.5 25t-31.5 65q0 27 18.5 44.5
t44.5 17.5t44.5 -15.5t18.5 -40.5q0 -20 -10.5 -32t-21.5 -17.5t-11 -7.5q0 -4 4 -8t14.5 -8t25.5 -4q44 0 70.5 22.5t26.5 57.5q0 30 -22 56.5t-53.5 45t-63.5 37t-54 41t-22 47.5t22 56.5t48 58t48 66.5t22 79q0 54 -24.5 89.5t-74.5 35.5q-47 0 -71.5 -34t-24.5 -122
v-528h39v-19h-274z" />
    <glyph glyph-name="agrave" unicode="&#xe0;" horiz-adv-x="556" 
d="M474 328v-263q0 -34 16 -34q5 0 9.5 2t9 6.5l7 7t7 8.5t5.5 7l13 -9q-23 -40 -52.5 -55.5t-75.5 -15.5q-64 0 -96 54q-35 -54 -138 -54q-58 0 -102.5 34.5t-44.5 90.5q0 30 10.5 54.5t24.5 40t41 27.5t45.5 17.5t54 10t50 5t48.5 2.5v121q0 67 -66 67q-21 0 -43.5 -9.5
t-22.5 -28.5q0 -8 17.5 -26t17.5 -43q0 -29 -24 -44t-54 -15t-48 18.5t-18 45.5q0 57 59.5 89t132.5 32q34 0 68 -6.5t69.5 -21t57.5 -44.5t22 -71zM306 85v160q-61 0 -83.5 -22.5t-22.5 -82.5q0 -70 11 -98.5t43 -28.5q26 0 39 20t13 52zM311 525l-130 101q-3 2 -14.5 10.5
t-16.5 12.5t-12.5 11.5t-10.5 15t-3 15.5q0 23 16 30.5t45 7.5q38 0 55 -15.5t34 -55.5l60 -133h-23z" />
    <glyph glyph-name="aacute" unicode="&#xe1;" horiz-adv-x="556" 
d="M474 328v-263q0 -34 16 -34q5 0 9.5 2t9 6.5l7 7t7 8.5t5.5 7l13 -9q-23 -40 -52.5 -55.5t-75.5 -15.5q-64 0 -96 54q-35 -54 -138 -54q-58 0 -102.5 34.5t-44.5 90.5q0 30 10.5 54.5t24.5 40t41 27.5t45.5 17.5t54 10t50 5t48.5 2.5v121q0 67 -66 67q-21 0 -43.5 -9.5
t-22.5 -28.5q0 -8 17.5 -26t17.5 -43q0 -29 -24 -44t-54 -15t-48 18.5t-18 45.5q0 57 59.5 89t132.5 32q34 0 68 -6.5t69.5 -21t57.5 -44.5t22 -71zM306 85v160q-61 0 -83.5 -22.5t-22.5 -82.5q0 -70 11 -98.5t43 -28.5q26 0 39 20t13 52zM232 525l60 133q17 40 34 55.5
t55 15.5q29 0 45 -7.5t16 -30.5q0 -8 -3 -15.5t-10.5 -15t-12.5 -11.5t-16.5 -12.5t-14.5 -10.5l-130 -101h-23z" />
    <glyph glyph-name="acircumflex" unicode="&#xe2;" horiz-adv-x="556" 
d="M474 328v-263q0 -34 16 -34q5 0 9.5 2t9 6.5l7 7t7 8.5t5.5 7l13 -9q-23 -40 -52.5 -55.5t-75.5 -15.5q-64 0 -96 54q-35 -54 -138 -54q-58 0 -102.5 34.5t-44.5 90.5q0 30 10.5 54.5t24.5 40t41 27.5t45.5 17.5t54 10t50 5t48.5 2.5v121q0 67 -66 67q-21 0 -43.5 -9.5
t-22.5 -28.5q0 -8 17.5 -26t17.5 -43q0 -29 -24 -44t-54 -15t-48 18.5t-18 45.5q0 57 59.5 89t132.5 32q34 0 68 -6.5t69.5 -21t57.5 -44.5t22 -71zM306 85v160q-61 0 -83.5 -22.5t-22.5 -82.5q0 -70 11 -98.5t43 -28.5q26 0 39 20t13 52zM116 525l111 204h103l110 -204h-25
l-139 114l-135 -114h-25z" />
    <glyph glyph-name="atilde" unicode="&#xe3;" horiz-adv-x="556" 
d="M474 328v-263q0 -34 16 -34q5 0 9.5 2t9 6.5l7 7t7 8.5t5.5 7l13 -9q-23 -40 -52.5 -55.5t-75.5 -15.5q-64 0 -96 54q-35 -54 -138 -54q-58 0 -102.5 34.5t-44.5 90.5q0 30 10.5 54.5t24.5 40t41 27.5t45.5 17.5t54 10t50 5t48.5 2.5v121q0 67 -66 67q-21 0 -43.5 -9.5
t-22.5 -28.5q0 -8 17.5 -26t17.5 -43q0 -29 -24 -44t-54 -15t-48 18.5t-18 45.5q0 57 59.5 89t132.5 32q34 0 68 -6.5t69.5 -21t57.5 -44.5t22 -71zM306 85v160q-61 0 -83.5 -22.5t-22.5 -82.5q0 -70 11 -98.5t43 -28.5q26 0 39 20t13 52zM436 702h25q0 -54 -25.5 -95
t-75.5 -41q-32 0 -104 23t-83 23q-53 0 -53 -46h-25q0 54 25.5 95t75.5 41q33 0 104.5 -23t82.5 -23q53 0 53 46z" />
    <glyph glyph-name="adieresis" unicode="&#xe4;" horiz-adv-x="556" 
d="M474 328v-263q0 -34 16 -34q5 0 9.5 2t9 6.5l7 7t7 8.5t5.5 7l13 -9q-23 -40 -52.5 -55.5t-75.5 -15.5q-64 0 -96 54q-35 -54 -138 -54q-58 0 -102.5 34.5t-44.5 90.5q0 30 10.5 54.5t24.5 40t41 27.5t45.5 17.5t54 10t50 5t48.5 2.5v121q0 67 -66 67q-21 0 -43.5 -9.5
t-22.5 -28.5q0 -8 17.5 -26t17.5 -43q0 -29 -24 -44t-54 -15t-48 18.5t-18 45.5q0 57 59.5 89t132.5 32q34 0 68 -6.5t69.5 -21t57.5 -44.5t22 -71zM306 85v160q-61 0 -83.5 -22.5t-22.5 -82.5q0 -70 11 -98.5t43 -28.5q26 0 39 20t13 52zM309 622q0 34 24.5 59t59.5 25
t59.5 -25t24.5 -59t-24.5 -59t-59.5 -25t-59.5 25t-24.5 59zM79 622q0 34 24.5 59t59.5 25t59.5 -25t24.5 -59t-24.5 -59t-59.5 -25t-59.5 25t-24.5 59z" />
    <glyph glyph-name="aring" unicode="&#xe5;" horiz-adv-x="556" 
d="M474 328v-263q0 -34 16 -34q5 0 9.5 2t9 6.5l7 7t7 8.5t5.5 7l13 -9q-23 -40 -52.5 -55.5t-75.5 -15.5q-64 0 -96 54q-35 -54 -138 -54q-58 0 -102.5 34.5t-44.5 90.5q0 30 10.5 54.5t24.5 40t41 27.5t45.5 17.5t54 10t50 5t48.5 2.5v121q0 67 -66 67q-21 0 -43.5 -9.5
t-22.5 -28.5q0 -8 17.5 -26t17.5 -43q0 -29 -24 -44t-54 -15t-48 18.5t-18 45.5q0 57 59.5 89t132.5 32q34 0 68 -6.5t69.5 -21t57.5 -44.5t22 -71zM306 85v160q-61 0 -83.5 -22.5t-22.5 -82.5q0 -70 11 -98.5t43 -28.5q26 0 39 20t13 52zM175 615q0 43 30 73t73 30t73 -30
t30 -73t-30 -73t-73 -30t-73 30t-30 73zM212 615q0 -27 19.5 -46.5t46.5 -19.5t46.5 19.5t19.5 46.5t-19.5 46.5t-46.5 19.5t-46.5 -19.5t-19.5 -46.5z" />
    <glyph glyph-name="ae" unicode="&#xe6;" horiz-adv-x="778" 
d="M297 262v126q0 64 -60 64q-21 0 -41 -10t-20 -27q0 -6 15.5 -26t15.5 -42q0 -25 -18.5 -42.5t-45.5 -17.5q-74 0 -74 75q0 36 32.5 62t71.5 36.5t74 10.5q84 0 138 -39q53 39 120 39q101 0 168.5 -67t67.5 -163h-282v-130q0 -104 84 -104q64 0 110.5 38t68.5 100l17 -8
q-53 -155 -214 -155q-42 0 -85 14t-65 38q-71 -52 -166 -52q-71 0 -124 31.5t-53 96.5q0 30 10 54t23.5 39t38 26.5t43.5 17t51.5 9t49.5 4.5t49 2zM297 77v167q-63 0 -80 -18.5t-17 -73.5v-86q0 -28 11 -46.5t34 -18.5q52 0 52 76zM459 260h102v119q0 73 -51 73
q-26 0 -38.5 -23.5t-12.5 -58.5v-110z" />
    <glyph glyph-name="ccedilla" unicode="&#xe7;" horiz-adv-x="556" 
d="M235 -100l52 83q-106 6 -180.5 73t-74.5 170q0 107 80.5 176t192.5 69q75 0 134 -28.5t59 -87.5q0 -33 -22 -53.5t-57 -20.5q-30 0 -50.5 20t-20.5 49q0 25 10 41t20.5 24t10.5 14q0 23 -58 23q-29 0 -48.5 -10t-30 -24.5t-15.5 -47.5t-6 -60.5t-1 -83.5q0 -43 0.5 -65.5
t3.5 -52.5t10 -44.5t19 -30t30.5 -21t44.5 -5.5q51 0 98.5 39t67.5 95l20 -7q-30 -67 -77 -108t-130 -44l-39 -61l2 -2q21 8 55 8q36 0 61 -17t25 -54q0 -26 -12.5 -43t-35.5 -24t-42 -9t-45 -2q-59 0 -104 15l8 20q34 -10 64 -10q27 0 47 11.5t20 37.5q0 21 -11.5 32.5
t-30.5 11.5q-14 0 -33 -8z" />
    <glyph glyph-name="egrave" unicode="&#xe8;" horiz-adv-x="556" 
d="M230 260h114v110q0 82 -57 82q-32 0 -44.5 -24t-12.5 -84v-84zM524 241h-294v-103q0 -73 24.5 -102t73.5 -29q58 0 105 42t68 100l19 -6q-61 -161 -224 -161q-115 0 -189.5 67.5t-74.5 174.5q0 109 73.5 178t182.5 69q101 0 168.5 -67t67.5 -163zM311 525l-130 101
q-3 2 -14.5 10.5t-16.5 12.5t-12.5 11.5t-10.5 15t-3 15.5q0 23 16 30.5t45 7.5q38 0 55 -15.5t34 -55.5l60 -133h-23z" />
    <glyph glyph-name="eacute" unicode="&#xe9;" horiz-adv-x="556" 
d="M230 260h114v110q0 82 -57 82q-32 0 -44.5 -24t-12.5 -84v-84zM524 241h-294v-103q0 -73 24.5 -102t73.5 -29q58 0 105 42t68 100l19 -6q-61 -161 -224 -161q-115 0 -189.5 67.5t-74.5 174.5q0 109 73.5 178t182.5 69q101 0 168.5 -67t67.5 -163zM232 525l60 133
q17 40 34 55.5t55 15.5q29 0 45 -7.5t16 -30.5q0 -8 -3 -15.5t-10.5 -15t-12.5 -11.5t-16.5 -12.5t-14.5 -10.5l-130 -101h-23z" />
    <glyph glyph-name="ecircumflex" unicode="&#xea;" horiz-adv-x="556" 
d="M230 260h114v110q0 82 -57 82q-32 0 -44.5 -24t-12.5 -84v-84zM524 241h-294v-103q0 -73 24.5 -102t73.5 -29q58 0 105 42t68 100l19 -6q-61 -161 -224 -161q-115 0 -189.5 67.5t-74.5 174.5q0 109 73.5 178t182.5 69q101 0 168.5 -67t67.5 -163zM116 525l111 204h103
l110 -204h-25l-139 114l-135 -114h-25z" />
    <glyph glyph-name="edieresis" unicode="&#xeb;" horiz-adv-x="556" 
d="M230 260h114v110q0 82 -57 82q-32 0 -44.5 -24t-12.5 -84v-84zM524 241h-294v-103q0 -73 24.5 -102t73.5 -29q58 0 105 42t68 100l19 -6q-61 -161 -224 -161q-115 0 -189.5 67.5t-74.5 174.5q0 109 73.5 178t182.5 69q101 0 168.5 -67t67.5 -163zM309 622q0 34 24.5 59
t59.5 25t59.5 -25t24.5 -59t-24.5 -59t-59.5 -25t-59.5 25t-24.5 59zM79 622q0 34 24.5 59t59.5 25t59.5 -25t24.5 -59t-24.5 -59t-59.5 -25t-59.5 25t-24.5 59z" />
    <glyph glyph-name="igrave" unicode="&#xec;" horiz-adv-x="334" 
d="M22 0v19h55v415h-55v19h60q137 0 175 18v-452h55v-19h-290zM200 525l-130 101q-3 2 -14.5 10.5t-16.5 12.5t-12.5 11.5t-10.5 15t-3 15.5q0 23 16 30.5t45 7.5q38 0 55 -15.5t34 -55.5l60 -133h-23z" />
    <glyph glyph-name="iacute" unicode="&#xed;" horiz-adv-x="334" 
d="M22 0v19h55v415h-55v19h60q137 0 175 18v-452h55v-19h-290zM121 525l60 133q17 40 34 55.5t55 15.5q29 0 45 -7.5t16 -30.5q0 -8 -3 -15.5t-10.5 -15t-12.5 -11.5t-16.5 -12.5t-14.5 -10.5l-130 -101h-23z" />
    <glyph glyph-name="icircumflex" unicode="&#xee;" horiz-adv-x="334" 
d="M22 0v19h55v415h-55v19h60q137 0 175 18v-452h55v-19h-290zM5 525l111 204h103l110 -204h-25l-139 114l-135 -114h-25z" />
    <glyph glyph-name="idieresis" unicode="&#xef;" horiz-adv-x="334" 
d="M22 0v19h55v415h-55v19h60q137 0 175 18v-452h55v-19h-290zM198 622q0 34 25 59t59 25t59 -25t25 -59t-25 -59t-59 -25t-59 25t-25 59zM-32 622q0 34 25 59t59 25t59 -25t25 -59t-25 -59t-59 -25t-59 25t-25 59z" />
    <glyph glyph-name="eth" unicode="&#xf0;" horiz-adv-x="611" 
d="M379 116v200q0 126 -78 126q-77 0 -77 -126v-200q0 -115 77 -115q33 0 55.5 28.5t22.5 86.5zM133 554l118 61q-66 58 -140 82l7 25q123 -16 219 -65l115 59l20 -28l-101 -51q95 -60 147.5 -156.5t52.5 -224.5q0 -116 -76 -195t-192 -79t-193.5 67.5t-77.5 177.5
q0 104 75 169t178 65q42 0 74 -13q-20 79 -82 142l-124 -64z" />
    <glyph glyph-name="ntilde" unicode="&#xf1;" 
d="M25 0v19h55v415h-55v19h60q137 0 175 18v-87h2q51 87 160 87q77 0 121 -39.5t44 -121.5v-291h55v-19h-290v19h55v351q0 64 -49 64q-34 0 -66 -40.5t-32 -83.5v-291h55v-19h-290zM492 702h25q0 -54 -25.5 -95t-75.5 -41q-32 0 -104 23t-83 23q-53 0 -53 -46h-25
q0 54 25.5 95t75.5 41q32 0 104 -23t83 -23q53 0 53 46z" />
    <glyph glyph-name="ograve" unicode="&#xf2;" horiz-adv-x="611" 
d="M32 226q0 107 80.5 176t192.5 69q113 0 193.5 -69t80.5 -176t-80.5 -175.5t-193.5 -68.5q-112 0 -192.5 68.5t-80.5 175.5zM381 106v241q0 105 -76 105q-75 0 -75 -105v-241q0 -105 75 -105q76 0 76 105zM339 525l-130 101q-3 2 -14.5 10.5t-16.5 12.5t-12.5 11.5
t-10.5 15t-3 15.5q0 23 16 30.5t45 7.5q38 0 55 -15.5t34 -55.5l60 -133h-23z" />
    <glyph glyph-name="oacute" unicode="&#xf3;" horiz-adv-x="611" 
d="M32 226q0 107 80.5 176t192.5 69q113 0 193.5 -69t80.5 -176t-80.5 -175.5t-193.5 -68.5q-112 0 -192.5 68.5t-80.5 175.5zM381 106v241q0 105 -76 105q-75 0 -75 -105v-241q0 -105 75 -105q76 0 76 105zM260 525l60 133q17 40 34 55.5t55 15.5q29 0 45 -7.5t16 -30.5
q0 -8 -3 -15.5t-10.5 -15t-12.5 -11.5t-16.5 -12.5t-14.5 -10.5l-130 -101h-23z" />
    <glyph glyph-name="ocircumflex" unicode="&#xf4;" horiz-adv-x="611" 
d="M32 226q0 107 80.5 176t192.5 69q113 0 193.5 -69t80.5 -176t-80.5 -175.5t-193.5 -68.5q-112 0 -192.5 68.5t-80.5 175.5zM381 106v241q0 105 -76 105q-75 0 -75 -105v-241q0 -105 75 -105q76 0 76 105zM144 525l111 204h103l110 -204h-25l-139 114l-135 -114h-25z" />
    <glyph glyph-name="otilde" unicode="&#xf5;" horiz-adv-x="611" 
d="M32 226q0 107 80.5 176t192.5 69q113 0 193.5 -69t80.5 -176t-80.5 -175.5t-193.5 -68.5q-112 0 -192.5 68.5t-80.5 175.5zM381 106v241q0 105 -76 105q-75 0 -75 -105v-241q0 -105 75 -105q76 0 76 105zM464 702h25q0 -54 -25.5 -95t-75.5 -41q-32 0 -103.5 23t-83.5 23
q-53 0 -53 -46h-25q0 54 25.5 95t75.5 41q32 0 103.5 -23t83.5 -23q53 0 53 46z" />
    <glyph glyph-name="odieresis" unicode="&#xf6;" horiz-adv-x="611" 
d="M32 226q0 107 80.5 176t192.5 69q113 0 193.5 -69t80.5 -176t-80.5 -175.5t-193.5 -68.5q-112 0 -192.5 68.5t-80.5 175.5zM381 106v241q0 105 -76 105q-75 0 -75 -105v-241q0 -105 75 -105q76 0 76 105zM337 622q0 34 24.5 59t59.5 25t59.5 -25t24.5 -59t-24.5 -59
t-59.5 -25t-59.5 25t-24.5 59zM107 622q0 34 24.5 59t59.5 25t59.5 -25t24.5 -59t-24.5 -59t-59.5 -25t-59.5 25t-24.5 59z" />
    <glyph glyph-name="divide" unicode="&#xf7;" horiz-adv-x="600" 
d="M553 197h-506v112h506v-112zM210 462q0 38 26 64t64 26t64 -26t26 -64t-26 -64t-64 -26t-64 26t-26 64zM210 44q0 38 26 64t64 26t64 -26t26 -64t-26 -64t-64 -26t-64 26t-26 64z" />
    <glyph glyph-name="oslash" unicode="&#xf8;" horiz-adv-x="611" 
d="M379 351l-144 -290q13 -60 70 -60q76 0 76 105v241v4h-2zM232 111l143 288q-16 53 -70 53q-75 0 -75 -105v-236h2zM151 -46l28 55q-67 29 -107 86t-40 131q0 107 80.5 176t192.5 69q53 0 98 -16l33 66l24 -12l-32 -64q69 -29 110 -86.5t41 -132.5q0 -107 -80.5 -175.5
t-193.5 -68.5q-52 0 -101 17l-29 -57z" />
    <glyph glyph-name="ugrave" unicode="&#xf9;" 
d="M80 117v317h-55v19h60q137 0 175 18v-347q0 -46 10 -66.5t37 -20.5q44 0 72 40.5t28 70.5v286h-55v19h60q137 0 175 18v-452h55v-19h-236v83h-2q-54 -95 -178 -95q-67 0 -106.5 36t-39.5 93zM367 525l-130 101q-3 2 -14.5 10.5t-16.5 12.5t-12.5 11.5t-10.5 15t-3 15.5
q0 23 16 30.5t45 7.5q38 0 55 -15.5t34 -55.5l60 -133h-23z" />
    <glyph glyph-name="uacute" unicode="&#xfa;" 
d="M80 117v317h-55v19h60q137 0 175 18v-347q0 -46 10 -66.5t37 -20.5q44 0 72 40.5t28 70.5v286h-55v19h60q137 0 175 18v-452h55v-19h-236v83h-2q-54 -95 -178 -95q-67 0 -106.5 36t-39.5 93zM288 525l60 133q17 40 34 55.5t55 15.5q29 0 45 -7.5t16 -30.5q0 -8 -3 -15.5
t-10.5 -15t-12.5 -11.5t-16.5 -12.5t-14.5 -10.5l-130 -101h-23z" />
    <glyph glyph-name="ucircumflex" unicode="&#xfb;" 
d="M80 117v317h-55v19h60q137 0 175 18v-347q0 -46 10 -66.5t37 -20.5q44 0 72 40.5t28 70.5v286h-55v19h60q137 0 175 18v-452h55v-19h-236v83h-2q-54 -95 -178 -95q-67 0 -106.5 36t-39.5 93zM172 525l111 204h103l110 -204h-25l-139 114l-135 -114h-25z" />
    <glyph glyph-name="udieresis" unicode="&#xfc;" 
d="M80 117v317h-55v19h60q137 0 175 18v-347q0 -46 10 -66.5t37 -20.5q44 0 72 40.5t28 70.5v286h-55v19h60q137 0 175 18v-452h55v-19h-236v83h-2q-54 -95 -178 -95q-67 0 -106.5 36t-39.5 93zM365 622q0 34 24.5 59t59.5 25t59.5 -25t24.5 -59t-24.5 -59t-59.5 -25
t-59.5 25t-24.5 59zM135 622q0 34 24.5 59t59.5 25t59.5 -25t24.5 -59t-24.5 -59t-59.5 -25t-59.5 25t-24.5 59z" />
    <glyph glyph-name="yacute" unicode="&#xfd;" horiz-adv-x="500" 
d="M488 453v-19h-3q-33 0 -62 -70l-162 -412q-6 -49 -13 -81.5t-20.5 -64.5t-37 -48t-57.5 -16q-33 0 -54.5 18.5t-21.5 52.5q0 27 18.5 47t48.5 20q25 0 45 -18t20 -44t-10 -37l2 -2q27 17 40 62.5t21 129.5l-193 463h-37v19h272v-19h-43l90 -241h2l60 163q11 30 11 50
q0 13 -13.5 20.5t-32.5 7.5h-14v19h144zM204 525l60 133q17 40 34 55.5t55 15.5q29 0 45 -7.5t16 -30.5q0 -8 -3 -15.5t-10.5 -15t-12.5 -11.5t-16.5 -12.5t-14.5 -10.5l-130 -101h-23z" />
    <glyph glyph-name="thorn" unicode="&#xfe;" 
d="M260 312v-202q30 -75 98 -75q42 0 60.5 35t18.5 108v126q0 124 -77 124q-47 0 -73.5 -39t-26.5 -77zM25 -251v19h55v917h-55v19h75q53 0 101 7.5t59 17.5v-347h2q45 89 164 89q89 0 149 -70.5t60 -164.5q0 -101 -62.5 -172.5t-158.5 -71.5q-58 0 -92 17.5t-60 59.5h-2
v-301h55v-19h-290z" />
    <glyph glyph-name="ydieresis" unicode="&#xff;" horiz-adv-x="500" 
d="M488 453v-19h-3q-33 0 -62 -70l-162 -412q-6 -49 -13 -81.5t-20.5 -64.5t-37 -48t-57.5 -16q-33 0 -54.5 18.5t-21.5 52.5q0 27 18.5 47t48.5 20q25 0 45 -18t20 -44t-10 -37l2 -2q27 17 40 62.5t21 129.5l-193 463h-37v19h272v-19h-43l90 -241h2l60 163q11 30 11 50
q0 13 -13.5 20.5t-32.5 7.5h-14v19h144zM281 622q0 34 24.5 59t59.5 25t59.5 -25t24.5 -59t-24.5 -59t-59.5 -25t-59.5 25t-24.5 59zM51 622q0 34 24.5 59t59.5 25t59.5 -25t24.5 -59t-24.5 -59t-59.5 -25t-59.5 25t-24.5 59z" />
    <glyph glyph-name="dotlessi" unicode="&#x131;" horiz-adv-x="334" 
d="M22 0v19h55v415h-55v19h60q137 0 175 18v-452h55v-19h-290z" />
    <glyph glyph-name="Lslash" unicode="&#x141;" horiz-adv-x="611" 
d="M22 0v19h64v254l-64 -42v46l64 42v366h-64v19h332v-19h-64v-232l139 91v-46l-139 -91v-388h85q73 0 128.5 59t55.5 133h19v-211h-556z" />
    <glyph glyph-name="lslash" unicode="&#x142;" horiz-adv-x="334" 
d="M22 0v19h55v297l-69 -45v44l69 45v325h-55v19h75q53 0 101 7.5t59 17.5v-253l69 45v-44l-69 -45v-413h55v-19h-290z" />
    <glyph glyph-name="OE" unicode="&#x152;" horiz-adv-x="1000" 
d="M36 352q0 87 31 159.5t80 117t106.5 69t113.5 24.5q36 0 77 -9q40 -9 60 -9h429v-186h-19q0 66 -46.5 116.5t-111.5 50.5h-79v-310h65q42 0 63 39.5t21 85.5h19v-273h-19q0 53 -25 91t-76 38h-48v-337h93q61 0 109.5 62t48.5 125h19v-206h-452q-11 0 -33 -5.5t-24 -5.5
q-35 -7 -79 -7q-34 0 -74 11.5t-85 39.5t-81 68.5t-59.5 106t-23.5 144.5zM485 192v330q0 94 -26 137.5t-83 43.5q-82 0 -100 -65t-18 -286q0 -81 1 -128t5.5 -92t11.5 -66t21 -38t32.5 -22t46.5 -5q58 0 83.5 45t25.5 146z" />
    <glyph glyph-name="oe" unicode="&#x153;" horiz-adv-x="833" 
d="M230 323v-195q0 -65 13 -96t50 -31q38 0 50 30t12 97v206q0 116 -62 116q-37 0 -50 -31t-13 -96zM529 260h102v119q0 73 -51 73q-28 0 -39.5 -25.5t-11.5 -84.5v-82zM811 241h-282v-130q0 -104 84 -104q64 0 110.5 38t68.5 100l17 -8q-53 -155 -214 -155q-40 0 -82.5 14
t-69.5 39q-29 -24 -68.5 -38.5t-69.5 -14.5q-112 0 -192.5 68.5t-80.5 175.5t80.5 176t192.5 69q72 0 132 -51q55 51 138 51q101 0 168.5 -67t67.5 -163z" />
    <glyph glyph-name="Scaron" unicode="&#x160;" horiz-adv-x="611" 
d="M500 704v-192h-19q-4 24 -16.5 53t-35.5 62t-63.5 54.5t-90.5 21.5q-53 0 -88 -35t-35 -88q0 -39 22.5 -62.5t58.5 -33t79.5 -16t86.5 -18.5t79 -33t58.5 -66t22.5 -112q0 -113 -67.5 -185t-191.5 -72q-46 0 -82.5 13.5t-60.5 27t-41 13.5t-25.5 -11t-8.5 -25h-19v216h19
q1 -21 10.5 -48.5t27.5 -56.5t42 -53.5t59 -40.5t73 -16q67 0 116 40t49 105q0 43 -22.5 68.5t-58.5 35.5t-79 16.5t-86.5 17.5t-79.5 31.5t-58.5 65t-22.5 111.5q0 98 62 164t166 66q39 0 75.5 -13.5t61 -27t34.5 -13.5q30 0 30 36h19zM254 754l-110 204h25l139 -114
l135 114h25l-111 -204h-103z" />
    <glyph glyph-name="scaron" unicode="&#x161;" horiz-adv-x="444" 
d="M359 471v-128h-13q-30 109 -130 109q-43 0 -72.5 -18.5t-29.5 -53.5q0 -37 29.5 -50.5t72 -15t85 -7.5t72 -40.5t29.5 -101.5q0 -79 -49 -131t-131 -52q-44 0 -80 12.5t-46 12.5q-27 0 -27 -29h-13v165h13q12 -64 52 -103t99 -39q42 0 73 21.5t31 62.5q0 37 -29 51.5
t-70.5 16.5t-83 8.5t-70.5 39.5t-29 98q0 76 46 124t129 48q31 0 62 -9q7 -1 16 -3.5t14.5 -4t9.5 -1.5q21 0 27 18h13zM170 525l-110 204h25l139 -114l135 114h25l-111 -204h-103z" />
    <glyph glyph-name="Ydieresis" unicode="&#x178;" 
d="M169 0v19h64v295l-174 371h-37v19h298v-19h-43l150 -319l101 218q15 30 15 66q0 35 -48 35h-12v19h162v-19h-8q-23 0 -37.5 -15t-30.5 -50l-132 -284v-317h64v-19h-332zM365 851q0 35 24.5 59.5t59.5 24.5t59.5 -24.5t24.5 -59.5t-24.5 -59.5t-59.5 -24.5t-59.5 24.5
t-24.5 59.5zM135 851q0 35 24.5 59.5t59.5 24.5t59.5 -24.5t24.5 -59.5t-24.5 -59.5t-59.5 -24.5t-59.5 24.5t-24.5 59.5z" />
    <glyph glyph-name="Zcaron" unicode="&#x17d;" 
d="M84 492v212h551l-374 -685h93q59 0 102.5 13t67.5 31.5t40.5 50t22.5 56t12 61.5h19v-231h-586l371 685h-75q-69 0 -113 -13.5t-66.5 -43t-31 -58.5t-14.5 -78h-19zM282 754l-110 204h25l139 -114l135 114h25l-111 -204h-103z" />
    <glyph glyph-name="zcaron" unicode="&#x17e;" horiz-adv-x="556" 
d="M487 163v-163h-457l266 434h-42q-45 0 -78.5 -15.5t-50.5 -40t-25 -46.5t-9 -44h-19v165h440l-260 -434h48q47 0 77.5 9t48.5 30t26.5 44t15.5 61h19zM226 525l-110 204h25l139 -114l135 114h25l-111 -204h-103z" />
    <glyph glyph-name="florin" unicode="&#x192;" horiz-adv-x="612" 
d="M90 335v31h121q2 67 17.5 127.5t46.5 112t84.5 82t122.5 30.5q43 0 78.5 -23.5t35.5 -70.5q0 -31 -18 -47.5t-49 -16.5q-29 0 -46 19t-17 47q0 19 10 38.5t27 24.5q-10 10 -33 10q-47 0 -57 -128q-14 -181 -16 -205h119v-31h-119q-2 -17 -6 -73t-7 -91t-12 -93t-20 -96.5
t-31 -84t-45.5 -73t-63.5 -46t-84 -18.5q-48 0 -83.5 23.5t-35.5 68.5q0 27 19 45.5t47 18.5q30 0 47 -20t17 -49q0 -20 -12 -35.5t-30 -19.5q7 -13 30 -13q27 0 40.5 16.5t17.5 60.5q18 223 26 479h-121z" />
    <glyph glyph-name="circumflex" unicode="&#x2c6;" horiz-adv-x="278" 
d="M-23 525l111 204h103l110 -204h-25l-139 114l-135 -114h-25z" />
    <glyph glyph-name="caron" unicode="&#x2c7;" horiz-adv-x="278" 
d="M87 525l-110 204h25l139 -114l135 114h25l-111 -204h-103z" />
    <glyph glyph-name="uni02C9" unicode="&#x2c9;" horiz-adv-x="278" 
d="M-32 572v78h342v-78h-342z" />
    <glyph glyph-name="breve" unicode="&#x2d8;" horiz-adv-x="278" 
d="M-24 715h25q0 -95 138 -95t138 95h25q0 -87 -41 -136t-122 -49q-84 0 -123.5 52.5t-39.5 132.5z" />
    <glyph glyph-name="dotaccent" unicode="&#x2d9;" horiz-adv-x="278" 
d="M55 622q0 34 24.5 59t59.5 25t59.5 -25t24.5 -59t-24.5 -59t-59.5 -25t-59.5 25t-24.5 59z" />
    <glyph glyph-name="ring" unicode="&#x2da;" horiz-adv-x="278" 
d="M36 615q0 43 30 73t73 30t73 -30t30 -73t-30 -73t-73 -30t-73 30t-30 73zM73 615q0 -27 19.5 -46.5t46.5 -19.5t46.5 19.5t19.5 46.5t-19.5 46.5t-46.5 19.5t-46.5 -19.5t-19.5 -46.5z" />
    <glyph glyph-name="ogonek" unicode="&#x2db;" horiz-adv-x="278" 
d="M242 7h22q-69 -89 -67 -116q0 -37 40 -37q31 0 50 12l10 -12q-69 -59 -116 -60q-37 0 -60.5 19.5t-23.5 55.5q0 39 32.5 67.5t112.5 70.5z" />
    <glyph glyph-name="tilde" unicode="&#x2dc;" horiz-adv-x="278" 
d="M297 702h25q0 -54 -25.5 -95t-75.5 -41q-33 0 -104.5 23t-82.5 23q-53 0 -53 -46h-25q0 54 25.5 95t75.5 41q32 0 103.5 -23t83.5 -23q53 0 53 46z" />
    <glyph glyph-name="hungarumlaut" unicode="&#x2dd;" horiz-adv-x="278" 
d="M0 525l60 133q17 40 34 55.5t55 15.5q29 0 45 -7.5t16 -30.5q0 -8 -3 -15.5t-10.5 -15t-12.5 -11.5t-16.5 -12.5t-14.5 -10.5l-130 -101h-23zM188 525l60 133q17 40 34 55.5t55 15.5q29 0 45 -7.5t16 -30.5q0 -8 -3 -15.5t-10.5 -15t-12.5 -11.5t-16.5 -12.5t-14.5 -10.5
l-130 -101h-23z" />
    <glyph glyph-name="uni03A9" unicode="&#x3a9;" horiz-adv-x="800" 
d="M765 196l-32 -196h-291l-12 27q2 4 15.5 38t18 44.5t17 43t17.5 49.5t14 47t12.5 51t7 47t3.5 49q-1 273 -138 273q-67 0 -99.5 -61t-32.5 -214q0 -129 101 -367l-10 -27h-293l-28 196h43q17 -43 34 -56t54 -13h91q-40 27 -65 46.5t-58 54.5t-49.5 79t-16.5 97
q0 141 93 226t240 85q148 0 239 -83t91 -223q0 -39 -13 -75.5t-29 -62t-47.5 -55.5t-52 -46t-57.5 -43h109q33 0 48.5 13t32.5 56h43z" />
    <glyph glyph-name="uni03BC" unicode="&#x3bc;" 
d="M80 76v358h-55v19h60q137 0 175 18v-347q0 -46 10 -66.5t37 -20.5q44 0 72 40.5t28 70.5v286h-55v19h60q137 0 175 18v-452h55v-19h-236v83h-2q-25 -45 -71 -70t-97 -25q-23 0 -34 10q2 -43 12.5 -99t10.5 -78q0 -38 -25.5 -58.5t-53.5 -20.5q-32 0 -55.5 20t-23.5 59
q0 22 6.5 104t6.5 151z" />
    <glyph glyph-name="pi" unicode="&#x3c0;" horiz-adv-x="651" 
d="M591 503l36 -8q-2 -35 -17 -83t-27 -63q-19 -8 -65 -8q-6 -74 -5 -171q0 -86 40 -86q17 0 42 15l14 -35q-21 -31 -61.5 -54.5t-80.5 -23.5q-124 0 -124 146q0 56 9 211q-28 0 -61 1t-50 1v-5q0 -245 -70 -334q-40 -16 -84 -20l-10 28q51 74 76 164t25 169q-44 1 -71 -6
t-64 -28l-20 39q2 2 11.5 15.5t12.5 17.5t13 16t15 16.5t16.5 14t20.5 13.5t22.5 10.5t27 9t30.5 4.5t36 2q174 -2 298 -2q26 0 40 7t25 27z" />
    <glyph glyph-name="endash" unicode="&#x2013;" horiz-adv-x="500" 
d="M0 203v100h500v-100h-500z" />
    <glyph glyph-name="emdash" unicode="&#x2014;" horiz-adv-x="1000" 
d="M0 203v100h1000v-100h-1000z" />
    <glyph glyph-name="quoteleft" unicode="&#x2018;" horiz-adv-x="334" 
d="M244 722l4 -18q-122 -51 -122 -134q0 -19 3 -28q23 13 53 13q36 0 58.5 -26t22.5 -62q0 -38 -26.5 -62t-61.5 -24q-51 0 -77.5 34.5t-26.5 91.5q0 90 43.5 141t129.5 74z" />
    <glyph glyph-name="quoteright" unicode="&#x2019;" horiz-adv-x="334" 
d="M90 381l-4 18q122 51 122 134q0 19 -3 28q-23 -13 -53 -13q-36 0 -58.5 26t-22.5 62q0 38 26.5 62t61.5 24q51 0 77.5 -34.5t26.5 -91.5q0 -90 -43.5 -141t-129.5 -74z" />
    <glyph glyph-name="quotesinglbase" unicode="&#x201a;" horiz-adv-x="334" 
d="M90 -169l-4 18q122 51 122 134q0 19 -3 28q-23 -13 -53 -13q-36 0 -58.5 26t-22.5 62q0 38 26.5 62t61.5 24q51 0 77.5 -34.5t26.5 -91.5q0 -90 -43.5 -141t-129.5 -74z" />
    <glyph glyph-name="quotedblleft" unicode="&#x201c;" horiz-adv-x="610" 
d="M269 722l4 -18q-122 -51 -122 -134q0 -19 3 -28q23 13 53 13q36 0 58.5 -26t22.5 -62q0 -38 -26.5 -62t-61.5 -24q-51 0 -77.5 34.5t-26.5 91.5q0 90 43.5 141t129.5 74zM495 722l4 -18q-122 -51 -122 -134q0 -19 3 -28q23 13 53 13q36 0 58.5 -26t22.5 -62
q0 -38 -26.5 -62t-61.5 -24q-51 0 -77.5 34.5t-26.5 91.5q0 90 43.5 141t129.5 74z" />
    <glyph glyph-name="quotedblright" unicode="&#x201d;" horiz-adv-x="610" 
d="M341 381l-4 18q122 51 122 134q0 19 -3 28q-23 -13 -53 -13q-36 0 -58.5 26t-22.5 62q0 38 26.5 62t61.5 24q51 0 77.5 -34.5t26.5 -91.5q0 -90 -43.5 -141t-129.5 -74zM115 381l-4 18q122 51 122 134q0 19 -3 28q-23 -13 -53 -13q-36 0 -58.5 26t-22.5 62q0 38 26.5 62
t61.5 24q51 0 77.5 -34.5t26.5 -91.5q0 -90 -43.5 -141t-129.5 -74z" />
    <glyph glyph-name="quotedblbase" unicode="&#x201e;" horiz-adv-x="610" 
d="M341 -169l-4 18q122 51 122 134q0 19 -3 28q-23 -13 -53 -13q-36 0 -58.5 26t-22.5 62q0 38 26.5 62t61.5 24q51 0 77.5 -34.5t26.5 -91.5q0 -90 -43.5 -141t-129.5 -74zM115 -169l-4 18q122 51 122 134q0 19 -3 28q-23 -13 -53 -13q-36 0 -58.5 26t-22.5 62
q0 38 26.5 62t61.5 24q51 0 77.5 -34.5t26.5 -91.5q0 -90 -43.5 -141t-129.5 -74z" />
    <glyph glyph-name="dagger" unicode="&#x2020;" horiz-adv-x="722" 
d="M24 359q0 28 95 53q-2 13 -7 36.5t-5 29.5q0 13 12 13q7 0 29.5 -17t50 -38t69 -40.5t81.5 -23.5q-4 49 -23.5 96.5t-40.5 76.5t-38 52t-17 30q0 12 13 12q6 0 29.5 -5t36.5 -7q25 95 53 95q27 0 52 -95q13 2 36.5 7t29.5 5q13 0 13 -12q0 -7 -17 -30t-38 -52
t-40.5 -76.5t-23.5 -96.5q40 4 81.5 23.5t68.5 40.5t49.5 38t29.5 17q12 0 12 -13q0 -6 -5 -29.5t-7 -36.5q95 -25 95 -53q0 -27 -95 -52q2 -13 7 -36.5t5 -29.5q0 -13 -12 -13q-7 0 -29.5 17t-49.5 38t-68.5 40.5t-81.5 23.5q0 -68 13 -145t31 -139.5t36 -114t31 -83
t13 -32.5q0 -10 -14 -10q-9 0 -63 19q-5 -11 -12 -28t-11.5 -27.5t-10.5 -22t-12 -17t-12 -5.5q-7 0 -13.5 5.5t-13 17t-11 22t-11.5 28t-12 27.5q-54 -19 -63 -19q-14 0 -14 10q0 1 13 32.5t31 83t36 114t31 139.5t13 145q-40 -4 -81.5 -23.5t-69 -40.5t-50 -38t-29.5 -17
q-12 0 -12 13q0 6 5 29.5t7 36.5q-95 25 -95 52z" />
    <glyph glyph-name="daggerdbl" unicode="&#x2021;" horiz-adv-x="722" 
d="M361 722q16 0 30 -30.5t15 -65.5q8 1 30.5 6.5t29.5 5.5q13 0 13 -12q0 -8 -26.5 -35.5t-53 -70t-26.5 -85.5q58 0 110 26.5t82.5 53t37.5 26.5q12 0 12 -13q0 -7 -5.5 -29t-6.5 -29q28 -2 61.5 -17t33.5 -29q0 -13 -33 -27t-62 -17q1 -8 6.5 -27.5t5.5 -25.5
q0 -13 -12 -13q-7 0 -37.5 24t-82.5 48t-110 24q0 -58 12 -98.5t49 -78.5q-37 -38 -49 -78.5t-12 -98.5q58 0 110 26.5t82.5 53t37.5 26.5q12 0 12 -13q0 -7 -5.5 -29t-6.5 -29q28 -2 61.5 -17t33.5 -29q0 -12 -33 -26.5t-62 -18.5q1 -8 6.5 -26.5t5.5 -25.5q0 -13 -12 -13
q-7 0 -37.5 24t-82.5 48t-110 24q0 -43 26.5 -85.5t53 -70t26.5 -35.5q0 -12 -13 -12q-7 0 -29.5 5.5t-30.5 6.5q-1 -35 -15 -66.5t-30 -31.5t-30 31.5t-15 66.5q-8 -1 -30.5 -6.5t-29.5 -5.5q-13 0 -13 12q0 7 16.5 26t36 41t36 56.5t16.5 67.5q-58 0 -109.5 -24t-82 -48
t-37.5 -24q-12 0 -12 13q0 7 5.5 25.5t6.5 26.5q-29 4 -62 18.5t-33 26.5q0 14 33.5 29t61.5 17q-1 7 -6.5 29t-5.5 29q0 13 12 13q7 0 37.5 -26.5t82 -53t109.5 -26.5q0 58 -11.5 98.5t-48.5 78.5q37 38 48.5 78.5t11.5 98.5q-58 0 -109.5 -24t-82 -48t-37.5 -24
q-12 0 -12 13q0 6 5.5 25.5t6.5 27.5q-29 3 -62 17t-33 27q0 14 33.5 29t61.5 17q-1 7 -6.5 29t-5.5 29q0 13 12 13q7 0 37.5 -26.5t82 -53t109.5 -26.5q0 33 -16.5 67.5t-36 56.5t-36 41t-16.5 26q0 12 13 12q7 0 29.5 -5.5t30.5 -6.5q1 35 15 65.5t30 30.5z" />
    <glyph glyph-name="bullet" unicode="&#x2022;" horiz-adv-x="500" 
d="M74 352q0 73 51.5 124.5t124.5 51.5t124.5 -51.5t51.5 -124.5t-51.5 -124.5t-124.5 -51.5t-124.5 51.5t-51.5 124.5z" />
    <glyph glyph-name="ellipsis" unicode="&#x2026;" horiz-adv-x="1000" 
d="M74 79q0 38 27.5 65.5t65.5 27.5t65.5 -27.5t27.5 -65.5t-27.5 -65.5t-65.5 -27.5t-65.5 27.5t-27.5 65.5zM407 79q0 38 27.5 65.5t65.5 27.5t65.5 -27.5t27.5 -65.5t-27.5 -65.5t-65.5 -27.5t-65.5 27.5t-27.5 65.5zM740 79q0 38 27.5 65.5t65.5 27.5t65.5 -27.5
t27.5 -65.5t-27.5 -65.5t-65.5 -27.5t-65.5 27.5t-27.5 65.5z" />
    <glyph glyph-name="perthousand" unicode="&#x2030;" horiz-adv-x="1000" 
d="M698 148q0 71 40.5 116.5t105.5 45.5t105.5 -45.5t40.5 -116.5q0 -68 -39 -115t-107 -47t-107 47t-39 115zM804 241v-186q0 -56 40 -56q20 0 30 12t10 44v186q0 32 -10 44t-30 12q-40 0 -40 -56zM356 148q0 71 40.5 116.5t105.5 45.5t105.5 -45.5t40.5 -116.5
q0 -68 -39 -115t-107 -47t-107 47t-39 115zM462 241v-186q0 -56 40 -56q20 0 30 12t10 44v186q0 32 -10 44t-30 12q-40 0 -40 -56zM10 556q0 71 40.5 116.5t105.5 45.5t105.5 -45.5t40.5 -116.5q0 -68 -39 -115t-107 -47t-107 47t-39 115zM116 649v-186q0 -56 40 -56
q20 0 30 12t10 44v186q0 32 -10 44t-30 12q-40 0 -40 -56zM108 -22l391 748h44l-391 -748h-44z" />
    <glyph glyph-name="guilsinglleft" unicode="&#x2039;" horiz-adv-x="334" 
d="M58 253l140 174h79l-142 -174l142 -174h-79z" />
    <glyph glyph-name="guilsinglright" unicode="&#x203a;" horiz-adv-x="334" 
d="M277 253l-140 -174h-79l141 174l-141 174h79z" />
    <glyph glyph-name="fraction" unicode="&#x2044;" horiz-adv-x="167" 
d="M-119 -18h-44l449 740h44z" />
    <glyph glyph-name="Euro" unicode="&#x20ac;" horiz-adv-x="612" 
d="M564 561h-29q-17 97 -114 97q-64 0 -96.5 -58t-41.5 -170h224l-23 -55h-202q-1 -10 -1 -31v-31h175l-23 -55h-150q6 -103 42 -158t98 -55q95 0 112 94h29l-8 -103q-52 -49 -178 -49q-132 0 -200.5 68t-84.5 203h-75l23 55h44q-2 10 -2 33q0 20 1 29h-66l23 55h47
q18 142 86.5 215t203.5 73q125 0 178 -49z" />
    <glyph glyph-name="afii61289" unicode="&#x2113;" horiz-adv-x="511" 
d="M464 167l30 -28q-82 -152 -221 -152q-91 0 -134 43q-23 27 -33.5 59t-10.5 102v49l-60 -34l-16 41l76 47v146q0 98 12.5 151t45.5 96q62 79 145 79q63 0 95.5 -43t32.5 -109q0 -83 -38.5 -145t-127.5 -139v-71q0 -95 18 -135t67 -40q59 0 119 83zM260 495v-96
q73 82 73 213q0 109 -38 109q-24 0 -29.5 -40.5t-5.5 -185.5z" />
    <glyph glyph-name="trademark" unicode="&#x2122;" horiz-adv-x="1000" 
d="M102 300v19h53v366h-51q-27 0 -45.5 -21t-18.5 -48h-19v88h379v-88h-19q0 27 -18 48t-46 21h-50v-366h52v-19h-217zM763 300v19h52v259h-2l-143 -277h-16l-131 277h-2v-259h52v-19h-135v19h52v366h-52v19h136l131 -270l141 270h133v-19h-52v-366h51v-19h-215z" />
    <glyph glyph-name="Omega" unicode="&#x2126;" horiz-adv-x="800" 
d="M765 196l-32 -196h-291l-12 27q2 4 15.5 38t18 44.5t17 43t17.5 49.5t14 47t12.5 51t7 47t3.5 49q-1 273 -138 273q-67 0 -99.5 -61t-32.5 -214q0 -129 101 -367l-10 -27h-293l-28 196h43q17 -43 34 -56t54 -13h91q-40 27 -65 46.5t-58 54.5t-49.5 79t-16.5 97
q0 141 93 226t240 85q148 0 239 -83t91 -223q0 -39 -13 -75.5t-29 -62t-47.5 -55.5t-52 -46t-57.5 -43h109q33 0 48.5 13t32.5 56h43z" />
    <glyph glyph-name="estimated" unicode="&#x212e;" horiz-adv-x="881" 
d="M846 341h-657q-6 0 -6 -4v-199q0 -10 9 -23q105 -108 249 -108q77 0 144.5 32.5t116.5 88.5h59q-56 -65 -140.5 -103t-180.5 -38q-168 0 -287 106.5t-119 257.5t119 258t287 107t287 -107t119 -258v-10zM697 367v200q0 15 -10 24q-106 104 -246 104q-143 0 -248 -107
q-10 -12 -10 -25v-196q0 -6 6 -6h504q4 0 4 6z" />
    <glyph glyph-name="partialdiff" unicode="&#x2202;" horiz-adv-x="616" 
d="M294 446h1q78 0 118 -52q12 63 15 117q6 94 -24 149q-29 48 -98 48q-70 0 -166 -79q-18 0 -40.5 44.5t-11.5 69.5q78 39 163 39q167 0 254 -150q62 -107 62 -243q0 -144 -57 -246q-83 -156 -254 -156q-97 0 -155 56t-58 151q0 105 68 177q70 75 183 75zM336 387h-1
q-51 0 -82 -55q-45 -86 -45 -220q0 -80 55 -80q42 0 87 104q35 87 51 202q-23 49 -65 49z" />
    <glyph glyph-name="Delta" unicode="&#x2206;" horiz-adv-x="724" 
d="M687 0h-651v47l280 651l78 17l293 -668v-47zM474 78l-178 419l-172 -419h350z" />
    <glyph glyph-name="product" unicode="&#x220f;" horiz-adv-x="804" 
d="M775 719v-41q-68 -6 -84 -25t-16 -91v-486q0 -74 16 -92.5t84 -25.5v-42h-353v42q54 5 65 22.5t11 95.5v550q0 27 -7 34t-34 7h-115q-25 0 -31 -6.5t-6 -32.5v-552q0 -77 9.5 -95t59.5 -23v-42h-346v42q67 6 83 25.5t16 92.5v486q0 73 -16.5 91.5t-86.5 24.5v41h751z" />
    <glyph glyph-name="summation" unicode="&#x2211;" horiz-adv-x="626" 
d="M603 158l-55 -253h-522v43l227 303l-222 424v44h516q1 -8 3 -40t5.5 -79t5.5 -80l-43 -10q-24 78 -44 113q-16 27 -37.5 36.5t-77.5 9.5h-121l159 -301l-234 -321h235q74 0 98.5 18t63.5 104z" />
    <glyph glyph-name="minus" unicode="&#x2212;" horiz-adv-x="600" 
d="M553 197h-506v112h506v-112z" />
    <glyph glyph-name="uni2215" unicode="&#x2215;" horiz-adv-x="167" 
d="M-119 -18h-44l449 740h44z" />
    <glyph glyph-name="uni2219" unicode="&#x2219;" horiz-adv-x="306" 
d="M57 269q0 40 28 68t68 28t68 -28t28 -68t-28 -68t-68 -28t-68 28t-28 68z" />
    <glyph glyph-name="radical" unicode="&#x221a;" horiz-adv-x="613" 
d="M608 881l-195 -1059l-39 -15l-224 547l-94 -41l-16 50l223 97l137 -362h3l143 794z" />
    <glyph glyph-name="infinity" unicode="&#x221e;" horiz-adv-x="800" 
d="M754 291v-1q0 -88 -52 -139.5t-122 -51.5q-48 0 -91.5 22t-88.5 88q-42 -55 -84.5 -82.5t-100.5 -27.5q-68 0 -119 51.5t-51 133.5q0 83 51.5 135.5t128.5 52.5q56 0 98.5 -25.5t81.5 -79.5q1 1 13 15t16 18t17 16.5t21 18t22.5 14.5t27 13t29.5 7t34 3
q70 -1 119.5 -50.5t49.5 -130.5zM226 192h2q57 0 121 87q-21 32 -28 41.5t-24.5 28.5t-33.5 25t-38 6q-38 0 -61.5 -26t-23.5 -71q0 -37 25.5 -64t60.5 -27zM575 380h-1q-19 0 -36.5 -7.5t-36 -27t-24.5 -26.5t-25 -32q41 -57 67.5 -76t61.5 -19t56 29t21 61
q0 41 -22.5 69.5t-60.5 28.5z" />
    <glyph glyph-name="integral" unicode="&#x222b;" horiz-adv-x="458" 
d="M173 -33l-23 397q-7 116 5 206t34.5 140.5t54.5 82.5t59.5 42t56.5 10q35 0 64 -19t29 -51q0 -36 -22.5 -56t-52.5 -20q-16 0 -27 12.5t-15 28t-10 28t-13 12.5t-11 -5.5t-6 -21t-2 -42.5t3 -71l21 -365q13 -243 -51.5 -373t-167.5 -130q-37 0 -64 21t-28 51
q-1 34 27.5 57.5t59.5 23.5q18 0 28.5 -22.5t17 -45t15.5 -22.5q28 0 18 132z" />
    <glyph glyph-name="approxequal" unicode="&#x2248;" horiz-adv-x="568" 
d="M471 481l64 -62q-30 -52 -70.5 -81.5t-81.5 -29.5q-54 0 -112 38q-51 33 -83 33q-20 0 -39.5 -12t-28.5 -22.5t-28 -35.5l-64 61q24 46 69.5 78t95.5 32t104 -33q33 -22 48.5 -29.5t33.5 -7.5q25 0 46 17.5t46 53.5zM471 275l64 -62q-30 -52 -70.5 -81.5t-82.5 -29.5
q-53 0 -111 38q-52 33 -83 33q-21 0 -40 -12.5t-28.5 -23t-27.5 -35.5l-64 61q24 46 70 78t95 32q50 0 103 -32q7 -4 20.5 -13t20.5 -13t18.5 -8t22.5 -4q26 0 45.5 17t47.5 55z" />
    <glyph glyph-name="notequal" unicode="&#x2260;" horiz-adv-x="568" 
d="M432 528l-34 -79h122v-101h-161l-53 -125h214v-101h-254l-48 -113l-80 33l35 80h-126v101h165l53 125h-218v101h257l47 111z" />
    <glyph glyph-name="lessequal" unicode="&#x2264;" horiz-adv-x="568" 
d="M519 114l-468 224v109l467 223v-114l-367 -163v-2l368 -163v-114zM522 -23h-473v103h473v-103z" />
    <glyph glyph-name="greaterequal" unicode="&#x2265;" horiz-adv-x="568" 
d="M53 670l467 -224v-109l-467 -223v114l367 164v2l-367 162v114zM518 -23h-469v103h469v-103z" />
    <glyph glyph-name="lozenge" unicode="&#x25ca;" horiz-adv-x="629" 
d="M583 341l-206 -417h-126l-205 417l208 419h124zM468 341l-151 319h-4l-152 -319l153 -321h3z" />
    </font>
</defs>
</svg>
