<?xml version="1.0" standalone="no"?>
<!DOCTYPE svg PUBLIC "-//W3C//DTD SVG 1.1//EN" "http://www.w3.org/Graphics/SVG/1.1/DTD/svg11.dtd" >
<svg xmlns="http://www.w3.org/2000/svg" xmlns:xlink="http://www.w3.org/1999/xlink" version="1.1">
<metadata>
Created by FontForge 20170731 at Thu Jun  6 19:08:00 2002
 By Aleksey,,,
Copyright (c) 1989, 2002 Adobe Systems Incorporated.  All Rights Reserved.
</metadata>
<defs>
<font id="BauerBodoniStd-BlackCond" horiz-adv-x="278" >
  <font-face 
    font-family="Bauer Bodoni Std Black Cond"
    font-weight="900"
    font-stretch="condensed"
    units-per-em="1000"
    panose-1="2 7 8 6 8 9 6 2 3 4"
    ascent="735"
    descent="-265"
    x-height="478"
    cap-height="704"
    bbox="-123 -235 1000 936"
    underline-thickness="50"
    underline-position="-200"
    unicode-range="U+0020-FB02"
  />
<missing-glyph horiz-adv-x="500" 
d="M0 0v700h500v-700h-500zM250 395l170 255h-340zM280 350l170 -255v510zM80 50h340l-170 255zM50 605v-510l170 255z" />
    <glyph glyph-name="fi" unicode="fi" horiz-adv-x="537" 
d="M55 18v442h-42v18h42q-2 114 65.5 182.5t178.5 68.5q45 0 83.5 -9t69.5 -37t31 -71q0 -36 -25 -59t-61 -23q-34 0 -57 22t-23 58q0 23 10.5 39t21.5 25.5t11 16.5q0 20 -55 20q-44 0 -63 -25t-19 -85v-123h160q54 0 99 22v-482h42v-18h-246v18h36v442h-91v-442h30v-18
h-240v18h42z" />
    <glyph glyph-name="fl" unicode="fl" horiz-adv-x="537" 
d="M55 18v442h-42v18h42q3 111 50.5 181t151.5 70q32 0 74 -19q12 -6 50 -6q74 0 101 25v-711h42v-18h-246v18h36v536q-23 5 -37 23t-14 41q0 22 9.5 39.5t19.5 26t10 10.5q0 17 -37 17q-26 0 -34 -15t-8 -45v-173h53v-18h-53v-442h30v-18h-240v18h42z" />
    <glyph glyph-name=".notdef" horiz-adv-x="500" 
d="M0 0v700h500v-700h-500zM250 395l170 255h-340zM280 350l170 -255v510zM80 50h340l-170 255zM50 605v-510l170 255z" />
    <glyph glyph-name=".null" horiz-adv-x="0" 
 />
    <glyph glyph-name="nonmarkingreturn" horiz-adv-x="333" 
 />
    <glyph glyph-name="space" unicode=" " horiz-adv-x="260" 
 />
    <glyph glyph-name="exclam" unicode="!" 
d="M130 205v52q0 68 -27.5 168.5t-74.5 154.5q76 29 111 138q35 -109 111 -138q-47 -54 -74.5 -154.5t-27.5 -168.5v-52h-18zM55 70q0 34 24.5 59t59.5 25t59.5 -25t24.5 -59t-24.5 -59t-59.5 -25t-59.5 25t-24.5 59z" />
    <glyph glyph-name="quotedbl" unicode="&#x22;" horiz-adv-x="463" 
d="M95 422l-15 164q-4 46 -4 64q0 68 54 68t54 -68q0 -18 -4 -64l-15 -164q-3 -37 -35 -37t-35 37zM298 422l-15 164q-4 46 -4 64q0 68 54 68t54 -68q0 -18 -4 -64l-15 -164q-3 -37 -35 -37t-35 37z" />
    <glyph glyph-name="numbersign" unicode="#" horiz-adv-x="520" 
d="M68 0l27 195h-90v90h103l16 120h-90v90h103l27 195h96l-27 -195h96l27 195h96l-27 -195h90v-90h-103l-16 -120h90v-90h-103l-27 -195h-96l27 195h-96l-27 -195h-96zM316 405h-96l-16 -120h96z" />
    <glyph glyph-name="dollar" unicode="$" horiz-adv-x="520" 
d="M272 252v-248q48 2 80 35.5t32 85.5q0 74 -80 112zM242 458v228q-45 0 -75.5 -31.5t-30.5 -78.5q0 -72 106 -118zM51 -6v228h18q17 -110 57 -160t116 -58v258l-108 51q-47 22 -70.5 69.5t-23.5 106.5q0 102 62 157t140 58v58h30v-61q37 -5 71.5 -23t40.5 -18q24 0 30 36
h18v-198h-18q-6 75 -42 126t-100 59v-235l46 -17q88 -33 125 -84.5t37 -138.5q0 -81 -58.5 -151.5t-149.5 -70.5v-105h-30v105q-42 2 -71.5 13t-45.5 21t-26 10q-26 0 -30 -36h-18z" />
    <glyph glyph-name="percent" unicode="%" horiz-adv-x="722" 
d="M147 631v-216q0 -55 43 -55t43 55v216q0 55 -43 55t-43 -55zM341 523q0 -82 -45 -131.5t-106 -49.5t-106 49.5t-45 131.5t45 131.5t106 49.5t106 -49.5t45 -131.5zM489 275v-216q0 -55 43 -55t43 55v216q0 55 -43 55t-43 -55zM683 167q0 -82 -45 -131.5t-106 -49.5
t-106 49.5t-45 131.5t45 131.5t106 49.5t106 -49.5t45 -131.5zM152 -28l374 746h40l-374 -746h-40z" />
    <glyph glyph-name="ampersand" unicode="&#x26;" horiz-adv-x="685" 
d="M331 446l120 -180q14 25 24 41t27 35.5t37 29.5t42 9q30 -1 50 -22t20 -54q0 -32 -19 -52t-46 -20t-44 16.5t-17 39.5q0 8 1.5 16t2.5 13t1 6q0 8 -8 8q-13 0 -48 -59l-13 -23l48 -68q37 -52 54 -67t39 -15q28 0 57 44l15 -10l-69 -92q-24 -31 -43 -40.5t-56 -9.5
q-24 0 -49.5 15t-39.5 29t-24 27l-30 39q-49 -63 -92.5 -86.5t-97.5 -23.5q-61 0 -106.5 46t-45.5 107q0 74 41.5 125.5t119.5 107.5q-60 95 -60 158q0 66 47 110t122 44q57 0 92 -26t35 -83q0 -80 -87 -135zM192 361l-16 -11q-35 -28 -35 -65q0 -45 55 -127t93 -82
q27 0 48 24l15 17q-87 119 -160 244zM302 492l19 -31q79 47 79 120q0 33 -21 59t-57 26q-28 0 -45 -18.5t-17 -53.5q0 -37 42 -102z" />
    <glyph glyph-name="quotesingle" unicode="'" horiz-adv-x="260" 
d="M95 422l-15 164q-4 46 -4 64q0 68 54 68t54 -68q0 -18 -4 -64l-15 -164q-3 -37 -35 -37t-35 37z" />
    <glyph glyph-name="parenleft" unicode="(" horiz-adv-x="259" 
d="M91 265q0 -127 36.5 -228t131.5 -223l-41 -35q-187 212 -187 485q0 275 187 485l41 -34q-95 -121 -131.5 -222t-36.5 -228z" />
    <glyph glyph-name="parenright" unicode=")" horiz-adv-x="259" 
d="M41 -221l-41 35q95 121 131.5 222.5t36.5 228.5q0 126 -36.5 227.5t-131.5 222.5l41 34q187 -210 187 -484q0 -276 -187 -486z" />
    <glyph glyph-name="asterisk" unicode="*" horiz-adv-x="426" 
d="M116 516q-10 0 -38.5 -2.5t-30.5 -2.5q-9 0 -9 9q0 10 17 25q-41 33 -41 45t22 12q16 0 42 -3q0 29 14 29q6 0 14 -10.5t16.5 -25.5t29 -35.5t47.5 -35.5q-1 33 -11.5 66.5t-20 53.5t-9.5 22q0 8 7 8q12 0 28 -7q6 16 8.5 22t7.5 15.5t9.5 13t9.5 3.5q9 0 21 -45
q3 -9 4 -14q7 2 19 2q13 0 13 -11q0 -2 -13 -17.5t-30.5 -46.5t-26.5 -67q35 13 63.5 33.5t42.5 35t17 14.5q14 0 14 -15q0 -13 -3 -18q39 -3 51 -6t12 -12q0 -11 -49 -40q5 -8 8 -18q2 -6 0 -11t-6 -5t-26.5 8t-55.5 15t-64 4q21 -27 51 -48.5t48.5 -32t18.5 -14.5
q0 -12 -30 -18q11 -42 11 -54q0 -11 -14 -11q-10 0 -48 34q-17 -17 -23 -17q-10 0 -10 11q0 2 1.5 17t1.5 23q0 54 -21 101q-20 -19 -30.5 -55t-15.5 -61.5t-12 -25.5q-9 0 -22 23q-13 -10 -31 -19t-24 -9q-10 0 -10 7q0 14 20 60q-23 9 -23 20q0 7 21.5 13t55.5 20t58 38
q-34 10 -76 10z" />
    <glyph glyph-name="plus" unicode="+" horiz-adv-x="600" 
d="M243 310v196h114v-196h196v-114h-196v-196h-114v196h-196v114h196z" />
    <glyph glyph-name="comma" unicode="," horiz-adv-x="260" 
d="M60 -179l-7 19q124 36 124 158v13q-28 -25 -60 -25q-28 0 -52 19t-24 62q0 36 23.5 61.5t62.5 25.5q34 0 63 -30.5t29 -97.5q0 -73 -38 -129.5t-121 -75.5z" />
    <glyph glyph-name="hyphen" unicode="-" horiz-adv-x="370" 
d="M28 203q25 60 36 100q90 -2 135 -2q49 0 143 2q-26 -66 -35 -100q-90 2 -135 2q-48 0 -144 -2z" />
    <glyph glyph-name="period" unicode="." horiz-adv-x="260" 
d="M43 73q0 36 25.5 61.5t61.5 25.5t61.5 -25.5t25.5 -61.5t-25.5 -61.5t-61.5 -25.5t-61.5 25.5t-25.5 61.5z" />
    <glyph glyph-name="slash" unicode="/" horiz-adv-x="352" 
d="M366 718l-266 -732h-114l266 732h114z" />
    <glyph glyph-name="zero" unicode="0" horiz-adv-x="520" 
d="M311 62v566q0 58 -51 58t-51 -58v-566q0 -58 51 -58t51 58zM491 345q0 -93 -25.5 -173t-79.5 -133t-126 -53t-126 53t-79.5 133t-25.5 173t25.5 173t79.5 133t126 53t126 -53t79.5 -133t25.5 -173z" />
    <glyph glyph-name="one" unicode="1" horiz-adv-x="520" 
d="M142 0v18h61v545q0 7 -7 7q-5 0 -17 -7l-92 -46v20q136 77 195 153h95v-672h56v-18h-291z" />
    <glyph glyph-name="two" unicode="2" horiz-adv-x="520" 
d="M458 144l6 49h15l-19 -193h-428q22 66 53.5 116.5t60.5 77.5t59.5 56.5t52.5 55.5t36 73t14 111v76q0 61 -24.5 87.5t-73.5 26.5q-57 0 -95.5 -34.5t-38.5 -70.5q0 -16 6 -16q4 0 22 7.5t35 7.5q31 0 49.5 -19.5t18.5 -48.5q0 -76 -77 -76q-41 0 -62.5 30.5t-21.5 60.5
q0 83 54.5 133t145.5 50q120 0 181 -54t61 -141q0 -60 -27.5 -105.5t-71.5 -76t-91 -55.5t-94.5 -58t-72.5 -70h327z" />
    <glyph glyph-name="three" unicode="3" horiz-adv-x="520" 
d="M295 87v206q0 31 -26.5 47.5t-69.5 16.5h-66v18h43q78 0 96 26t18 116v80q0 86 -75 86q-25 0 -48.5 -9t-23.5 -24q0 -6 15 -12.5t30 -19.5t15 -37q0 -36 -21 -55.5t-54 -19.5t-53 22.5t-20 47.5q0 59 51.5 93.5t141.5 34.5q88 0 149 -45t61 -125q0 -143 -194 -167v-2
q217 -12 217 -183q0 -54 -24 -94t-65 -61.5t-86.5 -31t-96.5 -9.5q-69 0 -119.5 32.5t-50.5 96.5q0 31 22.5 53.5t52.5 22.5q33 0 53 -20t20 -53q0 -23 -10.5 -37.5t-23 -18.5t-23 -9.5t-10.5 -14.5q0 -12 23.5 -23t60.5 -11q48 0 69.5 25t21.5 58z" />
    <glyph glyph-name="four" unicode="4" horiz-adv-x="520" 
d="M69 254h203v297h-2zM217 0v18h55v158h-249v44l318 470h87v-436h69v-78h-69v-158h55v-18h-266z" />
    <glyph glyph-name="five" unicode="5" horiz-adv-x="520" 
d="M294 138v151q0 106 -86 106q-65 0 -127 -62q18 169 18 225v139q71 -7 168 -7q102 0 124.5 2t25.5 12l2 6h16q-5 -91 -35 -125q-32 -39 -113 -39q-19 0 -55.5 1.5t-54.5 1.5q-33 0 -60 -3q-5 -99 -14 -172q59 51 138 51q122 0 180.5 -60.5t58.5 -158.5q0 -74 -39.5 -125
t-98 -73t-130.5 -22q-67 0 -119.5 33.5t-52.5 88.5q0 38 21 59t59 21q28 0 49 -18t21 -46q0 -37 -17 -52.5t-34 -20.5t-17 -16q0 -17 27.5 -24t53.5 -7q51 0 71 29.5t20 104.5z" />
    <glyph glyph-name="six" unicode="6" horiz-adv-x="520" 
d="M209 330v-266q0 -60 50 -60q52 0 52 60v287q0 20 -12 32t-31 12q-28 0 -43.5 -18.5t-15.5 -46.5zM413 704v-18q-202 -16 -202 -250v-52h2q11 16 38.5 28.5t55.5 12.5q80 0 132 -60.5t52 -137.5q0 -62 -21.5 -110.5t-56.5 -75.5t-73 -41t-75 -14q-119 0 -177.5 81
t-58.5 222q0 87 25.5 158.5t65.5 116.5t92.5 77t102 46t98.5 17z" />
    <glyph glyph-name="seven" unicode="7" horiz-adv-x="520" 
d="M65 690h418q-8 -18 -69.5 -142t-100 -220t-38.5 -147q0 -21 9 -55.5t9 -52.5q0 -39 -25 -63t-62 -24q-32 0 -53.5 21t-21.5 53q0 49 98 209l166 271h-331l-9 -52h-18q21 115 28 202z" />
    <glyph glyph-name="eight" unicode="8" horiz-adv-x="520" 
d="M491 170q0 -83 -71.5 -133.5t-159.5 -50.5t-159.5 50.5t-71.5 133.5q0 157 194 192v2q-70 13 -120 56.5t-50 109.5q0 78 63.5 126t143.5 48t143.5 -48t63.5 -126q0 -66 -50 -109.5t-120 -56.5v-2q194 -35 194 -192zM203 301v-241q0 -23 13.5 -39.5t43.5 -16.5t43.5 16.5
t13.5 39.5v241q0 23 -13.5 39.5t-43.5 16.5t-43.5 -16.5t-13.5 -39.5zM209 635v-210q0 -23 14.5 -36.5t36.5 -13.5t36.5 13.5t14.5 36.5v210q0 23 -13 37t-38 14t-38 -14t-13 -37z" />
    <glyph glyph-name="nine" unicode="9" horiz-adv-x="520" 
d="M311 360v266q0 60 -50 60q-52 0 -52 -60v-287q0 -20 12 -32t31 -12q28 0 43.5 18.5t15.5 46.5zM107 -14v18q202 16 202 250v52h-2q-11 -16 -38.5 -28.5t-55.5 -12.5q-80 0 -132 60.5t-52 137.5q0 62 21.5 110.5t56.5 75.5t73 41t75 14q119 0 177.5 -81t58.5 -222
q0 -87 -25.5 -158.5t-65.5 -116.5t-92.5 -77t-102 -46t-98.5 -17z" />
    <glyph glyph-name="colon" unicode=":" horiz-adv-x="260" 
d="M43 73q0 36 25.5 61.5t61.5 25.5t61.5 -25.5t25.5 -61.5t-25.5 -61.5t-61.5 -25.5t-61.5 25.5t-25.5 61.5zM43 369q0 36 25.5 61.5t61.5 25.5t61.5 -25.5t25.5 -61.5t-25.5 -61.5t-61.5 -25.5t-61.5 25.5t-25.5 61.5z" />
    <glyph glyph-name="semicolon" unicode=";" horiz-adv-x="260" 
d="M61 -179l-7 19q124 36 124 158v13q-28 -25 -60 -25q-28 0 -52 19t-24 62q0 36 23.5 61.5t62.5 25.5q34 0 63 -30.5t29 -97.5q0 -73 -38 -129.5t-121 -75.5zM40 369q0 36 25.5 61.5t61.5 25.5t61.5 -25.5t25.5 -61.5t-25.5 -61.5t-61.5 -25.5t-61.5 25.5t-25.5 61.5z" />
    <glyph glyph-name="less" unicode="&#x3c;" horiz-adv-x="600" 
d="M553 100v-108l-506 216v90l506 216v-108l-362 -153z" />
    <glyph glyph-name="equal" unicode="=" horiz-adv-x="600" 
d="M553 416v-114h-506v114h506zM553 201v-114h-506v114h506z" />
    <glyph glyph-name="greater" unicode="&#x3e;" horiz-adv-x="600" 
d="M47 100l362 153l-362 153v108l506 -216v-90l-506 -216v108z" />
    <glyph glyph-name="question" unicode="?" horiz-adv-x="370" 
d="M127 202v187q0 32 14 46l69 72q47 48 47 97q0 39 -27.5 60.5t-67.5 21.5q-12 0 -31.5 -5.5t-19.5 -16.5q0 -5 14.5 -12.5t29.5 -23.5t15 -41q0 -30 -20.5 -52.5t-51.5 -22.5q-34 0 -54.5 23t-20.5 58q0 53 42 82t100 29q87 0 134.5 -52.5t47.5 -125.5q0 -84 -52 -134
l-138 -130q-12 -11 -12 -36v-24h-18zM60 70q0 34 25 59t59 25t59 -25t25 -59t-25 -59t-59 -25t-59 25t-25 59z" />
    <glyph glyph-name="at" unicode="@" horiz-adv-x="800" 
d="M349 304q0 -42 13.5 -66.5t35.5 -24.5q26 0 47.5 25t34 59.5t19.5 67t7 52.5q0 42 -11 55t-29 13q-38 0 -77.5 -53.5t-39.5 -127.5zM634 110l10 -58q-114 -66 -216 -66q-79 0 -146 22.5t-111.5 59t-76 83.5t-46 94t-14.5 91q0 167 112.5 274.5t272.5 107.5
q148 0 247.5 -89t99.5 -223q0 -57 -22 -114t-68.5 -98t-105.5 -41q-46 0 -70.5 28t-24.5 49h-2q-7 -20 -44 -48.5t-74 -28.5t-69.5 31t-32.5 99q0 36 13.5 79.5t37.5 85t65.5 69.5t90.5 28q12 0 21.5 -2.5t15 -4.5t11.5 -9.5t8 -9.5t8 -12.5t6 -11.5l12 36h79l-63 -254
q-2 -9 -2 -26q0 -15 7 -29.5t23 -14.5q36 0 69 66.5t33 133.5q0 92 -75.5 165.5t-195.5 73.5q-46 0 -90.5 -17.5t-84 -53.5t-64 -101t-24.5 -149q0 -112 82.5 -189.5t188.5 -77.5q65 0 111.5 13t97.5 39z" />
    <glyph glyph-name="A" unicode="A" horiz-adv-x="481" 
d="M-34 0v18h12q35 0 51 60l177 626h65l186 -686h36v-18h-269v18h48l-44 179h-143l-26 -104q-10 -40 -10 -45q0 -17 8.5 -23.5t28.5 -6.5h16v-18h-136zM222 215l-61 250h-2l-69 -250h132z" />
    <glyph glyph-name="B" unicode="B" horiz-adv-x="556" 
d="M235 686v-310h33q38 0 52 38t14 118q0 50 -3 79.5t-16.5 52t-39.5 22.5h-40zM61 18v668h-48v18h304q94 0 142.5 -48t48.5 -120q0 -154 -201 -166v-2q95 -2 155.5 -45t60.5 -134q0 -96 -65.5 -142.5t-170.5 -46.5h-274v18h48zM235 358v-340h38q17 0 29.5 7t20 22t12 28.5
t6 38t2 38t0.5 39.5q0 32 -0.5 47t-2.5 38.5t-6.5 35t-12 24t-20 17.5t-30.5 5h-36z" />
    <glyph glyph-name="C" unicode="C" horiz-adv-x="500" 
d="M467 712l6 -206h-18q-7 32 -12.5 51t-18 50t-26.5 48.5t-37 31t-52 13.5q-90 0 -90 -204v-303q0 -106 20.5 -147.5t71.5 -41.5q45 0 86 49t61 143h18l-4 -198h-18q-2 10 -3.5 14.5t-7 9t-14.5 4.5q-5 0 -48.5 -20t-90.5 -20q-61 0 -111.5 35t-81 90.5t-47.5 118
t-17 122.5q0 155 80.5 260.5t184.5 105.5q40 0 67 -9.5t40.5 -19t21.5 -9.5q9 0 15.5 11t6.5 21h18z" />
    <glyph glyph-name="D" unicode="D" horiz-adv-x="593" 
d="M235 686v-668h32q44 0 65 24.5t31.5 99t10.5 228.5q0 137 -10.5 205.5t-30.5 89.5t-60 21h-38zM13 0v18h48v668h-48v18h256q291 0 291 -341q0 -59 -6.5 -107t-26 -97.5t-51.5 -83t-87 -54.5t-128 -21h-248z" />
    <glyph glyph-name="E" unicode="E" horiz-adv-x="481" 
d="M61 18v668h-48v18h427l6 -182h-18q-5 60 -48.5 112t-98.5 52h-46v-317h16q46 0 64 32t28 100h18v-283h-18q-8 133 -85 133h-23v-333h41q62 0 105 53.5t53 141.5h18l-10 -213h-429v18h48z" />
    <glyph glyph-name="F" unicode="F" horiz-adv-x="444" 
d="M13 0v18h48v668h-48v18h427l6 -182h-18q-5 60 -48.5 112t-98.5 52h-46v-317h16q46 0 64 32t28 100h18v-283h-18q-8 133 -85 133h-23v-333h50v-18h-272z" />
    <glyph glyph-name="G" unicode="G" horiz-adv-x="537" 
d="M502 259v-165q-36 -44 -83 -70.5t-75.5 -32t-54.5 -5.5q-60 0 -110.5 35t-81.5 90.5t-47.5 118t-16.5 122.5q0 158 77 262t187 104q47 0 93 -23.5t59 -23.5q16 0 23 33h19l4 -207h-20q-19 93 -62.5 148t-96.5 55q-59 0 -78 -44t-19 -146v-412q0 -94 56 -94q53 0 53 65
v190h-47v18h263v-18h-42z" />
    <glyph glyph-name="H" unicode="H" horiz-adv-x="593" 
d="M13 0v18h48v668h-48v18h264v-18h-42v-311h123v311h-42v18h264v-18h-48v-668h48v-18h-261v18h39v339h-123v-339h39v-18h-261z" />
    <glyph glyph-name="I" unicode="I" horiz-adv-x="296" 
d="M13 0v18h48v668h-48v18h270v-18h-48v-668h48v-18h-270z" />
    <glyph glyph-name="J" unicode="J" horiz-adv-x="407" 
d="M394 704v-18h-48v-564q0 -116 -61 -181.5t-145 -65.5q-51 0 -96.5 26.5t-45.5 80.5q0 38 19.5 62.5t51.5 24.5t52.5 -18.5t20.5 -48.5q0 -24 -22 -46.5t-22 -30.5q0 -15 9.5 -23.5t24.5 -8.5q40 0 40 46v747h-48v18h270z" />
    <glyph glyph-name="K" unicode="K" horiz-adv-x="537" 
d="M13 0v18h48v668h-48v18h264v-18h-42v-317h2l147 250q21 36 21 46q0 21 -34 21h-42v18h196v-18h-24q-22 0 -44.5 -13t-35.5 -34l-64 -105l181 -516h36v-18h-268v18h42l-111 344h-2v-344h42v-18h-264z" />
    <glyph glyph-name="L" unicode="L" horiz-adv-x="463" 
d="M13 0v18h48v668h-48v18h270v-18h-48v-668h41q57 0 95.5 61t53.5 140h18l-6 -219h-424z" />
    <glyph glyph-name="M" unicode="M" horiz-adv-x="722" 
d="M61 88v598h-48v18h245l104 -410h2l109 410h236v-18h-48v-668h48v-18h-270v18h48v656h-2l-180 -674h-42l-176 668h-2v-595q0 -55 40 -55h20v-18h-132v18h11q37 0 37 70z" />
    <glyph glyph-name="N" unicode="N" horiz-adv-x="519" 
d="M-2 0v18h21q22 0 30.5 13.5t8.5 42.5v585q0 27 -30 27h-22v18h225l204 -459h2v405q0 36 -42 36h-24v18h150v-18h-30q-20 0 -25 -10t-5 -32v-644h-105l-272 614h-2v-554q0 -23 6 -32.5t22 -9.5h28v-18h-140z" />
    <glyph glyph-name="O" unicode="O" horiz-adv-x="574" 
d="M219 605v-506q0 -95 68 -95t68 95v506q0 95 -68 95t-68 -95zM541 352q0 -154 -71 -260t-183 -106t-183 106t-71 260t71 260t183 106t183 -106t71 -260z" />
    <glyph glyph-name="P" unicode="P" horiz-adv-x="537" 
d="M13 0v18h48v668h-48v18h309q100 0 153.5 -49t53.5 -131q0 -86 -57 -139t-148 -53h-89v-314h58v-18h-280zM235 686v-336h33q41 0 61 41t20 134q0 89 -14.5 125t-62.5 36h-37z" />
    <glyph glyph-name="Q" unicode="Q" horiz-adv-x="574" 
d="M219 605v-506q0 -95 68 -95t68 95v506q0 95 -68 95t-68 -95zM478 -182v-18h-71q-81 0 -135 35t-54 95v68q-85 31 -136 130q-49 95 -49 224q0 154 71 260t183 106t183 -106t71 -260q0 -127 -50 -224.5t-135 -129.5v-90q0 -41 25 -65.5t57 -24.5h40z" />
    <glyph glyph-name="R" unicode="R" horiz-adv-x="556" 
d="M61 18v668h-48v18h288q109 0 162.5 -47.5t53.5 -122.5q0 -162 -226 -170v-2q55 -4 93 -14.5t61.5 -24.5t37 -38.5t19 -49t8.5 -63.5l11 -132q3 -24 21 -24q9 0 14 4l13 7l8 -18q-42 -23 -85 -23q-49 0 -81.5 14t-49 43t-23 59.5t-8.5 75.5q-4 107 -16.5 140t-55.5 33h-23
v-333h42v-18h-264v18h48zM235 375h23q48 0 63.5 25.5t15.5 103.5q0 112 -12 147t-56 35h-34v-311z" />
    <glyph glyph-name="S" unicode="S" horiz-adv-x="481" 
d="M29 -6v235h18q30 -225 182 -225q64 0 99.5 34t35.5 92q0 43 -22.5 71t-68.5 48l-114 51q-79 35 -108.5 85.5t-29.5 121.5q0 85 55 148t138 63q52 0 99.5 -22t56.5 -22q12 0 20 12t8 23h18v-201h-18q-11 86 -53 139t-123 53q-46 0 -75.5 -32t-29.5 -80q0 -37 22 -64
t53 -40l136 -56q132 -54 132 -205q0 -106 -65 -171.5t-167 -65.5q-46 0 -96 22.5t-53 22.5q-13 0 -21.5 -11.5t-10.5 -25.5h-18z" />
    <glyph glyph-name="T" unicode="T" horiz-adv-x="500" 
d="M160 18v668h-3q-37 0 -84 -57t-56 -148h-22l8 223h494l8 -223h-22q-9 91 -56 148t-84 57h-3v-668h52v-18h-286v18h54z" />
    <glyph glyph-name="U" unicode="U" horiz-adv-x="500" 
d="M13 686v18h271v-18h-49v-571q0 -93 83 -93q43 0 67 24t30 54t6 75v465q0 26 -8 36t-30 10h-20v18h135v-18h-24q-35 0 -35 -47v-481q0 -89 -40.5 -130.5t-128.5 -41.5q-94 0 -151.5 38t-57.5 124v538h-48z" />
    <glyph glyph-name="V" unicode="V" horiz-adv-x="444" 
d="M188 0l-186 686h-43v18h275v-18h-50l113 -422h2l88 342q12 42 12 57q0 9 -7.5 16t-22.5 7h-31v18h147v-18h-19q-22 0 -34 -18t-24 -66l-157 -602h-63z" />
    <glyph glyph-name="W" unicode="W" horiz-adv-x="722" 
d="M174 0l-166 686h-42v18h262v-18h-42l100 -417h2l63 236l-44 181h-42v18h260v-18h-42l96 -417h2l86 353q6 27 6 33q0 15 -8.5 23t-20.5 8h-37v18h156v-18h-20q-24 0 -36 -17t-21 -54l-153 -615h-60l-111 464h-2l-124 -464h-62z" />
    <glyph glyph-name="X" unicode="X" horiz-adv-x="537" 
d="M-9 0v18h27q25 0 40.5 12t34.5 49l108 207l-174 400h-36v18h275v-18h-48l91 -209l81 155q9 17 9 31q0 23 -31 23h-27v18h154v-18h-12q-23 0 -37.5 -13t-35.5 -53l-89 -170l189 -432h36v-18h-276v18h48l-106 242q-5 -11 -25.5 -48.5t-39.5 -76t-27 -62.5q-7 -19 -7 -28
q0 -27 33 -27h36v-18h-191z" />
    <glyph glyph-name="Y" unicode="Y" horiz-adv-x="444" 
d="M132 18v313l-139 355h-42v18h279v-18h-48l112 -288h2q8 24 32.5 86.5t43.5 113.5t19 61q0 27 -35 27h-25v18h144v-18h-12q-19 0 -29 -8t-21 -37l-101 -253v-370h47v-18h-276v18h49z" />
    <glyph glyph-name="Z" unicode="Z" horiz-adv-x="463" 
d="M41 512l6 192h407v-21l-258 -665h70q59 0 107 67t57 136h18l-12 -221h-427v25l257 661h-82q-46 0 -78.5 -55.5t-43.5 -118.5h-21z" />
    <glyph glyph-name="bracketleft" unicode="[" horiz-adv-x="259" 
d="M61 -206v942h168v-48h-108v-846h108v-48h-168z" />
    <glyph glyph-name="backslash" unicode="\" horiz-adv-x="352" 
d="M252 -14l-266 732h114l266 -732h-114z" />
    <glyph glyph-name="bracketright" unicode="]" horiz-adv-x="259" 
d="M198 736v-942h-168v48h108v846h-108v48h168z" />
    <glyph glyph-name="asciicircum" unicode="^" horiz-adv-x="600" 
d="M185 325h-110l175 365h100l175 -365h-111l-114 251z" />
    <glyph glyph-name="underscore" unicode="_" horiz-adv-x="500" 
d="M500 -125h-500v50h500v-50z" />
    <glyph glyph-name="grave" unicode="`" 
d="M185 557l-138 109q-31 25 -31 49q0 35 56 35q36 0 50 -16.5t37 -71.5l43 -105h-17z" />
    <glyph glyph-name="a" unicode="a" horiz-adv-x="463" 
d="M411 361v-274q0 -47 17 -47q8 0 13 10.5t5 19.5h20q-15 -84 -109 -84q-35 0 -62 19t-39 55q-40 -74 -115 -74q-57 0 -93 35.5t-36 104.5q0 151 237 153v136q0 32 -11.5 45.5t-38.5 13.5q-18 0 -35 -6.5t-17 -19.5q0 -4 16 -28t16 -48q0 -29 -20.5 -45t-45.5 -16
q-31 0 -51.5 17t-20.5 48q0 38 21.5 64t55 36t55 13t41.5 3q49 0 90.5 -10t74 -41t32.5 -80zM249 103v158h-23q-52 0 -52 -64v-98q0 -53 36 -53q22 0 30.5 13t8.5 44z" />
    <glyph glyph-name="b" unicode="b" horiz-adv-x="519" 
d="M13 0v18h42v668h-42v18h109q74 0 101 25v-302h2q37 65 103 65q58 0 99 -41t57.5 -94t16.5 -109q0 -61 -17 -118t-60.5 -100.5t-105.5 -43.5q-36 0 -58 13t-40 44h-2v-43h-205zM223 368v-266q0 -35 14 -57.5t41 -22.5q43 0 43 62v311q0 49 -41 49q-24 0 -40.5 -21
t-16.5 -55z" />
    <glyph glyph-name="c" unicode="c" horiz-adv-x="407" 
d="M18 239q0 95 63.5 174t159.5 79q62 0 107.5 -29t45.5 -81q0 -30 -21 -52.5t-51 -22.5q-28 0 -50 16t-22 43q0 26 21.5 50t21.5 37q0 21 -47 21q-25 0 -39.5 -15.5t-14.5 -59.5v-311q0 -44 16.5 -58t43.5 -14q89 0 140 133l16 -5q-22 -73 -69 -115.5t-98 -42.5
q-96 0 -159.5 79t-63.5 174z" />
    <glyph glyph-name="d" unicode="d" horiz-adv-x="519" 
d="M464 729v-711h42v-18h-122q-61 0 -83 -9v52h-2q-18 -31 -40 -44t-58 -13q-62 0 -105.5 43.5t-60.5 100.5t-17 118q0 56 16.5 109t57.5 94t99 41q66 0 103 -65h2v259h-39v18h110q52 0 97 25zM296 102v266q0 34 -16.5 55t-41.5 21q-38 0 -40 -49v-311q0 -62 43 -62
q27 0 41 22.5t14 57.5z" />
    <glyph glyph-name="e" unicode="e" horiz-adv-x="463" 
d="M192 275h87v147q0 29 -10 40.5t-34 11.5q-19 0 -31 -11.5t-12 -32.5v-155zM441 257h-249v-146q0 -46 20 -70.5t69 -24.5q40 0 79 38.5t59 95.5l18 -4q-32 -77 -76.5 -118.5t-119.5 -41.5q-96 0 -159.5 79t-63.5 174t63.5 174t159.5 79q95 0 147 -67.5t53 -167.5z" />
    <glyph glyph-name="f" unicode="f" horiz-adv-x="296" 
d="M13 0v18h42v442h-42v18h42q5 127 57.5 189t158.5 62q47 0 76 -24.5t29 -62.5q0 -30 -18.5 -50t-47.5 -20q-23 0 -41.5 16.5t-18.5 46.5q0 24 12 38t23.5 20t11.5 9q0 9 -29 9q-54 0 -54 -58q0 -87 9 -175h65v-18h-65v-442h48v-18h-258z" />
    <glyph glyph-name="g" unicode="g" horiz-adv-x="463" 
d="M390 -99q0 26 -20 34.5t-71 8.5h-142q-35 0 -53.5 -18t-18.5 -52q0 -39 35 -62t88 -23q31 0 60 4.5t58 16t46.5 35t17.5 56.5zM264 234v198q0 42 -40 42q-46 0 -46 -55v-186q0 -32 9.5 -43.5t32.5 -11.5q44 0 44 56zM414 326q0 -55 -32.5 -94.5t-75 -55.5t-85.5 -16
q-12 0 -29 2t-33.5 5t-20.5 4q-18 -1 -40 -17t-22 -30q0 -16 14 -24.5t57 -8.5q17 0 65.5 1.5t70.5 1.5q93 0 127 -29.5t34 -106.5q0 -94 -70.5 -143.5t-181.5 -49.5q-30 0 -58 4.5t-57 15.5t-46.5 33.5t-17.5 53.5q0 34 30 55.5t67 26.5v1q-46 2 -70.5 29t-24.5 72
q0 46 31 82t74 43v2q-92 48 -92 143q0 69 60 117.5t131 48.5q64 0 117 -29q9 32 30 55t50 23q24 0 39 -14t15 -37q0 -22 -15 -36.5t-39 -14.5q-19 0 -32 15t-16 34q-10 -11 -16 -38q28 -21 45 -55t17 -69z" />
    <glyph glyph-name="h" unicode="h" horiz-adv-x="537" 
d="M13 0v18h42v668h-42v18h109q74 0 101 25v-313h2q51 76 134 76q123 0 123 -129v-345h42v-18h-243v18h33v381q0 39 -28 39q-26 0 -44.5 -24.5t-18.5 -60.5v-335h33v-18h-243z" />
    <glyph glyph-name="i" unicode="i" 
d="M13 0v18h42v442h-42v18h111q54 0 99 22v-482h42v-18h-252zM52 642q0 36 25.5 61.5t61.5 25.5t61.5 -25.5t25.5 -61.5t-25.5 -61.5t-61.5 -25.5t-61.5 25.5t-25.5 61.5z" />
    <glyph glyph-name="j" unicode="j" 
d="M7 460v18h117q54 0 99 22v-488q0 -62 -19.5 -109t-51.5 -73t-68.5 -38.5t-75.5 -12.5q-36 0 -70 23t-34 63q0 72 65 72q28 0 44.5 -18.5t16.5 -43.5q0 -23 -12.5 -37t-25 -20t-12.5 -11q0 -10 22 -10q28 0 44.5 14t15.5 42q-1 21 -4 87t-3 93v427h-48zM52 642
q0 36 25.5 61.5t61.5 25.5t61.5 -25.5t25.5 -61.5t-25.5 -61.5t-61.5 -25.5t-61.5 25.5t-25.5 61.5z" />
    <glyph glyph-name="k" unicode="k" horiz-adv-x="519" 
d="M13 0v18h42v668h-42v18h109q74 0 101 25v-463h2l100 113q40 44 40 63q0 18 -38 18h-16v18h168v-18h-22q-32 0 -68 -39l-49 -53l161 -350h30v-18h-241v18h30l-95 230h-2v-230h42v-18h-252z" />
    <glyph glyph-name="l" unicode="l" 
d="M55 18v668h-42v18h109q74 0 101 25v-711h42v-18h-252v18h42z" />
    <glyph glyph-name="m" unicode="m" horiz-adv-x="796" 
d="M13 0v18h42v442h-42v18h111q54 0 99 22v-84h2q51 76 134 76q98 0 118 -84q51 84 141 84q123 0 123 -129v-345h42v-18h-243v18h33v381q0 39 -28 39q-26 0 -44.5 -24.5t-18.5 -60.5v-335h41v-18h-243v18h34v381q0 39 -28 39q-26 0 -44.5 -24.5t-18.5 -60.5v-335h33v-18
h-243z" />
    <glyph glyph-name="n" unicode="n" horiz-adv-x="537" 
d="M13 0v18h42v442h-42v18h111q54 0 99 22v-84h2q51 76 134 76q123 0 123 -129v-345h42v-18h-243v18h33v381q0 39 -28 39q-26 0 -44.5 -24.5t-18.5 -60.5v-335h33v-18h-243z" />
    <glyph glyph-name="o" unicode="o" horiz-adv-x="482" 
d="M192 407v-336q0 -67 49 -67t49 67v336q0 67 -49 67t-49 -67zM18 239q0 95 63.5 174t159.5 79t159.5 -79t63.5 -174t-63.5 -174t-159.5 -79t-159.5 79t-63.5 174z" />
    <glyph glyph-name="p" unicode="p" horiz-adv-x="519" 
d="M13 -221v20h42v661h-42v18h115q49 0 95 22v-70h2q14 27 43 44.5t60 17.5q58 0 99 -41t57.5 -94t16.5 -109q0 -61 -17 -118t-60.5 -100.5t-105.5 -43.5q-30 0 -55.5 15t-37.5 42h-2v-246h42v-18h-252zM223 374v-266q0 -35 14 -57.5t41 -22.5q43 0 43 62v311q0 49 -41 49
q-24 0 -40.5 -21t-16.5 -55z" />
    <glyph glyph-name="q" unicode="q" horiz-adv-x="519" 
d="M249 -221v18h42v246h-2q-12 -27 -37.5 -42t-55.5 -15q-62 0 -105.5 43.5t-60.5 100.5t-17 118q0 56 16.5 109t57.5 94t99 41q31 0 60 -17.5t43 -44.5h2v70q46 -22 95 -22h115v-18h-42v-661h42v-20h-252zM291 108v266q0 34 -16.5 55t-40.5 21q-41 0 -41 -49v-311
q0 -62 43 -62q27 0 41 22.5t14 57.5z" />
    <glyph glyph-name="r" unicode="r" horiz-adv-x="370" 
d="M13 0v18h42v442h-42v18h111q54 0 99 22v-93h2q12 35 39.5 60t62.5 25t56.5 -23t21.5 -57q0 -36 -20.5 -59t-55.5 -23q-27 0 -47.5 18.5t-20.5 51.5q0 14 7 31.5t16 24.5l-2 2q-59 -45 -59 -136v-304h48v-18h-258z" />
    <glyph glyph-name="s" unicode="s" horiz-adv-x="389" 
d="M43 -14v165h12q13 -58 51.5 -102.5t92.5 -44.5q37 0 64 21.5t27 58.5q0 40 -25 54.5t-103 32.5q-135 30 -135 149q0 82 43 127t98 45q47 0 76.5 -14.5t37.5 -14.5q9 0 17.5 8.5t10.5 20.5h12v-134h-12q-27 61 -58.5 88.5t-73.5 27.5q-79 0 -79 -75q0 -32 27 -47.5
t65.5 -22t77.5 -17.5t66 -47.5t27 -99.5q0 -72 -44.5 -125.5t-121.5 -53.5q-25 0 -63 13.5t-43 13.5q-30 0 -35 -27h-12z" />
    <glyph glyph-name="t" unicode="t" horiz-adv-x="296" 
d="M223 678v-200h70v-18h-70v-381q0 -16 5.5 -21.5t18.5 -5.5q9 0 19.5 15t16.5 43h18q-22 -124 -132 -124q-50 0 -82 29t-32 94v351h-42v18q74 1 124.5 60.5t67.5 139.5h18z" />
    <glyph glyph-name="u" unicode="u" horiz-adv-x="537" 
d="M482 500v-482h42v-18h-209v62h-3q-51 -76 -134 -76q-123 0 -123 129v345h-42v18h111q54 0 99 22v-421q0 -39 28 -39q26 0 44.5 24.5t18.5 60.5v335h-42v18h111q54 0 99 22z" />
    <glyph glyph-name="v" unicode="v" horiz-adv-x="389" 
d="M168 0l-156 460h-36v18h246v-18h-36l80 -255h2l51 162q15 46 15 65q0 11 -8.5 19.5t-26.5 8.5h-11v18h125v-18h-9q-20 0 -32 -18.5t-39 -97.5l-118 -344h-47z" />
    <glyph glyph-name="w" unicode="w" horiz-adv-x="648" 
d="M-24 460v18h234v-18h-24l80 -255h2l43 135l-41 120h-36v18h246v-18h-36l80 -255h2l51 162q15 46 15 60q0 33 -35 33h-11v18h126v-18h-10q-19 0 -33.5 -23.5t-37.5 -92.5l-118 -344h-47l-101 316h-2l-108 -316h-47l-156 460h-36z" />
    <glyph glyph-name="x" unicode="x" horiz-adv-x="444" 
d="M278 306l143 -288h42v-18h-270v18h42l-72 144l-50 -71q-26 -36 -26 -49q0 -24 36 -24h9v-18h-150v18q34 0 55 11.5t41 41.5l76 112l-136 277h-37v18h261v-18h-40l66 -137l52 71q22 29 22 47q0 11 -6.5 15t-27.5 4h-10v18h150v-18h-17q-26 0 -45 -16t-42 -48z" />
    <glyph glyph-name="y" unicode="y" horiz-adv-x="389" 
d="M189 -36l-177 496h-36v18h246v-18h-36l80 -255h2l51 162q15 46 15 60q0 33 -35 33h-11v18h125v-18h-9q-19 0 -33.5 -23.5t-37.5 -92.5l-152 -477q-28 -87 -99 -88q-38 -1 -60.5 21t-22.5 57q0 31 17 52.5t45 21.5q64 0 64 -62q0 -27 -12.5 -41t-25.5 -18.5t-13 -6.5
q0 -6 21 -6q20 0 38.5 18.5t29.5 56.5z" />
    <glyph glyph-name="z" unicode="z" horiz-adv-x="389" 
d="M6 14l202 446h-36q-56 0 -90.5 -44.5t-40.5 -110.5h-18v173h360v-14l-203 -446h50q52 0 86.5 50t41.5 108h12v-176h-364v14z" />
    <glyph glyph-name="braceleft" unicode="{" horiz-adv-x="259" 
d="M116 -52v194q0 55 -15.5 82t-60.5 40q45 14 60.5 41.5t15.5 82.5v194q0 91 33.5 122.5t100.5 31.5v-18q-41 -9 -57.5 -40.5t-16.5 -89.5v-184q0 -63 -16 -94t-65 -44v-2q49 -13 65 -44t16 -94v-184q0 -58 16.5 -89.5t57.5 -40.5v-18q-67 0 -100.5 31.5t-33.5 122.5z" />
    <glyph glyph-name="bar" unicode="|" horiz-adv-x="222" 
d="M54 -14v732h114v-732h-114z" />
    <glyph glyph-name="braceright" unicode="}" horiz-adv-x="259" 
d="M143 142v-194q0 -91 -33.5 -122.5t-100.5 -31.5v18q41 9 57.5 40.5t16.5 89.5v184q0 63 16 94t65 44v2q-49 13 -65 44t-16 94v184q0 58 -16.5 89.5t-57.5 40.5v18q67 0 100.5 -31.5t33.5 -122.5v-194q0 -55 15.5 -82.5t60.5 -41.5q-45 -13 -60.5 -40t-15.5 -82z" />
    <glyph glyph-name="asciitilde" unicode="~" horiz-adv-x="600" 
d="M495 343l36 -91q-45 -86 -125 -86q-39 0 -114 32.5t-99 32.5q-27 0 -46.5 -17.5t-41.5 -50.5l-36 90q45 86 125 86q39 0 114 -32.5t99 -32.5q27 0 46.5 18t41.5 51z" />
    <glyph glyph-name="uni00A0" unicode="&#xa0;" horiz-adv-x="260" 
 />
    <glyph glyph-name="exclamdown" unicode="&#xa1;" 
d="M148 292v-52q0 -68 27.5 -168.5t74.5 -154.5q-76 -29 -111 -138q-35 109 -111 138q47 54 74.5 154.5t27.5 168.5v52h18zM223 408q0 -34 -24.5 -59t-59.5 -25t-59.5 25t-24.5 59t24.5 59t59.5 25t59.5 -25t24.5 -59z" />
    <glyph glyph-name="cent" unicode="&#xa2;" horiz-adv-x="520" 
d="M272 -88v74q-94 0 -154.5 74t-60.5 174q0 119 66.5 185t148.5 73v62h30v-62q32 0 64.5 -10.5t58 -35.5t25.5 -58q0 -36 -19 -54.5t-45 -18.5q-29 0 -45.5 17.5t-16.5 44.5q0 22 11 36t21.5 21t10.5 13q0 9 -19 18t-46 9v-464q51 1 87.5 41t57.5 97l16 -5
q-21 -64 -62 -110t-99 -47v-74h-30zM272 10v464q-47 -3 -47 -89v-319q3 -50 47 -56z" />
    <glyph glyph-name="sterling" unicode="&#xa3;" horiz-adv-x="520" 
d="M40 72q0 -31 22.5 -49.5t54.5 -18.5q58 0 90 65q-36 40 -58 55t-52 15q-22 0 -39.5 -16.5t-17.5 -50.5zM60 309v30h59q-67 74 -67 152q0 56 21 98.5t56 66.5t76 36t86 12q95 0 140.5 -47t45.5 -116q0 -37 -25 -68t-68 -31q-32 0 -50.5 21t-18.5 55q0 30 21 49t43 19
q19 0 37.5 -6t20.5 -6q10 0 10 14q0 37 -36 64.5t-77 27.5q-102 0 -102 -160q0 -106 5 -181h102v-30h-102q8 -53 8 -144q105 -35 149 -35q42 0 60.5 23.5t26.5 68.5h17q-18 -136 -52 -186t-94 -50q-74 0 -132 68q-16 -29 -44 -48.5t-55 -19.5q-43 0 -71 24.5t-28 68.5
q0 51 39 79.5t82 28.5q31 0 84 -16q-10 62 -40 94l-40 44h-87z" />
    <glyph glyph-name="currency" unicode="&#xa4;" horiz-adv-x="520" 
d="M124 350q0 -54 38.5 -92.5t93.5 -38.5q54 0 92.5 38.5t38.5 92.5t-38.5 92.5t-92.5 38.5q-55 0 -93.5 -38.5t-38.5 -92.5zM19 165l49 49q-44 64 -44 136q0 74 44 136l-49 49l56 56l50 -50q57 40 131 40q76 0 136 -44l53 54l56 -56l-55 -54q41 -58 41 -131q0 -71 -41 -131
l55 -54l-56 -56l-53 54q-61 -44 -136 -44q-73 0 -131 40l-50 -50z" />
    <glyph glyph-name="yen" unicode="&#xa5;" horiz-adv-x="520" 
d="M4 672v18h267v-18h-48l112 -288h2l84 222q11 30 11 39q0 27 -35 27h-25v18h144v-18h-12q-19 0 -29 -8t-21 -37l-101 -253v-42h129v-30h-129v-90h129v-30h-129v-164h47v-18h-264v18h49v164h-129v30h129v90h-129v30h123l-133 340h-42z" />
    <glyph glyph-name="brokenbar" unicode="&#xa6;" horiz-adv-x="222" 
d="M54 -14v275h114v-275h-114zM54 443v275h114v-275h-114z" />
    <glyph glyph-name="section" unicode="&#xa7;" horiz-adv-x="520" 
d="M469 310q0 -130 -85 -179q40 -27 56 -60t16 -87q0 -80 -57 -133t-163 -53q-62 0 -108.5 30.5t-46.5 83.5q0 32 21.5 55.5t53.5 23.5q34 0 54.5 -19t20.5 -53q0 -28 -17 -47t-45 -19q-7 0 -18 3.5t-14 4.5q26 -45 112 -45q49 0 80 23t31 72q0 34 -23 61t-57 43t-74.5 36
t-74.5 40t-57 56t-23 83q0 108 88 175q-49 45 -49 123q0 86 51 138t135 52q67 0 111.5 -27.5t44.5 -87.5q0 -32 -19 -53t-57 -21q-29 0 -48.5 17.5t-19.5 45.5q0 27 17 48t44 21q25 0 37 -7l2 2q-11 23 -44 33.5t-62 10.5q-44 0 -73 -23.5t-29 -75.5q0 -34 30 -60.5
t72 -46.5t84.5 -41.5t72.5 -58t30 -84.5zM224 220l148 -81q37 34 37 68q1 18 -15.5 37.5t-31.5 29.5t-44 26q-29 17 -68 36t-62 32t-36 25q-41 -33 -41 -67q0 -20 19.5 -41.5t38.5 -33t55 -31.5z" />
    <glyph glyph-name="dieresis" unicode="&#xa8;" 
d="M169 657q0 30 21 51t51 21t51 -21t21 -51t-21 -51t-51 -21t-51 21t-21 51zM-35 657q0 30 21 51t51 21t51 -21t21 -51t-21 -51t-51 -21t-51 21t-21 51z" />
    <glyph glyph-name="copyright" unicode="&#xa9;" horiz-adv-x="800" 
d="M572 274l-17 -88q-59 -32 -136 -32q-105 0 -163.5 53.5t-58.5 154.5q0 36 11.5 69t36 64t72 50t111.5 19q30 0 72.5 -8.5t54.5 -25.5v-80h-24q-30 88 -101 88q-52 0 -78 -45.5t-27 -125.5q-2 -187 103 -187q39 0 69.5 25t48.5 69h26zM34 352q0 152 107 259t259 107
t259 -107t107 -259t-107 -259t-259 -107t-259 107t-107 259zM124 352q0 -128 77.5 -211t198.5 -83q124 0 200 78t76 216t-76 216t-200 78q-121 0 -198.5 -83t-77.5 -211z" />
    <glyph glyph-name="ordfeminine" unicode="&#xaa;" horiz-adv-x="301" 
d="M269 626v-165q0 -28 12 -28q6 0 10 6t4 12h12q-9 -50 -70 -50q-49 0 -66 44q-25 -44 -72 -44q-37 0 -60.5 21t-23.5 63q0 47 39 68t90 21h22v83q0 19 -7.5 27t-25.5 8q-34 0 -34 -15q0 -3 10.5 -17t10.5 -29q0 -17 -13.5 -26.5t-30.5 -9.5q-20 0 -33 10t-13 29
q0 23 14 39t35.5 21.5t35.5 7.5t26 2q52 0 90 -18t38 -60zM167 471v91h-16q-34 0 -34 -38v-56q0 -31 23 -31q15 0 21 7.5t6 26.5z" />
    <glyph glyph-name="guillemotleft" unicode="&#xab;" horiz-adv-x="389" 
d="M286 72l-119 183l119 179h65l-117 -179l117 -183h-65zM157 72l-119 183l119 179h65l-117 -179l117 -183h-65z" />
    <glyph glyph-name="logicalnot" unicode="&#xac;" horiz-adv-x="600" 
d="M439 109v193h-392v114h506v-307h-114z" />
    <glyph glyph-name="uni00AD" unicode="&#xad;" horiz-adv-x="370" 
d="M28 203q25 60 36 100q90 -2 135 -2q49 0 143 2q-26 -66 -35 -100q-90 2 -135 2q-48 0 -144 -2z" />
    <glyph glyph-name="registered" unicode="&#xae;" horiz-adv-x="800" 
d="M229 534v18h209q53 0 85 -25.5t32 -76.5q0 -34 -21 -63t-58 -40l67 -124q21 -38 38 -38h10v-18h-96q-11 0 -27 25t-39.5 73.5t-36.5 70.5h-23v-111q0 -24 6.5 -31.5t35.5 -8.5v-18h-182v18q26 1 35 7.5t9 20.5v288q0 20 -8 26.5t-36 6.5zM369 534v-180h25q53 0 53 92
q0 48 -12 68t-37 20h-29zM34 352q0 152 107 259t259 107t259 -107t107 -259t-107 -259t-259 -107t-259 107t-107 259zM124 352q0 -128 77.5 -211t198.5 -83q124 0 200 78t76 216t-76 216t-200 78q-121 0 -198.5 -83t-77.5 -211z" />
    <glyph glyph-name="macron" unicode="&#xaf;" 
d="M-17 622v68h312v-68h-312z" />
    <glyph glyph-name="degree" unicode="&#xb0;" horiz-adv-x="400" 
d="M57 561q0 59 42 101t101 42t101 -42t42 -101t-42 -101t-101 -42t-101 42t-42 101zM111 561q0 -37 26 -63t63 -26t63 26t26 63t-26 63t-63 26t-63 -26t-26 -63z" />
    <glyph glyph-name="plusminus" unicode="&#xb1;" horiz-adv-x="600" 
d="M243 383v123h114v-123h196v-114h-196v-124h-114v124h-196v114h196zM47 0v114h506v-114h-506z" />
    <glyph glyph-name="twosuperior" unicode="&#xb2;" horiz-adv-x="338" 
d="M311 394l-11 -112h-282q16 45 40.5 77t47 49.5t43 36.5t33 49t12.5 76v40q0 38 -14.5 54t-45.5 16q-34 0 -58 -21.5t-24 -43.5q0 -10 4 -10q3 0 15 4.5t22 4.5q21 0 33 -12.5t12 -33.5q0 -44 -55 -44q-28 0 -41.5 17t-13.5 39q0 56 35 87t95 31q81 0 121.5 -32.5
t40.5 -84.5q0 -44 -28.5 -76.5t-64 -49t-78 -40.5t-61.5 -49h203l5 28h15z" />
    <glyph glyph-name="threesuperior" unicode="&#xb3;" horiz-adv-x="338" 
d="M190 344v101q0 39 -67 39h-39v18h28q50 0 62 13.5t12 57.5v57q0 17 -4.5 27.5t-13 15t-15.5 6t-18 1.5q-49 0 -49 -18q0 -6 10 -9.5t20.5 -11.5t10.5 -24q0 -21 -14.5 -32.5t-39.5 -11.5q-18 0 -30 14.5t-12 33.5q0 40 36 58.5t95 18.5q63 0 100.5 -25t37.5 -78
q0 -87 -124 -101v-2q140 -5 140 -104q0 -59 -52.5 -85.5t-125.5 -26.5q-50 0 -83 20.5t-33 63.5q0 19 15 33t36 14q24 0 37.5 -12t13.5 -32q0 -18 -11 -26.5t-22 -12t-11 -9.5q0 -10 18 -15.5t34 -5.5q30 0 44 15.5t14 34.5z" />
    <glyph glyph-name="acute" unicode="&#xb4;" 
d="M76 557l43 105q23 55 37 71.5t50 16.5q56 0 56 -35q0 -24 -31 -49l-138 -109h-17z" />
    <glyph glyph-name="mu" unicode="&#xb5;" horiz-adv-x="537" 
d="M55 73v387h-42v18h111q54 0 99 22v-398q0 -56 34 -56q24 0 40.5 22t16.5 48v344h-42v18h111q54 0 99 22v-482h42v-18h-209v66h-2q-29 -62 -91 -62q-26 0 -47 20h-2q2 -17 8 -55t10 -67.5t4 -40.5q0 -31 -22.5 -56.5t-57.5 -25.5t-54 24.5t-19 59.5q0 28 6.5 104t6.5 106z
" />
    <glyph glyph-name="paragraph" unicode="&#xb6;" horiz-adv-x="620" 
d="M147 -188v24h75v457q-74 0 -117.5 58.5t-43.5 154.5q0 105 48.5 151.5t160.5 46.5h304v-24h-75v-844h75v-24h-177v862h-73v-862h-177z" />
    <glyph glyph-name="periodcentered" unicode="&#xb7;" horiz-adv-x="260" 
d="M43 279q0 36 25.5 61.5t61.5 25.5t61.5 -25.5t25.5 -61.5t-25.5 -61.5t-61.5 -25.5t-61.5 25.5t-25.5 61.5z" />
    <glyph glyph-name="cedilla" unicode="&#xb8;" 
d="M101 -93l57 95h23l-50 -77l2 -2q24 11 51 11q32 0 58.5 -15t26.5 -45q0 -76 -130 -76q-25 0 -86 13l5 23q46 -12 59 -12q25 0 43 10.5t18 31.5q0 40 -43 40q-7 0 -22 -3z" />
    <glyph glyph-name="onesuperior" unicode="&#xb9;" horiz-adv-x="338" 
d="M69 282v12h40v328q0 4 -5 4q-1 0 -11 -4l-59 -28v18q80 37 120 86h75v-404h35v-12h-195z" />
    <glyph glyph-name="ordmasculine" unicode="&#xba;" horiz-adv-x="312" 
d="M124 652v-199q0 -40 32 -40t32 40v199q0 40 -32 40t-32 -40zM302 552q0 -57 -41.5 -104t-104.5 -47t-104.5 47t-41.5 104q0 58 41.5 105t104.5 47t104.5 -47t41.5 -105z" />
    <glyph glyph-name="guillemotright" unicode="&#xbb;" horiz-adv-x="389" 
d="M167 72l117 179l-117 183h65l119 -183l-119 -179h-65zM38 72l117 179l-117 183h65l119 -183l-119 -179h-65z" />
    <glyph glyph-name="onequarter" unicode="&#xbc;" horiz-adv-x="778" 
d="M591 154v178h-2l-131 -178h133zM556 0v12h35v88h-167v34l207 282h68v-262h45v-54h-45v-88h35v-12h-178zM199 -28l374 746h40l-374 -746h-40zM69 282v12h40v328q0 4 -5 4q-1 0 -11 -4l-59 -28v18q80 37 120 86h75v-404h35v-12h-195z" />
    <glyph glyph-name="onehalf" unicode="&#xbd;" horiz-adv-x="778" 
d="M164 -28l374 746h40l-374 -746h-40zM69 282v12h40v328q0 4 -5 4q-1 0 -11 -4l-59 -28v18q80 37 120 86h75v-404h35v-12h-195zM735 112l-11 -112h-282q16 45 40.5 77t47 49.5t43 36.5t33 49t12.5 76v40q0 38 -14.5 54t-45.5 16q-34 0 -58 -21.5t-24 -43.5q0 -10 4 -10
q3 0 15 4.5t22 4.5q21 0 33 -12.5t12 -33.5q0 -44 -55 -44q-28 0 -41.5 17t-13.5 39q0 56 35 87t95 31q81 0 121.5 -32.5t40.5 -84.5q0 -44 -28.5 -76.5t-64 -49t-78 -40.5t-61.5 -49h203l5 28h15z" />
    <glyph glyph-name="threequarters" unicode="&#xbe;" horiz-adv-x="778" 
d="M591 154v178h-2l-131 -178h133zM556 0v12h35v88h-167v34l207 282h68v-262h45v-54h-45v-88h35v-12h-178zM199 -28l374 746h40l-374 -746h-40zM190 344v101q0 39 -67 39h-39v18h28q50 0 62 13.5t12 57.5v57q0 17 -4.5 27.5t-13 15t-15.5 6t-18 1.5q-49 0 -49 -18
q0 -6 10 -9.5t20.5 -11.5t10.5 -24q0 -21 -14.5 -32.5t-39.5 -11.5q-18 0 -30 14.5t-12 33.5q0 40 36 58.5t95 18.5q63 0 100.5 -25t37.5 -78q0 -87 -124 -101v-2q140 -5 140 -104q0 -59 -52.5 -85.5t-125.5 -26.5q-50 0 -83 20.5t-33 63.5q0 19 15 33t36 14q24 0 37.5 -12
t13.5 -32q0 -18 -11 -26.5t-22 -12t-11 -9.5q0 -10 18 -15.5t34 -5.5q30 0 44 15.5t14 34.5z" />
    <glyph glyph-name="questiondown" unicode="&#xbf;" horiz-adv-x="370" 
d="M243 276v-187q0 -32 -14 -46l-69 -72q-47 -48 -47 -97q0 -39 27.5 -60.5t67.5 -21.5q12 0 31.5 5.5t19.5 16.5q0 5 -14.5 12.5t-29.5 23.5t-15 41q0 30 20.5 52.5t51.5 22.5q34 0 54.5 -23t20.5 -58q0 -53 -42 -82t-100 -29q-87 0 -134.5 52.5t-47.5 125.5q0 84 52 134
l138 130q12 11 12 36v24h18zM310 408q0 -34 -25 -59t-59 -25t-59 25t-25 59t25 59t59 25t59 -25t25 -59z" />
    <glyph glyph-name="Agrave" unicode="&#xc0;" horiz-adv-x="481" 
d="M-34 0v18h12q35 0 51 60l177 626h65l186 -686h36v-18h-269v18h48l-44 179h-143l-26 -104q-10 -40 -10 -45q0 -17 8.5 -23.5t28.5 -6.5h16v-18h-136zM222 215l-61 250h-2l-69 -250h132zM287 743l-138 109q-31 25 -31 49q0 35 56 35q36 0 50 -16.5t37 -71.5l43 -105h-17z
" />
    <glyph glyph-name="Aacute" unicode="&#xc1;" horiz-adv-x="481" 
d="M-34 0v18h12q35 0 51 60l177 626h65l186 -686h36v-18h-269v18h48l-44 179h-143l-26 -104q-10 -40 -10 -45q0 -17 8.5 -23.5t28.5 -6.5h16v-18h-136zM222 215l-61 250h-2l-69 -250h132zM178 743l43 105q23 55 37 71.5t50 16.5q56 0 56 -35q0 -24 -31 -49l-138 -109h-17z
" />
    <glyph glyph-name="Acircumflex" unicode="&#xc2;" horiz-adv-x="481" 
d="M-34 0v18h12q35 0 51 60l177 626h65l186 -686h36v-18h-269v18h48l-44 179h-143l-26 -104q-10 -40 -10 -45q0 -17 8.5 -23.5t28.5 -6.5h16v-18h-136zM222 215l-61 250h-2l-69 -250h132zM98 743l108 193h70l108 -193h-22l-121 100l-121 -100h-22z" />
    <glyph glyph-name="Atilde" unicode="&#xc3;" horiz-adv-x="481" 
d="M-34 0v18h12q35 0 51 60l177 626h65l186 -686h36v-18h-269v18h48l-44 179h-143l-26 -104q-10 -40 -10 -45q0 -17 8.5 -23.5t28.5 -6.5h16v-18h-136zM222 215l-61 250h-2l-69 -250h132zM104 782h-19q29 118 98 118q23 0 77.5 -20t71.5 -20q30 0 48 40h17q-8 -39 -33 -78.5
t-58 -39.5q-27 0 -82.5 20t-75.5 20q-17 0 -29 -11t-15 -29z" />
    <glyph glyph-name="Adieresis" unicode="&#xc4;" horiz-adv-x="481" 
d="M-34 0v18h12q35 0 51 60l177 626h65l186 -686h36v-18h-269v18h48l-44 179h-143l-26 -104q-10 -40 -10 -45q0 -17 8.5 -23.5t28.5 -6.5h16v-18h-136zM222 215l-61 250h-2l-69 -250h132zM271 843q0 30 21 51t51 21t51 -21t21 -51t-21 -51t-51 -21t-51 21t-21 51zM67 843
q0 30 21 51t51 21t51 -21t21 -51t-21 -51t-51 -21t-51 21t-21 51z" />
    <glyph glyph-name="Aring" unicode="&#xc5;" horiz-adv-x="481" 
d="M-34 0v18h12q35 0 51 60l177 626h65l186 -686h36v-18h-269v18h48l-44 179h-143l-26 -104q-10 -40 -10 -45q0 -17 8.5 -23.5t28.5 -6.5h16v-18h-136zM222 215l-61 250h-2l-69 -250h132zM140 828q0 42 29.5 71.5t71.5 29.5t71.5 -29.5t29.5 -71.5t-29.5 -71.5t-71.5 -29.5
t-71.5 29.5t-29.5 71.5zM170 828q0 -29 21 -50t50 -21t50 21t21 50t-21 50t-50 21t-50 -21t-21 -50z" />
    <glyph glyph-name="AE" unicode="&#xc6;" horiz-adv-x="704" 
d="M234 0v18h51v178h-172l-38 -107q-12 -33 -12 -45q0 -26 45 -26h8v-18h-150v18h15q45 0 65 52l230 616h-54v18h441l6 -182h-18q-5 60 -48.5 112t-98.5 52h-45v-317h15q46 0 64 32t28 100h18v-283h-18q-8 133 -85 133h-22v-333h40q62 0 105 53.5t53 141.5h18l-10 -213h-431
zM285 214v442h-2l-163 -442h165z" />
    <glyph glyph-name="Ccedilla" unicode="&#xc7;" horiz-adv-x="500" 
d="M252 -93l48 79h-10q-61 0 -111.5 35t-81 90.5t-47.5 118t-17 122.5q0 155 80.5 260.5t184.5 105.5q40 0 67 -9.5t40.5 -19t21.5 -9.5q9 0 15.5 11t6.5 21h18l6 -206h-18q-7 32 -12.5 51t-18 50t-26.5 48.5t-37 31t-52 13.5q-90 0 -90 -204v-303q0 -106 20.5 -147.5
t71.5 -41.5q45 0 86 49t61 143h18l-4 -198h-18q-2 10 -3.5 14.5t-7 9t-14.5 4.5q-8 0 -41 -16.5t-65 -21.5l-41 -63l2 -2q24 11 51 11q32 0 58.5 -15t26.5 -45q0 -76 -130 -76q-25 0 -86 13l5 23q46 -12 59 -12q25 0 43 10.5t18 31.5q0 40 -43 40q-7 0 -22 -3z" />
    <glyph glyph-name="Egrave" unicode="&#xc8;" horiz-adv-x="481" 
d="M61 18v668h-48v18h427l6 -182h-18q-5 60 -48.5 112t-98.5 52h-46v-317h16q46 0 64 32t28 100h18v-283h-18q-8 133 -85 133h-23v-333h41q62 0 105 53.5t53 141.5h18l-10 -213h-429v18h48zM287 743l-138 109q-31 25 -31 49q0 35 56 35q36 0 50 -16.5t37 -71.5l43 -105h-17z
" />
    <glyph glyph-name="Eacute" unicode="&#xc9;" horiz-adv-x="481" 
d="M61 18v668h-48v18h427l6 -182h-18q-5 60 -48.5 112t-98.5 52h-46v-317h16q46 0 64 32t28 100h18v-283h-18q-8 133 -85 133h-23v-333h41q62 0 105 53.5t53 141.5h18l-10 -213h-429v18h48zM178 743l43 105q23 55 37 71.5t50 16.5q56 0 56 -35q0 -24 -31 -49l-138 -109h-17z
" />
    <glyph glyph-name="Ecircumflex" unicode="&#xca;" horiz-adv-x="481" 
d="M61 18v668h-48v18h427l6 -182h-18q-5 60 -48.5 112t-98.5 52h-46v-317h16q46 0 64 32t28 100h18v-283h-18q-8 133 -85 133h-23v-333h41q62 0 105 53.5t53 141.5h18l-10 -213h-429v18h48zM98 743l108 193h70l108 -193h-22l-121 100l-121 -100h-22z" />
    <glyph glyph-name="Edieresis" unicode="&#xcb;" horiz-adv-x="481" 
d="M61 18v668h-48v18h427l6 -182h-18q-5 60 -48.5 112t-98.5 52h-46v-317h16q46 0 64 32t28 100h18v-283h-18q-8 133 -85 133h-23v-333h41q62 0 105 53.5t53 141.5h18l-10 -213h-429v18h48zM271 843q0 30 21 51t51 21t51 -21t21 -51t-21 -51t-51 -21t-51 21t-21 51zM67 843
q0 30 21 51t51 21t51 -21t21 -51t-21 -51t-51 -21t-51 21t-21 51z" />
    <glyph glyph-name="Igrave" unicode="&#xcc;" horiz-adv-x="296" 
d="M13 0v18h48v668h-48v18h270v-18h-48v-668h48v-18h-270zM194 743l-138 109q-31 25 -31 49q0 35 56 35q36 0 50 -16.5t37 -71.5l43 -105h-17z" />
    <glyph glyph-name="Iacute" unicode="&#xcd;" horiz-adv-x="296" 
d="M13 0v18h48v668h-48v18h270v-18h-48v-668h48v-18h-270zM85 743l43 105q23 55 37 71.5t50 16.5q56 0 56 -35q0 -24 -31 -49l-138 -109h-17z" />
    <glyph glyph-name="Icircumflex" unicode="&#xce;" horiz-adv-x="296" 
d="M13 0v18h48v668h-48v18h270v-18h-48v-668h48v-18h-270zM5 743l108 193h70l108 -193h-22l-121 100l-121 -100h-22z" />
    <glyph glyph-name="Idieresis" unicode="&#xcf;" horiz-adv-x="296" 
d="M13 0v18h48v668h-48v18h270v-18h-48v-668h48v-18h-270zM178 843q0 30 21 51t51 21t51 -21t21 -51t-21 -51t-51 -21t-51 21t-21 51zM-26 843q0 30 21 51t51 21t51 -21t21 -51t-21 -51t-51 -21t-51 21t-21 51z" />
    <glyph glyph-name="Eth" unicode="&#xd0;" horiz-adv-x="593" 
d="M235 357v-339h32q44 0 65 24.5t31.5 99t10.5 228.5q0 137 -10.5 205.5t-30.5 89.5t-60 21h-38v-287h87v-42h-87zM13 0v18h48v339h-39v42h39v287h-48v18h256q291 0 291 -341q0 -59 -6.5 -107t-26 -97.5t-51.5 -83t-87 -54.5t-128 -21h-248z" />
    <glyph glyph-name="Ntilde" unicode="&#xd1;" horiz-adv-x="519" 
d="M-2 0v18h21q22 0 30.5 13.5t8.5 42.5v585q0 27 -30 27h-22v18h225l204 -459h2v405q0 36 -42 36h-24v18h150v-18h-30q-20 0 -25 -10t-5 -32v-644h-105l-272 614h-2v-554q0 -23 6 -32.5t22 -9.5h28v-18h-140zM123 782h-19q30 118 98 118q23 0 77.5 -20t71.5 -20q30 0 48 40
h17q-8 -39 -33 -78.5t-58 -39.5q-27 0 -82.5 20t-75.5 20q-17 0 -29 -11t-15 -29z" />
    <glyph glyph-name="Ograve" unicode="&#xd2;" horiz-adv-x="574" 
d="M219 605v-506q0 -95 68 -95t68 95v506q0 95 -68 95t-68 -95zM541 352q0 -154 -71 -260t-183 -106t-183 106t-71 260t71 260t183 106t183 -106t71 -260zM333 743l-138 109q-31 25 -31 49q0 35 56 35q36 0 50 -16.5t37 -71.5l43 -105h-17z" />
    <glyph glyph-name="Oacute" unicode="&#xd3;" horiz-adv-x="574" 
d="M219 605v-506q0 -95 68 -95t68 95v506q0 95 -68 95t-68 -95zM541 352q0 -154 -71 -260t-183 -106t-183 106t-71 260t71 260t183 106t183 -106t71 -260zM224 743l43 105q23 55 37 71.5t50 16.5q56 0 56 -35q0 -24 -31 -49l-138 -109h-17z" />
    <glyph glyph-name="Ocircumflex" unicode="&#xd4;" horiz-adv-x="574" 
d="M219 605v-506q0 -95 68 -95t68 95v506q0 95 -68 95t-68 -95zM541 352q0 -154 -71 -260t-183 -106t-183 106t-71 260t71 260t183 106t183 -106t71 -260zM144 743l108 193h70l108 -193h-22l-121 100l-121 -100h-22z" />
    <glyph glyph-name="Otilde" unicode="&#xd5;" horiz-adv-x="574" 
d="M219 605v-506q0 -95 68 -95t68 95v506q0 95 -68 95t-68 -95zM541 352q0 -154 -71 -260t-183 -106t-183 106t-71 260t71 260t183 106t183 -106t71 -260zM150 782h-19q29 118 98 118q23 0 77.5 -20t71.5 -20q30 0 48 40h17q-8 -39 -33 -78.5t-58 -39.5q-27 0 -82.5 20
t-75.5 20q-17 0 -29 -11t-15 -29z" />
    <glyph glyph-name="Odieresis" unicode="&#xd6;" horiz-adv-x="574" 
d="M219 605v-506q0 -95 68 -95t68 95v506q0 95 -68 95t-68 -95zM541 352q0 -154 -71 -260t-183 -106t-183 106t-71 260t71 260t183 106t183 -106t71 -260zM317 843q0 30 21 51t51 21t51 -21t21 -51t-21 -51t-51 -21t-51 21t-21 51zM113 843q0 30 21 51t51 21t51 -21t21 -51
t-21 -51t-51 -21t-51 21t-21 51z" />
    <glyph glyph-name="multiply" unicode="&#xd7;" horiz-adv-x="600" 
d="M223 253l-158 158l77 77l158 -158l158 158l77 -77l-159 -158l159 -158l-77 -77l-158 159l-158 -159l-77 77z" />
    <glyph glyph-name="Oslash" unicode="&#xd8;" horiz-adv-x="574" 
d="M221 259l134 273v73q0 95 -68 95t-68 -95v-346h2zM86 -9l38 76q-91 105 -91 285q0 154 71 260t183 106q76 0 134 -52l31 61l21 -11l-33 -67q48 -50 74.5 -128t26.5 -169q0 -154 -71 -260t-183 -106q-83 0 -146 63l-33 -65zM353 479l-134 -272v-108q0 -95 68 -95t68 95
v380h-2z" />
    <glyph glyph-name="Ugrave" unicode="&#xd9;" horiz-adv-x="500" 
d="M13 686v18h271v-18h-49v-571q0 -93 83 -93q43 0 67 24t30 54t6 75v465q0 26 -8 36t-30 10h-20v18h135v-18h-24q-35 0 -35 -47v-481q0 -89 -40.5 -130.5t-128.5 -41.5q-94 0 -151.5 38t-57.5 124v538h-48zM296 743l-138 109q-31 25 -31 49q0 35 56 35q36 0 50 -16.5
t37 -71.5l43 -105h-17z" />
    <glyph glyph-name="Uacute" unicode="&#xda;" horiz-adv-x="500" 
d="M13 686v18h271v-18h-49v-571q0 -93 83 -93q43 0 67 24t30 54t6 75v465q0 26 -8 36t-30 10h-20v18h135v-18h-24q-35 0 -35 -47v-481q0 -89 -40.5 -130.5t-128.5 -41.5q-94 0 -151.5 38t-57.5 124v538h-48zM187 743l43 105q23 55 37 71.5t50 16.5q56 0 56 -35
q0 -24 -31 -49l-138 -109h-17z" />
    <glyph glyph-name="Ucircumflex" unicode="&#xdb;" horiz-adv-x="500" 
d="M13 686v18h271v-18h-49v-571q0 -93 83 -93q43 0 67 24t30 54t6 75v465q0 26 -8 36t-30 10h-20v18h135v-18h-24q-35 0 -35 -47v-481q0 -89 -40.5 -130.5t-128.5 -41.5q-94 0 -151.5 38t-57.5 124v538h-48zM107 743l108 193h70l108 -193h-22l-121 100l-121 -100h-22z" />
    <glyph glyph-name="Udieresis" unicode="&#xdc;" horiz-adv-x="500" 
d="M13 686v18h271v-18h-49v-571q0 -93 83 -93q43 0 67 24t30 54t6 75v465q0 26 -8 36t-30 10h-20v18h135v-18h-24q-35 0 -35 -47v-481q0 -89 -40.5 -130.5t-128.5 -41.5q-94 0 -151.5 38t-57.5 124v538h-48zM280 843q0 30 21 51t51 21t51 -21t21 -51t-21 -51t-51 -21t-51 21
t-21 51zM76 843q0 30 21 51t51 21t51 -21t21 -51t-21 -51t-51 -21t-51 21t-21 51z" />
    <glyph glyph-name="Yacute" unicode="&#xdd;" horiz-adv-x="444" 
d="M132 18v313l-139 355h-42v18h279v-18h-48l112 -288h2q8 24 32.5 86.5t43.5 113.5t19 61q0 27 -35 27h-25v18h144v-18h-12q-19 0 -29 -8t-21 -37l-101 -253v-370h47v-18h-276v18h49zM159 743l43 105q23 55 37 71.5t50 16.5q56 0 56 -35q0 -24 -31 -49l-138 -109h-17z" />
    <glyph glyph-name="Thorn" unicode="&#xde;" horiz-adv-x="537" 
d="M13 0v18h48v668h-48v18h280v-18h-58v-96h87q100 0 153.5 -49t53.5 -131q0 -86 -57 -139t-148 -53h-89v-200h58v-18h-280zM235 572v-336h33q41 0 61 41t20 134q0 89 -14.5 125t-62.5 36h-37z" />
    <glyph glyph-name="germandbls" unicode="&#xdf;" horiz-adv-x="537" 
d="M13 0v18h42v467q0 115 61.5 179.5t174.5 64.5q65 0 114 -34t49 -95q0 -35 -13 -59t-45 -52l-33 -29q-29 -25 -29 -32q0 -11 27 -30l63 -43q58 -41 76.5 -82t18.5 -101q0 -77 -39.5 -131.5t-117.5 -54.5q-40 0 -70.5 22.5t-30.5 68.5q0 32 17 49.5t44 17.5
q22 0 37.5 -15.5t15.5 -37.5q0 -18 -7.5 -29.5t-16.5 -15.5t-16.5 -11t-7.5 -18q0 -19 30 -19q39 0 61.5 22.5t22.5 59.5q0 28 -19 53t-46.5 44t-54.5 39t-46 46.5t-19 57.5q0 33 21.5 67.5t47.5 60t47.5 64.5t21.5 81q0 51 -21 84.5t-69 33.5q-55 0 -71 -37t-16 -117v-539
h36v-18h-240z" />
    <glyph glyph-name="agrave" unicode="&#xe0;" horiz-adv-x="463" 
d="M411 361v-274q0 -47 17 -47q8 0 13 10.5t5 19.5h20q-15 -84 -109 -84q-35 0 -62 19t-39 55q-40 -74 -115 -74q-57 0 -93 35.5t-36 104.5q0 151 237 153v136q0 32 -11.5 45.5t-38.5 13.5q-18 0 -35 -6.5t-17 -19.5q0 -4 16 -28t16 -48q0 -29 -20.5 -45t-45.5 -16
q-31 0 -51.5 17t-20.5 48q0 38 21.5 64t55 36t55 13t41.5 3q49 0 90.5 -10t74 -41t32.5 -80zM249 103v158h-23q-52 0 -52 -64v-98q0 -53 36 -53q22 0 30.5 13t8.5 44zM278 557l-138 109q-31 25 -31 49q0 35 56 35q36 0 50 -16.5t37 -71.5l43 -105h-17z" />
    <glyph glyph-name="aacute" unicode="&#xe1;" horiz-adv-x="463" 
d="M411 361v-274q0 -47 17 -47q8 0 13 10.5t5 19.5h20q-15 -84 -109 -84q-35 0 -62 19t-39 55q-40 -74 -115 -74q-57 0 -93 35.5t-36 104.5q0 151 237 153v136q0 32 -11.5 45.5t-38.5 13.5q-18 0 -35 -6.5t-17 -19.5q0 -4 16 -28t16 -48q0 -29 -20.5 -45t-45.5 -16
q-31 0 -51.5 17t-20.5 48q0 38 21.5 64t55 36t55 13t41.5 3q49 0 90.5 -10t74 -41t32.5 -80zM249 103v158h-23q-52 0 -52 -64v-98q0 -53 36 -53q22 0 30.5 13t8.5 44zM169 557l43 105q23 55 37 71.5t50 16.5q56 0 56 -35q0 -24 -31 -49l-138 -109h-17z" />
    <glyph glyph-name="acircumflex" unicode="&#xe2;" horiz-adv-x="463" 
d="M411 361v-274q0 -47 17 -47q8 0 13 10.5t5 19.5h20q-15 -84 -109 -84q-35 0 -62 19t-39 55q-40 -74 -115 -74q-57 0 -93 35.5t-36 104.5q0 151 237 153v136q0 32 -11.5 45.5t-38.5 13.5q-18 0 -35 -6.5t-17 -19.5q0 -4 16 -28t16 -48q0 -29 -20.5 -45t-45.5 -16
q-31 0 -51.5 17t-20.5 48q0 38 21.5 64t55 36t55 13t41.5 3q49 0 90.5 -10t74 -41t32.5 -80zM249 103v158h-23q-52 0 -52 -64v-98q0 -53 36 -53q22 0 30.5 13t8.5 44zM89 557l108 193h70l108 -193h-22l-121 100l-121 -100h-22z" />
    <glyph glyph-name="atilde" unicode="&#xe3;" horiz-adv-x="463" 
d="M411 361v-274q0 -47 17 -47q8 0 13 10.5t5 19.5h20q-15 -84 -109 -84q-35 0 -62 19t-39 55q-40 -74 -115 -74q-57 0 -93 35.5t-36 104.5q0 151 237 153v136q0 32 -11.5 45.5t-38.5 13.5q-18 0 -35 -6.5t-17 -19.5q0 -4 16 -28t16 -48q0 -29 -20.5 -45t-45.5 -16
q-31 0 -51.5 17t-20.5 48q0 38 21.5 64t55 36t55 13t41.5 3q49 0 90.5 -10t74 -41t32.5 -80zM249 103v158h-23q-52 0 -52 -64v-98q0 -53 36 -53q22 0 30.5 13t8.5 44zM95 596h-19q30 118 98 118q23 0 77.5 -20t71.5 -20q30 0 48 40h17q-8 -39 -33 -78.5t-58 -39.5
q-27 0 -82.5 20t-75.5 20q-17 0 -29 -11t-15 -29z" />
    <glyph glyph-name="adieresis" unicode="&#xe4;" horiz-adv-x="463" 
d="M411 361v-274q0 -47 17 -47q8 0 13 10.5t5 19.5h20q-15 -84 -109 -84q-35 0 -62 19t-39 55q-40 -74 -115 -74q-57 0 -93 35.5t-36 104.5q0 151 237 153v136q0 32 -11.5 45.5t-38.5 13.5q-18 0 -35 -6.5t-17 -19.5q0 -4 16 -28t16 -48q0 -29 -20.5 -45t-45.5 -16
q-31 0 -51.5 17t-20.5 48q0 38 21.5 64t55 36t55 13t41.5 3q49 0 90.5 -10t74 -41t32.5 -80zM249 103v158h-23q-52 0 -52 -64v-98q0 -53 36 -53q22 0 30.5 13t8.5 44zM262 657q0 30 21 51t51 21t51 -21t21 -51t-21 -51t-51 -21t-51 21t-21 51zM58 657q0 30 21 51t51 21
t51 -21t21 -51t-21 -51t-51 -21t-51 21t-21 51z" />
    <glyph glyph-name="aring" unicode="&#xe5;" horiz-adv-x="463" 
d="M411 361v-274q0 -47 17 -47q8 0 13 10.5t5 19.5h20q-15 -84 -109 -84q-35 0 -62 19t-39 55q-40 -74 -115 -74q-57 0 -93 35.5t-36 104.5q0 151 237 153v136q0 32 -11.5 45.5t-38.5 13.5q-18 0 -35 -6.5t-17 -19.5q0 -4 16 -28t16 -48q0 -29 -20.5 -45t-45.5 -16
q-31 0 -51.5 17t-20.5 48q0 38 21.5 64t55 36t55 13t41.5 3q49 0 90.5 -10t74 -41t32.5 -80zM249 103v158h-23q-52 0 -52 -64v-98q0 -53 36 -53q22 0 30.5 13t8.5 44zM131 642q0 42 29.5 71.5t71.5 29.5t71.5 -29.5t29.5 -71.5t-29.5 -71.5t-71.5 -29.5t-71.5 29.5
t-29.5 71.5zM161 642q0 -29 21 -50t50 -21t50 21t21 50t-21 50t-50 21t-50 -21t-21 -50z" />
    <glyph glyph-name="ae" unicode="&#xe6;" horiz-adv-x="684" 
d="M417 257v-146q0 -46 20 -70.5t69 -24.5q40 0 79 38.5t59 95.5l18 -4q-32 -77 -76.5 -118.5t-119.5 -41.5q-95 0 -160 63q-74 -63 -159 -63q-57 0 -93 35.5t-36 104.5q0 151 237 153v136q0 32 -11.5 45.5t-38.5 13.5q-18 0 -35 -6.5t-17 -19.5q0 -4 16 -28t16 -48
q0 -29 -20.5 -45t-45.5 -16q-31 0 -51.5 17t-20.5 48q0 38 21.5 64t55 36t55 13t41.5 3q83 0 130 -48q43 48 116 48q95 0 147 -67.5t53 -167.5h-249zM180 197v-130q0 -51 36 -51q23 5 31 15.5t8 39.5v190h-23q-52 0 -52 -64zM417 430v-155h87v147q0 29 -10 40.5t-34 11.5
q-19 0 -31 -11.5t-12 -32.5z" />
    <glyph glyph-name="ccedilla" unicode="&#xe7;" horiz-adv-x="407" 
d="M166 -93l48 81q-86 12 -141 87.5t-55 163.5q0 95 63.5 174t159.5 79q62 0 107.5 -29t45.5 -81q0 -30 -21 -52.5t-51 -22.5q-28 0 -50 16t-22 43q0 26 21.5 50t21.5 37q0 21 -47 21q-25 0 -39.5 -15.5t-14.5 -59.5v-311q0 -44 16.5 -58t43.5 -14q89 0 140 133l16 -5
q-22 -73 -69 -116t-98 -42h-5l-40 -61l2 -2q24 11 51 11q32 0 58.5 -15t26.5 -45q0 -76 -130 -76q-25 0 -86 13l5 23q46 -12 59 -12q25 0 43 10.5t18 31.5q0 40 -43 40q-7 0 -22 -3z" />
    <glyph glyph-name="egrave" unicode="&#xe8;" horiz-adv-x="463" 
d="M192 275h87v147q0 29 -10 40.5t-34 11.5q-19 0 -31 -11.5t-12 -32.5v-155zM441 257h-249v-146q0 -46 20 -70.5t69 -24.5q40 0 79 38.5t59 95.5l18 -4q-32 -77 -76.5 -118.5t-119.5 -41.5q-96 0 -159.5 79t-63.5 174t63.5 174t159.5 79q95 0 147 -67.5t53 -167.5zM278 557
l-138 109q-31 25 -31 49q0 35 56 35q36 0 50 -16.5t37 -71.5l43 -105h-17z" />
    <glyph glyph-name="eacute" unicode="&#xe9;" horiz-adv-x="463" 
d="M192 275h87v147q0 29 -10 40.5t-34 11.5q-19 0 -31 -11.5t-12 -32.5v-155zM441 257h-249v-146q0 -46 20 -70.5t69 -24.5q40 0 79 38.5t59 95.5l18 -4q-32 -77 -76.5 -118.5t-119.5 -41.5q-96 0 -159.5 79t-63.5 174t63.5 174t159.5 79q95 0 147 -67.5t53 -167.5zM169 557
l43 105q23 55 37 71.5t50 16.5q56 0 56 -35q0 -24 -31 -49l-138 -109h-17z" />
    <glyph glyph-name="ecircumflex" unicode="&#xea;" horiz-adv-x="463" 
d="M192 275h87v147q0 29 -10 40.5t-34 11.5q-19 0 -31 -11.5t-12 -32.5v-155zM441 257h-249v-146q0 -46 20 -70.5t69 -24.5q40 0 79 38.5t59 95.5l18 -4q-32 -77 -76.5 -118.5t-119.5 -41.5q-96 0 -159.5 79t-63.5 174t63.5 174t159.5 79q95 0 147 -67.5t53 -167.5zM89 557
l108 193h70l108 -193h-22l-121 100l-121 -100h-22z" />
    <glyph glyph-name="edieresis" unicode="&#xeb;" horiz-adv-x="463" 
d="M192 275h87v147q0 29 -10 40.5t-34 11.5q-19 0 -31 -11.5t-12 -32.5v-155zM441 257h-249v-146q0 -46 20 -70.5t69 -24.5q40 0 79 38.5t59 95.5l18 -4q-32 -77 -76.5 -118.5t-119.5 -41.5q-96 0 -159.5 79t-63.5 174t63.5 174t159.5 79q95 0 147 -67.5t53 -167.5zM262 657
q0 30 21 51t51 21t51 -21t21 -51t-21 -51t-51 -21t-51 21t-21 51zM58 657q0 30 21 51t51 21t51 -21t21 -51t-21 -51t-51 -21t-51 21t-21 51z" />
    <glyph glyph-name="igrave" unicode="&#xec;" 
d="M13 0v18h42v442h-42v18h111q54 0 99 22v-482h42v-18h-252zM185 557l-138 109q-31 25 -31 49q0 35 56 35q36 0 50 -16.5t37 -71.5l43 -105h-17z" />
    <glyph glyph-name="iacute" unicode="&#xed;" 
d="M13 0v18h42v442h-42v18h111q54 0 99 22v-482h42v-18h-252zM76 557l43 105q23 55 37 71.5t50 16.5q56 0 56 -35q0 -24 -31 -49l-138 -109h-17z" />
    <glyph glyph-name="icircumflex" unicode="&#xee;" 
d="M13 0v18h42v442h-42v18h111q54 0 99 22v-482h42v-18h-252zM-4 557l108 193h70l108 -193h-22l-121 100l-121 -100h-22z" />
    <glyph glyph-name="idieresis" unicode="&#xef;" 
d="M13 0v18h42v442h-42v18h111q54 0 99 22v-482h42v-18h-252zM169 657q0 30 21 51t51 21t51 -21t21 -51t-21 -51t-51 -21t-51 21t-21 51zM-35 657q0 30 21 51t51 21t51 -21t21 -51t-21 -51t-51 -21t-51 21t-21 51z" />
    <glyph glyph-name="eth" unicode="&#xf0;" horiz-adv-x="482" 
d="M124 546l-20 33l101 50q-43 54 -102 82l8 18q61 -9 155 -66l110 54l21 -34l-92 -45q72 -64 115.5 -155.5t43.5 -182.5q0 -146 -61 -230t-162 -84q-96 0 -159.5 79t-63.5 174t63.5 174t159.5 79q22 0 42 -9q-18 62 -56 114zM192 407v-336q0 -67 49 -67t49 67v336
q0 67 -49 67t-49 -67z" />
    <glyph glyph-name="ntilde" unicode="&#xf1;" horiz-adv-x="537" 
d="M13 0v18h42v442h-42v18h111q54 0 99 22v-84h2q51 76 134 76q123 0 123 -129v-345h42v-18h-243v18h33v381q0 39 -28 39q-26 0 -44.5 -24.5t-18.5 -60.5v-335h33v-18h-243zM132 596h-19q29 118 98 118q23 0 77.5 -20t71.5 -20q30 0 48 40h17q-8 -39 -33 -78.5t-58 -39.5
q-27 0 -82.5 20t-75.5 20q-17 0 -29 -11t-15 -29z" />
    <glyph glyph-name="ograve" unicode="&#xf2;" horiz-adv-x="482" 
d="M192 407v-336q0 -67 49 -67t49 67v336q0 67 -49 67t-49 -67zM18 239q0 95 63.5 174t159.5 79t159.5 -79t63.5 -174t-63.5 -174t-159.5 -79t-159.5 79t-63.5 174zM287 557l-138 109q-31 25 -31 49q0 35 56 35q36 0 50 -16.5t37 -71.5l43 -105h-17z" />
    <glyph glyph-name="oacute" unicode="&#xf3;" horiz-adv-x="482" 
d="M192 407v-336q0 -67 49 -67t49 67v336q0 67 -49 67t-49 -67zM18 239q0 95 63.5 174t159.5 79t159.5 -79t63.5 -174t-63.5 -174t-159.5 -79t-159.5 79t-63.5 174zM178 557l43 105q23 55 37 71.5t50 16.5q56 0 56 -35q0 -24 -31 -49l-138 -109h-17z" />
    <glyph glyph-name="ocircumflex" unicode="&#xf4;" horiz-adv-x="482" 
d="M192 407v-336q0 -67 49 -67t49 67v336q0 67 -49 67t-49 -67zM18 239q0 95 63.5 174t159.5 79t159.5 -79t63.5 -174t-63.5 -174t-159.5 -79t-159.5 79t-63.5 174zM98 557l108 193h70l108 -193h-22l-121 100l-121 -100h-22z" />
    <glyph glyph-name="otilde" unicode="&#xf5;" horiz-adv-x="482" 
d="M192 407v-336q0 -67 49 -67t49 67v336q0 67 -49 67t-49 -67zM18 239q0 95 63.5 174t159.5 79t159.5 -79t63.5 -174t-63.5 -174t-159.5 -79t-159.5 79t-63.5 174zM104 596h-19q29 118 98 118q23 0 77.5 -20t71.5 -20q30 0 48 40h17q-8 -39 -33 -78.5t-58 -39.5
q-27 0 -82.5 20t-75.5 20q-17 0 -29 -11t-15 -29z" />
    <glyph glyph-name="odieresis" unicode="&#xf6;" horiz-adv-x="482" 
d="M192 407v-336q0 -67 49 -67t49 67v336q0 67 -49 67t-49 -67zM18 239q0 95 63.5 174t159.5 79t159.5 -79t63.5 -174t-63.5 -174t-159.5 -79t-159.5 79t-63.5 174zM271 657q0 30 21 51t51 21t51 -21t21 -51t-21 -51t-51 -21t-51 21t-21 51zM67 657q0 30 21 51t51 21t51 -21
t21 -51t-21 -51t-51 -21t-51 21t-21 51z" />
    <glyph glyph-name="divide" unicode="&#xf7;" horiz-adv-x="600" 
d="M553 196h-506v114h506v-114zM214 460q0 36 25.5 61.5t61.5 25.5t61.5 -25.5t25.5 -61.5t-25.5 -61.5t-61.5 -25.5t-61.5 25.5t-25.5 61.5zM214 46q0 36 25.5 61.5t61.5 25.5t61.5 -25.5t25.5 -61.5t-25.5 -61.5t-61.5 -25.5t-61.5 25.5t-25.5 61.5z" />
    <glyph glyph-name="oslash" unicode="&#xf8;" horiz-adv-x="482" 
d="M192 407v-248h2l96 208v40q0 67 -49 67t-49 -67zM98 -40l30 63q-48 27 -79 90.5t-31 125.5q0 95 63.5 174t159.5 79q52 0 96 -25l32 68l20 -10l-33 -70q108 -88 108 -216q0 -95 -63.5 -174t-159.5 -79q-53 0 -94 25l-28 -60zM290 71v244h-2l-96 -209v-35q0 -67 49 -67
t49 67z" />
    <glyph glyph-name="ugrave" unicode="&#xf9;" horiz-adv-x="537" 
d="M482 500v-482h42v-18h-209v62h-3q-51 -76 -134 -76q-123 0 -123 129v345h-42v18h111q54 0 99 22v-421q0 -39 28 -39q26 0 44.5 24.5t18.5 60.5v335h-42v18h111q54 0 99 22zM315 557l-138 109q-31 25 -31 49q0 35 56 35q36 0 50 -16.5t37 -71.5l43 -105h-17z" />
    <glyph glyph-name="uacute" unicode="&#xfa;" horiz-adv-x="537" 
d="M482 500v-482h42v-18h-209v62h-3q-51 -76 -134 -76q-123 0 -123 129v345h-42v18h111q54 0 99 22v-421q0 -39 28 -39q26 0 44.5 24.5t18.5 60.5v335h-42v18h111q54 0 99 22zM206 557l43 105q23 55 37 71.5t50 16.5q56 0 56 -35q0 -24 -31 -49l-138 -109h-17z" />
    <glyph glyph-name="ucircumflex" unicode="&#xfb;" horiz-adv-x="537" 
d="M482 500v-482h42v-18h-209v62h-3q-51 -76 -134 -76q-123 0 -123 129v345h-42v18h111q54 0 99 22v-421q0 -39 28 -39q26 0 44.5 24.5t18.5 60.5v335h-42v18h111q54 0 99 22zM126 557l108 193h70l108 -193h-22l-121 100l-121 -100h-22z" />
    <glyph glyph-name="udieresis" unicode="&#xfc;" horiz-adv-x="537" 
d="M482 500v-482h42v-18h-209v62h-3q-51 -76 -134 -76q-123 0 -123 129v345h-42v18h111q54 0 99 22v-421q0 -39 28 -39q26 0 44.5 24.5t18.5 60.5v335h-42v18h111q54 0 99 22zM299 657q0 30 21 51t51 21t51 -21t21 -51t-21 -51t-51 -21t-51 21t-21 51zM95 657q0 30 21 51
t51 21t51 -21t21 -51t-21 -51t-51 -21t-51 21t-21 51z" />
    <glyph glyph-name="yacute" unicode="&#xfd;" horiz-adv-x="389" 
d="M189 -36l-177 496h-36v18h246v-18h-36l80 -255h2l51 162q15 46 15 60q0 33 -35 33h-11v18h125v-18h-9q-19 0 -33.5 -23.5t-37.5 -92.5l-152 -477q-28 -87 -99 -88q-38 -1 -60.5 21t-22.5 57q0 31 17 52.5t45 21.5q64 0 64 -62q0 -27 -12.5 -41t-25.5 -18.5t-13 -6.5
q0 -6 21 -6q20 0 38.5 18.5t29.5 56.5zM132 557l43 105q23 55 37 71.5t50 16.5q56 0 56 -35q0 -24 -31 -49l-138 -109h-17z" />
    <glyph glyph-name="thorn" unicode="&#xfe;" horiz-adv-x="519" 
d="M13 -221v20h42v890h-42v18h115q49 0 95 22v-299h2q14 27 43 44.5t60 17.5q58 0 99 -41t57.5 -94t16.5 -109q0 -61 -17 -118t-60.5 -100.5t-105.5 -43.5q-30 0 -55.5 15t-37.5 42h-2v-246h42v-18h-252zM223 374v-266q0 -35 14 -57.5t41 -22.5q43 0 43 62v311q0 49 -41 49
q-24 0 -40.5 -21t-16.5 -55z" />
    <glyph glyph-name="ydieresis" unicode="&#xff;" horiz-adv-x="389" 
d="M189 -36l-177 496h-36v18h246v-18h-36l80 -255h2l51 162q15 46 15 60q0 33 -35 33h-11v18h125v-18h-9q-19 0 -33.5 -23.5t-37.5 -92.5l-152 -477q-28 -87 -99 -88q-38 -1 -60.5 21t-22.5 57q0 31 17 52.5t45 21.5q64 0 64 -62q0 -27 -12.5 -41t-25.5 -18.5t-13 -6.5
q0 -6 21 -6q20 0 38.5 18.5t29.5 56.5zM225 657q0 30 21 51t51 21t51 -21t21 -51t-21 -51t-51 -21t-51 21t-21 51zM21 657q0 30 21 51t51 21t51 -21t21 -51t-21 -51t-51 -21t-51 21t-21 51z" />
    <glyph glyph-name="dotlessi" unicode="&#x131;" 
d="M13 0v18h42v442h-42v18h111q54 0 99 22v-482h42v-18h-252z" />
    <glyph glyph-name="Lslash" unicode="&#x141;" horiz-adv-x="463" 
d="M13 0v18h48v253l-61 -40v46l61 40v369h-48v18h270v-18h-48v-254l136 89v-46l-136 -89v-368h41q57 0 95.5 61t53.5 140h18l-6 -219h-424z" />
    <glyph glyph-name="lslash" unicode="&#x142;" 
d="M13 0v18h42v283l-72 -47v50l72 47v335h-42v18h109q74 0 101 25v-270l72 47v-50l-72 -47v-391h42v-18h-252z" />
    <glyph glyph-name="OE" unicode="&#x152;" horiz-adv-x="778" 
d="M535 351v-333h38q62 0 105 53.5t53 141.5h18l-10 -213h-356q-17 -1 -49 -5q-45 -3 -47 -3q-112 0 -183 105t-71 255t71 255t183 105q7 0 76 -8h374l6 -182h-18q-5 60 -48.5 112t-98.5 52h-43v-317h13q46 0 64 32t28 100h18v-283h-18q-8 133 -85 133h-20zM219 599v-494
q0 -95 68 -95t68 95v494q0 95 -68 95t-68 -95z" />
    <glyph glyph-name="oe" unicode="&#x153;" horiz-adv-x="722" 
d="M18 239q0 95 63.5 174t159.5 79q30 0 62.5 -15.5t54.5 -41.5q51 57 126 57q95 0 146.5 -67.5t52.5 -167.5h-249v-146q0 -46 20 -70.5t69 -24.5q40 0 79 38.5t59 95.5l18 -4q-32 -77 -76.5 -118.5t-118.5 -41.5q-36 0 -72.5 13.5t-55.5 40.5q-24 -23 -57.5 -38.5
t-57.5 -15.5q-96 0 -159.5 79t-63.5 174zM434 430v-155h87v147q0 29 -10 40.5t-34 11.5q-19 0 -31 -11.5t-12 -32.5zM238 4q46 0 46 71v328q0 71 -46 71t-46 -71v-328q0 -71 46 -71z" />
    <glyph glyph-name="Scaron" unicode="&#x160;" horiz-adv-x="481" 
d="M29 -6v235h18q30 -225 182 -225q64 0 99.5 34t35.5 92q0 43 -22.5 71t-68.5 48l-114 51q-79 35 -108.5 85.5t-29.5 121.5q0 85 55 148t138 63q52 0 99.5 -22t56.5 -22q12 0 20 12t8 23h18v-201h-18q-11 86 -53 139t-123 53q-46 0 -75.5 -32t-29.5 -80q0 -37 22 -64
t53 -40l136 -56q132 -54 132 -205q0 -106 -65 -171.5t-167 -65.5q-46 0 -96 22.5t-53 22.5q-13 0 -21.5 -11.5t-10.5 -25.5h-18zM384 936l-108 -193h-70l-108 193h22l121 -100l121 100h22z" />
    <glyph glyph-name="scaron" unicode="&#x161;" horiz-adv-x="389" 
d="M43 -14v165h12q13 -58 51.5 -102.5t92.5 -44.5q37 0 64 21.5t27 58.5q0 40 -25 54.5t-103 32.5q-135 30 -135 149q0 82 43 127t98 45q47 0 76.5 -14.5t37.5 -14.5q9 0 17.5 8.5t10.5 20.5h12v-134h-12q-27 61 -58.5 88.5t-73.5 27.5q-79 0 -79 -75q0 -32 27 -47.5
t65.5 -22t77.5 -17.5t66 -47.5t27 -99.5q0 -72 -44.5 -125.5t-121.5 -53.5q-25 0 -63 13.5t-43 13.5q-30 0 -35 -27h-12zM338 750l-108 -193h-70l-108 193h22l121 -100l121 100h22z" />
    <glyph glyph-name="Ydieresis" unicode="&#x178;" horiz-adv-x="444" 
d="M132 18v313l-139 355h-42v18h279v-18h-48l112 -288h2q8 24 32.5 86.5t43.5 113.5t19 61q0 27 -35 27h-25v18h144v-18h-12q-19 0 -29 -8t-21 -37l-101 -253v-370h47v-18h-276v18h49zM252 843q0 30 21 51t51 21t51 -21t21 -51t-21 -51t-51 -21t-51 21t-21 51zM48 843
q0 30 21 51t51 21t51 -21t21 -51t-21 -51t-51 -21t-51 21t-21 51z" />
    <glyph glyph-name="Zcaron" unicode="&#x17d;" horiz-adv-x="463" 
d="M41 512l6 192h407v-21l-258 -665h70q59 0 107 67t57 136h18l-12 -221h-427v25l257 661h-82q-46 0 -78.5 -55.5t-43.5 -118.5h-21zM375 936l-108 -193h-70l-108 193h22l121 -100l121 100h22z" />
    <glyph glyph-name="zcaron" unicode="&#x17e;" horiz-adv-x="389" 
d="M6 14l202 446h-36q-56 0 -90.5 -44.5t-40.5 -110.5h-18v173h360v-14l-203 -446h50q52 0 86.5 50t41.5 108h12v-176h-364v14zM338 750l-108 -193h-70l-108 193h22l121 -100l121 100h22z" />
    <glyph glyph-name="florin" unicode="&#x192;" horiz-adv-x="520" 
d="M64 345v30h108l2 40q2 42 10.5 82t27 81t45.5 71.5t70 49.5t97 19q44 0 71.5 -20t27.5 -56q0 -26 -18 -48.5t-46 -22.5q-26 0 -44 16.5t-18 43.5q0 52 50 59q-5 10 -27 10q-10 0 -20 -3t-22 -11t-20 -26.5t-9 -45.5l-14 -239h107v-30h-109l-2 -55q-4 -103 -20 -190
t-44.5 -156.5t-74 -109t-103.5 -39.5q-42 0 -67 21.5t-25 59.5q0 26 15.5 43.5t41.5 17.5q22 0 39.5 -16.5t17.5 -39.5q0 -21 -13.5 -38.5t-34.5 -23.5q8 -6 28 -6q26 0 42 25t18 64l20 443h-107z" />
    <glyph glyph-name="circumflex" unicode="&#x2c6;" 
d="M-4 557l108 193h70l108 -193h-22l-121 100l-121 -100h-22z" />
    <glyph glyph-name="caron" unicode="&#x2c7;" 
d="M282 750l-108 -193h-70l-108 193h22l121 -100l121 100h22z" />
    <glyph glyph-name="uni02C9" unicode="&#x2c9;" 
d="M-17 622v68h312v-68h-312z" />
    <glyph glyph-name="breve" unicode="&#x2d8;" 
d="M4 733h18q3 -39 37.5 -58t77.5 -19q105 0 119 77h18q-11 -153 -132 -153q-124 0 -138 153z" />
    <glyph glyph-name="dotaccent" unicode="&#x2d9;" 
d="M67 657q0 30 21 51t51 21t51 -21t21 -51t-21 -51t-51 -21t-51 21t-21 51z" />
    <glyph glyph-name="ring" unicode="&#x2da;" 
d="M38 642q0 42 29.5 71.5t71.5 29.5t71.5 -29.5t29.5 -71.5t-29.5 -71.5t-71.5 -29.5t-71.5 29.5t-29.5 71.5zM68 642q0 -29 21 -50t50 -21t50 21t21 50t-21 50t-50 21t-50 -21t-21 -50z" />
    <glyph glyph-name="ogonek" unicode="&#x2db;" 
d="M236 7h22q-69 -83 -67 -112q0 -37 40 -37q31 0 50 12l10 -12q-69 -59 -104 -60q-38 0 -62 19.5t-24 55.5q0 38 31 65.5t104 68.5z" />
    <glyph glyph-name="tilde" unicode="&#x2dc;" 
d="M2 596h-19q29 118 98 118q23 0 77.5 -20t71.5 -20q30 0 48 40h17q-8 -39 -33 -78.5t-58 -39.5q-27 0 -82.5 20t-75.5 20q-17 0 -29 -11t-15 -29z" />
    <glyph glyph-name="hungarumlaut" unicode="&#x2dd;" 
d="M186 557l43 105q23 55 37 71.5t50 16.5q56 0 56 -35q0 -24 -31 -49l-138 -109h-17zM-14 557l43 105q23 55 37 71.5t50 16.5q56 0 56 -35q0 -24 -31 -49l-138 -109h-17z" />
    <glyph glyph-name="uni03A9" unicode="&#x3a9;" horiz-adv-x="681" 
d="M651 187l-27 -187h-246l-11 23q28 92 39 130t26.5 113.5t15.5 123.5q0 146 -28 207t-82 61q-36 0 -58 -20t-35.5 -81t-13.5 -169q0 -129 80 -365l-10 -23h-249l-23 187h39q15 -41 29.5 -53t46.5 -12h79q-31 24 -46.5 36.5t-43.5 41t-42 54t-26 64t-12 80.5
q0 137 82 220.5t207 83.5t205 -81.5t80 -218.5q0 -20 -3.5 -40t-6.5 -35t-13.5 -33.5t-15 -29t-20.5 -28.5t-20.5 -24t-24.5 -24.5t-23.5 -22t-26.5 -23t-25 -20.5h95q27 0 41 12.5t28 52.5h39z" />
    <glyph glyph-name="uni03BC" unicode="&#x3bc;" horiz-adv-x="537" 
d="M55 73v387h-42v18h111q54 0 99 22v-398q0 -56 34 -56q24 0 40.5 22t16.5 48v344h-42v18h111q54 0 99 22v-482h42v-18h-209v66h-2q-29 -62 -91 -62q-26 0 -47 20h-2q2 -17 8 -55t10 -67.5t4 -40.5q0 -31 -22.5 -56.5t-57.5 -25.5t-54 24.5t-19 59.5q0 28 6.5 104t6.5 106z
" />
    <glyph glyph-name="pi" unicode="&#x3c0;" horiz-adv-x="566" 
d="M513 476l33 -7q-2 -32 -14.5 -75.5t-22.5 -59.5q-18 -8 -55 -8q-5 -68 -5 -162q1 -84 32 -84q15 0 38 15l13 -32q-19 -30 -54.5 -53.5t-69.5 -23.5q-110 0 -110 143q0 54 8 200q-19 -1 -48.5 0.5t-44.5 1.5v-4q0 -82 -6.5 -143.5t-19 -97.5t-19.5 -50t-18 -30
q-36 -16 -79 -20l-9 26q91 141 91 321q-38 1 -60.5 -5t-56.5 -26l-17 37q1 2 11.5 16.5t14 18.5t15 17.5t19.5 18.5t22.5 14.5t28 13t32.5 7t40 2.5q156 -2 256 -2q24 0 35 6.5t20 24.5z" />
    <glyph glyph-name="endash" unicode="&#x2013;" horiz-adv-x="500" 
d="M500 208h-500v90h500v-90z" />
    <glyph glyph-name="emdash" unicode="&#x2014;" horiz-adv-x="1000" 
d="M0 208v90h1000v-90h-1000z" />
    <glyph glyph-name="quoteleft" unicode="&#x2018;" horiz-adv-x="260" 
d="M200 718l7 -19q-124 -36 -124 -158v-13q28 25 60 25q28 0 52 -19t24 -62q0 -36 -23.5 -61.5t-62.5 -25.5q-34 0 -63 30.5t-29 97.5q0 73 38 129.5t121 75.5z" />
    <glyph glyph-name="quoteright" unicode="&#x2019;" horiz-adv-x="260" 
d="M60 385l-7 19q124 36 124 158v13q-28 -25 -60 -25q-28 0 -52 19t-24 62q0 36 23.5 61.5t62.5 25.5q34 0 63 -30.5t29 -97.5q0 -73 -38 -129.5t-121 -75.5z" />
    <glyph glyph-name="quotesinglbase" unicode="&#x201a;" horiz-adv-x="260" 
d="M60 -179l-7 19q124 36 124 158v13q-28 -25 -60 -25q-28 0 -52 19t-24 62q0 36 23.5 61.5t62.5 25.5q34 0 63 -30.5t29 -97.5q0 -73 -38 -129.5t-121 -75.5z" />
    <glyph glyph-name="quotedblleft" unicode="&#x201c;" horiz-adv-x="463" 
d="M195 718l7 -19q-124 -36 -124 -158v-13q28 25 60 25q28 0 52 -19t24 -62q0 -36 -23.5 -61.5t-62.5 -25.5q-34 0 -63 30.5t-29 97.5q0 73 38 129.5t121 75.5zM408 718l7 -19q-124 -36 -124 -158v-13q28 25 60 25q28 0 52 -19t24 -62q0 -36 -23.5 -61.5t-62.5 -25.5
q-34 0 -63 30.5t-29 97.5q0 73 38 129.5t121 75.5z" />
    <glyph glyph-name="quotedblright" unicode="&#x201d;" horiz-adv-x="463" 
d="M268 385l-7 19q124 36 124 158v13q-28 -25 -60 -25q-28 0 -52 19t-24 62q0 36 23.5 61.5t62.5 25.5q34 0 63 -30.5t29 -97.5q0 -73 -38 -129.5t-121 -75.5zM55 385l-7 19q124 36 124 158v13q-28 -25 -60 -25q-28 0 -52 19t-24 62q0 36 23.5 61.5t62.5 25.5q34 0 63 -30.5
t29 -97.5q0 -73 -38 -129.5t-121 -75.5z" />
    <glyph glyph-name="quotedblbase" unicode="&#x201e;" horiz-adv-x="463" 
d="M268 -179l-7 19q124 36 124 158v13q-28 -25 -60 -25q-28 0 -52 19t-24 62q0 36 23.5 61.5t62.5 25.5q34 0 63 -30.5t29 -97.5q0 -73 -38 -129.5t-121 -75.5zM55 -179l-7 19q124 36 124 158v13q-28 -25 -60 -25q-28 0 -52 19t-24 62q0 36 23.5 61.5t62.5 25.5
q34 0 63 -30.5t29 -97.5q0 -73 -38 -129.5t-121 -75.5z" />
    <glyph glyph-name="dagger" unicode="&#x2020;" horiz-adv-x="520" 
d="M260 -202q-6 0 -12 6t-10.5 16.5t-8 20t-7 20l-4.5 13.5q-5 -1 -16 -4t-19.5 -5.5t-10.5 -2.5q-8 0 -8 14q0 7 13.5 50t29.5 100t29.5 160t14.5 216q-48 -4 -87 -23t-62.5 -35.5t-34.5 -16.5t-11 16q0 15 6 35q-52 12 -52 33t52 33q-6 20 -6 35q0 16 11 16t34.5 -16.5
t62.5 -35.5t87 -23v11q0 43 -19.5 94t-39.5 88t-20 46q0 14 14 14q7 0 20.5 -4.5t17.5 -4.5q3 23 12.5 51t23.5 28t23.5 -28t12.5 -51q4 0 17.5 4.5t20.5 4.5q14 0 14 -14q0 -9 -20 -46t-39.5 -88t-19.5 -94v-11q48 4 87 23t62.5 35.5t34.5 16.5t11 -16q0 -15 -6 -35
q52 -12 52 -33t-52 -33q6 -20 6 -35q0 -16 -11 -16t-34.5 16.5t-62.5 35.5t-87 23q1 -113 14.5 -216t29.5 -160t29.5 -100t13.5 -50q0 -14 -8 -14q-2 0 -10.5 2.5t-19.5 5.5t-16 4l-4.5 -13.5t-7 -20t-8 -20t-10.5 -16.5t-12 -6z" />
    <glyph glyph-name="daggerdbl" unicode="&#x2021;" horiz-adv-x="520" 
d="M260 -202q-19 0 -35 79q-27 -10 -44 -10q-10 0 -10 8q0 4 19 37t39 84t22 96q-39 0 -82 -17.5t-72 -35.5t-34 -18q-9 0 -9 9q0 11 8 39q-14 4 -19.5 6t-15 6.5t-13.5 9t-4 10.5t4 10.5t13.5 9t15 6.5t19.5 6q-8 28 -8 39q0 9 9 9q5 0 34 -17.5t72 -35.5t82 -18
q-2 108 -54 161q52 53 54 161q-39 0 -82 -18t-72 -35.5t-34 -17.5q-9 0 -9 9q0 11 8 39q-14 4 -19.5 6t-15 6.5t-13.5 9t-4 10.5t4 10.5t13.5 9t15 6.5t19.5 6q-8 28 -8 39q0 9 9 9q5 0 34 -17.5t72 -35.5t82 -18q-2 45 -22 96t-39 84t-19 37q0 8 10 8q17 0 44 -10
q7 33 16 56t19 22q10 1 19 -22t16 -56q27 10 44 10q10 0 10 -8q0 -4 -19 -37t-39 -84t-22 -96q39 0 82 18t72 35.5t34 17.5q9 0 9 -9q0 -11 -8 -39q14 -4 19.5 -6t15 -6.5t13.5 -9t4 -10.5t-4 -10.5t-13.5 -9t-15 -6.5t-19.5 -6q8 -28 8 -39q0 -9 -9 -9q-5 0 -34 17.5
t-72 35.5t-82 18q2 -108 54 -161q-52 -53 -54 -161q39 0 82 18t72 35.5t34 17.5q9 0 9 -9q0 -11 -8 -39q14 -4 19.5 -6t15 -6.5t13.5 -9t4 -10.5t-4 -10.5t-13.5 -9t-15 -6.5t-19.5 -6q8 -28 8 -39q0 -9 -9 -9q-5 0 -34 17.5t-72 35.5t-82 18q2 -45 22 -96t39 -84t19 -37
q0 -8 -10 -8q-17 0 -44 10q-16 -79 -35 -79z" />
    <glyph glyph-name="bullet" unicode="&#x2022;" horiz-adv-x="500" 
d="M74 352q0 73 51.5 124.5t124.5 51.5t124.5 -51.5t51.5 -124.5t-51.5 -124.5t-124.5 -51.5t-124.5 51.5t-51.5 124.5z" />
    <glyph glyph-name="ellipsis" unicode="&#x2026;" horiz-adv-x="1000" 
d="M80 73q0 36 25.5 61.5t61.5 25.5t61.5 -25.5t25.5 -61.5t-25.5 -61.5t-61.5 -25.5t-61.5 25.5t-25.5 61.5zM413 73q0 36 25.5 61.5t61.5 25.5t61.5 -25.5t25.5 -61.5t-25.5 -61.5t-61.5 -25.5t-61.5 25.5t-25.5 61.5zM746 73q0 36 25.5 61.5t61.5 25.5t61.5 -25.5
t25.5 -61.5t-25.5 -61.5t-61.5 -25.5t-61.5 25.5t-25.5 61.5z" />
    <glyph glyph-name="perthousand" unicode="&#x2030;" horiz-adv-x="1000" 
d="M784 275v-216q0 -55 43 -55t43 55v216q0 55 -43 55t-43 -55zM978 167q0 -82 -45 -131.5t-106 -49.5t-106 49.5t-45 131.5t45 131.5t106 49.5t106 -49.5t45 -131.5zM130 631v-216q0 -55 43 -55t43 55v216q0 55 -43 55t-43 -55zM324 523q0 -82 -45 -131.5t-106 -49.5
t-106 49.5t-45 131.5t45 131.5t106 49.5t106 -49.5t45 -131.5zM439 275v-216q0 -55 43 -55t43 55v216q0 55 -43 55t-43 -55zM633 167q0 -82 -45 -131.5t-106 -49.5t-106 49.5t-45 131.5t45 131.5t106 49.5t106 -49.5t45 -131.5zM116 -28l374 746h40l-374 -746h-40z" />
    <glyph glyph-name="guilsinglleft" unicode="&#x2039;" horiz-adv-x="260" 
d="M157 72l-119 183l119 179h65l-117 -179l117 -183h-65z" />
    <glyph glyph-name="guilsinglright" unicode="&#x203a;" horiz-adv-x="260" 
d="M103 434l119 -183l-119 -179h-65l117 179l-117 183h65z" />
    <glyph glyph-name="fraction" unicode="&#x2044;" horiz-adv-x="168" 
d="M-123 -28l374 746h40l-374 -746h-40z" />
    <glyph glyph-name="Euro" unicode="&#x20ac;" horiz-adv-x="520" 
d="M479 557h-26q-13 88 -90 88q-51 0 -77 -57t-33 -168h181l-19 -51h-163v-31v-31h138l-19 -51h-119q4 -103 33.5 -157.5t79.5 -54.5q33 0 57 21t31 64h26l-7 -97q-43 -45 -151 -45q-112 0 -170.5 67.5t-70.5 201.5h-66l20 51h39q-1 11 -1 34v28h-58l20 51h42
q14 142 72 212.5t173 70.5q108 0 151 -45z" />
    <glyph glyph-name="afii61289" unicode="&#x2113;" horiz-adv-x="451" 
d="M409 154l29 -25q-71 -142 -195 -142q-82 0 -120 40q-21 28 -29 55t-8 94v61l-50 -31l-14 38l64 43v150q0 91 11.5 139t41.5 89q52 75 125 75q55 0 84 -39t29 -104q0 -80 -31 -138.5t-106 -132.5v-72q0 -99 13.5 -136t55.5 -37q49 0 100 73zM240 484v-92q58 65 58 201
q0 107 -31 107q-10 0 -15 -6t-8 -32.5t-3.5 -63t-0.5 -114.5z" />
    <glyph glyph-name="trademark" unicode="&#x2122;" horiz-adv-x="1000" 
d="M310 318v-18h-218v18h52v368h-50q-52 -3 -63 -70h-18v88h376v-88h-18q-11 67 -63 70h-50v-368h52zM768 300v18h52v261h-2l-143 -278h-16l-131 278h-2v-261h52v-18h-134v18h52v368h-53v18h136l131 -270l141 270h136v-18h-53v-368h52v-18h-218z" />
    <glyph glyph-name="Omega" unicode="&#x2126;" horiz-adv-x="681" 
d="M651 187l-27 -187h-246l-11 23q28 92 39 130t26.5 113.5t15.5 123.5q0 146 -28 207t-82 61q-36 0 -58 -20t-35.5 -81t-13.5 -169q0 -129 80 -365l-10 -23h-249l-23 187h39q15 -41 29.5 -53t46.5 -12h79q-31 24 -46.5 36.5t-43.5 41t-42 54t-26 64t-12 80.5
q0 137 82 220.5t207 83.5t205 -81.5t80 -218.5q0 -20 -3.5 -40t-6.5 -35t-13.5 -33.5t-15 -29t-20.5 -28.5t-20.5 -24t-24.5 -24.5t-23.5 -22t-26.5 -23t-25 -20.5h95q27 0 41 12.5t28 52.5h39z" />
    <glyph glyph-name="estimated" unicode="&#x212e;" horiz-adv-x="864" 
d="M830 334h-645q-5 0 -5 -4v-195q0 -12 8 -22q103 -106 244 -106q154 0 257 118h57q-54 -63 -137.5 -100.5t-177.5 -37.5q-164 0 -281 104.5t-117 252.5t117 253t281 105q166 0 282.5 -104.5t116.5 -253.5v-10zM684 360v196q0 13 -10 23q-104 102 -242 102
q-140 0 -243 -105q-9 -9 -9 -24v-192q0 -6 5 -6h494q5 0 5 6z" />
    <glyph glyph-name="partialdiff" unicode="&#x2202;" horiz-adv-x="544" 
d="M265 430h1q63 0 99 -46q11 58 15 117q8 92 -19 144q-26 43 -97 43q-65 0 -144 -68q-15 1 -33 42t-10 63q65 38 142 38q75 0 133 -38.5t93 -108.5q55 -107 55 -245t-50 -233q-32 -70 -90 -110.5t-136 -40.5q-85 0 -135.5 51t-50.5 141q0 104 62 175q63 76 165 76zM299 376
h-1q-42 0 -69 -53q-20 -41 -31.5 -107.5t-11.5 -127.5q0 -35 10 -48t33 -13q36 0 77 109q32 83 47 196q-6 17 -20.5 30.5t-33.5 13.5z" />
    <glyph glyph-name="Delta" unicode="&#x2206;" horiz-adv-x="638" 
d="M606 0h-574v45l247 641l66 15l261 -656v-45zM413 73l-155 401l-149 -401h304z" />
    <glyph glyph-name="product" unicode="&#x220f;" horiz-adv-x="715" 
d="M689 699v-40q-62 -5 -77 -24t-15 -91v-470q0 -75 14.5 -93.5t76.5 -25.5v-39h-316v39q46 5 55.5 23t9.5 95v537q0 26 -7 33t-33 7h-86q-24 0 -29.5 -6t-5.5 -31v-540q0 -76 8 -95t50 -23v-39h-311v39q62 5 77 25t15 93v471q0 73 -15.5 91.5t-79.5 23.5v40h669z" />
    <glyph glyph-name="summation" unicode="&#x2211;" horiz-adv-x="551" 
d="M532 142l-49 -237h-458v38l204 290l-202 426v40h457q5 -94 11 -186l-40 -8q-17 64 -37 102q-14 27 -34 35.5t-72 8.5h-98l146 -298l-213 -313h199q68 0 92 17.5t54 94.5z" />
    <glyph glyph-name="minus" unicode="&#x2212;" horiz-adv-x="600" 
d="M553 196h-506v114h506v-114z" />
    <glyph glyph-name="uni2215" unicode="&#x2215;" horiz-adv-x="168" 
d="M-123 -28l374 746h40l-374 -746h-40z" />
    <glyph glyph-name="uni2219" unicode="&#x2219;" horiz-adv-x="260" 
d="M43 279q0 36 25.5 61.5t61.5 25.5t61.5 -25.5t25.5 -61.5t-25.5 -61.5t-61.5 -25.5t-61.5 25.5t-25.5 61.5z" />
    <glyph glyph-name="radical" unicode="&#x221a;" horiz-adv-x="559" 
d="M553 854l-183 -1041l-34 -13l-197 536l-87 -36l-15 47l205 85l117 -349h2l134 781z" />
    <glyph glyph-name="infinity" unicode="&#x221e;" horiz-adv-x="746" 
d="M702 284v-1q0 -83 -48.5 -132t-113.5 -49q-46 0 -85 20.5t-80 83.5q-40 -52 -80 -78t-94 -26q-64 0 -111.5 48.5t-47.5 127.5t48 128t121 49q51 0 90.5 -23.5t75.5 -74.5q43 51 70 70q44 29 97 28q65 0 111.5 -47.5t46.5 -123.5zM212 191h2q32 0 57 20.5t55 61.5
q-25 38 -35 51.5t-32 28.5t-48 15q-37 0 -58 -24.5t-21 -66.5q-1 -35 23 -60.5t57 -25.5zM536 368h-1q-18 0 -34 -6.5t-34 -25.5t-22.5 -24t-23.5 -30q39 -55 62.5 -73t57.5 -18q32 0 51.5 28t19.5 57q0 38 -20.5 65t-55.5 27z" />
    <glyph glyph-name="integral" unicode="&#x222b;" horiz-adv-x="422" 
d="M158 -31l-22 385q-6 112 4.5 198t31 135.5t50 81t56 42t54.5 10.5q32 0 59.5 -18t27.5 -49q0 -35 -22.5 -54.5t-51.5 -19.5q-19 0 -29.5 19.5t-15.5 39t-13 19.5q-6 0 -9.5 -5t-5 -20t-1 -40t2.5 -69l20 -347q13 -234 -48 -365.5t-159 -131.5q-34 0 -59.5 20.5
t-25.5 48.5q-1 34 25.5 56t56.5 22q17 0 27 -21.5t16.5 -42.5t14.5 -21q15 0 18 34t-2 93z" />
    <glyph glyph-name="approxequal" unicode="&#x2248;" horiz-adv-x="500" 
d="M410 464l60 -53q-25 -49 -61.5 -79t-73.5 -30q-50 0 -98 35q-43 33 -72 33q-8 0 -15 -1.5t-14 -6.5t-11.5 -8t-11 -11.5t-9 -12t-9.5 -14.5t-9 -13l-60 52q20 45 60 76t85 31t92 -31q47 -32 62 -34q4 -1 8 -1q12 0 22 4.5t20.5 17t16 20t18.5 26.5zM410 270l60 -54
q-25 -48 -61.5 -78.5t-74.5 -30.5q-47 0 -97 35q-44 34 -72 34q-10 0 -18.5 -3.5t-14.5 -7t-14 -12.5t-11 -13t-11 -16.5t-10 -15.5l-60 53q20 45 60 75.5t85 30.5t91 -30q7 -4 19 -12.5t18 -12.5t15.5 -7.5t17.5 -3.5q6 0 11 1t10 4t9 4.5t9 7t7.5 8t8 10.5t7.5 10.5
t8 11.5z" />
    <glyph glyph-name="notequal" unicode="&#x2260;" horiz-adv-x="500" 
d="M382 510l-30 -75h105v-95h-139l-47 -120h186v-95h-220l-42 -103l-73 27l31 76h-111v95h144l47 120h-191v95h225l41 102z" />
    <glyph glyph-name="lessequal" unicode="&#x2264;" horiz-adv-x="500" 
d="M454 99l-407 214v104l407 213v-110l-319 -154v-2l319 -154v-111zM459 -31h-415v97h415v-97z" />
    <glyph glyph-name="greaterequal" unicode="&#x2265;" horiz-adv-x="500" 
d="M50 630l407 -214v-103l-407 -214v110l319 155v3l-319 153v110zM457 -31h-412v97h412v-97z" />
    <glyph glyph-name="lozenge" unicode="&#x25ca;" horiz-adv-x="558" 
d="M513 334l-175 -404h-119l-174 404l177 407h117zM407 334l-126 309h-3l-128 -309l128 -311h3z" />
    </font>
</defs>
</svg>
