<?xml version="1.0" standalone="no"?>
<!DOCTYPE svg PUBLIC "-//W3C//DTD SVG 1.1//EN" "http://www.w3.org/Graphics/SVG/1.1/DTD/svg11.dtd" >
<svg xmlns="http://www.w3.org/2000/svg" xmlns:xlink="http://www.w3.org/1999/xlink" version="1.1">
<metadata>
Created by FontForge 20170731 at Thu Jun  6 19:08:37 2002
 By Aleksey,,,
Copyright (c) 1989, 2002 Adobe Systems Incorporated.  All Rights Reserved.
</metadata>
<defs>
<font id="BauerBodoniStd-BlackItalic" horiz-adv-x="667" >
  <font-face 
    font-family="Bauer Bodoni Std Black"
    font-weight="900"
    font-style="italic"
    font-stretch="normal"
    units-per-em="1000"
    panose-1="2 7 9 3 8 7 5 9 3 3"
    ascent="735"
    descent="-265"
    x-height="475"
    cap-height="704"
    bbox="-170 -254 1107 953"
    underline-thickness="50"
    underline-position="-200"
    slope="-12"
    unicode-range="U+0020-FB02"
  />
<missing-glyph horiz-adv-x="603" 
d="M103 0v700h500v-700h-500zM353 395l170 255h-340zM383 350l170 -255v510zM183 50h340l-170 255zM153 605v-510l170 255z" />
    <glyph glyph-name="fi" unicode="fi" 
d="M502 718q59 0 110 -30.5t51 -85.5q0 -38 -24.5 -60t-58.5 -22q-41 0 -63 24.5t-22 57.5q0 31 21.5 54t55.5 25v2q-33 16 -79 16q-70 0 -109 -57.5t-62 -191.5h84h70q124 0 182 25l-110 -391q-4 -16 -4 -24q0 -20 14 -20q28 0 69 67l17 -10q-59 -111 -167 -111
q-46 0 -76.5 22.5t-30.5 71.5q0 28 25 120l65 231h-141q-11 -63 -17 -94t-19 -93t-24.5 -99.5t-31.5 -92.5t-41 -93.5t-51 -81t-65 -75.5q-51 -49 -113 -49q-83 0 -93 72q-4 29 15 49.5t45 20.5q30 0 48 -16t18 -45q0 -21 -12 -38t-32 -21q4 -3 18 -3q33 0 53.5 36t35.5 134
q29 190 56 336q12 64 36 153h-97l8 19h95q45 120 135.5 194t215.5 74z" />
    <glyph glyph-name="fl" unicode="fl" 
d="M48 431l8 19h95q30 110 113 189t188 79q38 0 72 -14h33q123 0 171 31l-180 -651q-4 -16 -4 -24q0 -20 14 -20q22 0 74 71l15 -14q-74 -111 -177 -111q-100 0 -100 87q0 29 18 95l112 407q-12 -3 -24 -3q-26 0 -42 17.5t-16 35.5q0 54 50 70v2q-7 3 -22 3q-84 0 -124 -250
h82l-8 -19h-77q-11 -63 -17 -94t-19 -93t-24.5 -99.5t-31.5 -92.5t-41 -93.5t-51 -81t-65 -75.5q-51 -49 -113 -49q-83 0 -93 72q-4 29 15 49.5t45 20.5q30 0 48 -16t18 -45q0 -21 -12 -38t-32 -21q4 -3 18 -3q33 0 53.5 36t35.5 134q29 190 56 336q12 64 36 153h-97z" />
    <glyph glyph-name=".notdef" horiz-adv-x="603" 
d="M103 0v700h500v-700h-500zM353 395l170 255h-340zM383 350l170 -255v510zM183 50h340l-170 255zM153 605v-510l170 255z" />
    <glyph glyph-name=".null" horiz-adv-x="0" 
 />
    <glyph glyph-name="nonmarkingreturn" horiz-adv-x="333" 
 />
    <glyph glyph-name="space" unicode=" " horiz-adv-x="306" 
 />
    <glyph glyph-name="exclam" unicode="!" horiz-adv-x="444" 
d="M224 225h-15q24 111 24 217q0 58 -15 152q79 63 136 124q41 -90 79 -128q-78 -90 -124 -171t-85 -194zM178 -8q-38 0 -64 26t-26 64t26 64t64 26t64 -26t26 -64t-26 -64t-64 -26z" />
    <glyph glyph-name="quotedbl" unicode="&#x22;" horiz-adv-x="556" 
d="M235 718q53 0 53 -65q0 -35 -5 -77l-14 -151q-4 -43 -34 -43t-34 43l-14 151q-5 42 -5 77q0 65 53 65zM418 718q53 0 53 -65q0 -35 -5 -77l-14 -151q-4 -43 -34 -43t-34 43l-14 151q-5 42 -5 77q0 65 53 65z" />
    <glyph glyph-name="numbersign" unicode="#" horiz-adv-x="612" 
d="M353 286l16 118h-97l-16 -118h97zM121 0l28 196h-89l13 90h89l16 118h-89l13 90h89l27 196h94l-27 -196h97l27 196h94l-27 -196h88l-13 -90h-88l-16 -118h88l-13 -90h-88l-28 -196h-94l28 196h-97l-28 -196h-94z" />
    <glyph glyph-name="dollar" unicode="$" horiz-adv-x="612" 
d="M318 263l-72 -246h13q61 0 111 35.5t51 94.5q0 38 -26.5 64t-76.5 52zM351 465l61 207q-6 1 -20 1q-48 0 -84 -30t-36 -77q0 -61 79 -101zM221 22l74 253q-34 17 -51 26t-44.5 28.5t-41.5 38t-25 46.5t-11 61q0 103 74 163t180 60q17 0 43 -2l17 56h26l-18 -60
q24 -4 62 -17t58 -13q18 0 32 11t18 29h19l-60 -220h-19q0 163 -117 186l-63 -215q6 -3 25 -11.5t26.5 -12t24.5 -13t25 -15t22 -16t21 -19.5t16.5 -22.5t13.5 -27t7.5 -31t3.5 -36.5q0 -124 -90 -190.5t-218 -66.5q-8 0 -13 1l-26 -88h-26l28 93q-34 4 -90.5 21.5
t-69.5 17.5q-27 0 -35 -26h-19l61 230h21q-2 -16 -2 -21q0 -74 37 -129.5t104 -68.5z" />
    <glyph glyph-name="percent" unicode="%" horiz-adv-x="944" 
d="M118 475q0 91 55 157t144 66q63 0 101 -38.5t38 -101.5q0 -91 -55 -157t-144 -66q-63 0 -101 38.5t-38 101.5zM208 395q0 -17 10 -29t27 -12q26 0 40 17.5t28 64.5l32 110q21 65 21 92q0 17 -10 29t-27 12q-26 0 -40 -17.5t-28 -64.5l-32 -110q-21 -65 -21 -92zM539 132
q0 91 55 157t144 66q63 0 101 -38.5t38 -101.5q0 -91 -55 -157t-144 -66q-63 0 -101 38.5t-38 101.5zM629 52q0 -17 10 -29t27 -12q26 0 40 17.5t28 64.5l32 110q21 65 21 92q0 17 -10 29t-27 12q-26 0 -40 -17.5t-28 -64.5l-32 -110q-21 -65 -21 -92zM253 -22l447 734h48
l-451 -734h-44z" />
    <glyph glyph-name="ampersand" unicode="&#x26;" horiz-adv-x="833" 
d="M751 104l13 -15q-43 -48 -94 -75.5t-98 -27.5q-96 0 -156 80q-33 -37 -78.5 -58.5t-85.5 -21.5q-81 0 -131.5 63t-50.5 146q0 40 17.5 73t49.5 57.5t61.5 40.5t69.5 32q-7 21 -7 67q0 85 55 155.5t139 70.5q57 0 89.5 -29.5t32.5 -83.5q0 -55 -40 -91t-101 -54
q20 -68 78 -198q43 105 83 149.5t91 44.5q36 0 58 -22t22 -58q0 -33 -20.5 -54.5t-53.5 -21.5t-51.5 20t-18.5 52q0 18 -10 18q-24 0 -88 -150q28 -63 68.5 -106t84.5 -43q14 0 37 13.5t35 26.5zM220 298q0 -33 17 -87t49.5 -100.5t66.5 -46.5q24 0 51 18q-88 132 -132 295
q-52 -18 -52 -79zM400 597q0 -18 3.5 -39t6 -32.5t10.5 -40t10 -34.5q50 15 86 49.5t36 81.5q0 36 -21.5 60t-57.5 24q-35 0 -54 -18t-19 -51z" />
    <glyph glyph-name="quotesingle" unicode="'" horiz-adv-x="333" 
d="M181 425l-14 151q-5 42 -5 77q0 65 53 65t53 -65q0 -35 -5 -77l-14 -151q-4 -43 -34 -43t-34 43z" />
    <glyph glyph-name="parenleft" unicode="(" horiz-adv-x="389" 
d="M397 711l50 -37q-138 -160 -204.5 -325t-66.5 -368q0 -116 21 -221l-63 -14q-24 112 -24 256q0 195 75 375.5t212 333.5z" />
    <glyph glyph-name="parenright" unicode=")" horiz-adv-x="389" 
d="M-18 -254l-50 37q138 160 204.5 325t66.5 368q0 116 -21 221l63 14q24 -112 24 -256q0 -195 -75 -375.5t-212 -333.5z" />
    <glyph glyph-name="asterisk" unicode="*" horiz-adv-x="556" 
d="M536 516q0 -11 -9 -17.5t-32 -16.5q1 -6 1 -17q0 -22 -11 -22q-8 0 -18 8q-16 13 -56 27t-68 14q25 -60 97 -97q7 -4 7 -10q0 -12 -32 -26q2 -10 2 -19q0 -34 -20 -34q-8 0 -14.5 5.5t-24.5 24.5q-19 -9 -29 -9q-11 0 -11 11q0 5 2 15q10 33 10 74q0 35 -7 57
q-44 -42 -58 -121q-2 -10 -11 -10q-7 0 -17 8.5t-14 14.5q-25 -11 -37 -11q-20 0 -20 18q0 12 17 39q-18 21 -18 31q0 11 23 11q25 0 64 11t61 27q-40 21 -101 21q-8 0 -20.5 -1t-15.5 -1q-12 0 -12 12q0 17 12 34q-7 5 -15.5 17.5t-8.5 20.5q0 18 22 18q14 0 34 -6
q16 27 26 27q9 0 16 -24q5 -18 28.5 -52t45.5 -50q2 10 2 29q0 50 -21 97q-6 13 -6 17q0 10 19 10q5 0 14 -0.5t10 -0.5q5 11 15.5 22.5t19.5 11.5q21 0 23 -50q36 -5 36 -20q0 -7 -15 -16q-18 -10 -44 -44.5t-35 -60.5q15 2 32 8.5t32 15.5t26 16.5t21 16t11 8.5q4 3 9 3
q13 0 19 -39q13 -1 28.5 -8t15.5 -18z" />
    <glyph glyph-name="plus" unicode="+" horiz-adv-x="600" 
d="M244 309v197h112v-197h197v-112h-197v-197h-112v197h-197v112h197z" />
    <glyph glyph-name="comma" unicode="," horiz-adv-x="306" 
d="M12 -164l-7 15q107 58 129 143q-18 -2 -27 -2q-40 0 -65 25t-25 65q0 38 26.5 64t63.5 26q39 0 64.5 -26.5t25.5 -71.5q0 -64 -46.5 -128t-138.5 -110z" />
    <glyph glyph-name="hyphen" unicode="-" horiz-adv-x="444" 
d="M94 316h291l-35 -126h-291z" />
    <glyph glyph-name="period" unicode="." horiz-adv-x="306" 
d="M17 82q0 38 26.5 64t63.5 26t63.5 -26t26.5 -64t-26.5 -64t-63.5 -26t-63.5 26t-26.5 64z" />
    <glyph glyph-name="slash" unicode="/" horiz-adv-x="389" 
d="M-94 -14l517 732h118l-517 -732h-118z" />
    <glyph glyph-name="zero" unicode="0" horiz-adv-x="612" 
d="M324 85l136 470q11 36 11 66q0 27 -15.5 42.5t-41.5 15.5q-51 0 -72 -74l-136 -470q-11 -36 -11 -66q0 -27 15.5 -42.5t41.5 -15.5q50 0 72 74zM57 216q0 49 11.5 108.5t39 126.5t66.5 121.5t101.5 90t136.5 35.5q86 0 141.5 -60.5t55.5 -163.5q0 -44 -7.5 -93
t-23.5 -104.5t-45 -105t-66.5 -90.5t-93 -65t-121.5 -24q-88 0 -141.5 60t-53.5 164z" />
    <glyph glyph-name="one" unicode="1" horiz-adv-x="612" 
d="M161 19l160 575l-146 -51l5 19l360 136l-186 -679h119l-5 -19h-408l6 19h95z" />
    <glyph glyph-name="two" unicode="2" horiz-adv-x="612" 
d="M542 223l-80 -223h-477q11 44 39.5 83.5t65.5 70.5t79.5 62.5t82.5 65.5t72.5 72.5t52.5 90.5t20 112q0 51 -26.5 80.5t-77.5 29.5q-44 0 -82.5 -21t-55.5 -58l2 -4q15 18 43 18q32 0 52.5 -19t20.5 -50q0 -39 -22 -60t-58 -21q-32 0 -51 24.5t-19 59.5q0 56 38 94.5
t87.5 53t103.5 14.5q59 0 110 -18t86 -60.5t35 -102.5q0 -62 -24 -109.5t-61 -75t-88.5 -52t-100 -40t-102.5 -39t-89 -49.5v-2q76 6 333 6q27 0 37.5 5.5t17.5 22.5l16 43z" />
    <glyph glyph-name="three" unicode="3" horiz-adv-x="612" 
d="M232 359l7 19h27q56 0 84.5 16t42.5 54q30 80 30 134q0 43 -27.5 67t-75.5 24q-49 0 -81 -29l2 -1q34 0 57 -17.5t23 -55.5q0 -35 -21 -55.5t-55 -20.5q-35 0 -54.5 21.5t-19.5 56.5q1 53 57 90.5t129 35.5q40 0 78.5 -9t74.5 -27t58.5 -52.5t22.5 -79.5
q0 -80 -51.5 -123t-133.5 -49l1 -2q53 -15 82.5 -54.5t29.5 -95.5q0 -72 -43.5 -122t-106 -71t-135.5 -21q-99 0 -156 35.5t-57 92.5q0 36 23.5 59.5t56.5 23.5q35 0 55.5 -23t20.5 -57q0 -31 -23.5 -50.5t-55.5 -19.5q-6 0 -16 2l-2 -2q44 -36 98 -36t85 27.5t55 100.5
q33 100 33 146q0 20 -6.5 33.5t-15 20t-24 10t-25 4t-26.5 0.5h-22z" />
    <glyph glyph-name="four" unicode="4" horiz-adv-x="612" 
d="M235 19l43 164h-265l3 15l472 492h116l-113 -429h97l-20 -78h-100l-46 -164h86l-5 -19h-348l6 19h74zM307 261l87 293l-2 2l-283 -295h198z" />
    <glyph glyph-name="five" unicode="5" horiz-adv-x="612" 
d="M120 319l105 384q69 -35 180 -35q97 0 189 30q-39 -94 -115.5 -143t-178.5 -49q-70 0 -101 13l-41 -150q94 59 188 59q85 0 139 -50.5t54 -135.5q0 -113 -87 -181.5t-210 -68.5q-85 0 -135 36.5t-50 93.5q0 40 23 62.5t56 22.5t55 -20.5t22 -53.5q0 -38 -20.5 -60
t-54.5 -22q-8 0 -22 2q27 -36 80 -36q52 0 75 23t43 78q45 121 45 185q0 40 -22.5 61.5t-63.5 21.5q-69 0 -153 -67z" />
    <glyph glyph-name="six" unicode="6" horiz-adv-x="612" 
d="M275 11q26 0 41.5 21t27.5 66q60 203 60 257q0 23 -14.5 36.5t-37.5 13.5q-53 0 -76 -80q-59 -208 -59 -256q0 -24 16 -41t42 -17zM588 688l-7 -18q-20 3 -38 3q-95 0 -148 -57t-98 -213h4q45 39 101 39q77 0 123.5 -53.5t46.5 -129.5q0 -122 -80.5 -194.5t-203.5 -72.5
q-108 0 -161.5 67.5t-53.5 181.5q0 92 29 175t81 145.5t130.5 99.5t172.5 37q45 0 102 -10z" />
    <glyph glyph-name="seven" unicode="7" horiz-adv-x="612" 
d="M117 440l87 264l19 -6l-7 -24q87 -26 206 -26q55 0 125 15t126 41l12 -14q-77 -72 -149.5 -151.5t-135.5 -173.5t-63 -149q0 -29 25.5 -73.5t25.5 -68.5q0 -37 -22 -59.5t-60 -22.5q-44 0 -68 25t-24 65q0 126 282 445l-3 2q-106 -43 -218 -43q-62 0 -114 14l-23 -67z
" />
    <glyph glyph-name="eight" unicode="8" horiz-adv-x="612" 
d="M289 -8q-102 0 -167 49t-65 147q0 64 42.5 108t106.5 63q-57 64 -57 148q0 91 74.5 141t169.5 50q85 0 146.5 -45.5t61.5 -126.5q0 -57 -37 -97.5t-93 -58.5q30 -32 52.5 -77.5t22.5 -85.5q0 -97 -78 -156t-179 -59zM227 340q-65 -15 -105 -55t-40 -104
q0 -61 43.5 -109.5t104.5 -48.5q54 0 89 33t35 86q0 20 -6.5 40.5t-14 35.5t-24 35t-25.5 29.5t-30 30.5zM453 388q52 13 87.5 51.5t35.5 91.5q0 55 -43 95.5t-99 40.5q-43 0 -71 -30t-28 -74q0 -26 13.5 -53t29 -44t40.5 -41.5t35 -36.5z" />
    <glyph glyph-name="nine" unicode="9" horiz-adv-x="612" 
d="M309 285q53 0 76 80q59 208 59 256q0 26 -15.5 42t-36.5 16q-29 0 -45.5 -21t-29.5 -66q-60 -203 -60 -257q0 -50 52 -50zM73 2l7 18q19 -3 38 -3q95 0 148 57t98 213h-4q-45 -39 -101 -39q-77 0 -123.5 53.5t-46.5 129.5q0 122 80.5 194.5t203.5 72.5q108 0 161.5 -67.5
t53.5 -181.5q0 -92 -29 -175t-81 -145.5t-130.5 -99.5t-172.5 -37q-45 0 -102 10z" />
    <glyph glyph-name="colon" unicode=":" horiz-adv-x="306" 
d="M93 360q0 38 26.5 64t63.5 26t63.5 -26t26.5 -64t-26.5 -64t-63.5 -26t-63.5 26t-26.5 64zM17 82q0 38 26.5 64t63.5 26t63.5 -26t26.5 -64t-26.5 -64t-63.5 -26t-63.5 26t-26.5 64z" />
    <glyph glyph-name="semicolon" unicode=";" horiz-adv-x="306" 
d="M12 -164l-7 15q107 58 129 143q-4 0 -13 -1t-14 -1q-40 0 -65 25t-25 65q0 38 26.5 64t63.5 26t63.5 -26t26.5 -64q0 -35 -11 -67.5t-25.5 -54.5t-39 -44.5t-40 -33.5t-40 -27t-29.5 -19zM93 360q0 38 26.5 64t63.5 26t63.5 -26t26.5 -64t-26.5 -64t-63.5 -26t-63.5 26
t-26.5 64z" />
    <glyph glyph-name="less" unicode="&#x3c;" horiz-adv-x="600" 
d="M553 106v-114l-506 216v90l506 216v-114l-350 -147z" />
    <glyph glyph-name="equal" unicode="=" horiz-adv-x="600" 
d="M553 417v-112h-506v112h506zM553 201v-112h-506v112h506z" />
    <glyph glyph-name="greater" unicode="&#x3e;" horiz-adv-x="600" 
d="M47 -8v114l350 147l-350 147v114l506 -216v-90z" />
    <glyph glyph-name="question" unicode="?" horiz-adv-x="556" 
d="M204 225h-20q23 103 37.5 147.5t25 58.5t35.5 29q77 47 100.5 71.5t23.5 66.5q0 45 -29.5 70t-75.5 25q-45 0 -74 -16v-2q37 -2 60 -23t23 -59q0 -34 -22.5 -57t-59.5 -23q-35 0 -57.5 22.5t-22.5 59.5q0 63 52 93t119 30q80 0 139.5 -50.5t59.5 -129.5q0 -23 -4 -43
t-9.5 -36t-18.5 -32t-22 -27t-30.5 -25t-33 -21.5t-40.5 -22t-42.5 -20.5t-48.5 -22q-32 -14 -41.5 -24t-23.5 -40zM162 -8q-38 0 -64 26t-26 64t26 64t64 26t64 -26t26 -64t-26 -64t-64 -26z" />
    <glyph glyph-name="at" unicode="@" horiz-adv-x="800" 
d="M531 416q0 35 -8.5 50.5t-31.5 15.5q-43 0 -80 -54t-37 -134q0 -79 48 -79q37 0 68 50.5t41 150.5zM644 531l-55 -234q-6 -29 -6 -53q0 -45 28 -45q37 0 72 64t35 138q0 109 -72.5 177t-200.5 68q-46 0 -90.5 -18t-84 -54.5t-64 -102t-24.5 -150.5q0 -108 78 -185.5
t183 -77.5q72 0 120 13.5t100 41.5l10 -61q-117 -66 -229 -66q-76 0 -141.5 23t-108.5 59.5t-73.5 83t-44.5 92.5t-14 88q0 169 112 277.5t271 108.5q149 0 247 -87t98 -229q0 -91 -54 -171t-141 -80q-46 0 -71 29t-24 48h-2q-7 -20 -44.5 -48.5t-75.5 -28.5
q-39 0 -71.5 31.5t-32.5 100.5q0 51 21 109.5t69.5 107t110.5 48.5q29 0 47.5 -10t32.5 -38l10 31h79z" />
    <glyph glyph-name="A" unicode="A" horiz-adv-x="722" 
d="M395 19l-17 182h-212l-26 -43q-32 -53 -32 -80q0 -32 25 -45.5t57 -13.5l-5 -19h-244l5 19q58 0 93.5 37t92.5 134l310 514h80l73 -685h58l-5 -19h-317l5 19h59zM349 503l-171 -283h199l-26 283h-2z" />
    <glyph glyph-name="B" unicode="B" horiz-adv-x="722" 
d="M433 685l-85 -310q85 0 123 39q26 27 47.5 82.5t21.5 106.5q0 46 -19.5 64t-58.5 18h-29zM43 19l184 666h-65l5 19h341q34 0 58 -1.5t58 -10t55.5 -23t37 -43.5t15.5 -69q0 -86 -70.5 -137t-174.5 -53v-2q84 -7 136.5 -46.5t52.5 -108.5q0 -38 -15 -72.5t-48.5 -66.5
t-99 -51.5t-155.5 -19.5h-381l5 19h61zM343 356l-93 -337q36 0 55 1t45 9t45 24q33 27 55 82.5t22 124.5q0 46 -28 71t-72 25h-29z" />
    <glyph glyph-name="C" unicode="C" horiz-adv-x="722" 
d="M637 149l18 -14q-58 -76 -123 -112.5t-156 -36.5q-145 0 -225.5 81t-80.5 218q0 79 28.5 154.5t82 138.5t141 101.5t195.5 38.5q62 0 126.5 -26t76.5 -26q10 0 19 3.5t13 5.5t14 10l9 8l17 -5l-67 -244h-19q0 51 -6.5 90.5t-23.5 78t-52 59.5t-87 21q-55 0 -95 -31
t-69 -105q-51 -127 -81 -252.5t-30 -177.5q0 -58 35.5 -87t96.5 -29q71 0 134 37.5t109 100.5z" />
    <glyph glyph-name="D" unicode="D" horiz-adv-x="833" 
d="M43 19l184 666h-65l5 19h348q153 0 230.5 -63.5t77.5 -206.5q0 -203 -128 -318.5t-332 -115.5h-386l5 19h61zM433 685l-183 -666h61q50 0 82.5 9t64 35.5t57.5 76.5t54 131q62 179 62 303q0 52 -27.5 81.5t-83.5 29.5h-87z" />
    <glyph glyph-name="E" unicode="E" horiz-adv-x="722" 
d="M43 19l184 666h-65l5 19h575l-45 -227h-19q0 119 -42 163.5t-142 44.5h-61l-85 -310h64q59 0 98.5 21.5t68.5 85.5h22l-72 -257h-23q4 20 4 42q0 39 -23 64t-72 25h-72l-93 -337h70q101 0 185 48.5t132 152.5h22l-70 -220h-612l5 19h61z" />
    <glyph glyph-name="F" unicode="F" 
d="M43 19l183 666h-64l5 19h558l-45 -227h-19q0 119 -42 163.5t-142 44.5h-44l-85 -310h47q59 0 98.5 21.5t68.5 85.5h22l-72 -257h-23q4 20 4 42q0 47 -21.5 68t-80.5 21h-49l-92 -337h66l-5 -19h-334l5 19h61z" />
    <glyph glyph-name="G" unicode="G" horiz-adv-x="778" 
d="M766 704h22l-74 -261h-22q3 27 3 53q0 83 -44 140t-129 57q-88 0 -130 -93q-51 -111 -87.5 -253.5t-36.5 -223.5q0 -53 28 -82.5t79 -29.5q89 0 125 131l31 115h-51l5 20h297l-5 -19h-44l-47 -165q-119 -107 -300 -107q-135 0 -225.5 79.5t-90.5 219.5q0 62 19 124
t56.5 117.5t89 98t121.5 68t148 25.5q50 0 91 -12t67.5 -23.5t41.5 -11.5q41 0 62 33z" />
    <glyph glyph-name="H" unicode="H" horiz-adv-x="833" 
d="M43 19l184 666h-65l5 19h338l-5 -19h-67l-85 -310h202l87 310h-65l5 19h338l-5 -19h-67l-183 -666h66l-5 -19h-334l5 19h61l92 337h-202l-93 -337h66l-5 -19h-334l5 19h61z" />
    <glyph glyph-name="I" unicode="I" horiz-adv-x="444" 
d="M54 19l184 666h-65l5 19h338l-5 -19h-67l-183 -666h66l-5 -19h-334l5 19h61z" />
    <glyph glyph-name="J" unicode="J" horiz-adv-x="611" 
d="M340 685l5 19h338l-5 -19h-67l-153 -553q-33 -122 -107.5 -189.5t-215.5 -67.5q-81 0 -129 44.5t-48 96.5q0 48 26 79.5t70 31.5q41 0 65.5 -23.5t24.5 -66.5q0 -37 -25.5 -63.5t-62.5 -26.5q-29 0 -49 10l-2 -2q38 -49 96 -49q52 0 82.5 42t57.5 142l164 595h-65z" />
    <glyph glyph-name="K" unicode="K" horiz-adv-x="833" 
d="M43 19l184 666h-65l5 19h331l-5 -19h-60l-86 -310h2l201 141q91 63 91 113q0 56 -66 56l6 19h304l-5 -19q-60 0 -140 -58l-225 -163l200 -445h59l-4 -19h-342l5 19h59l-149 337h-2l-91 -337h66l-5 -19h-334l5 19h61z" />
    <glyph glyph-name="L" unicode="L" horiz-adv-x="722" 
d="M43 19l184 666h-65l5 19h338l-5 -19h-67l-183 -666h81q104 0 190.5 54.5t127.5 149.5h22l-67 -223h-627l5 19h61z" />
    <glyph glyph-name="M" unicode="M" horiz-adv-x="889" 
d="M-43 0l7 19q49 8 79 55t56 143l129 468h-71l8 19h262l10 -467h2l262 467h269l-8 -19h-63l-184 -666h72l-8 -19h-324l8 19h54l191 647h-2l-374 -666h-73l-17 644h-2l-124 -456q-19 -68 -19 -99q0 -70 80 -70l-8 -19h-212z" />
    <glyph glyph-name="N" unicode="N" horiz-adv-x="778" 
d="M186 0h-229l5 19q29 0 51 14.5t38 45t25 56t21 70.5l110 394l-39 86h-49l5 19h258l251 -524h2l100 371q10 35 10 65q0 32 -20 50.5t-56 18.5h-5l5 19h216l-5 -19q-50 0 -73 -27.5t-40 -83.5l-162 -574h-107l-275 572l-96 -345q-23 -85 -23 -131q0 -77 87 -77z" />
    <glyph glyph-name="O" unicode="O" horiz-adv-x="833" 
d="M262 123q0 -53 28 -82.5t79 -29.5q47 0 83.5 33.5t69.5 122.5q101 272 101 420q0 50 -30.5 78t-68.5 28q-92 0 -139 -99q-42 -90 -82.5 -242t-40.5 -229zM70 285q0 79 28.5 154.5t82 138.5t139.5 101.5t191 38.5q135 0 219.5 -84.5t84.5 -214.5q0 -114 -54 -212.5
t-154.5 -159.5t-224.5 -61q-132 0 -222 80.5t-90 218.5z" />
    <glyph glyph-name="P" unicode="P" horiz-adv-x="722" 
d="M433 685l-96 -347h54q48 0 71.5 13t42.5 45q18 31 37 98t19 116q0 75 -86 75h-42zM43 19l184 666h-65l5 19h386q111 0 158.5 -40t47.5 -124q0 -88 -70.5 -154.5t-206.5 -66.5h-150l-82 -300h66l-5 -19h-334l5 19h61z" />
    <glyph glyph-name="Q" unicode="Q" horiz-adv-x="833" 
d="M262 123q0 -53 28 -82.5t79 -29.5q47 0 83.5 33.5t69.5 122.5q101 272 101 420q0 50 -30.5 78t-68.5 28q-92 0 -139 -99q-43 -89 -83 -241t-40 -230zM70 285q0 79 28.5 154.5t82 138.5t139.5 101.5t191 38.5q135 0 219.5 -84.5t84.5 -214.5q0 -161 -105 -284.5
t-270 -144.5q-22 -72 -22 -107q0 -72 114 -72h30l-7 -21q-90 -4 -136 -4h-57q-29 0 -50.5 4t-42.5 15t-32 34.5t-11 58.5q0 32 26 112q-83 33 -132.5 104t-49.5 171z" />
    <glyph glyph-name="R" unicode="R" horiz-adv-x="722" 
d="M432 685l-86 -310q49 0 74.5 6.5t46.5 27.5q24 24 47.5 86.5t23.5 115.5q0 40 -19.5 57t-61.5 17h-25zM43 19l184 666h-65l5 19h387q182 0 182 -145q0 -86 -72.5 -139t-191.5 -53l-2 -2q45 -3 80.5 -14.5t62.5 -41.5t27 -75q0 -26 -18.5 -90t-18.5 -77q0 -19 24 -19
q12 0 31 10.5t30 21.5l12 -17q-75 -71 -162 -71q-57 0 -95 24t-38 81q0 16 21.5 98t21.5 103q0 36 -18 47t-50 11h-39l-91 -337h66l-5 -19h-334l5 19h61z" />
    <glyph glyph-name="S" unicode="S" 
d="M5 9l66 237h22q-3 -10 -3 -32q0 -87 55 -145t141 -58q61 0 113.5 35t52.5 96q0 35 -17.5 61t-45.5 42.5t-62 31.5t-68 32.5t-62 40t-45.5 59.5t-17.5 85q0 72 41 124.5t102 76t132 23.5q60 0 119.5 -17.5t80.5 -17.5q43 0 58 38h22l-66 -230h-19q0 202 -173 202
q-52 0 -93.5 -31t-41.5 -81q0 -30 17 -53t44 -37.5t59.5 -28.5t65 -31t59.5 -39t44 -59t17 -85q0 -85 -49.5 -146t-121 -88.5t-152.5 -27.5q-52 0 -127 25t-87 25q-29 0 -38 -27h-22z" />
    <glyph glyph-name="T" unicode="T" 
d="M90 488l62 216h613l-60 -218h-22q3 19 3 44q0 68 -32 111.5t-99 43.5l-183 -666h63l-6 -19h-331l6 19h64l181 666q-79 0 -142.5 -58.5t-93.5 -138.5h-23z" />
    <glyph glyph-name="U" unicode="U" horiz-adv-x="778" 
d="M147 685l5 19h342l-5 -19h-66l-140 -519q-9 -32 -9 -52q0 -44 35.5 -73.5t108.5 -29.5q170 0 221 183l77 279q24 84 24 136q0 76 -93 76l5 19h233l-5 -19q-78 0 -109 -107l-106 -378q-33 -117 -99.5 -165.5t-196.5 -48.5q-134 0 -210.5 43.5t-76.5 131.5q0 31 30 146
l102 378h-67z" />
    <glyph glyph-name="V" unicode="V" horiz-adv-x="722" 
d="M245 0l-57 685h-67l5 19h328l-5 -19h-62l39 -487h2l187 314q39 66 39 103q0 33 -23 51.5t-56 18.5l5 19h240l-5 -19q-67 0 -128 -100l-348 -585h-94z" />
    <glyph glyph-name="W" unicode="W" horiz-adv-x="1000" 
d="M231 0l-58 685h-52l5 19h303l-5 -19h-51l38 -465h2l123 237l-16 228h-49l5 19h298l-5 -19h-51l38 -458h2l151 295q25 48 25 86q0 35 -19.5 56t-55.5 21l5 19h243l-5 -19h-6q-27 0 -49 -9.5t-38.5 -30t-26.5 -37t-25 -45.5l-1.5 -3l-1.5 -3l-2 -4l-284 -553h-91l-37 418
h-2l-211 -418h-96z" />
    <glyph glyph-name="X" unicode="X" horiz-adv-x="778" 
d="M-4 0l5 19q11 1 24.5 6.5t25 12.5t27 18.5t25.5 20.5t25.5 23.5t22 21.5t19.5 20.5t14 14.5l147 150l-147 378h-57l5 19h332l-5 -19h-61l86 -222l92 97q39 43 39 71q0 54 -68 54l5 19h248l-5 -19q-43 0 -73.5 -20.5t-86.5 -78.5l-142 -146l161 -421h52l-5 -19h-327l5 19
h61l-100 266l-115 -120q-34 -35 -43 -50.5t-9 -33.5q0 -28 22.5 -45t54.5 -17l-5 -19h-249z" />
    <glyph glyph-name="Y" unicode="Y" horiz-adv-x="722" 
d="M121 0l5 19h64l74 261l-72 405h-61l5 19h326l-5 -19h-62l66 -367l152 225q26 38 26 76q0 29 -18 47.5t-46 18.5l5 19h240l-5 -19q-49 0 -82.5 -28t-73.5 -88l-183 -270l-79 -280h65l-6 -19h-335z" />
    <glyph glyph-name="Z" unicode="Z" horiz-adv-x="778" 
d="M126 486l71 218h574l-482 -685h58q227 0 343 199h23l-71 -218h-612l481 685h-37q-114 0 -190.5 -48.5t-131.5 -150.5h-26z" />
    <glyph glyph-name="bracketleft" unicode="[" horiz-adv-x="389" 
d="M21 -247l263 951h178l-15 -60h-111l-230 -831h120l-15 -60h-190z" />
    <glyph glyph-name="backslash" unicode="\" horiz-adv-x="389" 
d="M168 718l213 -732h-100l-213 732h100z" />
    <glyph glyph-name="bracketright" unicode="]" horiz-adv-x="389" 
d="M353 704l-263 -951h-178l15 60h111l230 831h-120l15 60h190z" />
    <glyph glyph-name="asciicircum" unicode="^" horiz-adv-x="600" 
d="M75 325l175 365h100l175 -365h-110l-115 253l-116 -253h-109z" />
    <glyph glyph-name="underscore" unicode="_" horiz-adv-x="500" 
d="M500 -125h-500v50h500v-50z" />
    <glyph glyph-name="grave" unicode="`" horiz-adv-x="278" 
d="M276 520l-191 126q-27 17 -27 39q0 39 61 39q36 0 54 -12.5t38 -46.5l85 -145h-20z" />
    <glyph glyph-name="a" unicode="a" 
d="M421 385l17 62h188l-99 -350q-7 -22 -7 -37q0 -20 18 -20q11 0 23.5 12t45.5 55l15 -11q-30 -41 -49 -61t-51.5 -34.5t-75.5 -14.5q-44 0 -69.5 18.5t-35.5 62.5h-2q-43 -81 -137 -81q-80 0 -122.5 55.5t-42.5 142.5q0 111 78 201t186 90q44 0 76.5 -23t41.5 -67h2z
M349 438q-24 0 -38.5 -19t-27.5 -59q-78 -240 -78 -301q0 -42 41 -42q25 0 48 20t34 47q24 57 48 147.5t24 126.5q0 37 -14.5 58.5t-36.5 21.5z" />
    <glyph glyph-name="b" unicode="b" horiz-adv-x="611" 
d="M124 685l8 19h74q125 0 173 31l-90 -322h2q44 62 125 62q71 0 117.5 -50.5t46.5 -138.5q0 -133 -86.5 -216.5t-216.5 -83.5q-108 0 -167 47.5t-59 132.5q0 44 25 139l103 380h-55zM201 53q0 -22 13.5 -35t33.5 -13q32 0 52.5 25t36.5 85q69 249 69 287q0 42 -37 42
q-66 0 -113 -150q-20 -62 -37.5 -140t-17.5 -101z" />
    <glyph glyph-name="c" unicode="c" horiz-adv-x="556" 
d="M484 116l16 -9q-74 -121 -220 -121q-109 0 -174 56t-65 160q0 32 9 66.5t31.5 72t55.5 67t88 48.5t122 19q81 0 132.5 -33t51.5 -85q0 -31 -24 -54.5t-60 -23.5q-35 0 -59.5 22.5t-24.5 57.5q0 31 21 54.5t53 27.5v2q-18 7 -51 7q-48 0 -73 -33.5t-45 -102.5
q-56 -198 -58 -218q-1 -7 -1 -17q0 -31 24 -49.5t72 -18.5q100 0 179 105z" />
    <glyph glyph-name="d" unicode="d" 
d="M615 111l16 -10q-71 -115 -179 -115q-36 0 -65 21.5t-33 57.5q-56 -79 -148 -79q-80 0 -122.5 55.5t-42.5 142.5q0 111 78 201t186 90q97 0 124 -88h2l80 298h-64l8 19h84q125 0 173 31l-180 -654q-4 -13 -4 -21q0 -14 16 -14q22 0 71 65zM414 354q0 38 -18.5 61
t-39.5 23q-24 0 -38.5 -19t-27.5 -59q-28 -85 -52.5 -184t-22.5 -117q0 -15 11 -25.5t29 -10.5q51 0 87 68q19 35 45.5 131t26.5 132z" />
    <glyph glyph-name="e" unicode="e" horiz-adv-x="556" 
d="M478 99l13 -13q-44 -46 -104 -73t-123 -27q-99 0 -161 48t-62 145q0 130 96.5 213t227.5 83q72 0 128 -32.5t56 -97.5q0 -77 -65.5 -114.5t-150.5 -37.5q-55 0 -95 5l-12 -41q-11 -42 -11 -75q0 -35 21.5 -53t55.5 -18q43 0 96 27t90 61zM293 395l-50 -180q18 -3 41 -3
q42 0 66 49q11 20 27 73t16 72q0 50 -43 50q-40 0 -57 -61z" />
    <glyph glyph-name="f" unicode="f" horiz-adv-x="389" 
d="M48 431l8 19h95q15 48 39 93t58 85.5t82 65t102 24.5q39 0 66 -20t27 -53q0 -30 -17 -48.5t-46 -18.5t-46 17.5t-17 42.5q0 18 9.5 34.5t26.5 22.5q-5 4 -18 4q-62 0 -84 -165l-11 -84h106l-8 -19h-101q-11 -63 -17 -94t-19 -93t-24.5 -99.5t-31.5 -92.5t-41 -93.5
t-51 -81t-65 -75.5q-51 -49 -113 -49q-83 0 -93 72q-4 29 15 49.5t45 20.5q30 0 48 -16t18 -45q0 -21 -12 -38t-32 -21q4 -3 18 -3q33 0 53.5 36t35.5 134q29 190 56 336q12 64 36 153h-97z" />
    <glyph glyph-name="g" unicode="g" horiz-adv-x="611" 
d="M109 129q0 -19 20 -26.5t64 -7.5q23 0 76 1.5t77 1.5q36 0 58.5 -2.5t51.5 -11.5t44 -32t15 -59q0 -39 -21.5 -80.5t-60.5 -77.5t-103 -59t-139 -23q-228 0 -228 105q0 38 40 61.5t80 23.5v2q-73 30 -73 95q0 56 43.5 98t103.5 49v2q-63 40 -63 107q0 58 37.5 100
t89.5 60.5t108 18.5q93 0 161 -42q14 29 39.5 47.5t56.5 18.5q29 0 47.5 -17t18.5 -46q0 -24 -15 -37.5t-37 -13.5q-23 0 -38.5 13.5t-15.5 32.5q0 31 22 47l-2 2q-21 -4 -37 -21.5t-22 -40.5q41 -44 41 -100q0 -47 -23.5 -81t-61.5 -50.5t-76.5 -24t-78.5 -7.5q-36 0 -80 7
q-33 7 -50 7q-34 0 -51.5 -11.5t-17.5 -28.5zM387 -67h-243q-103 0 -103 -68q0 -39 45.5 -63t116.5 -24q85 0 156.5 37.5t71.5 80.5q0 37 -44 37zM252 211q0 -18 11 -27.5t27 -9.5q20 0 33.5 12.5t24.5 52.5q44 153 44 180q0 18 -11 27.5t-27 9.5q-20 0 -33 -13t-25 -53
q-44 -153 -44 -179z" />
    <glyph glyph-name="h" unicode="h" 
d="M615 111l16 -9q-25 -54 -70 -85t-104 -31q-49 0 -77.5 26t-28.5 77q0 29 44 160.5t44 141.5q0 24 -22 24q-31 0 -87.5 -79.5t-79.5 -161.5l-47 -174h-189l185 685h-64l8 19h84q125 0 173 31l-106 -406h2q32 56 88 101t119 45q46 0 78 -25t32 -71q0 -45 -44 -170t-44 -144
q0 -25 16 -25q17 0 40 25t34 46z" />
    <glyph glyph-name="i" unicode="i" horiz-adv-x="389" 
d="M90 431l8 19h70q124 0 182 25l-110 -391q-4 -16 -4 -24q0 -20 14 -20q28 0 69 67l17 -10q-59 -111 -167 -111q-46 0 -76.5 22.5t-30.5 71.5q0 28 25 120l65 231h-62zM199 614q0 38 26.5 64t63.5 26t63.5 -26t26.5 -64t-26.5 -64t-63.5 -26t-63.5 26t-26.5 64z" />
    <glyph glyph-name="j" unicode="j" horiz-adv-x="389" 
d="M-170 -169q0 25 17 45t41 20q27 0 44.5 -17t17.5 -49q0 -45 -36 -55q6 -3 17 -3q23 0 38 15.5t25 53.5l158 590h-62l8 19h70q124 0 182 25l-132 -489q-63 -233 -291 -233q-44 0 -70.5 20t-26.5 58zM199 614q0 37 26.5 63.5t63.5 26.5t63.5 -26.5t26.5 -63.5
q0 -38 -26.5 -64t-63.5 -26t-63.5 26.5t-26.5 63.5z" />
    <glyph glyph-name="k" unicode="k" horiz-adv-x="611" 
d="M14 0l189 685h-69l8 19h87q123 0 171 31l-122 -467h15q47 0 72 60l25 57q39 90 115 90q36 0 61 -23t25 -60q0 -36 -22 -57.5t-57 -21.5q-32 0 -54.5 19.5t-22.5 42.5q0 45 18 62v2q-21 -6 -54 -82.5t-58 -89.5v-2h8q76 0 105.5 -37.5t29.5 -115.5v-29q0 -37 21 -37
q12 0 29 25t23 41l17 -9q-19 -50 -59 -83.5t-93 -33.5q-112 0 -112 127v87q0 49 -30 49h-7l-70 -249h-189z" />
    <glyph glyph-name="l" unicode="l" horiz-adv-x="389" 
d="M154 685l8 19h87q123 0 171 31l-180 -651q-4 -16 -4 -24q0 -20 14 -20q22 0 74 71l15 -14q-74 -111 -177 -111q-100 0 -100 87q0 29 18 95l143 517h-69z" />
    <glyph glyph-name="m" unicode="m" horiz-adv-x="944" 
d="M14 0l118 431h-56l8 19h66q123 0 181 25l-39 -145l2 1q32 63 80.5 103.5t111.5 40.5q102 0 102 -89q0 -9 -3 -51h2q76 140 204 140q44 0 73.5 -25t29.5 -68q0 -29 -10 -57q-77 -231 -77 -249t5 -24t17 -6q14 0 35 26t29 45l15 -10q-55 -121 -173 -121q-45 0 -73.5 28
t-28.5 77q0 40 43.5 160.5t43.5 138.5q0 25 -22 25q-31 0 -77.5 -66t-66.5 -136l-62 -213h-182l99 360q5 19 5 35q0 20 -18 20q-26 0 -71 -68t-64 -136l-58 -211h-189z" />
    <glyph glyph-name="n" unicode="n" 
d="M14 0l118 431h-56l8 19h66q123 0 181 25l-40 -159h2q34 65 90 112t120 47q46 0 78 -25t32 -71q0 -45 -44 -170t-44 -144q0 -25 16 -25q17 0 40 25t34 46l16 -9q-25 -54 -70 -85t-104 -31q-49 0 -77.5 26t-28.5 77q0 29 44 160.5t44 141.5q0 24 -22 24q-31 0 -87.5 -79.5
t-79.5 -161.5l-47 -174h-189z" />
    <glyph glyph-name="o" unicode="o" horiz-adv-x="610" 
d="M254 5q29 0 48.5 23t36.5 79l35 117q43 144 43 179q0 55 -57 54q-37 -1 -61.5 -46t-51.5 -152q-5 -19 -11 -43t-9 -36.5t-7 -28t-6 -23.5l-4.5 -18t-3.5 -15.5t-1.5 -11.5t-1 -10.5t-0.5 -9.5q0 -58 51 -58zM579 259q0 -32 -9 -66.5t-31.5 -72t-56 -67t-88.5 -48.5
t-123 -19q-103 0 -166.5 56t-63.5 160q0 35 10 71t33 72.5t57 65t86 46.5t116 18q107 0 171.5 -56t64.5 -160z" />
    <glyph glyph-name="p" unicode="p" 
d="M-32 -216l177 647h-62l8 19h70q124 0 182 25l-27 -97h2q66 97 161 97q75 0 116 -50t41 -127q0 -115 -80 -210.5t-196 -95.5q-96 0 -122 82h-2l-81 -290h61l-8 -19h-306l8 19h58zM253 102q0 -27 16.5 -50t49.5 -23q7 0 13.5 2t11.5 5t10 9t8 10.5t7 12.5t6.5 12.5t5.5 14
t4 13.5t4 13.5t3 10.5q70 244 70 267q0 39 -40 39q-22 0 -49.5 -25.5t-46.5 -60.5q-23 -40 -48 -125.5t-25 -124.5z" />
    <glyph glyph-name="q" unicode="q" 
d="M201 -235l8 19h58l66 251l-2 2q-46 -45 -119 -45q-77 0 -124 54t-47 133q0 112 71.5 204t180.5 92q114 0 140 -81h2l14 56h186l-181 -666h61l-8 -19h-306zM215 68q0 -21 11 -33t31 -12q24 0 47 17t35 42q17 36 46 137t29 132q0 87 -56 87q-27 0 -42.5 -18t-26.5 -56
q-74 -257 -74 -296z" />
    <glyph glyph-name="r" unicode="r" horiz-adv-x="500" 
d="M14 0l118 431h-56l8 19h66q123 0 181 25l-27 -100h2q24 38 59 69t74 31q40 0 62 -24t22 -63q0 -43 -25 -68t-64 -25q-37 0 -58 23.5t-21 57.5q0 14 7 33l-2 2q-64 -71 -88 -160l-69 -251h-189z" />
    <glyph glyph-name="s" unicode="s" horiz-adv-x="500" 
d="M8 104q0 30 20 50.5t50 20.5t49 -19t19 -47q0 -27 -18 -46.5t-43 -19.5q-13 0 -20 2l-2 -2q15 -15 46.5 -26.5t69.5 -11.5q41 0 68 15t27 42q0 25 -30 54t-66 53t-66 62.5t-30 80.5q0 70 61.5 117.5t171.5 45.5q166 -3 166 -107q0 -30 -18.5 -47.5t-49.5 -17.5
q-29 0 -46.5 17.5t-17.5 49.5q0 25 16 42t39 17q12 0 17 -1v2q-33 26 -77 26t-69 -22.5t-25 -56.5q0 -26 19 -49t46.5 -40.5t55 -36.5t46.5 -47t19 -62q0 -76 -67 -116t-166 -40q-92 0 -143.5 34t-51.5 84z" />
    <glyph glyph-name="t" unicode="t" horiz-adv-x="389" 
d="M75 431l6 19h69l39 140q130 36 210 84l-65 -224h73l-6 -19h-71l-91 -320q-10 -32 -10 -47q0 -7 4.5 -12.5t11.5 -5.5q9 0 17.5 4t18 14t14.5 15.5t15 19t11 14.5l15 -13q-2 -2 -18.5 -24.5t-33 -40t-51 -33.5t-74.5 -16q-43 0 -74.5 22.5t-31.5 64.5q0 31 26 125l66 233
h-70z" />
    <glyph glyph-name="u" unicode="u" 
d="M628 450l-74 -260q-30 -106 -30 -125q0 -25 25 -25q14 0 36.5 25t32.5 46l16 -9q-25 -54 -70 -85t-104 -31q-51 0 -78.5 24t-27.5 69v18h-2q-31 -48 -85.5 -79.5t-112.5 -31.5q-46 0 -75.5 28t-29.5 73q0 28 10 63l76 281h-56l8 19h66q123 0 181 25l-81 -285
q-30 -106 -30 -125q0 -25 25 -25q35 0 70.5 47t50.5 100l75 263h184z" />
    <glyph glyph-name="v" unicode="v" horiz-adv-x="611" 
d="M76 431l8 19h66q123 0 181 25l-91 -327q-17 -61 -17 -82q0 -32 48 -32q71 0 163.5 82.5t92.5 150.5q0 20 -15 31.5t-33.5 16.5t-33.5 23.5t-15 51.5q0 35 22.5 57.5t58.5 22.5q45 0 69.5 -27.5t24.5 -72.5q0 -59 -39.5 -128.5t-99 -125t-135.5 -93t-143 -37.5
q-57 0 -98 24.5t-41 75.5q0 34 22 117l61 228h-56z" />
    <glyph glyph-name="w" unicode="w" horiz-adv-x="889" 
d="M76 431l8 19h66q123 0 181 25l-91 -327q-17 -61 -17 -82q0 -14 9.5 -23t22.5 -9q42 0 75 38t46 84l85 294h182l-78 -291q-21 -78 -21 -96q0 -12 7.5 -20.5t19.5 -8.5q27 0 82.5 36t103.5 92.5t48 104.5q0 20 -15 31.5t-33.5 16.5t-33.5 23.5t-15 51.5q0 35 22.5 57.5
t58.5 22.5q45 0 69.5 -27.5t24.5 -72.5q0 -61 -40.5 -130.5t-100 -124.5t-132 -92t-132.5 -37q-99 0 -108 102q-78 -102 -182 -102q-57 0 -98 24.5t-41 75.5q0 34 22 117l61 228h-56z" />
    <glyph glyph-name="x" unicode="x" 
d="M90 344l-15 14q54 60 103.5 88.5t118.5 28.5q129 0 150 -98h2q19 41 53 69.5t72 28.5q37 0 62 -22t25 -57q0 -31 -23 -51t-55 -20q-30 0 -51 19.5t-21 47.5q0 27 16 44l-2 2q-51 -32 -77 -122l-50 -179q-6 -20 -6 -47q0 -50 60 -50q49 0 122 73l14 -12
q-62 -62 -111 -88.5t-124 -26.5q-50 0 -85.5 31t-45.5 81h-2q-26 -56 -58.5 -84t-91.5 -28q-31 0 -53 22t-22 53t22 53t53 22t53 -22t22 -53q0 -21 -16 -41l2 -2q55 33 81 122l47 163q13 46 13 66q0 64 -57 64q-12 0 -25.5 -6t-28.5 -18t-26 -21.5t-26 -24.5z" />
    <glyph glyph-name="y" unicode="y" horiz-adv-x="611" 
d="M44 298l-18 6q26 67 77 119t111 52q42 0 65.5 -25t37.5 -90l47 -206h2l85 211q23 56 47.5 83t58.5 27t56.5 -21.5t22.5 -59.5t-23 -59.5t-56 -21.5q-28 0 -50.5 16t-31.5 42h-2l-147 -361q-61 -150 -119 -203.5t-128 -53.5q-37 0 -60.5 23.5t-23.5 57.5q0 38 23 60.5
t56 22.5t55 -19.5t22 -56.5q0 -41 -30 -60v-2q79 17 130 118l-115 442q-5 18 -8 26t-8 14t-12 6q-20 0 -64 -87z" />
    <glyph glyph-name="z" unicode="z" horiz-adv-x="611" 
d="M69 253l74 222q61 -15 182.5 -32.5t163.5 -17.5q50 0 83 50l14 -10q-36 -55 -94.5 -103t-112.5 -78t-122.5 -71.5t-112.5 -78.5l2 -2q94 34 150 34q58 0 119.5 -27t81.5 -27t32 10t12 26v11h-2q-8 -13 -37 -13q-22 0 -36 13.5t-14 36.5q0 22 13.5 36t34.5 14
q29 0 44.5 -22.5t15.5 -48.5q0 -77 -57.5 -133t-142.5 -56q-56 0 -113.5 17t-102.5 34t-70 17q-12 0 -20.5 -5.5t-8.5 -13.5q0 -3 2.5 -10.5t2.5 -11.5q0 -8 -6.5 -14.5t-15.5 -6.5q-20 0 -20 24q0 8 10.5 22t21 24.5t26 25.5t16.5 16q48 46 113.5 89t148 91t127.5 79l-2 2
q-154 -61 -254 -61q-44 0 -107 7l-20 -58h-19z" />
    <glyph glyph-name="braceleft" unicode="{" horiz-adv-x="389" 
d="M209 -228l-5 -19q-83 0 -119 19.5t-36 69.5q0 25 11 63l55 200q10 36 10 59q0 46 -52 64q49 15 72 42t38 82l55 200q26 93 75 122.5t153 29.5l-5 -19q-70 -7 -99.5 -36.5t-46.5 -90.5l-52 -190q-17 -62 -43.5 -93.5t-79.5 -45.5v-2q57 -17 57 -69q0 -27 -12 -70l-52 -189
q-12 -43 -12 -60q0 -57 88 -67z" />
    <glyph glyph-name="bar" unicode="|" horiz-adv-x="222" 
d="M91 -14v732h100v-732h-100z" />
    <glyph glyph-name="braceright" unicode="}" horiz-adv-x="389" 
d="M164 685l5 19q83 0 119 -19.5t36 -69.5q0 -25 -11 -63l-55 -200q-10 -36 -10 -59q0 -46 52 -64q-49 -15 -72 -42t-38 -82l-55 -200q-26 -93 -75 -122.5t-153 -29.5l5 19q70 7 99.5 36.5t46.5 90.5l52 190q17 62 43.5 93.5t79.5 45.5v2q-57 17 -57 69q0 27 12 70l52 189
q12 43 12 60q0 57 -88 67z" />
    <glyph glyph-name="asciitilde" unicode="~" horiz-adv-x="600" 
d="M495 346l36 -96q-20 -27 -33 -42t-38 -29.5t-54 -14.5q-39 0 -102.5 32.5t-107.5 32.5q-60 0 -91 -69l-36 95q20 27 33 42t38 29.5t54 14.5q39 0 102.5 -32.5t107.5 -32.5q60 0 91 70z" />
    <glyph glyph-name="uni00A0" unicode="&#xa0;" horiz-adv-x="306" 
 />
    <glyph glyph-name="exclamdown" unicode="&#xa1;" horiz-adv-x="444" 
d="M210 246h15q-24 -111 -24 -217q0 -58 15 -152q-79 -63 -136 -124q-41 90 -79 128q78 90 124 171t85 194zM256 479q38 0 64 -26.5t26 -63.5t-26 -63.5t-64 -26.5t-64 26.5t-26 63.5t26 63.5t64 26.5z" />
    <glyph glyph-name="cent" unicode="&#xa2;" horiz-adv-x="612" 
d="M512 120l16 -8q-35 -57 -91.5 -88.5t-123.5 -31.5q-25 0 -47 3l-29 -99h-22l29 102q-81 16 -128 66.5t-47 134.5q0 123 87 199.5t214 76.5h6l23 87h23l-24 -87q65 -4 113 -35t48 -83q0 -33 -24.5 -56t-59.5 -23t-59.5 22.5t-24.5 57.5q0 33 21.5 56t52.5 26v2
q-21 8 -51 8q-48 0 -73 -33.5t-45 -102.5q-59 -207 -59 -237q0 -28 25.5 -44t73.5 -16q97 0 176 103z" />
    <glyph glyph-name="sterling" unicode="&#xa3;" horiz-adv-x="612" 
d="M69 19q26 0 54 21.5t39 56.5q-41 35 -86 35q-28 0 -48.5 -15t-20.5 -42q0 -24 18 -40t44 -16zM60 304l7 31h110q-14 103 -14 140q0 103 70.5 163t177.5 60q87 0 153 -40t66 -114q0 -38 -22.5 -63.5t-58.5 -25.5q-31 0 -52 20.5t-21 50.5q0 27 18.5 47t47.5 20
q30 0 51 -24q0 39 -38.5 65.5t-79.5 26.5q-56 0 -88 -38t-32 -94q0 -97 -23 -194h138l-8 -31h-134q-22 -91 -71 -158q84 -28 150 -28q118 0 151 102l21 -6q-11 -40 -20 -66t-25.5 -58.5t-36.5 -51.5t-51.5 -32.5t-71.5 -13.5q-83 0 -174 73q-65 -65 -129 -65q-37 0 -60 20.5
t-23 56.5q0 50 35.5 76.5t88.5 26.5q34 0 73 -12q0 93 -6 136h-119z" />
    <glyph glyph-name="currency" unicode="&#xa4;" horiz-adv-x="612" 
d="M129 84l-61 62l56 56q-46 63 -46 143t45 144l-55 55l62 62l55 -55q65 46 145 46q79 0 143 -45l53 54l63 -62l-53 -53q46 -67 46 -146q0 -81 -46 -146l53 -53l-61 -62l-54 54q-65 -45 -144 -45q-80 0 -146 47zM330 205q58 0 99 41t41 99t-41 99t-99 41t-99 -41t-41 -99
t41 -99t99 -41z" />
    <glyph glyph-name="yen" unicode="&#xa5;" horiz-adv-x="612" 
d="M71 0l5 19h66l47 167h-130l9 31h130l24 87h-130l9 31h120l-43 336h-55l5 19h298l-5 -19h-55l32 -310h2l144 212q36 53 36 75q0 23 -40 23h-12l5 19h162l-5 -19q-25 0 -44 -11.5t-28 -23t-31 -42.5l-177 -259h125l-9 -31h-130l-24 -87h130l-9 -31h-130l-47 -167h66l-5 -19
h-306z" />
    <glyph glyph-name="brokenbar" unicode="&#xa6;" horiz-adv-x="222" 
d="M91 -14v275h100v-275h-100zM91 443v275h100v-275h-100z" />
    <glyph glyph-name="section" unicode="&#xa7;" horiz-adv-x="611" 
d="M453 -15q0 -65 -40.5 -113t-98 -70t-119.5 -22q-42 0 -85 13t-77.5 45.5t-34.5 77.5q0 33 21 55.5t53 22.5q34 0 55 -20.5t21 -53.5q0 -34 -24 -51t-59 -19q31 -26 62.5 -35.5t76.5 -9.5q42 0 76.5 23t34.5 63q0 23 -10.5 40.5t-41.5 47.5l-101 95q-74 70 -95 106.5
t-21 81.5q0 60 42.5 112t102.5 82q-23 46 -23 86q0 86 70.5 131t158.5 45q78 0 130 -35.5t52 -106.5q0 -36 -22 -57t-55 -21t-53 21t-20 48q0 30 19 49.5t48 19.5q14 0 29 -6q-3 31 -34 47t-66 16q-45 0 -73 -24t-28 -68q0 -28 25 -61t61 -65t72 -66.5t61 -75t25 -78.5
q0 -57 -40 -107t-101 -82q26 -43 26 -81zM462 139q0 28 -52.5 83t-120 119t-89.5 98q-52 -30 -52 -63q0 -26 41 -69.5t112 -109.5t113 -117q48 22 48 59z" />
    <glyph glyph-name="dieresis" unicode="&#xa8;" horiz-adv-x="278" 
d="M360 698q34 0 59 -25t25 -59t-25 -59t-59 -25t-59 25t-25 59t25 59t59 25zM128 698q34 0 59 -25t25 -59t-25 -59t-59 -25t-59 25t-25 59t25 59t59 25z" />
    <glyph glyph-name="copyright" unicode="&#xa9;" horiz-adv-x="800" 
d="M596 274l-17 -90q-59 -32 -136 -32q-106 0 -164.5 54.5t-58.5 157.5q0 37 11.5 70.5t36.5 65.5t73.5 51.5t114.5 19.5q79 0 123 -35v-84h-25q-10 39 -34.5 66.5t-65.5 27.5q-51 0 -77 -47.5t-27 -128.5q-2 -193 102 -193q39 0 70.5 26.5t48.5 70.5h25zM58 352
q0 152 107 259t259 107t259 -107t107 -259t-107 -259t-259 -107t-259 107t-107 259zM136 352q0 -119 84.5 -203.5t203.5 -84.5t203.5 84.5t84.5 203.5t-84.5 203.5t-203.5 84.5t-203.5 -84.5t-84.5 -203.5z" />
    <glyph glyph-name="ordfeminine" unicode="&#xaa;" horiz-adv-x="434" 
d="M482 690l-65 -218q-4 -12 -4 -19q0 -11 12 -11q11 0 45 40l8 -11q-29 -36 -51.5 -51t-62.5 -15q-56 0 -68 47q-32 -47 -91 -47q-54 0 -82 32.5t-28 82.5q0 68 51 123t124 55q28 0 49.5 -15t26.5 -42h2l13 49h121zM301 673q-27 0 -43 -47q-51 -151 -51 -172q0 -24 25 -24
q39 0 58 39q14 30 29 84t15 75q0 20 -9.5 32.5t-23.5 12.5z" />
    <glyph glyph-name="guillemotleft" unicode="&#xab;" horiz-adv-x="556" 
d="M88 272l125 134h111l-134 -139l74 -167h-95zM264 258l141 148h111l-150 -155l69 -151h-97z" />
    <glyph glyph-name="logicalnot" unicode="&#xac;" horiz-adv-x="600" 
d="M441 110v195h-394v112h506v-307h-112z" />
    <glyph glyph-name="uni00AD" unicode="&#xad;" horiz-adv-x="444" 
d="M94 316h291l-35 -126h-291z" />
    <glyph glyph-name="registered" unicode="&#xae;" horiz-adv-x="800" 
d="M253 163v19q15 0 22.5 1t14.5 8.5t7 22.5v293q0 14 -7 21t-14.5 8t-22.5 1v21h201q55 0 89.5 -26.5t34.5 -78.5q0 -80 -77 -104l57 -115q15 -30 27.5 -43.5t29.5 -13.5v-14h-90q-15 3 -25 13.5t-22 33.5l-62 127h-29v-123q-1 -15 5 -22.5t14 -8.5t25 -1v-19h-178z
M387 362h31q54 0 54 90q0 81 -50 81h-35v-171zM58 352q0 152 107 259t259 107t259 -107t107 -259t-107 -259t-259 -107t-259 107t-107 259zM136 352q0 -119 84.5 -203.5t203.5 -84.5t203.5 84.5t84.5 203.5t-84.5 203.5t-203.5 84.5t-203.5 -84.5t-84.5 -203.5z" />
    <glyph glyph-name="macron" unicode="&#xaf;" horiz-adv-x="278" 
d="M34 561l16 72h362l-15 -72h-363z" />
    <glyph glyph-name="degree" unicode="&#xb0;" horiz-adv-x="400" 
d="M118 555q0 60 41.5 101.5t101.5 41.5t101.5 -41.5t41.5 -101.5t-41.5 -101.5t-101.5 -41.5t-101.5 41.5t-41.5 101.5zM178 555q0 -35 24 -59t59 -24t59 24t24 59t-24 59t-59 24t-59 -24t-24 -59z" />
    <glyph glyph-name="plusminus" unicode="&#xb1;" horiz-adv-x="600" 
d="M244 382v124h112v-124h197v-112h-197v-125h-112v125h-197v112h197zM47 0v112h506v-112h-506z" />
    <glyph glyph-name="twosuperior" unicode="&#xb2;" horiz-adv-x="398" 
d="M401 423l-52 -144h-321q9 35 40.5 67t69 57t74 52.5t60.5 68t24 89.5q0 30 -17 48t-48 18q-25 0 -49 -13t-33 -35l2 -2q8 11 25 11q21 0 35.5 -13.5t14.5 -35.5q0 -23 -15 -37t-38 -14q-24 0 -38.5 15.5t-14.5 40.5q0 38 25.5 62.5t56.5 32t65 7.5q68 0 114.5 -27.5
t46.5 -81.5q0 -44 -19 -75t-52.5 -49t-67.5 -29.5t-76.5 -25t-67.5 -27.5l2 -2q33 4 207 4q15 0 22 19l9 23z" />
    <glyph glyph-name="threesuperior" unicode="&#xb3;" horiz-adv-x="398" 
d="M187 494l5 12h18q66 0 82 47q18 54 18 77q0 25 -18 40.5t-47 15.5q-27 0 -54 -19l1 -2q59 0 59 -52q0 -22 -16 -35t-37 -13q-25 0 -39 14t-14 38q0 36 36.5 58.5t85.5 22.5q68 0 111.5 -26.5t43.5 -74.5t-34.5 -74t-88.5 -29v-2q35 -8 55.5 -31t20.5 -53
q0 -64 -55.5 -96.5t-128.5 -32.5q-76 0 -110.5 23t-34.5 60q0 22 14.5 38t36.5 16q27 0 41 -15t14 -38q0 -22 -15.5 -34.5t-36.5 -12.5q-7 0 -10 1l-1 -1q6 -10 28 -17.5t38 -7.5q34 0 53.5 23.5t37.5 72.5q17 46 17 67q0 22 -13.5 31t-43.5 9h-19z" />
    <glyph glyph-name="acute" unicode="&#xb4;" horiz-adv-x="278" 
d="M198 520h-20l85 145q20 34 38 46.5t54 12.5q61 0 61 -39q0 -22 -27 -39z" />
    <glyph glyph-name="mu" unicode="&#xb5;" 
d="M628 450l-74 -260q-30 -106 -30 -125q0 -25 25 -25q14 0 36.5 25t32.5 46l16 -9q-25 -54 -70 -85t-104 -31q-51 0 -78.5 24t-27.5 69v18l-2 2q-34 -48 -81 -80.5t-79 -32.5q-24 0 -34 9q-12 -105 -27 -156t-37 -68.5t-63 -17.5q-36 0 -54.5 17.5t-18.5 43.5q0 22 14 66
t41 121.5t46 148.5l76 281h-56l8 19h66q123 0 181 25l-81 -285q-30 -106 -30 -125q0 -25 25 -25q35 0 70.5 47t50.5 100l75 263h184z" />
    <glyph glyph-name="paragraph" unicode="&#xb6;" horiz-adv-x="620" 
d="M249 -206l243 879h-59l-243 -879h-189l8 19h73l133 480q-57 4 -87 42t-30 98q0 116 61.5 193.5t171.5 77.5h360l-8 -19h-74l-241 -872h74l-8 -19h-185z" />
    <glyph glyph-name="periodcentered" unicode="&#xb7;" horiz-adv-x="306" 
d="M75 276q0 38 26.5 64t63.5 26t63.5 -26t26.5 -64t-26.5 -64t-63.5 -26t-63.5 26t-26.5 64z" />
    <glyph glyph-name="cedilla" unicode="&#xb8;" horiz-adv-x="278" 
d="M110 0h34l-56 -72l2 -2q27 8 45 8q32 0 57.5 -15t25.5 -47q0 -34 -33.5 -58t-100.5 -24q-51 0 -106 20l7 28q40 -17 75 -17q58 0 58 43q0 17 -11 28t-31 11q-12 0 -19 -3l-15 7z" />
    <glyph glyph-name="onesuperior" unicode="&#xb9;" horiz-adv-x="398" 
d="M134 291l105 342l-93 -30l4 17l237 78l-122 -407h74l-3 -12h-265l4 12h59z" />
    <glyph glyph-name="ordmasculine" unicode="&#xba;" horiz-adv-x="397" 
d="M201 446q0 -13 9.5 -21t22.5 -8q21 0 35 22t36 91q35 103 35 126q0 13 -9.5 21.5t-22.5 8.5q-21 0 -34.5 -21.5t-36.5 -91.5q-35 -107 -35 -127zM95 532q0 74 52.5 120t147.5 46q68 0 109 -33t41 -94q0 -74 -52.5 -120t-147.5 -46q-68 0 -109 33t-41 94z" />
    <glyph glyph-name="guillemotright" unicode="&#xbb;" horiz-adv-x="556" 
d="M468 234l-125 -134h-111l134 139l-74 167h95zM292 248l-141 -148h-111l150 155l-69 151h97z" />
    <glyph glyph-name="onequarter" unicode="&#xbc;" horiz-adv-x="916" 
d="M635 12l28 94h-175l303 307h88l-75 -253h61l-13 -54h-64l-28 -94h53l-3 -12h-226l4 12h47zM681 160l51 170h-2l-169 -170h120zM223 -22l447 734h48l-451 -734h-44zM122 291l105 342l-93 -30l4 17l237 78l-122 -407h74l-3 -12h-265l4 12h59z" />
    <glyph glyph-name="onehalf" unicode="&#xbd;" horiz-adv-x="916" 
d="M223 -22l447 734h48l-451 -734h-44zM122 291l105 342l-93 -30l4 17l237 78l-122 -407h74l-3 -12h-265l4 12h59zM852 144l-52 -144h-321q9 35 40.5 67t69 57t74 52.5t60.5 68t24 89.5q0 30 -17 48t-48 18q-25 0 -49 -13t-33 -35l2 -2q8 11 25 11q21 0 35.5 -13.5
t14.5 -35.5q0 -23 -15 -37t-38 -14q-24 0 -38.5 15.5t-14.5 40.5q0 38 25.5 62.5t56.5 32t65 7.5q68 0 114.5 -27.5t46.5 -81.5q0 -44 -19 -75t-52.5 -49t-67.5 -29.5t-76.5 -25t-67.5 -27.5l2 -2q33 4 207 4q15 0 22 19l9 23z" />
    <glyph glyph-name="threequarters" unicode="&#xbe;" horiz-adv-x="916" 
d="M635 12l28 94h-175l303 307h88l-75 -253h61l-13 -54h-64l-28 -94h53l-3 -12h-226l4 12h47zM681 160l51 170h-2l-169 -170h120zM235 -23l447 736h48l-451 -736h-44zM187 494l5 12h18q66 0 82 47q18 54 18 77q0 25 -18 40.5t-47 15.5q-27 0 -54 -19l1 -2q59 0 59 -52
q0 -22 -16 -35t-37 -13q-25 0 -39 14t-14 38q0 36 36.5 58.5t85.5 22.5q68 0 111.5 -26.5t43.5 -74.5t-34.5 -74t-88.5 -29v-2q35 -8 55.5 -31t20.5 -53q0 -64 -55.5 -96.5t-128.5 -32.5q-76 0 -110.5 23t-34.5 60q0 22 14.5 38t36.5 16q27 0 41 -15t14 -38
q0 -22 -15.5 -34.5t-36.5 -12.5q-7 0 -10 1l-1 -1q6 -10 28 -17.5t38 -7.5q34 0 53.5 23.5t37.5 72.5q17 46 17 67q0 22 -13.5 31t-43.5 9h-19z" />
    <glyph glyph-name="questiondown" unicode="&#xbf;" horiz-adv-x="556" 
d="M332 246h20q-23 -103 -37.5 -147.5t-25 -58.5t-35.5 -29q-77 -47 -100.5 -71.5t-23.5 -66.5q0 -45 29.5 -70t75.5 -25q45 0 74 16v2q-37 2 -60 23t-23 59q0 34 22.5 57t59.5 23q35 0 57.5 -22.5t22.5 -59.5q0 -63 -52 -93t-119 -30q-80 0 -139.5 50.5t-59.5 129.5
q0 23 4 43t9.5 36t18.5 32t22 27t30.5 25t33 21.5t40.5 22t42.5 20.5t48.5 22q32 14 41.5 24t23.5 40zM374 479q38 0 64 -26.5t26 -63.5t-26 -63.5t-64 -26.5t-64 26.5t-26 63.5t26 63.5t64 26.5z" />
    <glyph glyph-name="Agrave" unicode="&#xc0;" horiz-adv-x="722" 
d="M395 19l-17 182h-212l-26 -43q-32 -53 -32 -80q0 -32 25 -45.5t57 -13.5l-5 -19h-244l5 19q58 0 93.5 37t92.5 134l310 514h80l73 -685h58l-5 -19h-317l5 19h59zM349 503l-171 -283h199l-26 283h-2zM547 732l-191 126q-27 17 -27 39q0 39 61 39q36 0 54 -12.5t38 -46.5
l85 -145h-20z" />
    <glyph glyph-name="Aacute" unicode="&#xc1;" horiz-adv-x="722" 
d="M395 19l-17 182h-212l-26 -43q-32 -53 -32 -80q0 -32 25 -45.5t57 -13.5l-5 -19h-244l5 19q58 0 93.5 37t92.5 134l310 514h80l73 -685h58l-5 -19h-317l5 19h59zM349 503l-171 -283h199l-26 283h-2zM469 732h-20l85 145q20 34 38 46.5t54 12.5q61 0 61 -39q0 -22 -27 -39
z" />
    <glyph glyph-name="Acircumflex" unicode="&#xc2;" horiz-adv-x="722" 
d="M395 19l-17 182h-212l-26 -43q-32 -53 -32 -80q0 -32 25 -45.5t57 -13.5l-5 -19h-244l5 19q58 0 93.5 37t92.5 134l310 514h80l73 -685h58l-5 -19h-317l5 19h59zM349 503l-171 -283h199l-26 283h-2zM320 732l155 204h105l66 -204h-25l-106 112l-162 -112h-33z" />
    <glyph glyph-name="Atilde" unicode="&#xc3;" horiz-adv-x="722" 
d="M395 19l-17 182h-212l-26 -43q-32 -53 -32 -80q0 -32 25 -45.5t57 -13.5l-5 -19h-244l5 19q58 0 93.5 37t92.5 134l310 514h80l73 -685h58l-5 -19h-317l5 19h59zM349 503l-171 -283h199l-26 283h-2zM668 908h21q-16 -58 -49 -98t-84 -40q-30 0 -89.5 23t-79.5 23
q-43 0 -63 -46h-21q16 56 49 96t84 40q30 0 89.5 -23t79.5 -23q43 0 63 48z" />
    <glyph glyph-name="Adieresis" unicode="&#xc4;" horiz-adv-x="722" 
d="M395 19l-17 182h-212l-26 -43q-32 -53 -32 -80q0 -32 25 -45.5t57 -13.5l-5 -19h-244l5 19q58 0 93.5 37t92.5 134l310 514h80l73 -685h58l-5 -19h-317l5 19h59zM349 503l-171 -283h199l-26 283h-2zM631 910q35 0 59.5 -25t24.5 -59t-24.5 -59t-59.5 -25t-59.5 25
t-24.5 59t24.5 59t59.5 25zM399 910q35 0 59.5 -25t24.5 -59t-24.5 -59t-59.5 -25t-59.5 25t-24.5 59t24.5 59t59.5 25z" />
    <glyph glyph-name="Aring" unicode="&#xc5;" horiz-adv-x="722" 
d="M395 19l-17 182h-212l-26 -43q-32 -53 -32 -80q0 -32 25 -45.5t57 -13.5l-5 -19h-244l5 19q58 0 93.5 37t92.5 134l310 514h80l73 -685h58l-5 -19h-317l5 19h59zM349 503l-171 -283h199l-26 283h-2zM383 827q0 43 30 73t73 30t73 -30t30 -73t-30 -73t-73 -30t-73 30
t-30 73zM420 827q0 -27 19.5 -46.5t46.5 -19.5t46.5 19.5t19.5 46.5t-19.5 46.5t-46.5 19.5t-46.5 -19.5t-19.5 -46.5z" />
    <glyph glyph-name="AE" unicode="&#xc6;" horiz-adv-x="889" 
d="M359 220l123 440l-2 2l-319 -442h198zM303 19l51 182h-208q-70 -93 -70 -129q0 -25 22.5 -39t49.5 -14l-5 -19h-202l5 19q29 2 61 37t92 118q13 18 20 28l352 483h-63l5 19h521l-62 -227h-22q3 45 3 54q0 82 -34 118t-106 36h-34l-86 -310q70 0 105 22t64 85h21l-74 -257
h-21q2 22 2 41q0 49 -20.5 69.5t-82.5 20.5l-93 -337h45q88 0 156.5 55.5t108.5 145.5h21l-64 -220h-522l5 19h59z" />
    <glyph glyph-name="Ccedilla" unicode="&#xc7;" horiz-adv-x="722" 
d="M264 -93l60 82q-122 15 -188 93.5t-66 202.5q0 79 28.5 154.5t82 138.5t141 101.5t195.5 38.5q62 0 126.5 -26t76.5 -26q10 0 19 3.5t13 5.5t14 10l9 8l17 -5l-67 -244h-19q0 51 -6.5 90.5t-23.5 78t-52 59.5t-87 21q-55 0 -95 -31t-69 -105q-51 -127 -81 -252.5
t-30 -177.5q0 -58 35.5 -87t96.5 -29q71 0 134 37.5t109 100.5l18 -14q-58 -76 -123 -112.5t-156 -36.5h-21l-45 -58l2 -2q27 8 45 8q32 0 57.5 -15t25.5 -47q0 -34 -33.5 -58t-100.5 -24q-51 0 -106 20l7 28q40 -17 75 -17q58 0 58 43q0 17 -11 28t-31 11q-12 0 -19 -3z
" />
    <glyph glyph-name="Egrave" unicode="&#xc8;" horiz-adv-x="722" 
d="M43 19l184 666h-65l5 19h575l-45 -227h-19q0 119 -42 163.5t-142 44.5h-61l-85 -310h64q59 0 98.5 21.5t68.5 85.5h22l-72 -257h-23q4 20 4 42q0 39 -23 64t-72 25h-72l-93 -337h70q101 0 185 48.5t132 152.5h22l-70 -220h-612l5 19h61zM547 732l-191 126q-27 17 -27 39
q0 39 61 39q36 0 54 -12.5t38 -46.5l85 -145h-20z" />
    <glyph glyph-name="Eacute" unicode="&#xc9;" horiz-adv-x="722" 
d="M43 19l184 666h-65l5 19h575l-45 -227h-19q0 119 -42 163.5t-142 44.5h-61l-85 -310h64q59 0 98.5 21.5t68.5 85.5h22l-72 -257h-23q4 20 4 42q0 39 -23 64t-72 25h-72l-93 -337h70q101 0 185 48.5t132 152.5h22l-70 -220h-612l5 19h61zM469 732h-20l85 145
q20 34 38 46.5t54 12.5q61 0 61 -39q0 -22 -27 -39z" />
    <glyph glyph-name="Ecircumflex" unicode="&#xca;" horiz-adv-x="722" 
d="M43 19l184 666h-65l5 19h575l-45 -227h-19q0 119 -42 163.5t-142 44.5h-61l-85 -310h64q59 0 98.5 21.5t68.5 85.5h22l-72 -257h-23q4 20 4 42q0 39 -23 64t-72 25h-72l-93 -337h70q101 0 185 48.5t132 152.5h22l-70 -220h-612l5 19h61zM320 732l155 204h105l66 -204h-25
l-106 112l-162 -112h-33z" />
    <glyph glyph-name="Edieresis" unicode="&#xcb;" horiz-adv-x="722" 
d="M43 19l184 666h-65l5 19h575l-45 -227h-19q0 119 -42 163.5t-142 44.5h-61l-85 -310h64q59 0 98.5 21.5t68.5 85.5h22l-72 -257h-23q4 20 4 42q0 39 -23 64t-72 25h-72l-93 -337h70q101 0 185 48.5t132 152.5h22l-70 -220h-612l5 19h61zM631 910q35 0 59.5 -25t24.5 -59
t-24.5 -59t-59.5 -25t-59.5 25t-24.5 59t24.5 59t59.5 25zM399 910q35 0 59.5 -25t24.5 -59t-24.5 -59t-59.5 -25t-59.5 25t-24.5 59t24.5 59t59.5 25z" />
    <glyph glyph-name="Igrave" unicode="&#xcc;" horiz-adv-x="444" 
d="M54 19l184 666h-65l5 19h338l-5 -19h-67l-183 -666h66l-5 -19h-334l5 19h61zM408 732l-191 126q-27 17 -27 39q0 39 61 39q36 0 54 -12.5t38 -46.5l85 -145h-20z" />
    <glyph glyph-name="Iacute" unicode="&#xcd;" horiz-adv-x="444" 
d="M54 19l184 666h-65l5 19h338l-5 -19h-67l-183 -666h66l-5 -19h-334l5 19h61zM330 732h-20l85 145q20 34 38 46.5t54 12.5q61 0 61 -39q0 -22 -27 -39z" />
    <glyph glyph-name="Icircumflex" unicode="&#xce;" horiz-adv-x="444" 
d="M54 19l184 666h-65l5 19h338l-5 -19h-67l-183 -666h66l-5 -19h-334l5 19h61zM181 732l155 204h105l66 -204h-25l-106 112l-162 -112h-33z" />
    <glyph glyph-name="Idieresis" unicode="&#xcf;" horiz-adv-x="444" 
d="M54 19l184 666h-65l5 19h338l-5 -19h-67l-183 -666h66l-5 -19h-334l5 19h61zM492 910q34 0 59 -25t25 -59t-25 -59t-59 -25t-59 25t-25 59t25 59t59 25zM260 910q34 0 59 -25t25 -59t-25 -59t-59 -25t-59 25t-25 59t25 59t59 25z" />
    <glyph glyph-name="Eth" unicode="&#xd0;" horiz-adv-x="833" 
d="M43 19l93 337h-63l10 37h63l81 292h-65l5 19h348q153 0 230.5 -63.5t77.5 -206.5q0 -203 -128 -318.5t-332 -115.5h-386l5 19h61zM433 685l-80 -292h129l-10 -37h-129l-93 -337h61q50 0 82.5 9t64 35.5t57.5 76.5t54 131q62 179 62 303q0 52 -27.5 81.5t-83.5 29.5h-87z
" />
    <glyph glyph-name="Ntilde" unicode="&#xd1;" horiz-adv-x="778" 
d="M186 0h-229l5 19q29 0 51 14.5t38 45t25 56t21 70.5l110 394l-39 86h-49l5 19h258l251 -524h2l100 371q10 35 10 65q0 32 -20 50.5t-56 18.5h-5l5 19h216l-5 -19q-50 0 -73 -27.5t-40 -83.5l-162 -574h-107l-275 572l-96 -345q-23 -85 -23 -131q0 -77 87 -77zM696 908h21
q-16 -58 -49 -98t-84 -40q-30 0 -89.5 23t-79.5 23q-43 0 -63 -46h-21q16 56 49 96t84 40q30 0 89.5 -23t79.5 -23q43 0 63 48z" />
    <glyph glyph-name="Ograve" unicode="&#xd2;" horiz-adv-x="833" 
d="M262 123q0 -53 28 -82.5t79 -29.5q47 0 83.5 33.5t69.5 122.5q101 272 101 420q0 50 -30.5 78t-68.5 28q-92 0 -139 -99q-42 -90 -82.5 -242t-40.5 -229zM70 285q0 79 28.5 154.5t82 138.5t139.5 101.5t191 38.5q135 0 219.5 -84.5t84.5 -214.5q0 -114 -54 -212.5
t-154.5 -159.5t-224.5 -61q-132 0 -222 80.5t-90 218.5zM603 732l-191 126q-27 17 -27 39q0 39 61 39q36 0 54 -12.5t38 -46.5l85 -145h-20z" />
    <glyph glyph-name="Oacute" unicode="&#xd3;" horiz-adv-x="833" 
d="M262 123q0 -53 28 -82.5t79 -29.5q47 0 83.5 33.5t69.5 122.5q101 272 101 420q0 50 -30.5 78t-68.5 28q-92 0 -139 -99q-42 -90 -82.5 -242t-40.5 -229zM70 285q0 79 28.5 154.5t82 138.5t139.5 101.5t191 38.5q135 0 219.5 -84.5t84.5 -214.5q0 -114 -54 -212.5
t-154.5 -159.5t-224.5 -61q-132 0 -222 80.5t-90 218.5zM525 732h-20l85 145q20 34 38 46.5t54 12.5q61 0 61 -39q0 -22 -27 -39z" />
    <glyph glyph-name="Ocircumflex" unicode="&#xd4;" horiz-adv-x="833" 
d="M262 123q0 -53 28 -82.5t79 -29.5q47 0 83.5 33.5t69.5 122.5q101 272 101 420q0 50 -30.5 78t-68.5 28q-92 0 -139 -99q-42 -90 -82.5 -242t-40.5 -229zM70 285q0 79 28.5 154.5t82 138.5t139.5 101.5t191 38.5q135 0 219.5 -84.5t84.5 -214.5q0 -114 -54 -212.5
t-154.5 -159.5t-224.5 -61q-132 0 -222 80.5t-90 218.5zM376 732l155 204h105l66 -204h-25l-106 112l-162 -112h-33z" />
    <glyph glyph-name="Otilde" unicode="&#xd5;" horiz-adv-x="833" 
d="M262 123q0 -53 28 -82.5t79 -29.5q47 0 83.5 33.5t69.5 122.5q101 272 101 420q0 50 -30.5 78t-68.5 28q-92 0 -139 -99q-42 -90 -82.5 -242t-40.5 -229zM70 285q0 79 28.5 154.5t82 138.5t139.5 101.5t191 38.5q135 0 219.5 -84.5t84.5 -214.5q0 -114 -54 -212.5
t-154.5 -159.5t-224.5 -61q-132 0 -222 80.5t-90 218.5zM724 908h21q-16 -58 -49 -98t-84 -40q-30 0 -89.5 23t-79.5 23q-43 0 -63 -46h-21q16 56 49 96t84 40q30 0 89.5 -23t79.5 -23q43 0 63 48z" />
    <glyph glyph-name="Odieresis" unicode="&#xd6;" horiz-adv-x="833" 
d="M262 123q0 -53 28 -82.5t79 -29.5q47 0 83.5 33.5t69.5 122.5q101 272 101 420q0 50 -30.5 78t-68.5 28q-92 0 -139 -99q-42 -90 -82.5 -242t-40.5 -229zM70 285q0 79 28.5 154.5t82 138.5t139.5 101.5t191 38.5q135 0 219.5 -84.5t84.5 -214.5q0 -114 -54 -212.5
t-154.5 -159.5t-224.5 -61q-132 0 -222 80.5t-90 218.5zM687 910q35 0 59.5 -25t24.5 -59t-24.5 -59t-59.5 -25t-59.5 25t-24.5 59t24.5 59t59.5 25zM455 910q35 0 59.5 -25t24.5 -59t-24.5 -59t-59.5 -25t-59.5 25t-24.5 59t24.5 59t59.5 25z" />
    <glyph glyph-name="multiply" unicode="&#xd7;" horiz-adv-x="600" 
d="M223 253l-158 158l77 77l158 -158l158 158l77 -77l-159 -158l159 -158l-77 -77l-158 159l-158 -159l-77 77z" />
    <glyph glyph-name="Oslash" unicode="&#xd8;" horiz-adv-x="833" 
d="M610 484l-345 -312q-3 -28 -3 -49q0 -53 28 -82.5t79 -29.5q47 0 83.5 33.5t69.5 122.5q70 188 90 315zM276 221l343 311q4 25 4 55q0 50 -30.5 78t-68.5 28q-92 0 -139 -99q-32 -67 -64.5 -176t-46.5 -195zM63 -10l-21 23l92 82q-64 77 -64 190q0 79 28.5 154.5
t82 138.5t139.5 101.5t191 38.5q135 0 220 -85l91 81l21 -23l-91 -81q63 -80 63 -191q0 -114 -54 -212.5t-154.5 -159.5t-224.5 -61q-142 0 -227 87z" />
    <glyph glyph-name="Ugrave" unicode="&#xd9;" horiz-adv-x="778" 
d="M147 685l5 19h342l-5 -19h-66l-140 -519q-9 -32 -9 -52q0 -44 35.5 -73.5t108.5 -29.5q170 0 221 183l77 279q24 84 24 136q0 76 -93 76l5 19h233l-5 -19q-78 0 -109 -107l-106 -378q-33 -117 -99.5 -165.5t-196.5 -48.5q-134 0 -210.5 43.5t-76.5 131.5q0 31 30 146
l102 378h-67zM575 732l-191 126q-27 17 -27 39q0 39 61 39q36 0 54 -12.5t38 -46.5l85 -145h-20z" />
    <glyph glyph-name="Uacute" unicode="&#xda;" horiz-adv-x="778" 
d="M147 685l5 19h342l-5 -19h-66l-140 -519q-9 -32 -9 -52q0 -44 35.5 -73.5t108.5 -29.5q170 0 221 183l77 279q24 84 24 136q0 76 -93 76l5 19h233l-5 -19q-78 0 -109 -107l-106 -378q-33 -117 -99.5 -165.5t-196.5 -48.5q-134 0 -210.5 43.5t-76.5 131.5q0 31 30 146
l102 378h-67zM497 732h-20l85 145q20 34 38 46.5t54 12.5q61 0 61 -39q0 -22 -27 -39z" />
    <glyph glyph-name="Ucircumflex" unicode="&#xdb;" horiz-adv-x="778" 
d="M147 685l5 19h342l-5 -19h-66l-140 -519q-9 -32 -9 -52q0 -44 35.5 -73.5t108.5 -29.5q170 0 221 183l77 279q24 84 24 136q0 76 -93 76l5 19h233l-5 -19q-78 0 -109 -107l-106 -378q-33 -117 -99.5 -165.5t-196.5 -48.5q-134 0 -210.5 43.5t-76.5 131.5q0 31 30 146
l102 378h-67zM348 732l155 204h105l66 -204h-25l-106 112l-162 -112h-33z" />
    <glyph glyph-name="Udieresis" unicode="&#xdc;" horiz-adv-x="778" 
d="M147 685l5 19h342l-5 -19h-66l-140 -519q-9 -32 -9 -52q0 -44 35.5 -73.5t108.5 -29.5q170 0 221 183l77 279q24 84 24 136q0 76 -93 76l5 19h233l-5 -19q-78 0 -109 -107l-106 -378q-33 -117 -99.5 -165.5t-196.5 -48.5q-134 0 -210.5 43.5t-76.5 131.5q0 31 30 146
l102 378h-67zM659 910q35 0 59.5 -25t24.5 -59t-24.5 -59t-59.5 -25t-59.5 25t-24.5 59t24.5 59t59.5 25zM427 910q35 0 59.5 -25t24.5 -59t-24.5 -59t-59.5 -25t-59.5 25t-24.5 59t24.5 59t59.5 25z" />
    <glyph glyph-name="Yacute" unicode="&#xdd;" horiz-adv-x="722" 
d="M121 0l5 19h64l74 261l-72 405h-61l5 19h326l-5 -19h-62l66 -367l152 225q26 38 26 76q0 29 -18 47.5t-46 18.5l5 19h240l-5 -19q-49 0 -82.5 -28t-73.5 -88l-183 -270l-79 -280h65l-6 -19h-335zM520 732h-20l85 145q20 34 38 46.5t54 12.5q61 0 61 -39q0 -22 -27 -39z
" />
    <glyph glyph-name="Thorn" unicode="&#xde;" horiz-adv-x="722" 
d="M396 553l-96 -347h54q48 0 71.5 13t42.5 45q18 31 37 98t19 116q0 75 -86 75h-42zM43 19l184 666h-65l5 19h338l-5 -19h-67l-32 -113h115q206 0 206 -164q0 -35 -15 -71.5t-44.5 -71t-83.5 -56.5t-123 -22h-160l-46 -168h66l-5 -19h-334l5 19h61z" />
    <glyph glyph-name="germandbls" unicode="&#xdf;" horiz-adv-x="611" 
d="M466 718q173 0 173 -114q0 -46 -44 -85.5t-131 -82.5q-49 -24 -49 -37q0 -7 16.5 -19.5t39.5 -29.5t46 -38t39.5 -53t16.5 -67q0 -82 -61.5 -144t-141.5 -62q-49 0 -80.5 28t-31.5 78q0 30 18.5 49.5t45.5 19.5q28 0 45 -18t17 -45t-19.5 -44t-43.5 -19q-11 0 -11 -10
q0 -6 16 -13t34 -7q42 0 71.5 24.5t29.5 66.5q0 29 -15.5 51.5t-38 37l-45 29t-38 35.5t-15.5 47t21.5 52.5t52.5 52.5t62 56t52.5 75t21.5 99q0 29 -13.5 48.5t-41.5 19.5q-32 0 -57.5 -19.5t-44.5 -58t-31 -76t-26 -93.5q-51 -211 -71 -271q-67 -201 -151.5 -314.5
t-156.5 -113.5q-83 0 -93 72q-4 29 15 49.5t45 20.5q30 0 48 -16t18 -45q0 -21 -12 -38t-32 -21q4 -3 18 -3q33 0 53.5 36t35.5 134q29 190 56 336q13 72 30.5 130.5t48.5 118.5t71 100t101 65.5t137 25.5z" />
    <glyph glyph-name="agrave" unicode="&#xe0;" 
d="M421 385l17 62h188l-99 -350q-7 -22 -7 -37q0 -20 18 -20q11 0 23.5 12t45.5 55l15 -11q-30 -41 -49 -61t-51.5 -34.5t-75.5 -14.5q-44 0 -69.5 18.5t-35.5 62.5h-2q-43 -81 -137 -81q-80 0 -122.5 55.5t-42.5 142.5q0 111 78 201t186 90q44 0 76.5 -23t41.5 -67h2z
M349 438q-24 0 -38.5 -19t-27.5 -59q-78 -240 -78 -301q0 -42 41 -42q25 0 48 20t34 47q24 57 48 147.5t24 126.5q0 37 -14.5 58.5t-36.5 21.5zM471 520l-191 126q-27 17 -27 39q0 39 61 39q36 0 54 -12.5t38 -46.5l85 -145h-20z" />
    <glyph glyph-name="aacute" unicode="&#xe1;" 
d="M421 385l17 62h188l-99 -350q-7 -22 -7 -37q0 -20 18 -20q11 0 23.5 12t45.5 55l15 -11q-30 -41 -49 -61t-51.5 -34.5t-75.5 -14.5q-44 0 -69.5 18.5t-35.5 62.5h-2q-43 -81 -137 -81q-80 0 -122.5 55.5t-42.5 142.5q0 111 78 201t186 90q44 0 76.5 -23t41.5 -67h2z
M349 438q-24 0 -38.5 -19t-27.5 -59q-78 -240 -78 -301q0 -42 41 -42q25 0 48 20t34 47q24 57 48 147.5t24 126.5q0 37 -14.5 58.5t-36.5 21.5zM393 520h-20l85 145q20 34 38 46.5t54 12.5q61 0 61 -39q0 -22 -27 -39z" />
    <glyph glyph-name="acircumflex" unicode="&#xe2;" 
d="M421 385l17 62h188l-99 -350q-7 -22 -7 -37q0 -20 18 -20q11 0 23.5 12t45.5 55l15 -11q-30 -41 -49 -61t-51.5 -34.5t-75.5 -14.5q-44 0 -69.5 18.5t-35.5 62.5h-2q-43 -81 -137 -81q-80 0 -122.5 55.5t-42.5 142.5q0 111 78 201t186 90q44 0 76.5 -23t41.5 -67h2z
M349 438q-24 0 -38.5 -19t-27.5 -59q-78 -240 -78 -301q0 -42 41 -42q25 0 48 20t34 47q24 57 48 147.5t24 126.5q0 37 -14.5 58.5t-36.5 21.5zM244 520l155 204h105l66 -204h-25l-106 112l-162 -112h-33z" />
    <glyph glyph-name="atilde" unicode="&#xe3;" 
d="M421 385l17 62h188l-99 -350q-7 -22 -7 -37q0 -20 18 -20q11 0 23.5 12t45.5 55l15 -11q-30 -41 -49 -61t-51.5 -34.5t-75.5 -14.5q-44 0 -69.5 18.5t-35.5 62.5h-2q-43 -81 -137 -81q-80 0 -122.5 55.5t-42.5 142.5q0 111 78 201t186 90q44 0 76.5 -23t41.5 -67h2z
M349 438q-24 0 -38.5 -19t-27.5 -59q-78 -240 -78 -301q0 -42 41 -42q25 0 48 20t34 47q24 57 48 147.5t24 126.5q0 37 -14.5 58.5t-36.5 21.5zM592 696h21q-16 -58 -49 -98t-84 -40q-30 0 -89.5 23t-79.5 23q-43 0 -63 -46h-21q16 56 49 96t84 40q30 0 89.5 -23t79.5 -23
q43 0 63 48z" />
    <glyph glyph-name="adieresis" unicode="&#xe4;" 
d="M421 385l17 62h188l-99 -350q-7 -22 -7 -37q0 -20 18 -20q11 0 23.5 12t45.5 55l15 -11q-30 -41 -49 -61t-51.5 -34.5t-75.5 -14.5q-44 0 -69.5 18.5t-35.5 62.5h-2q-43 -81 -137 -81q-80 0 -122.5 55.5t-42.5 142.5q0 111 78 201t186 90q44 0 76.5 -23t41.5 -67h2z
M349 438q-24 0 -38.5 -19t-27.5 -59q-78 -240 -78 -301q0 -42 41 -42q25 0 48 20t34 47q24 57 48 147.5t24 126.5q0 37 -14.5 58.5t-36.5 21.5zM531 698q35 0 59.5 -25t24.5 -59t-24.5 -59t-59.5 -25t-59.5 25t-24.5 59t24.5 59t59.5 25zM299 698q35 0 59.5 -25t24.5 -59
t-24.5 -59t-59.5 -25t-59.5 25t-24.5 59t24.5 59t59.5 25z" />
    <glyph glyph-name="aring" unicode="&#xe5;" 
d="M421 385l17 62h188l-99 -350q-7 -22 -7 -37q0 -20 18 -20q11 0 23.5 12t45.5 55l15 -11q-30 -41 -49 -61t-51.5 -34.5t-75.5 -14.5q-44 0 -69.5 18.5t-35.5 62.5h-2q-43 -81 -137 -81q-80 0 -122.5 55.5t-42.5 142.5q0 111 78 201t186 90q44 0 76.5 -23t41.5 -67h2z
M349 438q-24 0 -38.5 -19t-27.5 -59q-78 -240 -78 -301q0 -42 41 -42q25 0 48 20t34 47q24 57 48 147.5t24 126.5q0 37 -14.5 58.5t-36.5 21.5zM316 623q0 43 30 73t73 30t73 -30t30 -73t-30 -73t-73 -30t-73 30t-30 73zM353 623q0 -27 19.5 -46.5t46.5 -19.5t46.5 19.5
t19.5 46.5t-19.5 46.5t-46.5 19.5t-46.5 -19.5t-19.5 -46.5z" />
    <glyph glyph-name="ae" unicode="&#xe6;" horiz-adv-x="833" 
d="M525 219l-15 -51q-20 -67 -20 -93q0 -30 24 -47t55 -17q95 0 195 88l13 -14q-58 -53 -116 -76t-136 -23q-114 0 -177 82q-82 -82 -175 -82q-63 0 -111 32.5t-48 92.5q0 32 12 56.5t34.5 39.5t47 25t58.5 14t59 5.5t57 1.5h63q2 5 8 24t8.5 27.5t6.5 24t5.5 28.5t1.5 26
q0 73 -105 73q-56 0 -99 -25v-2q81 0 81 -67q0 -30 -22.5 -47.5t-52.5 -17.5q-32 0 -53.5 18.5t-21.5 47.5t17.5 51.5t45.5 35.5t58.5 19t61.5 6q114 0 189 -47q78 47 170 47q91 0 140.5 -40t49.5 -87q0 -64 -62 -96.5t-214 -32.5h-33zM176 70q0 -20 10 -33.5t30 -13.5
q58 0 121 61q-15 32 -15 66t18 84h-43q-43 0 -60.5 -15t-35.5 -53q-25 -58 -25 -96zM580 407l-49 -169q48 2 72.5 10t35.5 28q16 29 27.5 72.5t11.5 69.5q0 16 -11 27t-28 11q-44 0 -59 -49z" />
    <glyph glyph-name="ccedilla" unicode="&#xe7;" horiz-adv-x="556" 
d="M181 -93l59 81q-92 10 -145.5 65t-53.5 149q0 32 9 66.5t31.5 72t55.5 67t88 48.5t122 19q81 0 132.5 -33t51.5 -85q0 -31 -24 -54.5t-60 -23.5q-35 0 -59.5 22.5t-24.5 57.5q0 31 21 54.5t53 27.5v2q-18 7 -51 7q-48 0 -73 -33.5t-45 -102.5q-56 -198 -58 -218
q-1 -7 -1 -17q0 -31 24 -49.5t72 -18.5q100 0 179 105l16 -9q-36 -58 -92.5 -90t-127.5 -31h-8l-45 -58l2 -2q27 8 45 8q32 0 57.5 -15t25.5 -47q0 -34 -33.5 -58t-100.5 -24q-51 0 -106 20l7 28q40 -17 75 -17q58 0 58 43q0 17 -11 28t-31 11q-11 0 -19 -3z" />
    <glyph glyph-name="egrave" unicode="&#xe8;" horiz-adv-x="556" 
d="M478 99l13 -13q-44 -46 -104 -73t-123 -27q-99 0 -161 48t-62 145q0 130 96.5 213t227.5 83q72 0 128 -32.5t56 -97.5q0 -77 -65.5 -114.5t-150.5 -37.5q-55 0 -95 5l-12 -41q-11 -42 -11 -75q0 -35 21.5 -53t55.5 -18q43 0 96 27t90 61zM293 395l-50 -180q18 -3 41 -3
q42 0 66 49q11 20 27 73t16 72q0 50 -43 50q-40 0 -57 -61zM415 520l-191 126q-27 17 -27 39q0 39 61 39q36 0 54 -12.5t38 -46.5l85 -145h-20z" />
    <glyph glyph-name="eacute" unicode="&#xe9;" horiz-adv-x="556" 
d="M478 99l13 -13q-44 -46 -104 -73t-123 -27q-99 0 -161 48t-62 145q0 130 96.5 213t227.5 83q72 0 128 -32.5t56 -97.5q0 -77 -65.5 -114.5t-150.5 -37.5q-55 0 -95 5l-12 -41q-11 -42 -11 -75q0 -35 21.5 -53t55.5 -18q43 0 96 27t90 61zM293 395l-50 -180q18 -3 41 -3
q42 0 66 49q11 20 27 73t16 72q0 50 -43 50q-40 0 -57 -61zM337 520h-20l85 145q20 34 38 46.5t54 12.5q61 0 61 -39q0 -22 -27 -39z" />
    <glyph glyph-name="ecircumflex" unicode="&#xea;" horiz-adv-x="556" 
d="M478 99l13 -13q-44 -46 -104 -73t-123 -27q-99 0 -161 48t-62 145q0 130 96.5 213t227.5 83q72 0 128 -32.5t56 -97.5q0 -77 -65.5 -114.5t-150.5 -37.5q-55 0 -95 5l-12 -41q-11 -42 -11 -75q0 -35 21.5 -53t55.5 -18q43 0 96 27t90 61zM293 395l-50 -180q18 -3 41 -3
q42 0 66 49q11 20 27 73t16 72q0 50 -43 50q-40 0 -57 -61zM188 520l155 204h105l66 -204h-25l-106 112l-162 -112h-33z" />
    <glyph glyph-name="edieresis" unicode="&#xeb;" horiz-adv-x="556" 
d="M478 99l13 -13q-44 -46 -104 -73t-123 -27q-99 0 -161 48t-62 145q0 130 96.5 213t227.5 83q72 0 128 -32.5t56 -97.5q0 -77 -65.5 -114.5t-150.5 -37.5q-55 0 -95 5l-12 -41q-11 -42 -11 -75q0 -35 21.5 -53t55.5 -18q43 0 96 27t90 61zM293 395l-50 -180q18 -3 41 -3
q42 0 66 49q11 20 27 73t16 72q0 50 -43 50q-40 0 -57 -61zM499 698q35 0 59.5 -25t24.5 -59t-24.5 -59t-59.5 -25t-59.5 25t-24.5 59t24.5 59t59.5 25zM267 698q35 0 59.5 -25t24.5 -59t-24.5 -59t-59.5 -25t-59.5 25t-24.5 59t24.5 59t59.5 25z" />
    <glyph glyph-name="igrave" unicode="&#xec;" horiz-adv-x="389" 
d="M90 431l8 19h70q124 0 182 25l-110 -391q-4 -16 -4 -24q0 -20 14 -20q28 0 69 67l17 -10q-59 -111 -167 -111q-46 0 -76.5 22.5t-30.5 71.5q0 28 25 120l65 231h-62zM332 520l-191 126q-27 17 -27 39q0 39 61 39q36 0 54 -12.5t38 -46.5l85 -145h-20z" />
    <glyph glyph-name="iacute" unicode="&#xed;" horiz-adv-x="389" 
d="M90 431l8 19h70q124 0 182 25l-110 -391q-4 -16 -4 -24q0 -20 14 -20q28 0 69 67l17 -10q-59 -111 -167 -111q-46 0 -76.5 22.5t-30.5 71.5q0 28 25 120l65 231h-62zM254 520h-20l85 145q20 34 38 46.5t54 12.5q61 0 61 -39q0 -22 -27 -39z" />
    <glyph glyph-name="icircumflex" unicode="&#xee;" horiz-adv-x="389" 
d="M90 431l8 19h70q124 0 182 25l-110 -391q-4 -16 -4 -24q0 -20 14 -20q28 0 69 67l17 -10q-59 -111 -167 -111q-46 0 -76.5 22.5t-30.5 71.5q0 28 25 120l65 231h-62zM105 520l155 204h105l66 -204h-25l-106 112l-162 -112h-33z" />
    <glyph glyph-name="idieresis" unicode="&#xef;" horiz-adv-x="389" 
d="M90 431l8 19h70q124 0 182 25l-110 -391q-4 -16 -4 -24q0 -20 14 -20q28 0 69 67l17 -10q-59 -111 -167 -111q-46 0 -76.5 22.5t-30.5 71.5q0 28 25 120l65 231h-62zM416 698q34 0 59 -25t25 -59t-25 -59t-59 -25t-59 25t-25 59t25 59t59 25zM184 698q34 0 59 -25t25 -59
t-25 -59t-59 -25t-59 25t-25 59t25 59t59 25z" />
    <glyph glyph-name="eth" unicode="&#xf0;" horiz-adv-x="610" 
d="M203 53q0 -22 15 -35t37 -13q29 0 45 18.5t32 72.5q81 267 81 298q0 22 -15 35t-37 13q-29 0 -45 -18.5t-32 -72.5q-81 -267 -81 -298zM230 542l-24 29l135 58q-48 53 -109 69l9 20q94 -11 168 -61l121 52l24 -29l-106 -45q145 -110 145 -283q0 -160 -81.5 -263
t-236.5 -103q-106 0 -170 56t-64 160q0 117 77.5 188t210.5 71q58 0 86 -21l2 2q-1 85 -52 158z" />
    <glyph glyph-name="ntilde" unicode="&#xf1;" 
d="M14 0l118 431h-56l8 19h66q123 0 181 25l-40 -159h2q34 65 90 112t120 47q46 0 78 -25t32 -71q0 -45 -44 -170t-44 -144q0 -25 16 -25q17 0 40 25t34 46l16 -9q-25 -54 -70 -85t-104 -31q-49 0 -77.5 26t-28.5 77q0 29 44 160.5t44 141.5q0 24 -22 24q-31 0 -87.5 -79.5
t-79.5 -161.5l-47 -174h-189zM592 696h21q-16 -58 -49 -98t-84 -40q-30 0 -89.5 23t-79.5 23q-43 0 -63 -46h-21q16 56 49 96t84 40q30 0 89.5 -23t79.5 -23q43 0 63 48z" />
    <glyph glyph-name="ograve" unicode="&#xf2;" horiz-adv-x="610" 
d="M254 5q29 0 48.5 23t36.5 79l35 117q43 144 43 179q0 55 -57 54q-37 -1 -61.5 -46t-51.5 -152q-5 -19 -11 -43t-9 -36.5t-7 -28t-6 -23.5l-4.5 -18t-3.5 -15.5t-1.5 -11.5t-1 -10.5t-0.5 -9.5q0 -58 51 -58zM579 259q0 -32 -9 -66.5t-31.5 -72t-56 -67t-88.5 -48.5
t-123 -19q-103 0 -166.5 56t-63.5 160q0 35 10 71t33 72.5t57 65t86 46.5t116 18q107 0 171.5 -56t64.5 -160zM442 520l-191 126q-27 17 -27 39q0 39 61 39q36 0 54 -12.5t38 -46.5l85 -145h-20z" />
    <glyph glyph-name="oacute" unicode="&#xf3;" horiz-adv-x="610" 
d="M254 5q29 0 48.5 23t36.5 79l35 117q43 144 43 179q0 55 -57 54q-37 -1 -61.5 -46t-51.5 -152q-5 -19 -11 -43t-9 -36.5t-7 -28t-6 -23.5l-4.5 -18t-3.5 -15.5t-1.5 -11.5t-1 -10.5t-0.5 -9.5q0 -58 51 -58zM579 259q0 -32 -9 -66.5t-31.5 -72t-56 -67t-88.5 -48.5
t-123 -19q-103 0 -166.5 56t-63.5 160q0 35 10 71t33 72.5t57 65t86 46.5t116 18q107 0 171.5 -56t64.5 -160zM364 520h-20l85 145q20 34 38 46.5t54 12.5q61 0 61 -39q0 -22 -27 -39z" />
    <glyph glyph-name="ocircumflex" unicode="&#xf4;" horiz-adv-x="610" 
d="M254 5q29 0 48.5 23t36.5 79l35 117q43 144 43 179q0 55 -57 54q-37 -1 -61.5 -46t-51.5 -152q-5 -19 -11 -43t-9 -36.5t-7 -28t-6 -23.5l-4.5 -18t-3.5 -15.5t-1.5 -11.5t-1 -10.5t-0.5 -9.5q0 -58 51 -58zM579 259q0 -32 -9 -66.5t-31.5 -72t-56 -67t-88.5 -48.5
t-123 -19q-103 0 -166.5 56t-63.5 160q0 35 10 71t33 72.5t57 65t86 46.5t116 18q107 0 171.5 -56t64.5 -160zM215 520l155 204h105l66 -204h-25l-106 112l-162 -112h-33z" />
    <glyph glyph-name="otilde" unicode="&#xf5;" horiz-adv-x="610" 
d="M254 5q29 0 48.5 23t36.5 79l35 117q43 144 43 179q0 55 -57 54q-37 -1 -61.5 -46t-51.5 -152q-5 -19 -11 -43t-9 -36.5t-7 -28t-6 -23.5l-4.5 -18t-3.5 -15.5t-1.5 -11.5t-1 -10.5t-0.5 -9.5q0 -58 51 -58zM579 259q0 -32 -9 -66.5t-31.5 -72t-56 -67t-88.5 -48.5
t-123 -19q-103 0 -166.5 56t-63.5 160q0 35 10 71t33 72.5t57 65t86 46.5t116 18q107 0 171.5 -56t64.5 -160zM563 696h21q-16 -58 -49 -98t-84 -40q-30 0 -89.5 23t-79.5 23q-43 0 -63 -46h-21q16 56 49 96t84 40q30 0 89.5 -23t79.5 -23q43 0 63 48z" />
    <glyph glyph-name="odieresis" unicode="&#xf6;" horiz-adv-x="610" 
d="M254 5q29 0 48.5 23t36.5 79l35 117q43 144 43 179q0 55 -57 54q-37 -1 -61.5 -46t-51.5 -152q-5 -19 -11 -43t-9 -36.5t-7 -28t-6 -23.5l-4.5 -18t-3.5 -15.5t-1.5 -11.5t-1 -10.5t-0.5 -9.5q0 -58 51 -58zM579 259q0 -32 -9 -66.5t-31.5 -72t-56 -67t-88.5 -48.5
t-123 -19q-103 0 -166.5 56t-63.5 160q0 35 10 71t33 72.5t57 65t86 46.5t116 18q107 0 171.5 -56t64.5 -160zM502 698q34 0 59 -25t25 -59t-25 -59t-59 -25t-59 25t-25 59t25 59t59 25zM270 698q34 0 59 -25t25 -59t-25 -59t-59 -25t-59 25t-25 59t25 59t59 25z" />
    <glyph glyph-name="divide" unicode="&#xf7;" horiz-adv-x="600" 
d="M553 197h-506v112h506v-112zM300 552q38 0 64 -26t26 -64t-26 -64t-64 -26t-64 26t-26 64t26 64t64 26zM300 134q38 0 64 -26t26 -64t-26 -64t-64 -26t-64 26t-26 64t26 64t64 26z" />
    <glyph glyph-name="oslash" unicode="&#xf8;" horiz-adv-x="610" 
d="M396 311l-191 -226q-2 -14 -2 -22q0 -58 51 -58q29 0 48.5 23t36.5 79l35 117l24 87h-2zM220 143l193 230q4 20 4 30q0 55 -57 54q-37 -1 -61.5 -46t-51.5 -152l-29 -116h2zM75 -27l46 56q-80 57 -80 173q0 35 10 71t33 72.5t57 65t86 46.5t116 18q77 0 131 -30l50 59
l21 -18l-47 -55q81 -57 81 -172q0 -32 -9 -66.5t-31.5 -72t-56 -67t-88.5 -48.5t-123 -19q-73 0 -125 28l-50 -59z" />
    <glyph glyph-name="ugrave" unicode="&#xf9;" 
d="M628 450l-74 -260q-30 -106 -30 -125q0 -25 25 -25q14 0 36.5 25t32.5 46l16 -9q-25 -54 -70 -85t-104 -31q-51 0 -78.5 24t-27.5 69v18h-2q-31 -48 -85.5 -79.5t-112.5 -31.5q-46 0 -75.5 28t-29.5 73q0 28 10 63l76 281h-56l8 19h66q123 0 181 25l-81 -285
q-30 -106 -30 -125q0 -25 25 -25q35 0 70.5 47t50.5 100l75 263h184zM471 520l-191 126q-27 17 -27 39q0 39 61 39q36 0 54 -12.5t38 -46.5l85 -145h-20z" />
    <glyph glyph-name="uacute" unicode="&#xfa;" 
d="M628 450l-74 -260q-30 -106 -30 -125q0 -25 25 -25q14 0 36.5 25t32.5 46l16 -9q-25 -54 -70 -85t-104 -31q-51 0 -78.5 24t-27.5 69v18h-2q-31 -48 -85.5 -79.5t-112.5 -31.5q-46 0 -75.5 28t-29.5 73q0 28 10 63l76 281h-56l8 19h66q123 0 181 25l-81 -285
q-30 -106 -30 -125q0 -25 25 -25q35 0 70.5 47t50.5 100l75 263h184zM393 520h-20l85 145q20 34 38 46.5t54 12.5q61 0 61 -39q0 -22 -27 -39z" />
    <glyph glyph-name="ucircumflex" unicode="&#xfb;" 
d="M628 450l-74 -260q-30 -106 -30 -125q0 -25 25 -25q14 0 36.5 25t32.5 46l16 -9q-25 -54 -70 -85t-104 -31q-51 0 -78.5 24t-27.5 69v18h-2q-31 -48 -85.5 -79.5t-112.5 -31.5q-46 0 -75.5 28t-29.5 73q0 28 10 63l76 281h-56l8 19h66q123 0 181 25l-81 -285
q-30 -106 -30 -125q0 -25 25 -25q35 0 70.5 47t50.5 100l75 263h184zM244 520l155 204h105l66 -204h-25l-106 112l-162 -112h-33z" />
    <glyph glyph-name="udieresis" unicode="&#xfc;" 
d="M628 450l-74 -260q-30 -106 -30 -125q0 -25 25 -25q14 0 36.5 25t32.5 46l16 -9q-25 -54 -70 -85t-104 -31q-51 0 -78.5 24t-27.5 69v18h-2q-31 -48 -85.5 -79.5t-112.5 -31.5q-46 0 -75.5 28t-29.5 73q0 28 10 63l76 281h-56l8 19h66q123 0 181 25l-81 -285
q-30 -106 -30 -125q0 -25 25 -25q35 0 70.5 47t50.5 100l75 263h184zM531 698q35 0 59.5 -25t24.5 -59t-24.5 -59t-59.5 -25t-59.5 25t-24.5 59t24.5 59t59.5 25zM299 698q35 0 59.5 -25t24.5 -59t-24.5 -59t-59.5 -25t-59.5 25t-24.5 59t24.5 59t59.5 25z" />
    <glyph glyph-name="yacute" unicode="&#xfd;" horiz-adv-x="611" 
d="M44 298l-18 6q26 67 77 119t111 52q42 0 65.5 -25t37.5 -90l47 -206h2l85 211q23 56 47.5 83t58.5 27t56.5 -21.5t22.5 -59.5t-23 -59.5t-56 -21.5q-28 0 -50.5 16t-31.5 42h-2l-147 -361q-61 -150 -119 -203.5t-128 -53.5q-37 0 -60.5 23.5t-23.5 57.5q0 38 23 60.5
t56 22.5t55 -19.5t22 -56.5q0 -41 -30 -60v-2q79 17 130 118l-115 442q-5 18 -8 26t-8 14t-12 6q-20 0 -64 -87zM365 520h-20l85 145q20 34 38 46.5t54 12.5q61 0 61 -39q0 -22 -27 -39z" />
    <glyph glyph-name="thorn" unicode="&#xfe;" 
d="M147 685l8 19h87q123 0 171 31l-97 -357h2q66 97 161 97q75 0 116 -50t41 -127q0 -115 -80 -210.5t-196 -95.5q-96 0 -122 82h-2l-81 -290h61l-8 -19h-306l8 19h58l248 901h-69zM253 102q0 -25 16 -49t41 -24q34 0 52.5 29t38.5 103q61 218 61 240q0 37 -38 37
q-24 0 -51 -25.5t-47 -60.5q-23 -40 -48 -125.5t-25 -124.5z" />
    <glyph glyph-name="ydieresis" unicode="&#xff;" horiz-adv-x="611" 
d="M44 298l-18 6q26 67 77 119t111 52q42 0 65.5 -25t37.5 -90l47 -206h2l85 211q23 56 47.5 83t58.5 27t56.5 -21.5t22.5 -59.5t-23 -59.5t-56 -21.5q-28 0 -50.5 16t-31.5 42h-2l-147 -361q-61 -150 -119 -203.5t-128 -53.5q-37 0 -60.5 23.5t-23.5 57.5q0 38 23 60.5
t56 22.5t55 -19.5t22 -56.5q0 -41 -30 -60v-2q79 17 130 118l-115 442q-5 18 -8 26t-8 14t-12 6q-20 0 -64 -87zM527 698q35 0 59.5 -25t24.5 -59t-24.5 -59t-59.5 -25t-59.5 25t-24.5 59t24.5 59t59.5 25zM295 698q35 0 59.5 -25t24.5 -59t-24.5 -59t-59.5 -25t-59.5 25
t-24.5 59t24.5 59t59.5 25z" />
    <glyph glyph-name="dotlessi" unicode="&#x131;" horiz-adv-x="389" 
d="M90 431l8 19h70q124 0 182 25l-110 -391q-4 -16 -4 -24q0 -20 14 -20q28 0 69 67l17 -10q-59 -111 -167 -111q-46 0 -76.5 22.5t-30.5 71.5q0 28 25 120l65 231h-62z" />
    <glyph glyph-name="Lslash" unicode="&#x141;" horiz-adv-x="722" 
d="M43 19l74 267l-84 -43l14 53l85 44l95 345h-65l5 19h338l-5 -19h-67l-60 -221l163 84l-14 -53l-164 -84l-108 -392h81q104 0 190.5 54.5t127.5 149.5h22l-67 -223h-627l5 19h61z" />
    <glyph glyph-name="lslash" unicode="&#x142;" horiz-adv-x="389" 
d="M154 685l8 19h87q123 0 171 31l-73 -265l89 38l-12 -43l-89 -38l-95 -343q-4 -16 -4 -24q0 -20 14 -20q22 0 74 71l15 -14q-74 -111 -177 -111q-100 0 -100 87q0 29 18 95l47 171l-78 -33l12 43l78 33l84 303h-69z" />
    <glyph glyph-name="OE" unicode="&#x152;" horiz-adv-x="1000" 
d="M677 356l-96 -337h69q88 0 156.5 55.5t108.5 145.5h21l-64 -220h-424q-21 0 -73 -4t-83 -4q-115 0 -175 67.5t-60 196.5q0 119 47.5 222t140.5 168.5t213 65.5q26 0 78 -4t88 -4h421l-62 -227h-22q3 45 3 54q0 82 -34 118t-106 36h-53l-88 -310h21q70 0 105 22t64 85h21
l-74 -257h-21q2 22 2 41q0 49 -20.5 69.5t-82.5 20.5h-21zM243 120q0 -50 22.5 -79.5t63.5 -29.5q26 0 46 18.5t29 50.5l143 503q13 42 13 64q0 21 -18 33.5t-44 12.5q-83 0 -137 -117q-53 -116 -85.5 -246.5t-32.5 -209.5z" />
    <glyph glyph-name="oe" unicode="&#x153;" horiz-adv-x="889" 
d="M625 400l-53 -185q5 0 14 -1t16.5 -1.5t14.5 -0.5q30 0 50.5 19t36.5 65q31 93 30 118q-2 42 -47 42q-46 0 -62 -56zM812 100l11 -16q-36 -40 -101.5 -69t-131.5 -29q-28 0 -72 12t-71 34q-87 -46 -176 -46q-103 0 -166.5 56t-63.5 160q0 35 10 71t33 72.5t57 65t86 46.5
t116 18q109 0 172 -59q90 59 178 59q76 0 136.5 -33.5t60.5 -100.5q0 -51 -35 -86t-81 -48.5t-97 -13.5q-40 0 -110 5q-9 -17 -19 -57t-10 -59q0 -35 25 -53t66 -18q35 0 88.5 25t94.5 64zM203 63q0 -58 58 -58q30 0 51.5 23t38.5 79l14 48q61 202 61 240q0 24 -15 43.5
t-47 18.5q-39 -1 -63 -43.5t-49 -135.5q-49 -183 -49 -215z" />
    <glyph glyph-name="Scaron" unicode="&#x160;" 
d="M5 9l66 237h22q-3 -10 -3 -32q0 -87 55 -145t141 -58q61 0 113.5 35t52.5 96q0 35 -17.5 61t-45.5 42.5t-62 31.5t-68 32.5t-62 40t-45.5 59.5t-17.5 85q0 72 41 124.5t102 76t132 23.5q60 0 119.5 -17.5t80.5 -17.5q43 0 58 38h22l-66 -230h-19q0 202 -173 202
q-52 0 -93.5 -31t-41.5 -81q0 -30 17 -53t44 -37.5t59.5 -28.5t65 -31t59.5 -39t44 -59t17 -85q0 -85 -49.5 -146t-121 -88.5t-152.5 -27.5q-52 0 -127 25t-87 25q-29 0 -38 -27h-22zM664 953l-155 -204h-105l-66 204h25l106 -111l162 111h33z" />
    <glyph glyph-name="scaron" unicode="&#x161;" horiz-adv-x="500" 
d="M8 104q0 30 20 50.5t50 20.5t49 -19t19 -47q0 -27 -18 -46.5t-43 -19.5q-13 0 -20 2l-2 -2q15 -15 46.5 -26.5t69.5 -11.5q41 0 68 15t27 42q0 25 -30 54t-66 53t-66 62.5t-30 80.5q0 70 61.5 117.5t171.5 45.5q166 -3 166 -107q0 -30 -18.5 -47.5t-49.5 -17.5
q-29 0 -46.5 17.5t-17.5 49.5q0 25 16 42t39 17q12 0 17 -1v2q-33 26 -77 26t-69 -22.5t-25 -56.5q0 -26 19 -49t46.5 -40.5t55 -36.5t46.5 -47t19 -62q0 -76 -67 -116t-166 -40q-92 0 -143.5 34t-51.5 84zM531 724l-155 -204h-105l-66 204h25l106 -111l162 111h33z" />
    <glyph glyph-name="Ydieresis" unicode="&#x178;" horiz-adv-x="722" 
d="M121 0l5 19h64l74 261l-72 405h-61l5 19h326l-5 -19h-62l66 -367l152 225q26 38 26 76q0 29 -18 47.5t-46 18.5l5 19h240l-5 -19q-49 0 -82.5 -28t-73.5 -88l-183 -270l-79 -280h65l-6 -19h-335zM631 910q35 0 59.5 -25t24.5 -59t-24.5 -59t-59.5 -25t-59.5 25t-24.5 59
t24.5 59t59.5 25zM399 910q35 0 59.5 -25t24.5 -59t-24.5 -59t-59.5 -25t-59.5 25t-24.5 59t24.5 59t59.5 25z" />
    <glyph glyph-name="Zcaron" unicode="&#x17d;" horiz-adv-x="778" 
d="M126 486l71 218h574l-482 -685h58q227 0 343 199h23l-71 -218h-612l481 685h-37q-114 0 -190.5 -48.5t-131.5 -150.5h-26zM680 943l-155 -204h-105l-66 204h25l106 -111l162 111h33z" />
    <glyph glyph-name="zcaron" unicode="&#x17e;" horiz-adv-x="611" 
d="M69 253l74 222q61 -15 182.5 -32.5t163.5 -17.5q50 0 83 50l14 -10q-36 -55 -94.5 -103t-112.5 -78t-122.5 -71.5t-112.5 -78.5l2 -2q94 34 150 34q58 0 119.5 -27t81.5 -27t32 10t12 26v11h-2q-8 -13 -37 -13q-22 0 -36 13.5t-14 36.5q0 22 13.5 36t34.5 14
q29 0 44.5 -22.5t15.5 -48.5q0 -77 -57.5 -133t-142.5 -56q-56 0 -113.5 17t-102.5 34t-70 17q-12 0 -20.5 -5.5t-8.5 -13.5q0 -3 2.5 -10.5t2.5 -11.5q0 -8 -6.5 -14.5t-15.5 -6.5q-20 0 -20 24q0 8 10.5 22t21 24.5t26 25.5t16.5 16q48 46 113.5 89t148 91t127.5 79l-2 2
q-154 -61 -254 -61q-44 0 -107 7l-20 -58h-19zM587 724l-155 -204h-105l-66 204h25l106 -111l162 111h33z" />
    <glyph glyph-name="florin" unicode="&#x192;" horiz-adv-x="612" 
d="M98 304l5 31h114q7 54 33.5 115.5t67 117.5t99 93t121.5 37q61 0 91 -23.5t30 -51.5q0 -35 -20.5 -53.5t-51.5 -18.5q-30 0 -48 15.5t-18 42.5q0 21 15.5 37t15.5 21q0 12 -18 12q-59 0 -92 -165q-21 -107 -38 -179h113l-5 -31h-113l-23 -90q-64 -250 -141 -355.5
t-186 -105.5q-43 0 -69.5 23.5t-26.5 60.5q0 23 20 43.5t52 20.5q28 0 47 -15t19 -43q0 -17 -12 -33.5t-12 -20.5q0 -11 14 -11q39 0 58 87q11 54 35 224.5t36 214.5h-112z" />
    <glyph glyph-name="circumflex" unicode="&#x2c6;" horiz-adv-x="278" 
d="M49 520l155 204h105l66 -204h-25l-106 112l-162 -112h-33z" />
    <glyph glyph-name="caron" unicode="&#x2c7;" horiz-adv-x="278" 
d="M420 724l-155 -204h-105l-66 204h25l106 -111l162 111h33z" />
    <glyph glyph-name="uni02C9" unicode="&#x2c9;" horiz-adv-x="278" 
d="M34 561l16 72h362l-15 -72h-363z" />
    <glyph glyph-name="breve" unicode="&#x2d8;" horiz-adv-x="278" 
d="M397 704h19q-21 -187 -187 -187q-61 0 -98 37.5t-37 99.5q0 16 2 50h17q0 -46 35 -71.5t86 -25.5q129 0 163 97z" />
    <glyph glyph-name="dotaccent" unicode="&#x2d9;" horiz-adv-x="278" 
d="M216 698q34 0 59 -25t25 -59t-25 -59t-59 -25t-59 25t-25 59t25 59t59 25z" />
    <glyph glyph-name="ring" unicode="&#x2da;" horiz-adv-x="278" 
d="M121 615q0 43 30 73t73 30t73 -30t30 -73t-30 -73t-73 -30t-73 30t-30 73zM158 615q0 -27 19.5 -46.5t46.5 -19.5t46.5 19.5t19.5 46.5t-19.5 46.5t-46.5 19.5t-46.5 -19.5t-19.5 -46.5z" />
    <glyph glyph-name="ogonek" unicode="&#x2db;" horiz-adv-x="278" 
d="M186 0h36q-80 -55 -80 -110q0 -20 11.5 -33t32.5 -13q23 0 43 18l16 -14q-58 -58 -125 -58q-33 0 -55.5 21t-22.5 54q0 51 54 90.5t90 44.5z" />
    <glyph glyph-name="tilde" unicode="&#x2dc;" horiz-adv-x="278" 
d="M397 696h21q-16 -58 -49 -98t-84 -40q-30 0 -89.5 23t-79.5 23q-43 0 -63 -46h-21q16 56 49 96t84 40q30 0 89.5 -23t79.5 -23q43 0 63 48z" />
    <glyph glyph-name="hungarumlaut" unicode="&#x2dd;" horiz-adv-x="278" 
d="M98 520h-20l85 145q20 34 38 46.5t54 12.5q61 0 61 -39q0 -22 -27 -39zM298 520h-20l85 145q20 34 38 46.5t54 12.5q61 0 61 -39q0 -22 -27 -39z" />
    <glyph glyph-name="uni03A9" unicode="&#x3a9;" horiz-adv-x="800" 
d="M753 164l-64 -164h-272l-4 23q6 8 33 43t41 54t38.5 56t39 64.5t29.5 64.5t22 71q30 143 -6.5 210t-117.5 67q-181 0 -240 -282q-8 -38 -8 -80.5t3.5 -71t16.5 -74.5t18 -60.5t22 -60.5l-14 -24h-272l8 164l32 1q8 -46 21.5 -60t48.5 -14h105q-15 12 -25 21.5t-24.5 24.5
t-24.5 29t-22 32t-18 37.5t-11 42t-4 48t7 53.5q30 140 140 225.5t252 85.5q144 0 215.5 -82t41.5 -221q-10 -48 -35.5 -91.5t-65.5 -82t-72 -64t-79 -58.5h115q34 0 52 13.5t45 60.5z" />
    <glyph glyph-name="uni03BC" unicode="&#x3bc;" 
d="M628 450l-74 -260q-30 -106 -30 -125q0 -25 25 -25q14 0 36.5 25t32.5 46l16 -9q-25 -54 -70 -85t-104 -31q-51 0 -78.5 24t-27.5 69v18l-2 2q-34 -48 -81 -80.5t-79 -32.5q-24 0 -34 9q-12 -105 -27 -156t-37 -68.5t-63 -17.5q-36 0 -54.5 17.5t-18.5 43.5q0 22 14 66
t41 121.5t46 148.5l76 281h-56l8 19h66q123 0 181 25l-81 -285q-30 -106 -30 -125q0 -25 25 -25q35 0 70.5 47t50.5 100l75 263h184z" />
    <glyph glyph-name="pi" unicode="&#x3c0;" horiz-adv-x="624" 
d="M624 482l27 -9q-11 -31 -31 -65t-34 -48q-22 -6 -71 -6q-20 -64 -48 -206q-18 -87 26 -87q23 0 53 24l8 -27q-27 -32 -65.5 -51t-72.5 -19q-106 0 -78 132q19 88 61 236q-124 2 -147 2l-2 -13q-22 -103 -54.5 -183.5t-52.5 -111.5t-35 -45q-45 -16 -73 -17l-4 21
q65 65 110.5 164.5t63.5 186.5q-45 1 -75 -8.5t-70 -33.5l-11 29l13.5 13.5l15 15t15 14t17 14t18 12.5t21 12t22.5 9t26.5 8t28.5 4t33 2q246 -3 294 -3q25 0 39.5 7t31.5 27z" />
    <glyph glyph-name="endash" unicode="&#x2013;" horiz-adv-x="500" 
d="M-10 203l20 100h500l-20 -100h-500z" />
    <glyph glyph-name="emdash" unicode="&#x2014;" horiz-adv-x="1000" 
d="M-10 203l20 100h1000l-20 -100h-1000z" />
    <glyph glyph-name="quoteleft" unicode="&#x2018;" horiz-adv-x="333" 
d="M306 718l7 -15q-107 -58 -129 -143q18 2 27 2q40 0 65 -25t25 -65q0 -38 -26.5 -64t-63.5 -26q-39 0 -64.5 26.5t-25.5 71.5q0 64 46.5 128t138.5 110z" />
    <glyph glyph-name="quoteright" unicode="&#x2019;" horiz-adv-x="333" 
d="M154 382l-7 15q107 58 129 143q-18 -2 -27 -2q-40 0 -65 25t-25 65q0 38 26.5 64t63.5 26q39 0 64.5 -26.5t25.5 -71.5q0 -64 -46.5 -128t-138.5 -110z" />
    <glyph glyph-name="quotesinglbase" unicode="&#x201a;" horiz-adv-x="333" 
d="M27 -164l-7 15q107 58 129 143q-18 -2 -27 -2q-40 0 -65 25t-25 65q0 38 26 64t64 26q39 0 64.5 -26.5t25.5 -71.5q0 -64 -46.5 -128t-138.5 -110z" />
    <glyph glyph-name="quotedblleft" unicode="&#x201c;" horiz-adv-x="556" 
d="M529 718l7 -15q-107 -58 -129 -143q18 2 27 2q40 0 65 -25t25 -65q0 -38 -26 -64t-64 -26q-39 0 -64.5 26.5t-25.5 71.5q0 64 46.5 128t138.5 110zM306 718l7 -15q-107 -58 -129 -143q18 2 27 2q40 0 65 -25t25 -65q0 -38 -26.5 -64t-63.5 -26q-39 0 -64.5 26.5
t-25.5 71.5q0 64 46.5 128t138.5 110z" />
    <glyph glyph-name="quotedblright" unicode="&#x201d;" horiz-adv-x="556" 
d="M154 382l-7 15q107 58 129 143q-18 -2 -27 -2q-40 0 -65 25t-25 65q0 38 26.5 64t63.5 26q39 0 64.5 -26.5t25.5 -71.5q0 -64 -46.5 -128t-138.5 -110zM377 382l-7 15q107 58 129 143q-18 -2 -27 -2q-40 0 -65 25t-25 65q0 38 26 64t64 26q39 0 64.5 -26.5t25.5 -71.5
q0 -64 -46.5 -128t-138.5 -110z" />
    <glyph glyph-name="quotedblbase" unicode="&#x201e;" horiz-adv-x="556" 
d="M27 -164l-7 15q107 58 129 143q-18 -2 -27 -2q-40 0 -65 25t-25 65q0 38 26 64t64 26q39 0 64.5 -26.5t25.5 -71.5q0 -64 -46.5 -128t-138.5 -110zM250 -164l-7 15q107 58 129 143q-18 -2 -27 -2q-40 0 -65 25t-25 65q0 38 26.5 64t63.5 26q39 0 64.5 -26.5t25.5 -71.5
q0 -64 -46.5 -128t-138.5 -110z" />
    <glyph glyph-name="dagger" unicode="&#x2020;" horiz-adv-x="612" 
d="M158 -247q-12 0 -32 70q-20 -5 -42 -5q-25 0 -25 16q0 8 18 34q79 106 147.5 243t99.5 254q-39 -3 -79.5 -20t-66 -35.5t-46.5 -34t-27 -15.5q-13 0 -13 15q0 19 18 59q-33 17 -43 27t-10 20q0 13 16.5 21t62.5 17q4 69 27 69q9 0 21 -13t26 -29t45.5 -33t74.5 -23
q13 45 13 78q0 49 -12.5 86.5t-25 58t-12.5 27.5q0 14 24 14q19 0 47 -5q1 1 6 9.5t8.5 14t9 14.5t10.5 15t11 12.5t11 9.5t10 3t10 -6.5t9 -17.5t6.5 -20.5t5 -20.5t3.5 -13q33 7 44 7q23 0 23 -15q0 -8 -19 -27t-45.5 -44t-59 -74t-53.5 -106q42 1 82 17t63.5 34.5
t43 33.5t25.5 15t10.5 -5t4.5 -12q0 -17 -13 -51q31 -17 42.5 -26t11.5 -20q0 -12 -17 -21.5t-66 -23.5q-13 -72 -26 -72q-5 0 -20.5 16.5t-34 36.5t-49 36.5t-62.5 16.5q-24 -76 -38.5 -185.5t-14.5 -187.5q0 -54 3 -90.5t5.5 -52t2.5 -16.5q0 -15 -23 -15t-50 6
q-51 -71 -76 -71z" />
    <glyph glyph-name="daggerdbl" unicode="&#x2021;" horiz-adv-x="612" 
d="M250 156q0 47 -23 84q78 46 109 169q-100 0 -199 -85q-15 -13 -24 -13q-11 0 -11 12q0 16 16 57q-51 24 -51 40q0 22 77 36q6 63 24 63q8 0 20 -13q21 -23 37.5 -37.5t48 -27.5t68.5 -13q7 33 7 56q0 30 -12 67t-24 62t-12 27q0 14 21 14q8 0 23.5 -2t22.5 -2
q11 20 31.5 48.5t30.5 28.5q4 0 8.5 -6.5t8 -17t6.5 -20.5t5.5 -20t3.5 -12q8 1 26.5 4.5t25.5 3.5q10 0 10 -14q0 -5 -4.5 -10.5t-12.5 -12t-9 -7.5q-106 -106 -130 -187h12q38 0 82 21.5t61.5 36t28.5 25.5q10 10 19 10q14 0 14 -14t-12 -52q51 -23 51 -40q0 -21 -80 -41
q-3 -29 -7 -44t-7.5 -18.5t-9.5 -3.5q-11 0 -29 23q-62 78 -131 78q-10 -48 -10 -85q0 -46 22 -84q-77 -46 -108 -169q100 0 199 85q15 13 24 13q11 0 11 -12q0 -16 -16 -57q51 -24 51 -40q0 -22 -77 -36q-6 -63 -24 -63q-8 0 -20 13q-21 23 -37.5 37.5t-48 27.5t-68.5 13
q-7 -33 -7 -56q0 -30 12 -67t24 -62t12 -27q0 -14 -21 -14q-8 0 -23.5 2t-22.5 2q-11 -20 -31.5 -48.5t-30.5 -28.5q-4 0 -8.5 6.5t-8 17t-6.5 20.5t-5.5 20t-3.5 12q-8 -1 -26.5 -4.5t-25.5 -3.5q-10 0 -10 14q0 5 4.5 10.5t12.5 12t9 7.5q106 106 130 187h-12
q-38 0 -82 -21.5t-61.5 -36t-28.5 -25.5q-10 -10 -19 -10q-12 0 -12 14q0 20 10 52q-51 23 -51 40q0 21 80 41q3 29 7 44t7.5 18.5t9.5 3.5q11 0 29 -23q62 -78 131 -78q10 48 10 85z" />
    <glyph glyph-name="bullet" unicode="&#x2022;" horiz-adv-x="500" 
d="M92 352q0 73 51.5 124.5t124.5 51.5t124.5 -51.5t51.5 -124.5t-51.5 -124.5t-124.5 -51.5t-124.5 51.5t-51.5 124.5z" />
    <glyph glyph-name="ellipsis" unicode="&#x2026;" horiz-adv-x="1000" 
d="M30 82q0 38 26 64t64 26t64 -26t26 -64t-26 -64t-64 -26t-64 26t-26 64zM363 82q0 38 26.5 64t63.5 26t63.5 -26t26.5 -64t-26.5 -64t-63.5 -26t-63.5 26t-26.5 64zM696 82q0 38 26 64t64 26t64 -26t26 -64t-26 -64t-64 -26t-64 26t-26 64z" />
    <glyph glyph-name="perthousand" unicode="&#x2030;" horiz-adv-x="1000" 
d="M522 296q-17 0 -26 -10t-17 -38q-54 -194 -54 -209q0 -28 30 -28q28 0 39 36q9 28 33 119t24 102q0 28 -29 28zM335 117q0 81 54.5 139.5t128.5 58.5q58 0 90.5 -37.5t32.5 -86.5q0 -82 -54.5 -140.5t-128.5 -58.5q-58 0 -90.5 37.5t-32.5 87.5zM66 499q0 82 54.5 140.5
t128.5 58.5q58 0 90.5 -37.5t32.5 -87.5q0 -81 -54.5 -139.5t-128.5 -58.5q-58 0 -90.5 37.5t-32.5 86.5zM156 422q0 -28 30 -28q28 0 39 36q9 28 33 119t24 102q0 28 -29 28q-17 0 -26 -10t-17 -38q-54 -194 -54 -209zM674 117q0 81 54.5 139.5t128.5 58.5q58 0 90.5 -37.5
t32.5 -86.5q0 -82 -54.5 -140.5t-128.5 -58.5q-58 0 -90.5 37.5t-32.5 87.5zM764 39q0 -28 30 -28q28 0 39 36q9 28 33 119t24 102q0 28 -29 28q-17 0 -26 -10t-17 -38q-54 -194 -54 -209zM107 -23l447 734h48l-451 -734h-44z" />
    <glyph glyph-name="guilsinglleft" unicode="&#x2039;" horiz-adv-x="333" 
d="M68 272l125 134h111l-134 -139l74 -167h-95z" />
    <glyph glyph-name="guilsinglright" unicode="&#x203a;" horiz-adv-x="333" 
d="M184 406l81 -172l-125 -134h-111l134 139l-74 167h95z" />
    <glyph glyph-name="fraction" unicode="&#x2044;" horiz-adv-x="167" 
d="M-136 -22l447 734h48l-451 -734h-44z" />
    <glyph glyph-name="Euro" unicode="&#x20ac;" horiz-adv-x="612" 
d="M634 550h-24q3 51 -27 76t-86 25q-83 0 -135.5 -60t-87.5 -174h273l-29 -45h-256q0 -2 -3 -13.5t-4 -17.5q-5 -22 -6 -31h228l-29 -44h-206q-16 -110 16.5 -169t109.5 -59q51 0 93 24.5t62 76.5h24l-26 -90q-65 -56 -193 -56q-251 0 -222 273h-74l29 44h48q1 11 6 33
q2 17 7 29h-68l29 45h52q47 138 128 209.5t215 71.5q127 0 169 -54z" />
    <glyph glyph-name="afii61289" unicode="&#x2113;" horiz-adv-x="466" 
d="M409 144l19 -22q-101 -129 -222 -129q-79 0 -109 41q-16 23 -18.5 52t10.5 99l13 63l-72 -42l-7 31l88 54l28 132q24 113 47 166t65 91q60 60 126 60q54 0 73 -40t7 -99q-18 -81 -72 -147.5t-152 -139.5l-17 -79q-18 -95 -4.5 -132.5t61.5 -37.5q63 0 136 79zM269 481
l-24 -113q114 105 140 231q10 41 5 72.5t-28 31.5q-28 0 -47 -47t-46 -175z" />
    <glyph glyph-name="trademark" unicode="&#x2122;" horiz-adv-x="1000" 
d="M176 300v19h53v366h-45q-27 0 -45.5 -21t-18.5 -48h-25v88h379v-88h-25q0 27 -18 48t-46 21h-44v-366h52v-19h-217zM837 300v19h52v259h-2l-143 -277h-16l-131 277h-2v-259h52v-19h-135v19h52v366h-52v19h136l131 -270l141 270h133v-19h-52v-366h51v-19h-215z" />
    <glyph glyph-name="Omega" unicode="&#x2126;" horiz-adv-x="800" 
d="M753 164l-64 -164h-272l-4 23q6 8 33 43t41 54t38.5 56t39 64.5t29.5 64.5t22 71q30 143 -6.5 210t-117.5 67q-181 0 -240 -282q-8 -38 -8 -80.5t3.5 -71t16.5 -74.5t18 -60.5t22 -60.5l-14 -24h-272l8 164l32 1q8 -46 21.5 -60t48.5 -14h105q-15 12 -25 21.5t-24.5 24.5
t-24.5 29t-22 32t-18 37.5t-11 42t-4 48t7 53.5q30 140 140 225.5t252 85.5q144 0 215.5 -82t41.5 -221q-10 -48 -35.5 -91.5t-65.5 -82t-72 -64t-79 -58.5h115q34 0 52 13.5t45 60.5z" />
    <glyph glyph-name="estimated" unicode="&#x212e;" horiz-adv-x="952" 
d="M919 335h-634q-5 0 -5 -5v-191q0 -12 8 -22q100 -105 240 -105q151 0 252 117h56q-53 -63 -134.5 -99.5t-174.5 -36.5q-162 0 -276.5 103t-114.5 248q0 146 114.5 249t276.5 103q163 0 277.5 -103t114.5 -249v-9zM775 360v193q0 13 -9 22q-103 101 -238 101
q-137 0 -239 -104q-9 -9 -9 -24v-188q0 -7 5 -7h486q4 0 4 7z" />
    <glyph glyph-name="partialdiff" unicode="&#x2202;" horiz-adv-x="587" 
d="M332 438h1q39 0 73 -17t49 -49q21 56 34 108q22 92 5 153q-10 33 -37.5 55t-66.5 22q-72 0 -170 -70q-16 -1 -26.5 31t2.5 53q82 41 166 41q151 0 203 -142q35 -93 8 -231q-31 -146 -107 -247q-110 -151 -264 -151q-92 0 -136 55t-25 148q21 99 101 168q83 73 190 73z
M354 390h-1q-65 0 -116 -57q-61 -71 -85 -189q-11 -51 4.5 -82t56.5 -31q62 0 130 101q51 75 93 193q-6 24 -28 44.5t-54 20.5z" />
    <glyph glyph-name="Delta" unicode="&#x2206;" horiz-adv-x="698" 
d="M614 0h-621l7 34l413 642l60 14l148 -656zM474 59l-101 476l-299 -476h400z" />
    <glyph glyph-name="product" unicode="&#x220f;" horiz-adv-x="861" 
d="M832 689v-32q-68 -5 -82.5 -18.5t-14.5 -66.5v-529q0 -58 15 -73t81 -20v-33h-306v33q60 5 72.5 18.5t12.5 74.5v570q0 23 -7 29t-32 6h-183q-23 0 -29 -5.5t-6 -26.5v-573q0 -60 10.5 -74t65.5 -19v-33h-297v33q64 5 79.5 20t15.5 73v529q0 54 -15.5 67.5t-83.5 17.5v32
h704z" />
    <glyph glyph-name="summation" unicode="&#x2211;" horiz-adv-x="707" 
d="M683 127l-50 -216h-504v32l232 323l-226 391v32h497q0 -7 2.5 -35.5t5.5 -70.5t5 -72l-33 -8q-17 74 -40 110q-13 22 -33.5 29.5t-76.5 7.5h-175l180 -306l-235 -332h263q72 0 95 18t59 106z" />
    <glyph glyph-name="minus" unicode="&#x2212;" horiz-adv-x="600" 
d="M553 197h-506v112h506v-112z" />
    <glyph glyph-name="uni2215" unicode="&#x2215;" horiz-adv-x="167" 
d="M-136 -22l447 734h48l-451 -734h-44z" />
    <glyph glyph-name="uni2219" unicode="&#x2219;" horiz-adv-x="306" 
d="M75 276q0 38 26.5 64t63.5 26t63.5 -26t26.5 -64t-26.5 -64t-63.5 -26t-63.5 26t-26.5 64z" />
    <glyph glyph-name="radical" unicode="&#x221a;" horiz-adv-x="692" 
d="M682 867l-182 -1019l-29 -14l-227 539l-92 -44l-14 40l187 86l163 -405h2l143 827z" />
    <glyph glyph-name="infinity" unicode="&#x221e;" horiz-adv-x="834" 
d="M786 282v-1q0 -78 -48.5 -126t-114.5 -48q-93 0 -181 114q-46 -56 -88 -85t-97 -29q-65 0 -112.5 47.5t-47.5 121.5q0 75 48 123.5t120 48.5q94 0 182 -112q52 60 81 80q47 32 101 32q67 -1 112 -46.5t45 -119.5zM265 177h2q26 0 53.5 17t43 33t40.5 46q-28 38 -42 54.5
t-42 34t-58 17.5q-41 0 -66.5 -29t-25.5 -75q-1 -40 26.5 -69t68.5 -29zM622 379h-1q-15 0 -30 -5.5t-25 -11t-25.5 -20t-20.5 -20t-20.5 -24t-16.5 -19.5q47 -58 77 -80t66 -22q39 0 63 30.5t24 67.5q0 46 -25 75t-66 29z" />
    <glyph glyph-name="integral" unicode="&#x222b;" horiz-adv-x="517" 
d="M272 -3l-21 395q-5 104 3.5 184t26 127t43.5 76.5t51 39.5t53 10q27 0 50 -14.5t24 -40.5q0 -27 -16.5 -41.5t-39.5 -14.5q-13 0 -22 9.5t-13 21t-10 21t-13 9.5q-41 0 -32 -156l19 -372q6 -126 -6 -218.5t-39 -143.5t-61 -74.5t-75 -23.5q-31 0 -52 17t-22 41t20 42
t46 18q18 0 31 -33.5t23 -33.5q42 0 32 155z" />
    <glyph glyph-name="approxequal" unicode="&#x2248;" horiz-adv-x="622" 
d="M535 446l48 -46q-60 -101 -143 -101q-47 0 -116 40q-56 33 -89 33q-31 0 -53 -18.5t-48 -53.5l-48 45q24 44 65.5 72.5t88.5 28.5q8 0 15.5 -0.5t15 -2.5t13 -3t13 -4t11.5 -4.5t11.5 -6t10 -5.5t10.5 -5.5t9 -5.5q53 -30 74 -34q8 -1 16 -1q48 0 96 72zM535 259l48 -46
q-61 -101 -144 -101q-46 0 -115 40q-57 33 -89 33t-53.5 -18t-47.5 -54l-48 45q24 44 66 72.5t88 28.5q9 0 18 -1t15.5 -2.5t15 -4.5t13.5 -4.5t13 -5.5t11 -6t11.5 -6.5t10.5 -5.5q4 -2 14.5 -8.5t15 -9t13.5 -7t15.5 -6.5t15 -3.5t16.5 -1.5q29 0 50.5 17t46.5 55z" />
    <glyph glyph-name="notequal" unicode="&#x2260;" horiz-adv-x="640" 
d="M488 505l-39 -88h142v-74h-173l-60 -134h233v-74h-264l-52 -116l-59 26l41 90h-140v74h170l60 134h-230v74h260l52 114z" />
    <glyph glyph-name="lessequal" unicode="&#x2264;" horiz-adv-x="660" 
d="M609 103l-467 222v79l466 221v-85l-389 -174v-2l390 -176v-85zM612 -9h-474v76h474v-76z" />
    <glyph glyph-name="greaterequal" unicode="&#x2265;" horiz-adv-x="659" 
d="M143 625l467 -221v-80l-467 -221v85l389 176v2l-389 174v85zM609 -9h-470v76h470v-76z" />
    <glyph glyph-name="lozenge" unicode="&#x25ca;" horiz-adv-x="708" 
d="M661 328l-211 -402h-89l-210 402l212 405h88zM575 328l-167 328h-3l-168 -327l168 -329h3z" />
    </font>
</defs>
</svg>
