<?xml version="1.0" standalone="no"?>
<!DOCTYPE svg PUBLIC "-//W3C//DTD SVG 1.1//EN" "http://www.w3.org/Graphics/SVG/1.1/DTD/svg11.dtd" >
<svg xmlns="http://www.w3.org/2000/svg" xmlns:xlink="http://www.w3.org/1999/xlink" version="1.1">
<metadata>
Created by FontForge 20170731 at Thu Jun  6 19:09:58 2002
 By Aleksey,,,
Copyright (c) 1989, 2002 Adobe Systems Incorporated.  All Rights Reserved.
</metadata>
<defs>
<font id="BauerBodoniStd-BoldCond" horiz-adv-x="480" >
  <font-face 
    font-family="Bauer Bodoni Std Bold Cond"
    font-weight="700"
    font-stretch="condensed"
    units-per-em="1000"
    panose-1="2 7 7 6 8 7 6 2 3 4"
    ascent="735"
    descent="-265"
    x-height="461"
    cap-height="704"
    bbox="-164 -262 1000 927"
    underline-thickness="50"
    underline-position="-200"
    unicode-range="U+0020-FB02"
  />
<missing-glyph horiz-adv-x="500" 
d="M0 0v700h500v-700h-500zM250 395l170 255h-340zM280 350l170 -255v510zM80 50h340l-170 255zM50 605v-510l170 255z" />
    <glyph glyph-name="fi" unicode="fi" horiz-adv-x="556" 
d="M26 0v18h48v425h-48v18h48v48q0 92 68.5 150.5t167.5 58.5q26 0 53.5 -4t56.5 -14t47.5 -30.5t18.5 -48.5q0 -31 -18.5 -50t-49.5 -19t-51.5 15.5t-20.5 45.5q0 24 13.5 42.5t13.5 23.5q0 21 -55 21q-61 0 -87.5 -38.5t-26.5 -83.5v-117h179q71 0 99 27v-470h48v-18h-226
v18h48v425h-148v-425h53v-18h-231z" />
    <glyph glyph-name="fl" unicode="fl" horiz-adv-x="556" 
d="M26 0v18h48v425h-48v18h48v41q0 92 63 154t162 62q32 0 65 -9.5t39 -9.5q45 0 79 30v-711h48v-18h-226v18h48v545q-31 27 -31 57q0 18 11.5 34t11.5 23q0 9 -13 16t-34 7q-54 0 -73.5 -33t-19.5 -88v-118h69v-18h-69v-425h53v-18h-231z" />
    <glyph glyph-name=".notdef" horiz-adv-x="500" 
d="M0 0v700h500v-700h-500zM250 395l170 255h-340zM280 350l170 -255v510zM80 50h340l-170 255zM50 605v-510l170 255z" />
    <glyph glyph-name=".null" horiz-adv-x="0" 
 />
    <glyph glyph-name="nonmarkingreturn" horiz-adv-x="333" 
 />
    <glyph glyph-name="space" unicode=" " horiz-adv-x="240" 
 />
    <glyph glyph-name="exclam" unicode="!" horiz-adv-x="278" 
d="M130 177v62q0 113 -14 197.5t-61 150.5q69 48 84 117q15 -69 84 -117q-47 -66 -61 -150.5t-14 -197.5v-62h-18zM67 58q0 28 21.5 50t50.5 22t50.5 -22t21.5 -50t-21.5 -50t-50.5 -22t-50.5 22t-21.5 50z" />
    <glyph glyph-name="quotedbl" unicode="&#x22;" horiz-adv-x="481" 
d="M199 614l-16 -165q-4 -29 -32 -29t-32 29l-16 165q0 5 -1 14t-1.5 15.5t-0.5 11.5q0 63 51 63t51 -63q0 -5 -0.5 -11.5t-1.5 -15.5t-1 -14zM378 614l-16 -165q-4 -29 -32 -29t-32 29l-16 165q0 5 -1 14t-1.5 15.5t-0.5 11.5q0 63 51 63t51 -63q0 -5 -0.5 -11.5
t-1.5 -15.5t-1 -14z" />
    <glyph glyph-name="numbersign" unicode="#" 
d="M-7 202v78h101l18 130h-90v78h101l29 202h84l-29 -202h106l29 202h84l-29 -202h90v-78h-101l-18 -130h90v-78h-101l-29 -202h-84l29 202h-106l-29 -202h-84l29 202h-90zM284 280l18 130h-106l-18 -130h106z" />
    <glyph glyph-name="dollar" unicode="$" 
d="M241 266v-262q57 4 88.5 37.5t31.5 91.5q0 49 -30 77.5t-90 55.5zM217 469v217q-43 -5 -73.5 -34.5t-30.5 -73.5q0 -37 26.5 -61t77.5 -48zM217 -114v100q-42 2 -89 26t-55 24q-10 0 -15.5 -12.5t-5.5 -23.5h-18v204h18q2 -71 49.5 -132.5t115.5 -67.5v272
q-36 16 -55 25.5t-48.5 29.5t-45 41t-27.5 54t-12 74q0 86 50 143t138 61v62h24v-62q37 -1 67.5 -12t47 -21.5t20.5 -10.5q18 0 23 30h18v-186h-18q-6 78 -45 128t-113 54v-229q40 -18 59.5 -28t54 -33t51.5 -45t31 -58.5t14 -80.5q0 -101 -56 -161.5t-154 -64.5v-100h-24z
" />
    <glyph glyph-name="percent" unicode="%" horiz-adv-x="667" 
d="M44 520q0 45 10.5 84.5t38.5 69.5t71 30t71 -30t38.5 -69.5t10.5 -84.5t-10.5 -84.5t-38.5 -69.5t-71 -30t-71 30t-38.5 69.5t-10.5 84.5zM200 405v230q0 57 -36 57t-36 -57v-230q0 -57 36 -57t36 57zM383 170q0 45 10.5 84.5t38.5 69.5t71 30t71 -30t38.5 -69.5
t10.5 -84.5t-10.5 -84.5t-38.5 -69.5t-71 -30t-71 30t-38.5 69.5t-10.5 84.5zM539 55v230q0 57 -36 57t-36 -57v-230q0 -57 36 -57t36 57zM86 -24l459 738h36l-459 -738h-36z" />
    <glyph glyph-name="ampersand" unicode="&#x26;" horiz-adv-x="722" 
d="M666 171l18 -4q-4 -20 -13 -45t-26 -58.5t-47.5 -55.5t-68.5 -22q-33 0 -64 19.5t-48.5 40t-41.5 55.5q-85 -115 -177 -115q-63 0 -108.5 49t-45.5 112q0 113 154 214q-60 105 -60 180q0 64 45.5 106.5t109.5 42.5q55 0 90 -32.5t35 -85.5q0 -82 -96 -145
q13 -21 116 -176q17 29 25.5 42t26.5 35.5t39 32.5t45 10q32 0 54.5 -20.5t22.5 -53.5q0 -31 -20 -50.5t-48 -19.5q-34 0 -48 17.5t-14 37.5q0 6 1 13t1 10q0 10 -10 10q-5 0 -9.5 -2.5t-10 -8.5t-9 -11t-9.5 -15t-8.5 -14.5t-8.5 -16t-7 -13.5l9 -14q86 -132 139 -132
q26 0 41 20.5t26 62.5zM286 70q41 0 75 48q-74 101 -155 227q-60 -43 -60 -95q0 -48 47 -114t93 -66zM252 592q0 -51 62 -148q80 54 80 124q0 42 -19.5 67t-57.5 25q-32 0 -48.5 -20.5t-16.5 -47.5z" />
    <glyph glyph-name="quotesingle" unicode="'" horiz-adv-x="240" 
d="M168 614l-16 -165q-4 -29 -32 -29t-32 29l-16 165q0 5 -1 14t-1.5 15.5t-0.5 11.5q0 63 51 63t51 -63q0 -5 -0.5 -11.5t-1.5 -15.5t-1 -14z" />
    <glyph glyph-name="parenleft" unicode="(" horiz-adv-x="259" 
d="M206 741l32 -25q-76 -116 -111.5 -225t-35.5 -246t35.5 -246t111.5 -225l-32 -25q-157 226 -157 496t157 496z" />
    <glyph glyph-name="parenright" unicode=")" horiz-adv-x="259" 
d="M53 -251l-32 25q76 116 111.5 225t35.5 246t-35.5 246t-111.5 225l32 25q157 -226 157 -496t-157 -496z" />
    <glyph glyph-name="asterisk" unicode="*" horiz-adv-x="463" 
d="M34 573q0 7 4 10.5t11.5 3t14.5 -2t16 -3.5t13 -3q1 2 2 11.5t3.5 15t9.5 5.5q6 0 12.5 -9.5t15 -23t31 -34t53.5 -38.5q0 40 -6.5 68.5t-14 39.5t-13.5 20.5t-6 16.5q0 10 11 10q9 0 27 -7l4 17q5 17 10.5 25.5t14.5 8.5q18 0 18 -54q4 0 10 1t9 1q8 0 12 -4t4 -9
q0 -3 -12.5 -17.5t-29.5 -45.5t-26 -71q39 11 69.5 32t44 36.5t14.5 15.5q11 0 11 -14q0 -4 -1 -12t-1 -12q60 0 60 -15q0 -4 -3 -7.5t-9 -7t-10.5 -6t-13 -6t-11.5 -4.5q9 -16 9 -27q0 -8 -10 -8l-17 6q-16 6 -50.5 11.5t-80.5 5.5q29 -40 60 -61t45.5 -27t14.5 -14
q0 -4 -9 -9.5t-21 -7.5q1 -3 5.5 -20.5t4.5 -25.5q0 -14 -11 -14q-4 0 -8.5 2.5t-9.5 7t-8.5 8t-8.5 10t-6 8.5q-16 -20 -29 -20q-8 0 -8 8l2 16q2 16 2 29q0 47 -24 104q-20 -28 -32.5 -59.5t-16 -47t-3.5 -22.5q0 -13 -11 -13q-4 0 -7.5 3.5t-8 10t-6.5 8.5
q-36 -25 -48 -25t-12 12q0 16 24 47l-9 4q-10 4 -13.5 8t-3.5 9q0 3 1 5t3.5 3.5t4.5 3t6.5 2.5t8 1.5t10 2t10.5 2.5q62 14 93 53q-36 13 -84 13q-13 0 -27.5 -2.5t-24 -5t-10.5 -2.5q-9 0 -9 8q0 5 2.5 10t7 10.5t6.5 7.5q-5 5 -17 13t-18 14t-6 12z" />
    <glyph glyph-name="plus" unicode="+" horiz-adv-x="600" 
d="M252 0v205h-205v96h205v205h96v-205h205v-96h-205v-205h-96z" />
    <glyph glyph-name="comma" unicode="," horiz-adv-x="240" 
d="M60 -162l-2 18q121 45 125 159q-28 -29 -65 -29q-28 0 -50.5 23t-22.5 52q0 31 23 53t56 22q40 0 61.5 -29.5t21.5 -67.5q0 -75 -38 -126.5t-109 -74.5z" />
    <glyph glyph-name="hyphen" unicode="-" horiz-adv-x="407" 
d="M61 211l31 84q96 -3 116 -3q21 0 138 3l-31 -84q-96 3 -116 3q-21 0 -138 -3z" />
    <glyph glyph-name="period" unicode="." horiz-adv-x="240" 
d="M45 61q0 30 22.5 52.5t52.5 22.5t52.5 -22.5t22.5 -52.5t-22.5 -52.5t-52.5 -22.5t-52.5 22.5t-22.5 52.5z" />
    <glyph glyph-name="slash" unicode="/" horiz-adv-x="315" 
d="M0 -14l216 732h99l-216 -732h-99z" />
    <glyph glyph-name="zero" unicode="0" 
d="M296 92v506q0 88 -56 88t-56 -88v-506q0 -88 56 -88t56 88zM48 345q0 91 21 171t66 134t105 54t105 -54t66 -134t21 -171t-21 -171t-66 -134t-105 -54t-105 54t-66 134t-21 171z" />
    <glyph glyph-name="one" unicode="1" 
d="M104 0v18h89v529q0 16 -3.5 21.5t-14.5 5.5q-8 0 -29 -12t-54 -34t-43 -28l-7 19q151 105 221 185h66v-686h83v-18h-308z" />
    <glyph glyph-name="two" unicode="2" 
d="M392 124l13 97h19l-20 -221h-374q15 56 48 107.5t67 91.5t67 84t54 106t21 139q0 23 -4.5 46.5t-14.5 49t-31 41t-50 15.5q-44 0 -82.5 -33t-38.5 -74q0 -21 20 -21q6 0 19.5 2t22.5 2q29 0 45.5 -16.5t16.5 -45.5q0 -31 -18.5 -49.5t-49.5 -18.5q-43 0 -64.5 32.5
t-21.5 70.5q0 74 49.5 124.5t128.5 50.5q92 0 147.5 -57.5t55.5 -149.5q0 -56 -24.5 -101.5t-63 -78t-78.5 -60.5t-78.5 -62.5t-56.5 -70.5h276z" />
    <glyph glyph-name="three" unicode="3" 
d="M127 373v18h20q75 0 100 28t25 120v33q0 108 -77 108q-34 0 -57.5 -16t-23.5 -30q0 -9 20 -16t40 -21.5t20 -43.5q0 -33 -18 -50.5t-51 -17.5q-35 0 -51 24.5t-16 56.5q0 62 48.5 100t116.5 38q77 0 128 -42.5t51 -117.5q0 -70 -46 -110.5t-118 -48.5v-2q84 -11 136 -60
t52 -132q0 -91 -63.5 -148t-155.5 -57q-76 0 -126.5 40t-50.5 103q0 33 20.5 59.5t52.5 26.5t51.5 -20.5t19.5 -52.5q0 -30 -14.5 -50.5t-40.5 -20.5q-4 0 -11 1.5t-9 1.5q-12 0 -12 -15q0 -17 29 -36t68 -19q58 0 82 40t24 124v52q0 53 -9 84.5t-32 46t-48.5 18.5t-73.5 4z
" />
    <glyph glyph-name="four" unicode="4" 
d="M238 294v245h-2l-141 -245h143zM171 0v18h67v174h-201v43l273 469h58v-410h53v-102h-53v-174h60v-18h-257z" />
    <glyph glyph-name="five" unicode="5" 
d="M98 334l-18 3q24 102 24 184q0 11 -9 159q37 24 84 24q48 0 97.5 -16.5t68.5 -16.5q23 0 23 33h18q0 -147 -107 -147q-23 0 -61.5 8.5t-57.5 8.5q-25 0 -39 -3q0 -8 0.5 -26t0.5 -29q0 -59 -10 -121h2q36 45 116 45q88 0 144.5 -62.5t56.5 -155.5q0 -107 -64 -171.5
t-172 -64.5q-62 0 -108.5 38t-46.5 96q0 44 18.5 67t51.5 23q29 0 47.5 -18.5t18.5 -47.5q0 -31 -19 -50.5t-52 -19.5q-17 0 -17 -11q0 -16 30 -37.5t73 -21.5q54 0 79 42.5t25 157.5v53q0 159 -101 159q-32 0 -60 -23t-36 -59z" />
    <glyph glyph-name="six" unicode="6" 
d="M400 704v-18q-41 -6 -74 -25t-55 -45.5t-38 -55.5t-24.5 -61t-13 -55.5t-5.5 -44.5h2q24 40 76 40q79 0 124.5 -68.5t45.5 -158.5q0 -85 -55 -155.5t-139 -70.5q-50 0 -89 26.5t-61 69.5t-33 90t-11 96q0 163 100 288.5t250 147.5zM186 313v-220q0 -89 58 -89t58 89v258
q0 64 -49 64q-30 0 -48.5 -25.5t-18.5 -76.5z" />
    <glyph glyph-name="seven" unicode="7" 
d="M53 487l16 203h374v-36q-55 -84 -145 -288.5t-90 -235.5q0 -8 13 -8q35 0 60.5 -18.5t25.5 -52.5q0 -23 -20 -44t-51 -21q-33 0 -51.5 21t-18.5 54q0 37 77 235t87 270h-246l-10 -79h-21z" />
    <glyph glyph-name="eight" unicode="8" 
d="M69 536q0 70 50.5 119t120.5 49t120.5 -49t50.5 -119q0 -120 -144 -168v-2q72 -15 121.5 -66t49.5 -128q0 -87 -60 -136.5t-138 -49.5t-138 49.5t-60 136.5q0 77 49.5 128t121.5 66v2q-144 48 -144 168zM178 258v-157q0 -97 62 -97t62 97v157q0 97 -62 97t-62 -97z
M193 616v-167q0 -70 47 -70t47 70v167q0 70 -47 70t-47 -70z" />
    <glyph glyph-name="nine" unicode="9" 
d="M80 -14v18q41 6 74 25t55 45.5t38 55.5t24.5 61t13 55.5t5.5 44.5h-2q-24 -40 -76 -40q-79 0 -124.5 68.5t-45.5 158.5q0 85 55 155.5t139 70.5q50 0 89 -26.5t61 -69.5t33 -90t11 -96q0 -163 -100 -288.5t-250 -147.5zM294 377v220q0 89 -58 89t-58 -89v-258
q0 -64 49 -64q30 0 48.5 25.5t18.5 76.5z" />
    <glyph glyph-name="colon" unicode=":" horiz-adv-x="240" 
d="M45 394q0 30 22.5 52.5t52.5 22.5t52.5 -22.5t22.5 -52.5t-22.5 -52.5t-52.5 -22.5t-52.5 22.5t-22.5 52.5zM45 61q0 30 22.5 52.5t52.5 22.5t52.5 -22.5t22.5 -52.5t-22.5 -52.5t-52.5 -22.5t-52.5 22.5t-22.5 52.5z" />
    <glyph glyph-name="semicolon" unicode=";" horiz-adv-x="240" 
d="M60 -162l-2 18q121 45 125 159q-28 -29 -65 -29q-28 0 -50.5 23t-22.5 52q0 31 23 53t56 22q40 0 61.5 -29.5t21.5 -67.5q0 -75 -38 -126.5t-109 -74.5zM45 394q0 30 22.5 52.5t52.5 22.5t52.5 -22.5t22.5 -52.5t-22.5 -52.5t-52.5 -22.5t-52.5 22.5t-22.5 52.5z" />
    <glyph glyph-name="less" unicode="&#x3c;" horiz-adv-x="600" 
d="M553 514v-96l-381 -165l381 -165v-96l-506 221v80z" />
    <glyph glyph-name="equal" unicode="=" horiz-adv-x="600" 
d="M47 309v96h506v-96h-506zM47 101v96h506v-96h-506z" />
    <glyph glyph-name="greater" unicode="&#x3e;" horiz-adv-x="600" 
d="M47 -8v96l381 165l-381 165v96l506 -221v-80z" />
    <glyph glyph-name="question" unicode="?" horiz-adv-x="389" 
d="M132 177v164q0 31 22.5 65.5t50 60.5t50 59.5t22.5 63.5q0 53 -28 81.5t-75 28.5q-36 0 -64 -15.5t-28 -35.5q0 -4 2.5 -7t8 -5.5t10 -3.5t14 -2.5t13.5 -2.5q48 -10 48 -54q0 -34 -19 -52t-50 -18q-35 0 -58 26t-23 63q0 54 42.5 89.5t104.5 35.5q80 0 127 -49t47 -125
q0 -35 -6.5 -64t-14 -48t-31 -46.5t-37.5 -41.5t-53 -52q-40 -39 -48.5 -55.5t-8.5 -59.5h-18zM78 58q0 28 22 50t50 22t50 -22t22 -50t-22 -50t-50 -22t-50 22t-22 50z" />
    <glyph glyph-name="at" unicode="@" horiz-adv-x="800" 
d="M341 286q0 -39 9.5 -57.5t35.5 -18.5q41 0 82 71.5t41 146.5q0 60 -42 60q-41 0 -83.5 -66t-42.5 -136zM618 527l-59 -234q-8 -32 -8 -49q0 -47 35 -47q44 0 79 68.5t35 139.5q0 95 -78 174t-203 79q-51 0 -97.5 -19.5t-86 -58.5t-63.5 -105t-24 -150q0 -113 83.5 -196
t197.5 -83q116 0 209 56l11 -50q-116 -66 -219 -66q-98 0 -177 34.5t-125 88t-70 112.5t-24 115q0 167 112.5 274.5t272.5 107.5q147 0 247 -90t100 -222q0 -57 -22 -113t-68.5 -97t-105.5 -41q-51 0 -73.5 26t-22.5 49h-2q-10 -20 -45 -47.5t-75 -27.5q-101 0 -101 130
q0 34 13 76.5t37 83.5t65.5 69t91.5 28q51 0 72 -51h2l9 36h77z" />
    <glyph glyph-name="A" unicode="A" horiz-adv-x="481" 
d="M-22 0v18q48 0 59 42l178 644h48l184 -686h44v-18h-243v18h48l-51 194h-144l-24 -92q-19 -67 -19 -79q0 -23 53 -23v-18h-133zM240 230l-68 247h-2l-65 -247h135z" />
    <glyph glyph-name="B" unicode="B" horiz-adv-x="574" 
d="M228 374h10q66 0 86 34.5t20 123.5q0 94 -21 124t-83 30h-12v-312zM30 0v18h48v668h-48v18h230q116 0 181 -44t65 -128q0 -72 -53 -114t-134 -51v-2q83 -5 147 -54t64 -130q0 -88 -69.5 -134.5t-167.5 -46.5h-263zM228 356v-338h22q66 0 89 37t23 126q0 110 -26 142.5
t-108 32.5z" />
    <glyph glyph-name="C" unicode="C" horiz-adv-x="519" 
d="M462 704v-204h-18q-9 76 -46 138t-97 62q-51 0 -70 -45t-19 -137v-365q0 -149 84 -149q66 0 107.5 59t47.5 141h18v-204h-18q0 36 -23 36q-8 0 -26.5 -12.5t-47 -25t-58.5 -12.5q-111 0 -181.5 107.5t-70.5 258.5t70.5 258.5t181.5 107.5q33 0 59 -14t42.5 -28t24.5 -14
q18 0 22 42h18z" />
    <glyph glyph-name="D" unicode="D" horiz-adv-x="574" 
d="M228 686v-668h26q61 0 84.5 40.5t23.5 139.5v345q0 80 -27 111.5t-93 31.5h-14zM30 0v18h48v668h-48v18h241q57 0 102 -19.5t74 -52t48 -77.5t27 -92.5t8 -100.5q0 -60 -8 -111t-27.5 -98t-49.5 -80.5t-76.5 -53t-106.5 -19.5h-232z" />
    <glyph glyph-name="E" unicode="E" horiz-adv-x="519" 
d="M30 0v18h48v668h-48v18h429v-185h-18q-18 167 -169 167h-44v-312q61 0 80 32t23 99h18v-291h-18q-1 69 -21.5 105.5t-81.5 36.5v-338h41q50 0 85.5 17t56 49t30.5 67t15 81h16l-8 -232h-434z" />
    <glyph glyph-name="F" unicode="F" horiz-adv-x="481" 
d="M30 0v18h48v668h-48v18h420l6 -205h-21q-6 93 -47.5 140t-135.5 47h-24v-312q61 0 80 32t23 99h18v-291h-18q-1 69 -21.5 105.5t-81.5 36.5v-338h59v-18h-257z" />
    <glyph glyph-name="G" unicode="G" horiz-adv-x="574" 
d="M362 97v163h-49v18h238v-18h-45v-169q-37 -41 -92 -73t-118 -32q-114 0 -183 101.5t-69 264.5q0 152 73 259t195 107q37 0 64.5 -14t43.5 -28t27 -14q14 0 20.5 13.5t6.5 28.5h18v-204h-18q-8 75 -49 137.5t-106 62.5q-34 0 -56.5 -12.5t-32.5 -36t-14 -47.5t-4 -58v-441
q0 -48 21 -74.5t56 -26.5q43 0 58 24.5t15 68.5z" />
    <glyph glyph-name="H" unicode="H" horiz-adv-x="611" 
d="M30 0v18h48v668h-48v18h250v-18h-52v-312h155v312h-52v18h250v-18h-48v-668h48v-18h-250v18h52v338h-155v-338h52v-18h-250z" />
    <glyph glyph-name="I" unicode="I" horiz-adv-x="296" 
d="M23 0v18h50v668h-50v18h250v-18h-50v-668h50v-18h-250z" />
    <glyph glyph-name="J" unicode="J" horiz-adv-x="370" 
d="M147 183v503h-58v18h258v-18h-50v-546q0 -94 -39.5 -158.5t-128.5 -64.5q-47 0 -82 25t-35 71q0 27 18.5 48.5t48.5 21.5q26 0 44.5 -17.5t18.5 -42.5t-17.5 -46t-17.5 -26q0 -16 24 -16t39 19.5t15 47.5q0 27 -19 89t-19 92z" />
    <glyph glyph-name="K" unicode="K" horiz-adv-x="574" 
d="M30 0v18h48v668h-48v18h248v-18h-50v-319h2l166 248q28 44 28 57q0 14 -36 14h-12v18h150v-18q-42 0 -57 -10.5t-51 -62.5l-90 -132l226 -463h36v-18h-252v18h54l-162 339h-2v-339h50v-18h-248z" />
    <glyph glyph-name="L" unicode="L" horiz-adv-x="500" 
d="M30 0v18h48v668h-48v18h255v-18h-57v-668q111 0 156 50t54 160h20l-4 -228h-424z" />
    <glyph glyph-name="M" unicode="M" horiz-adv-x="685" 
d="M23 0v18q35 0 44 15t9 79v574h-48v18h208l111 -437h2l111 437h202v-18h-48v-668h48v-18h-246v18h54v650h-2l-165 -668h-33l-168 674h-2v-562q0 -63 9.5 -78.5t44.5 -15.5v-18h-131z" />
    <glyph glyph-name="N" unicode="N" horiz-adv-x="537" 
d="M23 0v18q53 0 53 41v592q0 21 -12.5 28t-40.5 7v18h191l221 -427h2v370q0 39 -60 39v18h137v-18q-30 0 -41.5 -9t-11.5 -30v-661h-42l-317 616h-2v-543q0 -41 57 -41v-18h-134z" />
    <glyph glyph-name="O" unicode="O" horiz-adv-x="592" 
d="M44 352q0 151 70.5 258.5t181.5 107.5t181.5 -107.5t70.5 -258.5t-70.5 -258.5t-181.5 -107.5t-181.5 107.5t-70.5 258.5zM380 118v468q0 114 -84 114t-84 -114v-468q0 -114 84 -114t84 114z" />
    <glyph glyph-name="P" unicode="P" horiz-adv-x="556" 
d="M228 686v-340h17q70 0 91 36.5t21 133.5q0 96 -22 133t-90 37h-17zM30 0v18h48v668h-48v18h220q45 0 81.5 -4.5t72.5 -17t60.5 -32.5t39.5 -54t15 -80q0 -43 -12 -76t-35 -53t-47 -32.5t-58.5 -18t-58 -7t-55.5 -1.5h-25v-310h53v-18h-251z" />
    <glyph glyph-name="Q" unicode="Q" horiz-adv-x="592" 
d="M221 -43v44q-78 31 -130 133q-47 92 -47 218q0 151 70.5 258.5t181.5 107.5t181.5 -107.5t70.5 -258.5q0 -123 -48.5 -221t-130.5 -131q-4 -36 -4 -62q0 -120 102 -120h24v-22q-50 -2 -67 -2q-93 0 -148 39t-55 124zM380 118v468q0 114 -84 114t-84 -114v-468
q0 -114 84 -114t84 114z" />
    <glyph glyph-name="R" unicode="R" horiz-adv-x="574" 
d="M30 0v18h48v668h-48v18h264q99 0 163.5 -38.5t64.5 -121.5q0 -43 -20.5 -75.5t-56 -51t-75 -28.5t-84.5 -12v-2q120 -9 162.5 -55.5t42.5 -170.5v-51q0 -45 8.5 -60.5t27.5 -15.5q6 0 22 7l8 -19q-34 -18 -95 -18q-121 0 -125 148l-4 133q-2 49 -23 72t-82 23v-350h51
v-18h-249zM228 686v-300q52 3 77 12.5t40 42.5t15 98q0 30 -1 47.5t-6.5 39t-16 33t-30.5 19.5t-49 8h-29z" />
    <glyph glyph-name="S" unicode="S" horiz-adv-x="519" 
d="M54 0v205h18q2 -72 53 -136.5t122 -64.5q62 0 97.5 34.5t35.5 97.5q0 36 -18.5 63t-47.5 44t-64 32t-70.5 34t-64.5 43t-47.5 64t-18.5 94q0 92 54 150t148 58q40 0 72.5 -12t50.5 -24t22 -12q18 0 23 34h18v-190h-18q-6 83 -48 134.5t-122 51.5q-46 0 -81 -31t-35 -79
q0 -30 18.5 -53.5t48.5 -40t65.5 -32.5t71.5 -36.5t66 -46.5t48.5 -68.5t18.5 -96.5q0 -107 -60 -168.5t-163 -61.5q-46 0 -96.5 25.5t-57.5 25.5q-10 0 -15.5 -13t-5.5 -24h-18z" />
    <glyph glyph-name="T" unicode="T" horiz-adv-x="518" 
d="M120 0v18h64v668q-140 -15 -150 -211h-18v229h486v-229h-18q-10 196 -150 211v-668h64v-18h-278z" />
    <glyph glyph-name="U" unicode="U" horiz-adv-x="537" 
d="M73 176v510h-50v18h252v-18h-52v-543q0 -127 100 -127q59 0 88 42.5t29 111.5v471q0 28 -11.5 36.5t-42.5 8.5v18h128v-18q-28 0 -39 -7t-11 -27v-476q0 -95 -45 -142.5t-152 -47.5q-97 0 -145.5 51t-48.5 139z" />
    <glyph glyph-name="V" unicode="V" horiz-adv-x="481" 
d="M214 -14l-183 700h-48v18h254v-18h-54l120 -470h2l110 411q5 23 5 35q0 24 -58 24v18h136v-18q-47 0 -57 -39l-180 -661h-47z" />
    <glyph glyph-name="W" unicode="W" horiz-adv-x="741" 
d="M216 -14l-187 700h-48v18h238v-18h-42l124 -477h2l60 226l-66 251h-42v18h241v-18h-48l119 -472h2l88 337q25 102 25 108q0 27 -52 27v18h130v-18q-25 0 -36 -8t-18 -31l-179 -661h-45l-108 414h-2l-109 -414h-47z" />
    <glyph glyph-name="X" unicode="X" horiz-adv-x="481" 
d="M-17 0v18q29 0 44 10t25 30l131 251l-157 377h-36v18h233v-18h-42l92 -216l69 139q25 51 25 60q0 11 -11.5 14t-37.5 3v18h136v-18q-34 0 -46 -9t-35 -54l-90 -176l179 -429h36v-18h-234v18h42l-114 270l-90 -183q-31 -63 -31 -71q0 -16 48 -16v-18h-136z" />
    <glyph glyph-name="Y" unicode="Y" horiz-adv-x="463" 
d="M104 0v18h53v303l-147 365h-36v18h233v-18h-42l125 -319l104 249q17 39 17 50q0 20 -46 20v18h124v-18q-32 0 -43 -9.5t-29 -54.5l-110 -272v-332h53v-18h-256z" />
    <glyph glyph-name="Z" unicode="Z" horiz-adv-x="500" 
d="M10 0v24l294 662h-65q-155 0 -171 -174h-20l4 192h410v-18l-293 -668q59 0 93.5 3.5t68 15t52 35t32 61.5t20.5 97h23l-10 -230h-438z" />
    <glyph glyph-name="bracketleft" unicode="[" horiz-adv-x="259" 
d="M83 -239v968h162v-36h-120v-896h120v-36h-162z" />
    <glyph glyph-name="backslash" unicode="\" horiz-adv-x="315" 
d="M99 718l216 -732h-99l-216 732h99z" />
    <glyph glyph-name="bracketright" unicode="]" horiz-adv-x="259" 
d="M176 729v-968h-162v36h120v896h-120v36h162z" />
    <glyph glyph-name="asciicircum" unicode="^" horiz-adv-x="600" 
d="M80 325l177 365h86l177 -365h-96l-124 263l-125 -263h-95z" />
    <glyph glyph-name="underscore" unicode="_" horiz-adv-x="500" 
d="M0 -125v50h500v-50h-500z" />
    <glyph glyph-name="grave" unicode="`" horiz-adv-x="278" 
d="M162 539l-135 117q-21 19 -21 35q0 17 14 25.5t31 8.5q26 0 37.5 -11t23.5 -39l62 -136h-12z" />
    <glyph glyph-name="a" unicode="a" horiz-adv-x="481" 
d="M273 261v136q0 32 -15 46t-51 14q-32 0 -53.5 -9.5t-21.5 -19.5q0 -7 8 -12.5t18 -9.5t18 -17t8 -33q0 -25 -18.5 -41t-43.5 -16q-31 0 -46.5 17.5t-15.5 45.5q0 56 52.5 84.5t119.5 28.5q171 0 171 -118v-295q0 -28 16 -28q8 0 17.5 9.5t14.5 18.5l14 -9
q-38 -67 -100 -67q-33 0 -56.5 23t-26.5 57h-2q-45 -80 -138 -80q-54 0 -83 31t-29 84q0 25 10 46t22 35.5t37 27t40 19.5t48 14.5t43.5 9.5t42.5 8zM160 159v-74q0 -34 12.5 -45.5t34.5 -11.5q24 0 45 24.5t21 48.5v146q-70 -15 -91.5 -31.5t-21.5 -56.5z" />
    <glyph glyph-name="b" unicode="b" horiz-adv-x="537" 
d="M22 0v18h48v668h-48v18h79q71 0 99 25v-332h2q38 78 113 78q85 0 131.5 -73.5t46.5 -168.5q0 -61 -17 -114.5t-61 -93t-108 -39.5q-39 0 -67 24.5t-38 62.5h-2v-84q-11 7 -29 10q-12 1 -48 1h-101zM349 99v269q0 83 -56 83q-41 0 -67 -42.5t-26 -112.5v-157
q0 -21 7.5 -48.5t30 -54t53.5 -26.5q58 0 58 89z" />
    <glyph glyph-name="c" unicode="c" horiz-adv-x="426" 
d="M180 378v-258q0 -50 21.5 -80t61.5 -30q49 0 81.5 37t42.5 88l15 -3q-13 -68 -55 -107t-109 -39q-94 0 -148 74t-54 171q0 101 61.5 172.5t154.5 71.5q55 0 98.5 -36t43.5 -94q0 -28 -18.5 -50t-47.5 -22q-64 0 -64 67q0 18 9 31.5t19.5 19.5t19.5 14.5t9 17.5
q0 34 -66 34q-75 0 -75 -79z" />
    <glyph glyph-name="d" unicode="d" horiz-adv-x="537" 
d="M188 368v-269q0 -89 58 -89q31 0 53.5 26.5t30 54t7.5 48.5v157q0 70 -26 112.5t-67 42.5q-56 0 -56 -83zM337 -11v84h-2q-10 -38 -38 -62.5t-67 -24.5q-64 0 -108 39.5t-61 93t-17 114.5q0 95 46.5 168.5t131.5 73.5q75 0 113 -78h2v289h-50v18h81q71 0 99 25v-711h48
v-18h-101q-57 0 -77 -11z" />
    <glyph glyph-name="e" unicode="e" horiz-adv-x="463" 
d="M180 275v-170q0 -44 23.5 -69.5t60.5 -25.5q55 0 96.5 41t51.5 94l15 -3q-14 -69 -61.5 -112.5t-125.5 -43.5q-88 0 -146 76.5t-58 168.5q0 91 58 167.5t146 76.5q80 0 131 -57.5t56 -142.5h-247zM291 293v103q0 61 -56 61q-24 0 -39.5 -15t-15.5 -46v-103h111z" />
    <glyph glyph-name="f" unicode="f" horiz-adv-x="296" 
d="M26 0v18h48v425h-48v18h48v16q0 43 10 84t30.5 77t56.5 58t83 22q45 0 81 -25.5t36 -70.5q0 -28 -18 -47.5t-46 -19.5q-26 0 -43 15.5t-17 41.5q0 22 11.5 42t11.5 27q0 8 -6.5 13.5t-14.5 5.5q-45 0 -45 -61v-178h69v-18h-69v-425h53v-18h-231z" />
    <glyph glyph-name="g" unicode="g" horiz-adv-x="463" 
d="M151 76h137q78 0 113.5 -34.5t35.5 -91.5q0 -81 -63 -137t-161 -56q-68 0 -122.5 27t-54.5 79q0 36 27 62t64 35v2q-85 20 -85 95q0 45 30.5 77t74.5 37v2q-45 18 -70.5 53.5t-25.5 82.5q0 72 48.5 119t124.5 47q62 0 107 -36q31 57 85 57q22 0 37 -14.5t15 -36.5
t-13.5 -33.5t-33.5 -11.5q-21 0 -32 12t-11 30q0 13 6 29q-27 -12 -41 -40q53 -53 53 -114q0 -74 -50 -118t-122 -44q-25 0 -60 8q-2 -1 -19 -6.5t-24.5 -9.5t-16 -13t-8.5 -21q0 -37 55 -37zM287 -42h-140l-5 -4q-6 -4 -10 -7.5t-10 -11t-10 -15.5t-7 -20t-3 -25
q0 -44 38 -72t87 -28q62 0 115 34.5t53 89.5q0 36 -29.5 47.5t-78.5 11.5zM175 402v-174q0 -30 12 -42.5t37 -12.5q24 0 36 12.5t12 42.5v174q0 30 -12 42.5t-36 12.5q-25 0 -37 -12.5t-12 -42.5z" />
    <glyph glyph-name="h" unicode="h" horiz-adv-x="537" 
d="M26 0v18h48v668h-48v18h79q71 0 99 25v-341h2q17 39 54.5 63t85.5 24q53 0 85 -32t32 -100v-325h48v-18h-222v18h44v355q0 30 -10 45t-37 15q-39 0 -60.5 -37t-21.5 -72v-306h44v-18h-222z" />
    <glyph glyph-name="i" unicode="i" horiz-adv-x="278" 
d="M26 0v18h48v425h-48v18h79q71 0 99 27v-470h48v-18h-226zM64 629q0 31 22 53t53 22t53 -22t22 -53t-22 -53t-53 -22t-53 22t-22 53z" />
    <glyph glyph-name="j" unicode="j" horiz-adv-x="278" 
d="M74 66v377h-48v18h79q71 0 99 27v-468q0 -119 -44 -191t-123 -72q-45 0 -76.5 24.5t-31.5 66.5q0 30 16 49.5t46 19.5q25 0 40.5 -16.5t15.5 -42.5q0 -20 -12 -37.5t-12 -24.5q0 -21 28 -21q37 0 37 60q0 45 -7 119.5t-7 111.5zM64 629q0 29 22.5 52t52.5 23t52.5 -23
t22.5 -52t-22.5 -52t-52.5 -23t-52.5 23t-22.5 52z" />
    <glyph glyph-name="k" unicode="k" horiz-adv-x="537" 
d="M26 0v18h48v668h-48v18h79q71 0 99 25v-489l122 144q32 38 32 45q0 14 -51 14v18h162v-18q-43 0 -60.5 -7t-46.5 -40l-61 -69l188 -309h30v-18h-228v18h48l-134 220h-1v-220h41v-18h-219z" />
    <glyph glyph-name="l" unicode="l" horiz-adv-x="278" 
d="M26 0v18h48v668h-48v18h79q71 0 99 25v-711h48v-18h-226z" />
    <glyph glyph-name="m" unicode="m" horiz-adv-x="796" 
d="M26 0v18h48v425h-48v18h79q25 0 38.5 1t30.5 7.5t30 18.5v-97h2q18 40 55.5 62t84.5 22q45 0 77.5 -25t37.5 -62h2q19 40 57 63.5t85 23.5q53 0 85 -32t32 -100v-325h48v-18h-222v18h44v355q0 30 -10 45t-37 15q-39 0 -60.5 -37t-21.5 -72v-306h44v-18h-218v18h44v355
q0 30 -10 45t-37 15q-39 0 -60.5 -37t-21.5 -72v-306h44v-18h-222z" />
    <glyph glyph-name="n" unicode="n" horiz-adv-x="537" 
d="M26 0v18h48v425h-48v18h79q25 0 38.5 1t30.5 7.5t30 18.5v-97h2q18 40 55.5 62t84.5 22q53 0 85 -32t32 -100v-325h48v-18h-222v18h44v355q0 30 -10 45t-37 15q-39 0 -60.5 -37t-21.5 -72v-306h44v-18h-222z" />
    <glyph glyph-name="o" unicode="o" 
d="M300 72v317q0 68 -60 68t-60 -68v-317q0 -68 60 -68t60 68zM36 231q0 91 58 167.5t146 76.5t146 -76.5t58 -167.5q0 -92 -58 -168.5t-146 -76.5t-146 76.5t-58 168.5z" />
    <glyph glyph-name="p" unicode="p" horiz-adv-x="537" 
d="M22 -229v18h48v654h-48v18h79q71 0 99 27v-91h2q38 78 113 78q85 0 131.5 -73.5t46.5 -168.5q0 -61 -17 -114.5t-61 -93t-108 -39.5q-39 0 -67 24.5t-38 62.5h-2v-284h52v-18h-230zM349 99v269q0 83 -56 83q-41 0 -67 -42.5t-26 -112.5v-157q0 -21 7.5 -48.5t30 -54
t53.5 -26.5q58 0 58 89z" />
    <glyph glyph-name="q" unicode="q" horiz-adv-x="537" 
d="M188 368v-269q0 -89 58 -89q31 0 53.5 26.5t30 54t7.5 48.5v157q0 70 -26 112.5t-67 42.5q-56 0 -56 -83zM285 -229v18h52v284h-2q-10 -38 -38 -62.5t-67 -24.5q-64 0 -108 39.5t-61 93t-17 114.5q0 95 46.5 168.5t131.5 73.5q75 0 113 -78h2v91q28 -27 99 -27h79v-18
h-48v-654h48v-18h-230z" />
    <glyph glyph-name="r" unicode="r" horiz-adv-x="370" 
d="M26 0v18h48v425h-48v18h79q71 0 99 27v-90h2q9 28 34.5 52.5t57.5 24.5q36 0 57 -20t21 -55q0 -28 -18 -48.5t-46 -20.5q-27 0 -43.5 18t-16.5 45q0 44 38 61v2q-41 -5 -63.5 -47t-22.5 -85v-307h61v-18h-239z" />
    <glyph glyph-name="s" unicode="s" horiz-adv-x="389" 
d="M47 -14v180h18q0 -64 34 -113t97 -49q43 0 69 21.5t26 62.5q0 34 -25.5 53.5t-61.5 29t-72.5 22.5t-62 44.5t-25.5 83.5q0 72 35 113t104 41q34 0 66 -15t35 -15q18 0 20 30h18v-150h-18q0 58 -33.5 95t-91.5 37q-37 0 -59 -17.5t-22 -46.5q0 -28 18.5 -44.5t45.5 -22
t59.5 -16t59.5 -24.5t45.5 -48.5t18.5 -87.5q0 -73 -37.5 -118.5t-106.5 -45.5q-39 0 -75.5 15t-40.5 15q-9 0 -14.5 -9t-5.5 -21h-18z" />
    <glyph glyph-name="t" unicode="t" horiz-adv-x="296" 
d="M74 90v353h-55v18q74 4 117 67t50 142h18v-209h69v-18h-69v-371q0 -44 26 -44q19 0 31 23.5t14 50.5l18 -2q-5 -54 -35.5 -84t-83.5 -30q-46 0 -73 22.5t-27 81.5z" />
    <glyph glyph-name="u" unicode="u" horiz-adv-x="537" 
d="M463 488v-470h48v-18h-178v70h-2q-18 -40 -54.5 -62t-85.5 -22q-52 0 -84.5 30.5t-32.5 87.5v339h-48v18h79q71 0 99 27v-405q0 -25 12.5 -40t34.5 -15q37 0 59.5 36t22.5 73v306h-53v18h84q71 0 99 27z" />
    <glyph glyph-name="v" unicode="v" horiz-adv-x="389" 
d="M183 -14l-163 457h-35v18h214v-18h-44l97 -277h2l54 168q20 60 20 81q0 13 -8 19.5t-16 7.5t-22 1v18h122v-18q-41 0 -55 -41l-142 -416h-24z" />
    <glyph glyph-name="w" unicode="w" horiz-adv-x="630" 
d="M176 -14l-150 457h-36v18h211v-18h-42l88 -280h2l99 298h27l113 -301h2l53 169q20 60 20 82q0 15 -8.5 22.5t-17.5 8.5t-27 1v18h130v-18q-26 0 -37.5 -9.5t-21.5 -34.5l-129 -413h-30l-114 301h-2l-100 -301h-30z" />
    <glyph glyph-name="x" unicode="x" horiz-adv-x="481" 
d="M-6 0v18q32 0 53 10.5t43 38.5l99 126l-159 250h-36v18h246v-18h-60l90 -141l62 82q22 28 22 41q0 18 -42 18h-12v18h162v-18q-39 0 -59 -9.5t-38 -33.5l-86 -112l172 -270h36v-18h-247v18h60l-103 162l-72 -96q-27 -37 -27 -44q0 -22 38 -22h20v-18h-162z" />
    <glyph glyph-name="y" unicode="y" horiz-adv-x="389" 
d="M183 -26l-167 469h-36v18h214v-18h-42l95 -273h2l60 181q14 40 14 62q0 30 -36 30h-9v18h124v-18h-13q-16 0 -27 -11t-23 -48l-158 -468q-29 -84 -57 -121.5t-70 -37.5q-26 0 -43.5 19t-17.5 46q0 65 56 65q23 0 42 -20t29 -20q13 0 20 11.5t18 42.5z" />
    <glyph glyph-name="z" unicode="z" horiz-adv-x="426" 
d="M23 0v18l220 425h-52q-30 0 -53.5 -10.5t-37 -25t-23.5 -37t-14 -39t-7 -38.5h-12v168h339v-18l-217 -425h56q38 0 65 13.5t41.5 39t22 49.5t12.5 57h14l-4 -177h-350z" />
    <glyph glyph-name="braceleft" unicode="{" horiz-adv-x="259" 
d="M196 729v-12q-71 0 -71 -99v-229q0 -64 -16 -96.5t-65 -46.5v-2q49 -14 65 -46.5t16 -96.5v-229q0 -99 71 -99v-12q-113 0 -113 111v245q0 56 -15.5 84.5t-60.5 43.5q45 15 60.5 43.5t15.5 84.5v245q0 111 113 111z" />
    <glyph glyph-name="bar" unicode="|" horiz-adv-x="222" 
d="M63 -14v732h96v-732h-96z" />
    <glyph glyph-name="braceright" unicode="}" horiz-adv-x="259" 
d="M63 -239v12q71 0 71 99v229q0 64 16 96.5t65 46.5v2q-49 14 -65 46.5t-16 96.5v229q0 99 -71 99v12q113 0 113 -111v-245q0 -56 15.5 -84.5t60.5 -43.5q-45 -15 -60.5 -43.5t-15.5 -84.5v-245q0 -111 -113 -111z" />
    <glyph glyph-name="asciitilde" unicode="~" horiz-adv-x="600" 
d="M495 338l36 -78q-48 -92 -125 -92q-10 0 -20 2t-23.5 7t-21 8t-24.5 11t-22 10q-7 3 -21.5 9.5t-23 10t-20 8t-20.5 6.5t-17 2q-27 0 -46.5 -19t-41.5 -55l-36 78q48 92 125 92q10 0 20 -2t23.5 -7t21 -8t24.5 -11t22 -10q7 -3 21.5 -9.5t23 -10t20 -8t20.5 -6.5t17 -2
q27 0 46.5 19t41.5 55z" />
    <glyph glyph-name="uni00A0" unicode="&#xa0;" horiz-adv-x="240" 
 />
    <glyph glyph-name="exclamdown" unicode="&#xa1;" horiz-adv-x="278" 
d="M148 298v-62q0 -113 14 -197.5t61 -150.5q-69 -48 -84 -117q-15 69 -84 117q47 66 61 150.5t14 197.5v62h18zM211 417q0 -29 -21.5 -50.5t-50.5 -21.5t-50.5 21.5t-21.5 50.5t21.5 50.5t50.5 21.5t50.5 -21.5t21.5 -50.5z" />
    <glyph glyph-name="cent" unicode="&#xa2;" 
d="M240 24v425q-39 -13 -39 -71v-258q0 -70 39 -96zM240 -81v68q-85 8 -134 80.5t-49 163.5t51 159t132 81v71h18v-68q2 0 7 0.5t8 0.5q55 0 98.5 -36t43.5 -94q0 -28 -18.5 -50t-47.5 -22q-64 0 -64 67q0 23 14.5 37.5t28.5 24.5t14 21q0 34 -65 34q-11 0 -19 -3v-439
q13 -5 26 -5q49 0 81.5 37t42.5 88l15 -3q-13 -68 -55 -107t-109 -39h-1v-67h-18z" />
    <glyph glyph-name="sterling" unicode="&#xa3;" 
d="M38 304v24h72q-39 80 -39 150q0 95 54 160.5t146 65.5q73 0 119 -35.5t46 -104.5q0 -33 -19 -59.5t-54 -26.5q-28 0 -46 18.5t-18 42.5t15.5 42t38.5 18q5 0 14 -1.5t13 -1.5q14 0 14 19q0 31 -30 48t-63 17q-51 0 -81.5 -31.5t-30.5 -80.5q0 -29 11 -72.5t28.5 -95
t22.5 -72.5h114v-24h-110q5 -32 5 -38q0 -55 -34 -136q67 -20 129 -20q43 0 62 19.5t22 63.5h18q-1 -34 -4 -57.5t-11 -54.5t-21.5 -49.5t-38 -32t-58.5 -13.5q-37 0 -67.5 16.5t-70.5 48.5q-1 -1 -13 -14.5t-15 -16.5t-13.5 -12.5t-17 -12t-16.5 -6t-21 -3.5
q-27 0 -47 18.5t-20 57.5t26 65t65 26q10 0 20 -2t22 -5.5t16 -4.5q-1 74 -52 163h-82zM41 55q0 -20 16 -35.5t36 -15.5q39 0 65 69q-31 38 -64 38q-21 0 -37 -17.5t-16 -38.5z" />
    <glyph glyph-name="currency" unicode="&#xa4;" 
d="M2 159l53 52q-45 46 -45 134t45 134l-53 52l51 54l52 -53q52 43 135 43t135 -43l52 53l51 -54l-53 -52q45 -46 45 -134t-45 -134l53 -52l-51 -54l-52 53q-52 -43 -135 -43t-135 43l-52 -53zM106 345q0 -60 37 -100t97 -40t97 40t37 100t-37 100t-97 40t-97 -40t-37 -100z
" />
    <glyph glyph-name="yen" unicode="&#xa5;" 
d="M121 0v18h53v212h-125v24h125v61l-9 21h-116v24h106l-131 312h-36v18h222v-18h-42l125 -312l104 244q17 37 17 49q0 19 -46 19v18h124v-18q-32 0 -43 -9.5t-29 -52.5l-103 -250h118v-24h-125v-82h125v-24h-125v-212h53v-18h-242z" />
    <glyph glyph-name="brokenbar" unicode="&#xa6;" horiz-adv-x="222" 
d="M63 -14v275h96v-275h-96zM63 443v275h96v-275h-96z" />
    <glyph glyph-name="section" unicode="&#xa7;" horiz-adv-x="481" 
d="M39 226q0 55 26 93t78 78q-59 54 -59 127q0 84 48.5 139t128.5 55q53 0 96 -31.5t43 -84.5q0 -29 -18.5 -53t-50.5 -24t-50.5 19.5t-18.5 45.5q0 25 17.5 42t42.5 17q16 0 28 -9l13 -8q7 0 7 8q0 16 -32 38t-68 22q-53 0 -83.5 -28.5t-30.5 -65.5q0 -31 29.5 -63.5
t71.5 -62t84 -61t71.5 -73t29.5 -86.5q0 -53 -25.5 -90.5t-76.5 -81.5q71 -55 71 -147q0 -84 -50 -134t-136 -50q-58 0 -103 33.5t-45 88.5q0 34 21.5 55t54.5 21q26 0 45.5 -16.5t19.5 -42.5q0 -30 -15 -47.5t-45 -17.5q-15 0 -25.5 4.5t-15 9t-6.5 4.5q-4 0 -4 -5
q0 -21 35.5 -45t81.5 -24q52 0 86.5 27.5t34.5 71.5q0 37 -31.5 70.5t-76.5 60.5t-90 56t-76.5 71.5t-31.5 93.5zM376 182q0 46 -42 76q-39 30 -107 77t-69 48q-53 -31 -53 -83q0 -30 16 -49t74 -62q61 -45 132 -88q49 33 49 81z" />
    <glyph glyph-name="dieresis" unicode="&#xa8;" horiz-adv-x="278" 
d="M163 634q0 25 18.5 43.5t43.5 18.5t43.5 -18.5t18.5 -43.5t-18.5 -43.5t-43.5 -18.5t-43.5 18.5t-18.5 43.5zM-9 634q0 25 18.5 43.5t43.5 18.5t43.5 -18.5t18.5 -43.5t-18.5 -43.5t-43.5 -18.5t-43.5 18.5t-18.5 43.5z" />
    <glyph glyph-name="copyright" unicode="&#xa9;" horiz-adv-x="800" 
d="M34 352q0 154 105 260t261 106q157 0 261.5 -105.5t104.5 -260.5t-104.5 -260.5t-261.5 -105.5q-156 0 -261 105.5t-105 260.5zM112 352q0 -125 82 -212.5t206 -87.5t206 87.5t82 212.5t-82 212.5t-206 87.5t-206 -87.5t-82 -212.5zM579 271l-16 -77q-1 -8 -7.5 -12
t-23.5 -10q-57 -20 -111 -20q-106 0 -168 54t-62 157q0 35 12.5 69t39 65.5t74.5 50.5t112 19q74 0 117 -26q15 -9 15 -21v-68h-24q-23 91 -108 91q-60 0 -91.5 -47.5t-32.5 -127.5q-1 -87 29 -139.5t96 -52.5q80 0 123 95h26z" />
    <glyph glyph-name="ordfeminine" unicode="&#xaa;" horiz-adv-x="313" 
d="M175 581v75q0 20 -9 28t-31 8q-49 0 -49 -16q0 -4 17.5 -13t17.5 -30q0 -16 -12 -25.5t-31 -9.5q-20 0 -30.5 11t-10.5 27q0 34 34.5 51t79.5 17q114 0 114 -71v-175q0 -17 8 -17q6 0 17 15l12 -5q-20 -40 -65 -40q-23 0 -38 13.5t-17 34.5h-2q-26 -48 -88 -48
q-37 0 -56 18.5t-19 50.5q0 12 3 22.5t11 19t14.5 15t20 12.5t21 9.5t23.5 7.5l22 5.5t23.5 5t19.5 4.5zM107 514v-43q0 -30 28 -30q15 0 27.5 13t12.5 27v87q-42 -10 -55 -20t-13 -34z" />
    <glyph glyph-name="guillemotleft" unicode="&#xab;" horiz-adv-x="370" 
d="M155 90l-105 163l105 163h51l-105 -163l105 -163h-51zM269 90l-105 163l105 163h51l-105 -163l105 -163h-51z" />
    <glyph glyph-name="logicalnot" unicode="&#xac;" horiz-adv-x="600" 
d="M457 108v201h-410v96h506v-297h-96z" />
    <glyph glyph-name="uni00AD" unicode="&#xad;" horiz-adv-x="407" 
d="M61 211l31 84q96 -3 116 -3q21 0 138 3l-31 -84q-96 3 -116 3q-21 0 -138 -3z" />
    <glyph glyph-name="registered" unicode="&#xae;" horiz-adv-x="800" 
d="M34 352q0 154 105 260t261 106q157 0 261.5 -105.5t104.5 -260.5t-104.5 -260.5t-261.5 -105.5q-156 0 -261 105.5t-105 260.5zM112 352q0 -125 82 -212.5t206 -87.5t206 87.5t82 212.5t-82 212.5t-206 87.5t-206 -87.5t-82 -212.5zM224 164v18q34 0 41 8t7 37v265
q0 29 -7 37t-41 8v18h208q54 0 88 -25.5t34 -75.5q0 -35 -22 -64.5t-56 -39.5l76 -132q19 -33 47 -36v-18h-89q-20 0 -40 38l-75 135h-33v-110q0 -29 7 -37t41 -8v-18h-186zM362 531v-170h32q33 0 48.5 25.5t15.5 63.5q0 81 -62 81h-34z" />
    <glyph glyph-name="macron" unicode="&#xaf;" horiz-adv-x="278" 
d="M-6 604v54h290v-54h-290z" />
    <glyph glyph-name="degree" unicode="&#xb0;" horiz-adv-x="400" 
d="M109 559q0 -41 25.5 -69t65.5 -28t65.5 28t25.5 69t-25.5 69t-65.5 28t-65.5 -28t-25.5 -69zM55 559q0 61 41.5 103t103.5 42t103.5 -42t41.5 -103t-41.5 -103t-103.5 -42t-103.5 42t-41.5 103z" />
    <glyph glyph-name="plusminus" unicode="&#xb1;" horiz-adv-x="600" 
d="M252 138v136h-205v96h205v136h96v-136h205v-96h-205v-136h-96zM47 0v96h506v-96h-506z" />
    <glyph glyph-name="twosuperior" unicode="&#xb2;" horiz-adv-x="312" 
d="M256 360l8 55h15l-16 -133h-243q10 34 31 65t43 54.5t43 50t34.5 64t13.5 83.5q0 87 -62 87q-29 0 -54 -18t-25 -42q0 -13 13 -13q4 0 13 1.5t14 1.5q41 0 41 -41q0 -19 -13 -31t-36 -12q-28 0 -42 19t-14 45q0 47 32 77.5t84 30.5q65 0 102 -34t37 -90q0 -41 -25 -74
t-56.5 -51.5t-66.5 -44.5t-50 -50h179z" />
    <glyph glyph-name="threesuperior" unicode="&#xb3;" horiz-adv-x="312" 
d="M41 622q0 38 34 60t74 22q53 0 87.5 -25t34.5 -71q0 -42 -29.5 -66t-76.5 -29v-2q54 -6 88 -34.5t34 -75.5q0 -52 -41.5 -85.5t-100.5 -33.5q-53 0 -86.5 24t-33.5 63q0 21 13.5 37.5t34.5 16.5t34.5 -13.5t13.5 -32.5t-10.5 -31.5t-28.5 -12.5q-3 0 -7 0.5t-6 0.5
q-7 0 -7 -9q0 -10 18.5 -20.5t43.5 -10.5q37 0 52 23t15 74v23q0 60 -22 75.5t-82 15.5v12h13q49 0 65 16.5t16 71.5v20q0 67 -50 67q-22 0 -37 -10.5t-15 -19.5q0 -6 13 -10t26 -12.5t13 -25.5q0 -41 -45 -41q-23 0 -34 14.5t-11 34.5z" />
    <glyph glyph-name="acute" unicode="&#xb4;" horiz-adv-x="278" 
d="M98 539l62 136q12 28 23.5 39t37.5 11q17 0 31 -8.5t14 -25.5q0 -16 -21 -35l-135 -117h-12z" />
    <glyph glyph-name="mu" unicode="&#xb5;" horiz-adv-x="537" 
d="M333 0v73h-2q-38 -87 -129 -87q-18 0 -36 9q0 -26 4 -91.5t4 -89.5q0 -26 -14.5 -41.5t-39.5 -15.5t-39.5 15.5t-14.5 41.5q0 24 4 89.5t4 91.5v448h-48v18h79q71 0 99 27v-405q0 -25 12.5 -40t34.5 -15q37 0 59.5 36t22.5 73v306h-53v18h84q71 0 99 27v-470h48v-18h-178
z" />
    <glyph glyph-name="paragraph" unicode="&#xb6;" horiz-adv-x="620" 
d="M170 -229v18h76v503q-92 0 -135.5 48.5t-43.5 157.5t43.5 157.5t135.5 48.5h327v-18h-76v-897h76v-18h-172v915h-59v-915h-172zM246 310v376q-83 -13 -83 -188t83 -188z" />
    <glyph glyph-name="periodcentered" unicode="&#xb7;" horiz-adv-x="240" 
d="M45 290q0 30 22.5 52.5t52.5 22.5t52.5 -22.5t22.5 -52.5t-22.5 -52.5t-52.5 -22.5t-52.5 22.5t-22.5 52.5z" />
    <glyph glyph-name="cedilla" unicode="&#xb8;" horiz-adv-x="278" 
d="M94 -97l53 97h21l-44 -79l2 -2q15 6 40 6q36 0 62.5 -14t26.5 -48q0 -37 -32.5 -53t-73.5 -16q-51 0 -99 20l5 16q29 -12 57 -12q59 0 59 42q0 41 -44 41q-20 0 -25 -5z" />
    <glyph glyph-name="onesuperior" unicode="&#xb9;" horiz-adv-x="312" 
d="M65 282v12h57v316q0 10 -2 13t-9 3q-5 0 -19 -7t-35.5 -20t-27.5 -17l-5 12q92 56 144 110h50v-410h54v-12h-207z" />
    <glyph glyph-name="ordmasculine" unicode="&#xba;" horiz-adv-x="312" 
d="M193 464v187q0 41 -37 41t-37 -41v-187q0 -41 37 -41t37 41zM17 558q0 54 39 100t100 46t100 -46t39 -100q0 -56 -39 -101.5t-100 -45.5t-100 45.5t-39 101.5z" />
    <glyph glyph-name="guillemotright" unicode="&#xbb;" horiz-adv-x="370" 
d="M215 416l105 -163l-105 -163h-51l105 163l-105 163h51zM101 416l105 -163l-105 -163h-51l105 163l-105 163h51z" />
    <glyph glyph-name="onequarter" unicode="&#xbc;" horiz-adv-x="721" 
d="M568 176v147h-2l-91 -147h93zM524 0v12h44v98h-131v31l173 281h48v-246h35v-66h-35v-98h39v-12h-173zM163 -24l459 738h36l-459 -738h-36zM65 282v12h57v316q0 10 -2 13t-9 3q-5 0 -19 -7t-35.5 -20t-27.5 -17l-5 12q92 56 144 110h50v-410h54v-12h-207z" />
    <glyph glyph-name="onehalf" unicode="&#xbd;" horiz-adv-x="721" 
d="M123 -24l459 738h36l-459 -738h-36zM65 282v12h57v316q0 10 -2 13t-9 3q-5 0 -19 -7t-35.5 -20t-27.5 -17l-5 12q92 56 144 110h50v-410h54v-12h-207zM674 78l8 55h15l-16 -133h-243q10 34 31 65t43 54.5t43 50t34.5 64t13.5 83.5q0 87 -62 87q-29 0 -54 -18t-25 -42
q0 -13 13 -13q4 0 13 1.5t14 1.5q41 0 41 -41q0 -19 -13 -31t-36 -12q-28 0 -42 19t-14 45q0 47 32 77.5t84 30.5q65 0 102 -34t37 -90q0 -41 -25 -74t-56.5 -51.5t-66.5 -44.5t-50 -50h179z" />
    <glyph glyph-name="threequarters" unicode="&#xbe;" horiz-adv-x="721" 
d="M568 176v147h-2l-91 -147h93zM524 0v12h44v98h-131v31l173 281h48v-246h35v-66h-35v-98h39v-12h-173zM145 -24l459 738h36l-459 -738h-36zM87 505v12h13q49 0 65 16.5t16 71.5v20q0 67 -50 67q-22 0 -37.5 -10.5t-15.5 -19.5q0 -6 13 -10t26 -12.5t13 -25.5
q0 -41 -45 -41q-23 0 -34 14.5t-11 34.5q0 38 34 60t75 22q53 0 87.5 -25t34.5 -71q0 -42 -29.5 -66t-76.5 -29v-2q55 -6 88.5 -35t33.5 -79q0 -55 -41.5 -89t-100.5 -34q-54 0 -87.5 24t-33.5 63q0 21 13.5 37.5t34.5 16.5t34.5 -13.5t13.5 -32.5t-10.5 -31.5t-28.5 -12.5
q-3 0 -7 0.5t-6 0.5q-7 0 -7 -9q0 -10 18.5 -20.5t44.5 -10.5q37 0 52 23t15 74v31q0 60 -22 75.5t-82 15.5z" />
    <glyph glyph-name="questiondown" unicode="&#xbf;" horiz-adv-x="389" 
d="M257 298v-164q0 -31 -22.5 -65.5t-50 -60.5t-50 -59.5t-22.5 -63.5q0 -53 28 -81.5t75 -28.5q36 0 64 15.5t28 35.5q0 4 -2.5 7t-8 5.5t-10 3.5t-14 2.5t-13.5 2.5q-48 10 -48 54q0 34 19 52t50 18q35 0 58 -26t23 -63q0 -54 -42.5 -89.5t-104.5 -35.5q-80 0 -127 49
t-47 125q0 35 6.5 64t14 48t31 46.5t37.5 41.5t53 52q40 39 48.5 55.5t8.5 59.5h18zM311 417q0 -29 -21.5 -50.5t-50.5 -21.5t-50.5 21.5t-21.5 50.5t21.5 50.5t50.5 21.5t50.5 -21.5t21.5 -50.5z" />
    <glyph glyph-name="Agrave" unicode="&#xc0;" horiz-adv-x="481" 
d="M-22 0v18q48 0 59 42l178 644h48l184 -686h44v-18h-243v18h48l-51 194h-144l-24 -92q-19 -67 -19 -79q0 -23 53 -23v-18h-133zM240 230l-68 247h-2l-65 -247h135zM264 741l-135 117q-21 19 -21 35q0 17 14 25.5t31 8.5q26 0 37.5 -11t23.5 -39l62 -136h-12z" />
    <glyph glyph-name="Aacute" unicode="&#xc1;" horiz-adv-x="481" 
d="M-22 0v18q48 0 59 42l178 644h48l184 -686h44v-18h-243v18h48l-51 194h-144l-24 -92q-19 -67 -19 -79q0 -23 53 -23v-18h-133zM240 230l-68 247h-2l-65 -247h135zM200 741l62 136q12 28 23.5 39t37.5 11q17 0 31 -8.5t14 -25.5q0 -16 -21 -35l-135 -117h-12z" />
    <glyph glyph-name="Acircumflex" unicode="&#xc2;" horiz-adv-x="481" 
d="M-22 0v18q48 0 59 42l178 644h48l184 -686h44v-18h-243v18h48l-51 194h-144l-24 -92q-19 -67 -19 -79q0 -23 53 -23v-18h-133zM240 230l-68 247h-2l-65 -247h135zM116 741l87 186h76l87 -186h-16l-109 115l-109 -115h-16z" />
    <glyph glyph-name="Atilde" unicode="&#xc3;" horiz-adv-x="481" 
d="M-22 0v18q48 0 59 42l178 644h48l184 -686h44v-18h-243v18h48l-51 194h-144l-24 -92q-19 -67 -19 -79q0 -23 53 -23v-18h-133zM240 230l-68 247h-2l-65 -247h135zM107 769h-12q4 21 6.5 32t9 30t14.5 29t22 18t32 8q21 0 76.5 -18.5t73.5 -18.5q14 -1 24 7.5t14 18
t8 24.5h12q-15 -118 -90 -118q-21 0 -73 19.5t-71 19.5q-35 0 -46 -51z" />
    <glyph glyph-name="Adieresis" unicode="&#xc4;" horiz-adv-x="481" 
d="M-22 0v18q48 0 59 42l178 644h48l184 -686h44v-18h-243v18h48l-51 194h-144l-24 -92q-19 -67 -19 -79q0 -23 53 -23v-18h-133zM240 230l-68 247h-2l-65 -247h135zM265 836q0 25 18.5 43.5t43.5 18.5t43.5 -18.5t18.5 -43.5t-18.5 -43.5t-43.5 -18.5t-43.5 18.5
t-18.5 43.5zM93 836q0 25 18.5 43.5t43.5 18.5t43.5 -18.5t18.5 -43.5t-18.5 -43.5t-43.5 -18.5t-43.5 18.5t-18.5 43.5z" />
    <glyph glyph-name="Aring" unicode="&#xc5;" horiz-adv-x="481" 
d="M-22 0v18q48 0 59 42l178 644h48l184 -686h44v-18h-243v18h48l-51 194h-144l-24 -92q-19 -67 -19 -79q0 -23 53 -23v-18h-133zM240 230l-68 247h-2l-65 -247h135zM147 818q0 38 28 66t66 28t66 -28t28 -66t-28 -66t-66 -28t-66 28t-28 66zM177 818q0 -26 19.5 -45
t44.5 -19t44.5 19t19.5 45t-19.5 45t-44.5 19t-44.5 -19t-19.5 -45z" />
    <glyph glyph-name="AE" unicode="&#xc6;" horiz-adv-x="741" 
d="M296 230v408h-2l-162 -408h164zM-22 0v18q50 0 68 55l252 613h-69v18h443l6 -185h-21q-5 33 -14 58.5t-27 52t-49.5 41.5t-75.5 15h-51v-312q35 0 56.5 9t31.5 30t13.5 39.5t5.5 52.5h18v-291h-18q-1 70 -21.5 106t-85.5 36v-338h40q50 0 86 17t56.5 49.5t31.5 66.5
t18 81h17l-14 -232h-430v18h51v194h-172l-48 -121q-15 -39 -15 -49q0 -24 53 -24v-18h-136z" />
    <glyph glyph-name="Ccedilla" unicode="&#xc7;" horiz-adv-x="519" 
d="M233 -97l46 84q-105 9 -170 115t-65 250q0 151 70.5 258.5t181.5 107.5q33 0 59 -14t42.5 -28t24.5 -14q18 0 22 42h18v-204h-18q-9 76 -46 138t-97 62q-51 0 -70 -45t-19 -137v-365q0 -149 84 -149q66 0 107.5 59t47.5 141h18v-204h-18q0 36 -23 36q-8 0 -26.5 -12.5
t-45.5 -25t-57 -12.5l-36 -65l2 -2q15 6 40 6q36 0 62.5 -14t26.5 -48q0 -37 -32.5 -53t-73.5 -16q-51 0 -99 20l5 16q29 -12 57 -12q59 0 59 42q0 41 -44 41q-20 0 -25 -5z" />
    <glyph glyph-name="Egrave" unicode="&#xc8;" horiz-adv-x="519" 
d="M30 0v18h48v668h-48v18h429v-185h-18q-18 167 -169 167h-44v-312q61 0 80 32t23 99h18v-291h-18q-1 69 -21.5 105.5t-81.5 36.5v-338h41q50 0 85.5 17t56 49t30.5 67t15 81h16l-8 -232h-434zM283 741l-135 117q-21 19 -21 35q0 17 14 25.5t31 8.5q26 0 37.5 -11t23.5 -39
l62 -136h-12z" />
    <glyph glyph-name="Eacute" unicode="&#xc9;" horiz-adv-x="519" 
d="M30 0v18h48v668h-48v18h429v-185h-18q-18 167 -169 167h-44v-312q61 0 80 32t23 99h18v-291h-18q-1 69 -21.5 105.5t-81.5 36.5v-338h41q50 0 85.5 17t56 49t30.5 67t15 81h16l-8 -232h-434zM219 741l62 136q12 28 23.5 39t37.5 11q17 0 31 -8.5t14 -25.5q0 -16 -21 -35
l-135 -117h-12z" />
    <glyph glyph-name="Ecircumflex" unicode="&#xca;" horiz-adv-x="519" 
d="M30 0v18h48v668h-48v18h429v-185h-18q-18 167 -169 167h-44v-312q61 0 80 32t23 99h18v-291h-18q-1 69 -21.5 105.5t-81.5 36.5v-338h41q50 0 85.5 17t56 49t30.5 67t15 81h16l-8 -232h-434zM135 741l87 186h76l87 -186h-16l-109 115l-109 -115h-16z" />
    <glyph glyph-name="Edieresis" unicode="&#xcb;" horiz-adv-x="519" 
d="M30 0v18h48v668h-48v18h429v-185h-18q-18 167 -169 167h-44v-312q61 0 80 32t23 99h18v-291h-18q-1 69 -21.5 105.5t-81.5 36.5v-338h41q50 0 85.5 17t56 49t30.5 67t15 81h16l-8 -232h-434zM284 836q0 25 18.5 43.5t43.5 18.5t43.5 -18.5t18.5 -43.5t-18.5 -43.5
t-43.5 -18.5t-43.5 18.5t-18.5 43.5zM112 836q0 25 18.5 43.5t43.5 18.5t43.5 -18.5t18.5 -43.5t-18.5 -43.5t-43.5 -18.5t-43.5 18.5t-18.5 43.5z" />
    <glyph glyph-name="Igrave" unicode="&#xcc;" horiz-adv-x="296" 
d="M23 0v18h50v668h-50v18h250v-18h-50v-668h50v-18h-250zM171 741l-135 117q-21 19 -21 35q0 17 14 25.5t31 8.5q26 0 37.5 -11t23.5 -39l62 -136h-12z" />
    <glyph glyph-name="Iacute" unicode="&#xcd;" horiz-adv-x="296" 
d="M23 0v18h50v668h-50v18h250v-18h-50v-668h50v-18h-250zM107 741l62 136q12 28 23.5 39t37.5 11q17 0 31 -8.5t14 -25.5q0 -16 -21 -35l-135 -117h-12z" />
    <glyph glyph-name="Icircumflex" unicode="&#xce;" horiz-adv-x="296" 
d="M23 0v18h50v668h-50v18h250v-18h-50v-668h50v-18h-250zM23 741l87 186h76l87 -186h-16l-109 115l-109 -115h-16z" />
    <glyph glyph-name="Idieresis" unicode="&#xcf;" horiz-adv-x="296" 
d="M23 0v18h50v668h-50v18h250v-18h-50v-668h50v-18h-250zM172 836q0 25 18.5 43.5t43.5 18.5t43.5 -18.5t18.5 -43.5t-18.5 -43.5t-43.5 -18.5t-43.5 18.5t-18.5 43.5zM0 836q0 25 18.5 43.5t43.5 18.5t43.5 -18.5t18.5 -43.5t-18.5 -43.5t-43.5 -18.5t-43.5 18.5
t-18.5 43.5z" />
    <glyph glyph-name="Eth" unicode="&#xd0;" horiz-adv-x="574" 
d="M30 0v18h48v361h-48v30h48v277h-48v18h241q57 0 102 -19.5t74 -52t48 -77.5t27 -92.5t8 -100.5q0 -60 -8 -111t-27.5 -98t-49.5 -80.5t-76.5 -53t-106.5 -19.5h-232zM228 686v-277h87v-30h-87v-361h26q61 0 84.5 40.5t23.5 139.5v345q0 80 -27 111.5t-93 31.5h-14z" />
    <glyph glyph-name="Ntilde" unicode="&#xd1;" horiz-adv-x="537" 
d="M23 0v18q53 0 53 41v592q0 21 -12.5 28t-40.5 7v18h191l221 -427h2v370q0 39 -60 39v18h137v-18q-30 0 -41.5 -9t-11.5 -30v-661h-42l-317 616h-2v-543q0 -41 57 -41v-18h-134zM135 769h-12q4 21 6.5 32t9 30t14.5 29t22 18t32 8q21 0 76.5 -18.5t73.5 -18.5
q14 -1 24 7.5t14 18t8 24.5h12q-15 -118 -90 -118q-21 0 -73 19.5t-71 19.5q-35 0 -46 -51z" />
    <glyph glyph-name="Ograve" unicode="&#xd2;" horiz-adv-x="592" 
d="M44 352q0 151 70.5 258.5t181.5 107.5t181.5 -107.5t70.5 -258.5t-70.5 -258.5t-181.5 -107.5t-181.5 107.5t-70.5 258.5zM380 118v468q0 114 -84 114t-84 -114v-468q0 -114 84 -114t84 114zM319 741l-135 117q-21 19 -21 35q0 17 14 25.5t31 8.5q26 0 37.5 -11t23.5 -39
l62 -136h-12z" />
    <glyph glyph-name="Oacute" unicode="&#xd3;" horiz-adv-x="592" 
d="M44 352q0 151 70.5 258.5t181.5 107.5t181.5 -107.5t70.5 -258.5t-70.5 -258.5t-181.5 -107.5t-181.5 107.5t-70.5 258.5zM380 118v468q0 114 -84 114t-84 -114v-468q0 -114 84 -114t84 114zM255 741l62 136q12 28 23.5 39t37.5 11q17 0 31 -8.5t14 -25.5q0 -16 -21 -35
l-135 -117h-12z" />
    <glyph glyph-name="Ocircumflex" unicode="&#xd4;" horiz-adv-x="592" 
d="M44 352q0 151 70.5 258.5t181.5 107.5t181.5 -107.5t70.5 -258.5t-70.5 -258.5t-181.5 -107.5t-181.5 107.5t-70.5 258.5zM380 118v468q0 114 -84 114t-84 -114v-468q0 -114 84 -114t84 114zM171 741l87 186h76l87 -186h-16l-109 115l-109 -115h-16z" />
    <glyph glyph-name="Otilde" unicode="&#xd5;" horiz-adv-x="592" 
d="M44 352q0 151 70.5 258.5t181.5 107.5t181.5 -107.5t70.5 -258.5t-70.5 -258.5t-181.5 -107.5t-181.5 107.5t-70.5 258.5zM380 118v468q0 114 -84 114t-84 -114v-468q0 -114 84 -114t84 114zM162 769h-12q4 21 6.5 32t9 30t14.5 29t22 18t32 8q21 0 76.5 -18.5
t73.5 -18.5q14 -1 24 7.5t14 18t8 24.5h12q-15 -118 -90 -118q-22 0 -74 19.5t-70 19.5q-35 0 -46 -51z" />
    <glyph glyph-name="Odieresis" unicode="&#xd6;" horiz-adv-x="592" 
d="M44 352q0 151 70.5 258.5t181.5 107.5t181.5 -107.5t70.5 -258.5t-70.5 -258.5t-181.5 -107.5t-181.5 107.5t-70.5 258.5zM380 118v468q0 114 -84 114t-84 -114v-468q0 -114 84 -114t84 114zM320 836q0 25 18.5 43.5t43.5 18.5t43.5 -18.5t18.5 -43.5t-18.5 -43.5
t-43.5 -18.5t-43.5 18.5t-18.5 43.5zM148 836q0 25 18.5 43.5t43.5 18.5t43.5 -18.5t18.5 -43.5t-18.5 -43.5t-43.5 -18.5t-43.5 18.5t-18.5 43.5z" />
    <glyph glyph-name="multiply" unicode="&#xd7;" horiz-adv-x="600" 
d="M233 253l-166 166l67 67l166 -167l166 167l67 -67l-167 -166l167 -166l-67 -67l-166 167l-166 -167l-67 67z" />
    <glyph glyph-name="Oslash" unicode="&#xd8;" horiz-adv-x="592" 
d="M378 523l-166 -403v-2q0 -114 84 -114t84 114v405h-2zM214 181l166 403v2q0 114 -84 114t-84 -114v-405h2zM126 -26l30 72q-53 48 -82.5 129.5t-29.5 176.5q0 151 70.5 258.5t181.5 107.5q68 0 122 -43l26 63l22 -8l-29 -71q52 -49 81.5 -131t29.5 -176
q0 -151 -70.5 -258.5t-181.5 -107.5q-66 0 -122 43l-26 -63z" />
    <glyph glyph-name="Ugrave" unicode="&#xd9;" horiz-adv-x="537" 
d="M73 176v510h-50v18h252v-18h-52v-543q0 -127 100 -127q59 0 88 42.5t29 111.5v471q0 28 -11.5 36.5t-42.5 8.5v18h128v-18q-28 0 -39 -7t-11 -27v-476q0 -95 -45 -142.5t-152 -47.5q-97 0 -145.5 51t-48.5 139zM312 741l-135 117q-21 19 -21 35q0 17 14 25.5t31 8.5
q26 0 37.5 -11t23.5 -39l62 -136h-12z" />
    <glyph glyph-name="Uacute" unicode="&#xda;" horiz-adv-x="537" 
d="M73 176v510h-50v18h252v-18h-52v-543q0 -127 100 -127q59 0 88 42.5t29 111.5v471q0 28 -11.5 36.5t-42.5 8.5v18h128v-18q-28 0 -39 -7t-11 -27v-476q0 -95 -45 -142.5t-152 -47.5q-97 0 -145.5 51t-48.5 139zM248 741l62 136q12 28 23.5 39t37.5 11q17 0 31 -8.5
t14 -25.5q0 -16 -21 -35l-135 -117h-12z" />
    <glyph glyph-name="Ucircumflex" unicode="&#xdb;" horiz-adv-x="537" 
d="M73 176v510h-50v18h252v-18h-52v-543q0 -127 100 -127q59 0 88 42.5t29 111.5v471q0 28 -11.5 36.5t-42.5 8.5v18h128v-18q-28 0 -39 -7t-11 -27v-476q0 -95 -45 -142.5t-152 -47.5q-97 0 -145.5 51t-48.5 139zM164 741l87 186h76l87 -186h-16l-109 115l-109 -115h-16z
" />
    <glyph glyph-name="Udieresis" unicode="&#xdc;" horiz-adv-x="537" 
d="M73 176v510h-50v18h252v-18h-52v-543q0 -127 100 -127q59 0 88 42.5t29 111.5v471q0 28 -11.5 36.5t-42.5 8.5v18h128v-18q-28 0 -39 -7t-11 -27v-476q0 -95 -45 -142.5t-152 -47.5q-97 0 -145.5 51t-48.5 139zM313 836q0 25 18.5 43.5t43.5 18.5t43.5 -18.5t18.5 -43.5
t-18.5 -43.5t-43.5 -18.5t-43.5 18.5t-18.5 43.5zM141 836q0 25 18.5 43.5t43.5 18.5t43.5 -18.5t18.5 -43.5t-18.5 -43.5t-43.5 -18.5t-43.5 18.5t-18.5 43.5z" />
    <glyph glyph-name="Yacute" unicode="&#xdd;" horiz-adv-x="463" 
d="M104 0v18h53v303l-147 365h-36v18h233v-18h-42l125 -319l104 249q17 39 17 50q0 20 -46 20v18h124v-18q-32 0 -43 -9.5t-29 -54.5l-110 -272v-332h53v-18h-256zM191 741l62 136q12 28 23.5 39t37.5 11q17 0 31 -8.5t14 -25.5q0 -16 -21 -35l-135 -117h-12z" />
    <glyph glyph-name="Thorn" unicode="&#xde;" horiz-adv-x="556" 
d="M30 0v18h48v668h-48v18h251v-18h-53v-117h22q45 0 81.5 -4.5t72.5 -17t60.5 -32.5t39.5 -54t15 -80q0 -43 -12 -76t-35 -53t-47 -32.5t-58.5 -18t-58 -7t-55.5 -1.5h-25v-175h53v-18h-251zM228 551v-340h17q70 0 91 36.5t21 133.5q0 96 -22 133t-90 37h-17z" />
    <glyph glyph-name="germandbls" unicode="&#xdf;" horiz-adv-x="537" 
d="M26 0v18h48v481q0 35 10.5 71t32.5 70.5t64.5 56t99.5 21.5q66 0 109.5 -37.5t43.5 -101.5q0 -33 -18.5 -64.5t-40 -51.5t-40 -39t-18.5 -29q0 -14 19 -26t45.5 -25.5t53.5 -32t46 -54t19 -82.5q0 -75 -39 -128t-109 -53q-47 0 -78.5 28t-31.5 73q0 26 15.5 45t41.5 19
q22 0 36.5 -15t14.5 -36q0 -23 -12.5 -35t-25 -19t-12.5 -18q0 -9 13.5 -16.5t39.5 -7.5q39 0 66 23t27 61q0 31 -19.5 55t-47 39.5t-55.5 31t-47.5 38t-19.5 50.5q0 29 18.5 59t40 54t40 63.5t18.5 83.5q0 61 -20 95.5t-73 34.5q-32 0 -54.5 -22t-22.5 -58v-602h39v-18
h-217z" />
    <glyph glyph-name="agrave" unicode="&#xe0;" horiz-adv-x="481" 
d="M273 261v136q0 32 -15 46t-51 14q-32 0 -53.5 -9.5t-21.5 -19.5q0 -7 8 -12.5t18 -9.5t18 -17t8 -33q0 -25 -18.5 -41t-43.5 -16q-31 0 -46.5 17.5t-15.5 45.5q0 56 52.5 84.5t119.5 28.5q171 0 171 -118v-295q0 -28 16 -28q8 0 17.5 9.5t14.5 18.5l14 -9
q-38 -67 -100 -67q-33 0 -56.5 23t-26.5 57h-2q-45 -80 -138 -80q-54 0 -83 31t-29 84q0 25 10 46t22 35.5t37 27t40 19.5t48 14.5t43.5 9.5t42.5 8zM160 159v-74q0 -34 12.5 -45.5t34.5 -11.5q24 0 45 24.5t21 48.5v146q-70 -15 -91.5 -31.5t-21.5 -56.5zM264 539l-135 117
q-21 19 -21 35q0 17 14 25.5t31 8.5q26 0 37.5 -11t23.5 -39l62 -136h-12z" />
    <glyph glyph-name="aacute" unicode="&#xe1;" horiz-adv-x="481" 
d="M273 261v136q0 32 -15 46t-51 14q-32 0 -53.5 -9.5t-21.5 -19.5q0 -7 8 -12.5t18 -9.5t18 -17t8 -33q0 -25 -18.5 -41t-43.5 -16q-31 0 -46.5 17.5t-15.5 45.5q0 56 52.5 84.5t119.5 28.5q171 0 171 -118v-295q0 -28 16 -28q8 0 17.5 9.5t14.5 18.5l14 -9
q-38 -67 -100 -67q-33 0 -56.5 23t-26.5 57h-2q-45 -80 -138 -80q-54 0 -83 31t-29 84q0 25 10 46t22 35.5t37 27t40 19.5t48 14.5t43.5 9.5t42.5 8zM160 159v-74q0 -34 12.5 -45.5t34.5 -11.5q24 0 45 24.5t21 48.5v146q-70 -15 -91.5 -31.5t-21.5 -56.5zM200 539l62 136
q12 28 23.5 39t37.5 11q17 0 31 -8.5t14 -25.5q0 -16 -21 -35l-135 -117h-12z" />
    <glyph glyph-name="acircumflex" unicode="&#xe2;" horiz-adv-x="481" 
d="M273 261v136q0 32 -15 46t-51 14q-32 0 -53.5 -9.5t-21.5 -19.5q0 -7 8 -12.5t18 -9.5t18 -17t8 -33q0 -25 -18.5 -41t-43.5 -16q-31 0 -46.5 17.5t-15.5 45.5q0 56 52.5 84.5t119.5 28.5q171 0 171 -118v-295q0 -28 16 -28q8 0 17.5 9.5t14.5 18.5l14 -9
q-38 -67 -100 -67q-33 0 -56.5 23t-26.5 57h-2q-45 -80 -138 -80q-54 0 -83 31t-29 84q0 25 10 46t22 35.5t37 27t40 19.5t48 14.5t43.5 9.5t42.5 8zM160 159v-74q0 -34 12.5 -45.5t34.5 -11.5q24 0 45 24.5t21 48.5v146q-70 -15 -91.5 -31.5t-21.5 -56.5zM116 539l87 186
h76l87 -186h-16l-109 115l-109 -115h-16z" />
    <glyph glyph-name="atilde" unicode="&#xe3;" horiz-adv-x="481" 
d="M273 261v136q0 32 -15 46t-51 14q-32 0 -53.5 -9.5t-21.5 -19.5q0 -7 8 -12.5t18 -9.5t18 -17t8 -33q0 -25 -18.5 -41t-43.5 -16q-31 0 -46.5 17.5t-15.5 45.5q0 56 52.5 84.5t119.5 28.5q171 0 171 -118v-295q0 -28 16 -28q8 0 17.5 9.5t14.5 18.5l14 -9
q-38 -67 -100 -67q-33 0 -56.5 23t-26.5 57h-2q-45 -80 -138 -80q-54 0 -83 31t-29 84q0 25 10 46t22 35.5t37 27t40 19.5t48 14.5t43.5 9.5t42.5 8zM160 159v-74q0 -34 12.5 -45.5t34.5 -11.5q24 0 45 24.5t21 48.5v146q-70 -15 -91.5 -31.5t-21.5 -56.5zM107 567h-12
q4 21 6.5 32t9 30t14.5 29t22 18t32 8q21 0 76.5 -18.5t73.5 -18.5q14 -1 24 7.5t14 18t8 24.5h12q-15 -118 -90 -118q-21 0 -73 19.5t-71 19.5q-35 0 -46 -51z" />
    <glyph glyph-name="adieresis" unicode="&#xe4;" horiz-adv-x="481" 
d="M273 261v136q0 32 -15 46t-51 14q-32 0 -53.5 -9.5t-21.5 -19.5q0 -7 8 -12.5t18 -9.5t18 -17t8 -33q0 -25 -18.5 -41t-43.5 -16q-31 0 -46.5 17.5t-15.5 45.5q0 56 52.5 84.5t119.5 28.5q171 0 171 -118v-295q0 -28 16 -28q8 0 17.5 9.5t14.5 18.5l14 -9
q-38 -67 -100 -67q-33 0 -56.5 23t-26.5 57h-2q-45 -80 -138 -80q-54 0 -83 31t-29 84q0 25 10 46t22 35.5t37 27t40 19.5t48 14.5t43.5 9.5t42.5 8zM160 159v-74q0 -34 12.5 -45.5t34.5 -11.5q24 0 45 24.5t21 48.5v146q-70 -15 -91.5 -31.5t-21.5 -56.5zM265 634
q0 25 18.5 43.5t43.5 18.5t43.5 -18.5t18.5 -43.5t-18.5 -43.5t-43.5 -18.5t-43.5 18.5t-18.5 43.5zM93 634q0 25 18.5 43.5t43.5 18.5t43.5 -18.5t18.5 -43.5t-18.5 -43.5t-43.5 -18.5t-43.5 18.5t-18.5 43.5z" />
    <glyph glyph-name="aring" unicode="&#xe5;" horiz-adv-x="481" 
d="M273 261v136q0 32 -15 46t-51 14q-32 0 -53.5 -9.5t-21.5 -19.5q0 -7 8 -12.5t18 -9.5t18 -17t8 -33q0 -25 -18.5 -41t-43.5 -16q-31 0 -46.5 17.5t-15.5 45.5q0 56 52.5 84.5t119.5 28.5q171 0 171 -118v-295q0 -28 16 -28q8 0 17.5 9.5t14.5 18.5l14 -9
q-38 -67 -100 -67q-33 0 -56.5 23t-26.5 57h-2q-45 -80 -138 -80q-54 0 -83 31t-29 84q0 25 10 46t22 35.5t37 27t40 19.5t48 14.5t43.5 9.5t42.5 8zM160 159v-74q0 -34 12.5 -45.5t34.5 -11.5q24 0 45 24.5t21 48.5v146q-70 -15 -91.5 -31.5t-21.5 -56.5zM147 616
q0 38 28 66t66 28t66 -28t28 -66t-28 -66t-66 -28t-66 28t-28 66zM177 616q0 -26 19.5 -45t44.5 -19t44.5 19t19.5 45t-19.5 45t-44.5 19t-44.5 -19t-19.5 -45z" />
    <glyph glyph-name="ae" unicode="&#xe6;" horiz-adv-x="685" 
d="M160 159v-74q0 -34 12.5 -45.5t34.5 -11.5q24 0 45 24.5t21 48.5v146q-70 -15 -91.5 -31.5t-21.5 -56.5zM514 293v103q0 61 -56 61q-24 0 -39.5 -15t-15.5 -46v-103h111zM273 261v136q0 32 -15 46t-51 14q-32 0 -53.5 -9.5t-21.5 -19.5q0 -7 8 -12.5t18 -9.5t18 -17
t8 -33q0 -25 -18.5 -41t-43.5 -16q-31 0 -46.5 17.5t-15.5 45.5q0 56 52.5 84.5t119.5 28.5q85 0 129 -26q39 26 102 26q80 0 131 -57.5t56 -142.5h-247v-170q0 -44 23.5 -69.5t60.5 -25.5q55 0 96.5 41t51.5 94l15 -3q-14 -69 -61.5 -112.5t-125.5 -43.5q-52 0 -98.5 29.5
t-75.5 77.5q-18 -51 -56.5 -79t-90.5 -28q-54 0 -83 31t-29 84q0 25 10 46t22 35.5t37 27t40 19.5t48 14.5t43.5 9.5t42.5 8z" />
    <glyph glyph-name="ccedilla" unicode="&#xe7;" horiz-adv-x="426" 
d="M186 -97l45 83q-91 3 -143 76.5t-52 168.5q0 101 61.5 172.5t154.5 71.5q55 0 98.5 -36t43.5 -94q0 -28 -18.5 -50t-47.5 -22q-64 0 -64 67q0 18 9 31.5t19.5 19.5t19.5 14.5t9 17.5q0 34 -66 34q-75 0 -75 -79v-258q0 -50 21.5 -80t61.5 -30q49 0 81.5 37t42.5 88l15 -3
q-12 -63 -50.5 -102t-99.5 -43l-36 -66l2 -2q15 6 40 6q36 0 62.5 -14t26.5 -48q0 -37 -32.5 -53t-73.5 -16q-51 0 -99 20l5 16q29 -12 57 -12q59 0 59 42q0 41 -44 41q-20 0 -25 -5z" />
    <glyph glyph-name="egrave" unicode="&#xe8;" horiz-adv-x="463" 
d="M180 275v-170q0 -44 23.5 -69.5t60.5 -25.5q55 0 96.5 41t51.5 94l15 -3q-14 -69 -61.5 -112.5t-125.5 -43.5q-88 0 -146 76.5t-58 168.5q0 91 58 167.5t146 76.5q80 0 131 -57.5t56 -142.5h-247zM291 293v103q0 61 -56 61q-24 0 -39.5 -15t-15.5 -46v-103h111zM255 539
l-135 117q-21 19 -21 35q0 17 14 25.5t31 8.5q26 0 37.5 -11t23.5 -39l62 -136h-12z" />
    <glyph glyph-name="eacute" unicode="&#xe9;" horiz-adv-x="463" 
d="M180 275v-170q0 -44 23.5 -69.5t60.5 -25.5q55 0 96.5 41t51.5 94l15 -3q-14 -69 -61.5 -112.5t-125.5 -43.5q-88 0 -146 76.5t-58 168.5q0 91 58 167.5t146 76.5q80 0 131 -57.5t56 -142.5h-247zM291 293v103q0 61 -56 61q-24 0 -39.5 -15t-15.5 -46v-103h111zM191 539
l62 136q12 28 23.5 39t37.5 11q17 0 31 -8.5t14 -25.5q0 -16 -21 -35l-135 -117h-12z" />
    <glyph glyph-name="ecircumflex" unicode="&#xea;" horiz-adv-x="463" 
d="M180 275v-170q0 -44 23.5 -69.5t60.5 -25.5q55 0 96.5 41t51.5 94l15 -3q-14 -69 -61.5 -112.5t-125.5 -43.5q-88 0 -146 76.5t-58 168.5q0 91 58 167.5t146 76.5q80 0 131 -57.5t56 -142.5h-247zM291 293v103q0 61 -56 61q-24 0 -39.5 -15t-15.5 -46v-103h111zM107 539
l87 186h76l87 -186h-16l-109 115l-109 -115h-16z" />
    <glyph glyph-name="edieresis" unicode="&#xeb;" horiz-adv-x="463" 
d="M180 275v-170q0 -44 23.5 -69.5t60.5 -25.5q55 0 96.5 41t51.5 94l15 -3q-14 -69 -61.5 -112.5t-125.5 -43.5q-88 0 -146 76.5t-58 168.5q0 91 58 167.5t146 76.5q80 0 131 -57.5t56 -142.5h-247zM291 293v103q0 61 -56 61q-24 0 -39.5 -15t-15.5 -46v-103h111zM256 634
q0 25 18.5 43.5t43.5 18.5t43.5 -18.5t18.5 -43.5t-18.5 -43.5t-43.5 -18.5t-43.5 18.5t-18.5 43.5zM84 634q0 25 18.5 43.5t43.5 18.5t43.5 -18.5t18.5 -43.5t-18.5 -43.5t-43.5 -18.5t-43.5 18.5t-18.5 43.5z" />
    <glyph glyph-name="igrave" unicode="&#xec;" horiz-adv-x="278" 
d="M26 0v18h48v425h-48v18h79q71 0 99 27v-470h48v-18h-226zM162 539l-135 117q-21 19 -21 35q0 17 14 25.5t31 8.5q26 0 37.5 -11t23.5 -39l62 -136h-12z" />
    <glyph glyph-name="iacute" unicode="&#xed;" horiz-adv-x="278" 
d="M26 0v18h48v425h-48v18h79q71 0 99 27v-470h48v-18h-226zM98 539l62 136q12 28 23.5 39t37.5 11q17 0 31 -8.5t14 -25.5q0 -16 -21 -35l-135 -117h-12z" />
    <glyph glyph-name="icircumflex" unicode="&#xee;" horiz-adv-x="278" 
d="M26 0v18h48v425h-48v18h79q71 0 99 27v-470h48v-18h-226zM14 539l87 186h76l87 -186h-16l-109 115l-109 -115h-16z" />
    <glyph glyph-name="idieresis" unicode="&#xef;" horiz-adv-x="278" 
d="M26 0v18h48v425h-48v18h79q71 0 99 27v-470h48v-18h-226zM163 634q0 25 18.5 43.5t43.5 18.5t43.5 -18.5t18.5 -43.5t-18.5 -43.5t-43.5 -18.5t-43.5 18.5t-18.5 43.5zM-9 634q0 25 18.5 43.5t43.5 18.5t43.5 -18.5t18.5 -43.5t-18.5 -43.5t-43.5 -18.5t-43.5 18.5
t-18.5 43.5z" />
    <glyph glyph-name="eth" unicode="&#xf0;" 
d="M300 72v317q0 68 -60 68t-60 -68v-317q0 -68 60 -68t60 68zM125 544l-25 22l106 61q-33 32 -98 71l14 22q70 -20 133 -64l109 64l25 -22l-109 -64q77 -60 120.5 -158.5t43.5 -224.5q0 -106 -57.5 -185.5t-146.5 -79.5q-88 0 -146 76.5t-58 168.5q0 91 58 167.5t146 76.5
q32 0 60 -19q-14 89 -73 148z" />
    <glyph glyph-name="ntilde" unicode="&#xf1;" horiz-adv-x="537" 
d="M26 0v18h48v425h-48v18h79q25 0 38.5 1t30.5 7.5t30 18.5v-97h2q18 40 55.5 62t84.5 22q53 0 85 -32t32 -100v-325h48v-18h-222v18h44v355q0 30 -10 45t-37 15q-39 0 -60.5 -37t-21.5 -72v-306h44v-18h-222zM135 567h-12q4 21 6.5 32t9 30t14.5 29t22 18t32 8
q21 0 76.5 -18.5t73.5 -18.5q14 -1 24 7.5t14 18t8 24.5h12q-15 -118 -90 -118q-21 0 -73 19.5t-71 19.5q-35 0 -46 -51z" />
    <glyph glyph-name="ograve" unicode="&#xf2;" 
d="M300 72v317q0 68 -60 68t-60 -68v-317q0 -68 60 -68t60 68zM36 231q0 91 58 167.5t146 76.5t146 -76.5t58 -167.5q0 -92 -58 -168.5t-146 -76.5t-146 76.5t-58 168.5zM263 539l-135 117q-21 19 -21 35q0 17 14 25.5t31 8.5q26 0 37.5 -11t23.5 -39l62 -136h-12z" />
    <glyph glyph-name="oacute" unicode="&#xf3;" 
d="M300 72v317q0 68 -60 68t-60 -68v-317q0 -68 60 -68t60 68zM36 231q0 91 58 167.5t146 76.5t146 -76.5t58 -167.5q0 -92 -58 -168.5t-146 -76.5t-146 76.5t-58 168.5zM199 539l62 136q12 28 23.5 39t37.5 11q17 0 31 -8.5t14 -25.5q0 -16 -21 -35l-135 -117h-12z" />
    <glyph glyph-name="ocircumflex" unicode="&#xf4;" 
d="M300 72v317q0 68 -60 68t-60 -68v-317q0 -68 60 -68t60 68zM36 231q0 91 58 167.5t146 76.5t146 -76.5t58 -167.5q0 -92 -58 -168.5t-146 -76.5t-146 76.5t-58 168.5zM115 539l87 186h76l87 -186h-16l-109 115l-109 -115h-16z" />
    <glyph glyph-name="otilde" unicode="&#xf5;" 
d="M300 72v317q0 68 -60 68t-60 -68v-317q0 -68 60 -68t60 68zM36 231q0 91 58 167.5t146 76.5t146 -76.5t58 -167.5q0 -92 -58 -168.5t-146 -76.5t-146 76.5t-58 168.5zM106 567h-12q4 21 6.5 32t9 30t14.5 29t22 18t32 8q21 0 76.5 -18.5t73.5 -18.5q14 -1 24 7.5t14 18
t8 24.5h12q-15 -118 -90 -118q-22 0 -74 19.5t-70 19.5q-35 0 -46 -51z" />
    <glyph glyph-name="odieresis" unicode="&#xf6;" 
d="M300 72v317q0 68 -60 68t-60 -68v-317q0 -68 60 -68t60 68zM36 231q0 91 58 167.5t146 76.5t146 -76.5t58 -167.5q0 -92 -58 -168.5t-146 -76.5t-146 76.5t-58 168.5zM264 634q0 25 18.5 43.5t43.5 18.5t43.5 -18.5t18.5 -43.5t-18.5 -43.5t-43.5 -18.5t-43.5 18.5
t-18.5 43.5zM92 634q0 25 18.5 43.5t43.5 18.5t43.5 -18.5t18.5 -43.5t-18.5 -43.5t-43.5 -18.5t-43.5 18.5t-18.5 43.5z" />
    <glyph glyph-name="divide" unicode="&#xf7;" horiz-adv-x="600" 
d="M47 205v96h506v-96h-506zM219 460q0 32 24.5 56.5t56.5 24.5t56.5 -24.5t24.5 -56.5t-24.5 -56.5t-56.5 -24.5t-56.5 24.5t-24.5 56.5zM219 46q0 32 24.5 56.5t56.5 24.5t56.5 -24.5t24.5 -56.5t-24.5 -56.5t-56.5 -24.5t-56.5 24.5t-24.5 56.5z" />
    <glyph glyph-name="oslash" unicode="&#xf8;" 
d="M298 331l-118 -246v-13q0 -68 60 -68t60 68v259h-2zM103 -29l27 56q-43 34 -68.5 90t-25.5 114q0 91 58 167.5t146 76.5q52 0 94 -29l25 51l18 -7l-27 -56q43 -35 68.5 -90.5t25.5 -112.5q0 -92 -58 -168.5t-146 -76.5q-53 0 -94 30l-25 -52zM182 129l118 247v13
q0 68 -60 68t-60 -68v-260h2z" />
    <glyph glyph-name="ugrave" unicode="&#xf9;" horiz-adv-x="537" 
d="M463 488v-470h48v-18h-178v70h-2q-18 -40 -54.5 -62t-85.5 -22q-52 0 -84.5 30.5t-32.5 87.5v339h-48v18h79q71 0 99 27v-405q0 -25 12.5 -40t34.5 -15q37 0 59.5 36t22.5 73v306h-53v18h84q71 0 99 27zM292 539l-135 117q-21 19 -21 35q0 17 14 25.5t31 8.5
q26 0 37.5 -11t23.5 -39l62 -136h-12z" />
    <glyph glyph-name="uacute" unicode="&#xfa;" horiz-adv-x="537" 
d="M463 488v-470h48v-18h-178v70h-2q-18 -40 -54.5 -62t-85.5 -22q-52 0 -84.5 30.5t-32.5 87.5v339h-48v18h79q71 0 99 27v-405q0 -25 12.5 -40t34.5 -15q37 0 59.5 36t22.5 73v306h-53v18h84q71 0 99 27zM228 539l62 136q12 28 23.5 39t37.5 11q17 0 31 -8.5t14 -25.5
q0 -16 -21 -35l-135 -117h-12z" />
    <glyph glyph-name="ucircumflex" unicode="&#xfb;" horiz-adv-x="537" 
d="M463 488v-470h48v-18h-178v70h-2q-18 -40 -54.5 -62t-85.5 -22q-52 0 -84.5 30.5t-32.5 87.5v339h-48v18h79q71 0 99 27v-405q0 -25 12.5 -40t34.5 -15q37 0 59.5 36t22.5 73v306h-53v18h84q71 0 99 27zM144 539l87 186h76l87 -186h-16l-109 115l-109 -115h-16z" />
    <glyph glyph-name="udieresis" unicode="&#xfc;" horiz-adv-x="537" 
d="M463 488v-470h48v-18h-178v70h-2q-18 -40 -54.5 -62t-85.5 -22q-52 0 -84.5 30.5t-32.5 87.5v339h-48v18h79q71 0 99 27v-405q0 -25 12.5 -40t34.5 -15q37 0 59.5 36t22.5 73v306h-53v18h84q71 0 99 27zM293 634q0 25 18.5 43.5t43.5 18.5t43.5 -18.5t18.5 -43.5
t-18.5 -43.5t-43.5 -18.5t-43.5 18.5t-18.5 43.5zM121 634q0 25 18.5 43.5t43.5 18.5t43.5 -18.5t18.5 -43.5t-18.5 -43.5t-43.5 -18.5t-43.5 18.5t-18.5 43.5z" />
    <glyph glyph-name="yacute" unicode="&#xfd;" horiz-adv-x="389" 
d="M183 -26l-167 469h-36v18h214v-18h-42l95 -273h2l60 181q14 40 14 62q0 30 -36 30h-9v18h124v-18h-13q-16 0 -27 -11t-23 -48l-158 -468q-29 -84 -57 -121.5t-70 -37.5q-26 0 -43.5 19t-17.5 46q0 65 56 65q23 0 42 -20t29 -20q13 0 20 11.5t18 42.5zM154 539l62 136
q12 28 23.5 39t37.5 11q17 0 31 -8.5t14 -25.5q0 -16 -21 -35l-135 -117h-12z" />
    <glyph glyph-name="thorn" unicode="&#xfe;" horiz-adv-x="537" 
d="M22 -229v18h48v897h-48v18h79q71 0 99 25v-332h2q38 78 113 78q85 0 131.5 -73.5t46.5 -168.5q0 -61 -17 -114.5t-61 -93t-108 -39.5q-39 0 -67 24.5t-38 62.5h-2v-284h52v-18h-230zM349 99v269q0 83 -56 83q-41 0 -67 -42.5t-26 -112.5v-157q0 -21 7.5 -48.5t30 -54
t53.5 -26.5q58 0 58 89z" />
    <glyph glyph-name="ydieresis" unicode="&#xff;" horiz-adv-x="389" 
d="M183 -26l-167 469h-36v18h214v-18h-42l95 -273h2l60 181q14 40 14 62q0 30 -36 30h-9v18h124v-18h-13q-16 0 -27 -11t-23 -48l-158 -468q-29 -84 -57 -121.5t-70 -37.5q-26 0 -43.5 19t-17.5 46q0 65 56 65q23 0 42 -20t29 -20q13 0 20 11.5t18 42.5zM219 634
q0 25 18.5 43.5t43.5 18.5t43.5 -18.5t18.5 -43.5t-18.5 -43.5t-43.5 -18.5t-43.5 18.5t-18.5 43.5zM47 634q0 25 18.5 43.5t43.5 18.5t43.5 -18.5t18.5 -43.5t-18.5 -43.5t-43.5 -18.5t-43.5 18.5t-18.5 43.5z" />
    <glyph glyph-name="dotlessi" unicode="&#x131;" horiz-adv-x="278" 
d="M26 0v18h48v425h-48v18h79q71 0 99 27v-470h48v-18h-226z" />
    <glyph glyph-name="Lslash" unicode="&#x141;" horiz-adv-x="500" 
d="M30 0v18h48v282l-48 -32v34l48 32v352h-48v18h255v-18h-57v-252l110 73v-34l-110 -73v-382q111 0 156 50t54 160h20l-4 -228h-424z" />
    <glyph glyph-name="lslash" unicode="&#x142;" horiz-adv-x="278" 
d="M26 0v18h48v309l-48 -39v34l48 39v325h-48v18h79q71 0 99 25v-263l48 39v-34l-48 -39v-414h48v-18h-226z" />
    <glyph glyph-name="OE" unicode="&#x152;" horiz-adv-x="815" 
d="M519 686v-312q35 0 56.5 9t31.5 30t13.5 39.5t5.5 52.5h18v-291h-18q-1 70 -21.5 106t-85.5 36v-338h40q50 0 85.5 17t56.5 49t32 66.5t18 81.5h17l-14 -232h-337q-16 0 -67 -8q-51 -6 -61 -6q-50 0 -99 33t-78 77q-68 104 -68 273q0 85 31.5 165t89 132t124.5 52
q24 0 59 -7q38 -7 76 -7h327l6 -185h-21q-5 33 -14 58.5t-27 52t-49.5 41.5t-75.5 15h-51zM212 586v-468q0 -114 80 -114q45 0 64 23.5t19 79.5v490q0 56 -19 79.5t-64 23.5q-80 0 -80 -114z" />
    <glyph glyph-name="oe" unicode="&#x153;" horiz-adv-x="704" 
d="M529 293v103q0 61 -56 61q-24 0 -39.5 -15t-15.5 -46v-103h111zM300 72v317q0 68 -60 68t-60 -68v-317q0 -68 60 -68t60 68zM418 275v-170q0 -44 23.5 -69.5t60.5 -25.5q55 0 96.5 41t51.5 94l15 -3q-14 -69 -61.5 -112.5t-125.5 -43.5q-58 0 -117 51q-54 -51 -121 -51
q-88 0 -146 76.5t-58 168.5q0 91 58 167.5t146 76.5q77 0 121 -44q46 44 117 44q80 0 131 -57.5t56 -142.5h-247z" />
    <glyph glyph-name="Scaron" unicode="&#x160;" horiz-adv-x="519" 
d="M54 0v205h18q2 -72 53 -136.5t122 -64.5q62 0 97.5 34.5t35.5 97.5q0 36 -18.5 63t-47.5 44t-64 32t-70.5 34t-64.5 43t-47.5 64t-18.5 94q0 92 54 150t148 58q40 0 72.5 -12t50.5 -24t22 -12q18 0 23 34h18v-190h-18q-6 83 -48 134.5t-122 51.5q-46 0 -81 -31t-35 -79
q0 -30 18.5 -53.5t48.5 -40t65.5 -32.5t71.5 -36.5t66 -46.5t48.5 -68.5t18.5 -96.5q0 -107 -60 -168.5t-163 -61.5q-46 0 -96.5 25.5t-57.5 25.5q-10 0 -15.5 -13t-5.5 -24h-18zM385 927l-87 -186h-76l-87 186h16l109 -115l109 115h16z" />
    <glyph glyph-name="scaron" unicode="&#x161;" horiz-adv-x="389" 
d="M47 -14v180h18q0 -64 34 -113t97 -49q43 0 69 21.5t26 62.5q0 34 -25.5 53.5t-61.5 29t-72.5 22.5t-62 44.5t-25.5 83.5q0 72 35 113t104 41q34 0 66 -15t35 -15q18 0 20 30h18v-150h-18q0 58 -33.5 95t-91.5 37q-37 0 -59 -17.5t-22 -46.5q0 -28 18.5 -44.5t45.5 -22
t59.5 -16t59.5 -24.5t45.5 -48.5t18.5 -87.5q0 -73 -37.5 -118.5t-106.5 -45.5q-39 0 -75.5 15t-40.5 15q-9 0 -14.5 -9t-5.5 -21h-18zM320 725l-87 -186h-76l-87 186h16l109 -115l109 115h16z" />
    <glyph glyph-name="Ydieresis" unicode="&#x178;" horiz-adv-x="463" 
d="M104 0v18h53v303l-147 365h-36v18h233v-18h-42l125 -319l104 249q17 39 17 50q0 20 -46 20v18h124v-18q-32 0 -43 -9.5t-29 -54.5l-110 -272v-332h53v-18h-256zM276 836q0 25 18.5 43.5t43.5 18.5t43.5 -18.5t18.5 -43.5t-18.5 -43.5t-43.5 -18.5t-43.5 18.5t-18.5 43.5z
M104 836q0 25 18.5 43.5t43.5 18.5t43.5 -18.5t18.5 -43.5t-18.5 -43.5t-43.5 -18.5t-43.5 18.5t-18.5 43.5z" />
    <glyph glyph-name="Zcaron" unicode="&#x17d;" horiz-adv-x="500" 
d="M10 0v24l294 662h-65q-155 0 -171 -174h-20l4 192h410v-18l-293 -668q59 0 93.5 3.5t68 15t52 35t32 61.5t20.5 97h23l-10 -230h-438zM375 927l-87 -186h-76l-87 186h16l109 -115l109 115h16z" />
    <glyph glyph-name="zcaron" unicode="&#x17e;" horiz-adv-x="426" 
d="M23 0v18l220 425h-52q-30 0 -53.5 -10.5t-37 -25t-23.5 -37t-14 -39t-7 -38.5h-12v168h339v-18l-217 -425h56q38 0 65 13.5t41.5 39t22 49.5t12.5 57h14l-4 -177h-350zM338 725l-87 -186h-76l-87 186h16l109 -115l109 115h16z" />
    <glyph glyph-name="florin" unicode="&#x192;" 
d="M75 332v18h100q5 150 65.5 252t154.5 102q34 0 58 -20.5t24 -57.5q0 -25 -17 -42.5t-42 -17.5q-24 0 -39.5 14.5t-15.5 39.5q0 18 10.5 29t21.5 16.5t11 9.5q0 11 -17 11q-74 0 -83 -192l-6 -144h99v-18h-100q-15 -196 -21 -242q-46 -333 -207 -333q-29 0 -48.5 18.5
t-19.5 46.5t14.5 45t39.5 17q23 0 38.5 -15t15.5 -35q0 -18 -15 -32.5t-15 -18.5q0 -8 12 -8q5 0 10.5 1.5t14.5 9.5t15.5 21t12 39.5t7.5 62.5l21 423h-99z" />
    <glyph glyph-name="circumflex" unicode="&#x2c6;" horiz-adv-x="278" 
d="M14 539l87 186h76l87 -186h-16l-109 115l-109 -115h-16z" />
    <glyph glyph-name="caron" unicode="&#x2c7;" horiz-adv-x="278" 
d="M264 725l-87 -186h-76l-87 186h16l109 -115l109 115h16z" />
    <glyph glyph-name="uni02C9" unicode="&#x2c9;" horiz-adv-x="278" 
d="M-6 604v54h290v-54h-290z" />
    <glyph glyph-name="breve" unicode="&#x2d8;" horiz-adv-x="278" 
d="M9 709h12q3 -41 38.5 -65t79.5 -24t79.5 24t38.5 65h12q0 -67 -32.5 -111t-97.5 -44t-97.5 44t-32.5 111z" />
    <glyph glyph-name="dotaccent" unicode="&#x2d9;" horiz-adv-x="278" 
d="M77 634q0 25 18.5 43.5t43.5 18.5t43.5 -18.5t18.5 -43.5t-18.5 -43.5t-43.5 -18.5t-43.5 18.5t-18.5 43.5z" />
    <glyph glyph-name="ring" unicode="&#x2da;" horiz-adv-x="278" 
d="M45 616q0 38 28 66t66 28t66 -28t28 -66t-28 -66t-66 -28t-66 28t-28 66zM75 616q0 -26 19.5 -45t44.5 -19t44.5 19t19.5 45t-19.5 45t-44.5 19t-44.5 -19t-19.5 -45z" />
    <glyph glyph-name="ogonek" unicode="&#x2db;" horiz-adv-x="278" 
d="M232 -145l5 -12q-47 -49 -97 -49q-37 0 -58 20t-21 57q0 40 37 74t83 55h14q-68 -63 -68 -113q0 -23 13 -37t37 -14q25 0 55 19z" />
    <glyph glyph-name="tilde" unicode="&#x2dc;" horiz-adv-x="278" 
d="M5 567h-12q4 21 6.5 32t9 30t14.5 29t22 18t32 8q21 0 76.5 -18.5t73.5 -18.5q14 -1 24 7.5t14 18t8 24.5h12q-15 -118 -90 -118q-21 0 -73 19.5t-71 19.5q-35 0 -46 -51z" />
    <glyph glyph-name="hungarumlaut" unicode="&#x2dd;" horiz-adv-x="278" 
d="M16 539l62 136q12 28 23.5 39t37.5 11q17 0 31 -8.5t14 -25.5q0 -16 -21 -35l-135 -117h-12zM180 539l62 136q12 28 23.5 39t37.5 11q17 0 31 -8.5t14 -25.5q0 -16 -21 -35l-135 -117h-12z" />
    <glyph glyph-name="uni03A9" unicode="&#x3a9;" horiz-adv-x="628" 
d="M600 163l-23 -163h-218l-8 19q2 5 22 65.5t26 82t19 69.5t17.5 84t4.5 69q-1 146 -36 211.5t-92 65.5q-59 0 -91.5 -62t-32.5 -218q0 -127 87 -367l-9 -19h-218l-20 163h31q13 -42 27 -54.5t42 -12.5h81q-32 29 -52 50.5t-48 60t-42 86t-14 101.5q0 139 75 223.5
t188 84.5t186 -82.5t73 -220.5q0 -51 -13.5 -95.5t-43.5 -86t-48.5 -62t-57.5 -59.5h92q26 0 38.5 12t25.5 55h32z" />
    <glyph glyph-name="uni03BC" unicode="&#x3bc;" horiz-adv-x="537" 
d="M333 0v73h-2q-38 -87 -129 -87q-18 0 -36 9q0 -26 4 -91.5t4 -89.5q0 -26 -14.5 -41.5t-39.5 -15.5t-39.5 15.5t-14.5 41.5q0 24 4 89.5t4 91.5v448h-48v18h79q71 0 99 27v-405q0 -25 12.5 -40t34.5 -15q37 0 59.5 36t22.5 73v306h-53v18h84q71 0 99 27v-470h48v-18h-178
z" />
    <glyph glyph-name="pi" unicode="&#x3c0;" horiz-adv-x="520" 
d="M470 467l28 -7q-8 -67 -33 -110q-15 -6 -56 -6q-4 -53 -4 -193q0 -48 8 -68t26 -20q17 0 40 21l12 -25q-17 -31 -47 -51.5t-59 -20.5q-94 0 -94 136q0 66 8 224q-21 -1 -58.5 0t-49.5 1v-10q0 -247 -59 -332q-31 -15 -68 -19l-8 21q87 129 87 342q-38 1 -59 -6.5
t-54 -28.5l-15 29q2 2 10.5 13t12.5 16t14 15.5t17.5 16t20.5 13.5t25.5 12t29.5 6.5t36 2.5q142 -2 236 -2q24 0 34 6t19 24z" />
    <glyph glyph-name="endash" unicode="&#x2013;" horiz-adv-x="500" 
d="M0 211v84h500v-84h-500z" />
    <glyph glyph-name="emdash" unicode="&#x2014;" horiz-adv-x="1000" 
d="M0 211v84h1000v-84h-1000z" />
    <glyph glyph-name="quoteleft" unicode="&#x2018;" horiz-adv-x="240" 
d="M186 718l2 -18q-121 -45 -125 -159q28 29 65 29q28 0 50.5 -23t22.5 -52q0 -31 -23 -53t-56 -22q-40 0 -61.5 29.5t-21.5 67.5q0 75 38 126.5t109 74.5z" />
    <glyph glyph-name="quoteright" unicode="&#x2019;" horiz-adv-x="240" 
d="M54 420l-2 18q121 45 125 159q-28 -29 -65 -29q-28 0 -50.5 23t-22.5 52q0 31 23 53t56 22q40 0 61.5 -29.5t21.5 -67.5q0 -75 -38 -126.5t-109 -74.5z" />
    <glyph glyph-name="quotesinglbase" unicode="&#x201a;" horiz-adv-x="240" 
d="M54 -162l-2 18q121 45 125 159q-28 -29 -65 -29q-28 0 -50.5 23t-22.5 52q0 31 23 53t56 22q40 0 61.5 -29.5t21.5 -67.5q0 -75 -38 -126.5t-109 -74.5z" />
    <glyph glyph-name="quotedblleft" unicode="&#x201c;" horiz-adv-x="481" 
d="M203 718l2 -18q-121 -45 -125 -159q28 29 65 29q28 0 50.5 -23t22.5 -52q0 -31 -23 -53t-56 -22q-40 0 -61.5 29.5t-21.5 67.5q0 75 38 126.5t109 74.5zM410 718l2 -18q-121 -45 -125 -159q28 29 65 29q28 0 50.5 -23t22.5 -52q0 -31 -23 -53t-56 -22q-40 0 -61.5 29.5
t-21.5 67.5q0 75 38 126.5t109 74.5z" />
    <glyph glyph-name="quotedblright" unicode="&#x201d;" horiz-adv-x="481" 
d="M278 420l-2 18q121 45 125 159q-28 -29 -65 -29q-28 0 -50.5 23t-22.5 52q0 31 23 53t56 22q40 0 61.5 -29.5t21.5 -67.5q0 -75 -38 -126.5t-109 -74.5zM71 420l-2 18q121 45 125 159q-28 -29 -65 -29q-28 0 -50.5 23t-22.5 52q0 31 23 53t56 22q40 0 61.5 -29.5
t21.5 -67.5q0 -75 -38 -126.5t-109 -74.5z" />
    <glyph glyph-name="quotedblbase" unicode="&#x201e;" horiz-adv-x="481" 
d="M278 -162l-2 18q121 45 125 159q-28 -29 -65 -29q-28 0 -50.5 23t-22.5 52q0 31 23 53t56 22q40 0 61.5 -29.5t21.5 -67.5q0 -75 -38 -126.5t-109 -74.5zM71 -162l-2 18q121 45 125 159q-28 -29 -65 -29q-28 0 -50.5 23t-22.5 52q0 31 23 53t56 22q40 0 61.5 -29.5
t21.5 -67.5q0 -75 -38 -126.5t-109 -74.5z" />
    <glyph glyph-name="dagger" unicode="&#x2020;" 
d="M5 350q0 14 34.5 19t34.5 11q0 2 -5 19t-5 23q0 12 9 12q4 0 22.5 -15t55 -34t80.5 -26q0 57 -11 108.5t-24.5 80t-24.5 49.5t-11 25q0 9 12 9q4 0 20.5 -3t20.5 -3q3 0 8 40t19 39q14 1 19 -39t8 -40q4 0 20.5 3t20.5 3q12 0 12 -9q0 -4 -11 -25t-24.5 -49.5t-24.5 -80
t-11 -108.5q44 7 80.5 26t55 34t22.5 15q9 0 9 -12q0 -6 -5 -23t-5 -19q0 -6 34.5 -11t34.5 -19t-34.5 -19t-34.5 -11q0 -2 5 -19t5 -23q0 -12 -9 -12q-4 0 -22.5 15t-55 34t-80.5 26q0 -123 17.5 -246.5t35.5 -196.5l17 -74q0 -14 -11 -14q-6 0 -21 5t-17 5q-4 0 -10 -41
t-20 -41t-20 41t-10 41q-2 0 -17 -5t-21 -5q-11 0 -11 14l17 74q18 73 35.5 196.5t17.5 246.5q-44 -7 -80.5 -26t-55 -34t-22.5 -15q-9 0 -9 12q0 6 5 23t5 19q0 6 -34.5 11t-34.5 19z" />
    <glyph glyph-name="daggerdbl" unicode="&#x2021;" 
d="M240 704q15 0 19.5 -40.5t9.5 -40.5q6 0 19.5 3.5t18.5 3.5q15 0 15 -11q0 -4 -18 -29t-36.5 -72.5t-18.5 -103.5q33 0 63.5 11.5t48 25.5t31 25.5t16.5 11.5q11 0 11 -11q0 -4 -7.5 -21t-7.5 -20q0 -4 4 -5.5t15.5 -2.5t15.5 -2q36 -6 36 -21t-36 -21q-4 -1 -15.5 -2
t-15.5 -2.5t-4 -5.5t7.5 -21t7.5 -20q0 -11 -11 -11q-3 0 -16.5 11.5t-31 25.5t-48 25.5t-63.5 11.5q0 -94 54 -175q-54 -81 -54 -175q33 0 63.5 11.5t48 25.5t31 25.5t16.5 11.5q11 0 11 -11q0 -4 -7.5 -21t-7.5 -20q0 -4 4 -5.5t15.5 -2.5t15.5 -2q36 -6 36 -21t-36 -21
q-4 -1 -15.5 -2t-15.5 -2.5t-4 -5.5q0 -3 7.5 -20.5t7.5 -20.5q0 -11 -11 -11q-3 0 -16.5 11.5t-31 25.5t-48 25.5t-63.5 11.5q0 -56 18.5 -103.5t36.5 -72.5t18 -29q0 -11 -15 -11q-5 0 -18.5 3.5t-19.5 3.5q-5 0 -9.5 -40.5t-19.5 -40.5t-19.5 40.5t-9.5 40.5
q-6 0 -19.5 -3.5t-18.5 -3.5q-15 0 -15 11q0 4 18 29t36.5 72.5t18.5 103.5q-33 0 -63.5 -11.5t-48 -25.5t-31 -25.5t-16.5 -11.5q-11 0 -11 11q0 3 7.5 20.5t7.5 20.5q0 4 -4 5.5t-15.5 2.5t-15.5 2q-36 6 -36 21t36 21q4 1 15.5 2t15.5 2.5t4 5.5q0 3 -7.5 20t-7.5 21
q0 11 11 11q3 0 16.5 -11.5t31 -25.5t48 -25.5t63.5 -11.5q0 103 -52 175q52 72 52 175q-33 0 -63.5 -11.5t-48 -25.5t-31 -25.5t-16.5 -11.5q-11 0 -11 11q0 3 7.5 20t7.5 21t-4 5.5t-15.5 2.5t-15.5 2q-36 6 -36 21t36 21q4 1 15.5 2t15.5 2.5t4 5.5q0 3 -7.5 20t-7.5 21
q0 11 11 11q3 0 16.5 -11.5t31 -25.5t48 -25.5t63.5 -11.5q0 56 -18.5 103.5t-36.5 72.5t-18 29q0 11 15 11q5 0 18.5 -3.5t19.5 -3.5q5 0 9.5 40.5t19.5 40.5z" />
    <glyph glyph-name="bullet" unicode="&#x2022;" horiz-adv-x="500" 
d="M74 352q0 73 51.5 124.5t124.5 51.5t124.5 -51.5t51.5 -124.5t-51.5 -124.5t-124.5 -51.5t-124.5 51.5t-51.5 124.5z" />
    <glyph glyph-name="ellipsis" unicode="&#x2026;" horiz-adv-x="1000" 
d="M92 61q0 30 22.5 52.5t52.5 22.5t52.5 -22.5t22.5 -52.5t-22.5 -52.5t-52.5 -22.5t-52.5 22.5t-22.5 52.5zM425 61q0 30 22.5 52.5t52.5 22.5t52.5 -22.5t22.5 -52.5t-22.5 -52.5t-52.5 -22.5t-52.5 22.5t-22.5 52.5zM758 61q0 30 22.5 52.5t52.5 22.5t52.5 -22.5
t22.5 -52.5t-22.5 -52.5t-52.5 -22.5t-52.5 22.5t-22.5 52.5z" />
    <glyph glyph-name="perthousand" unicode="&#x2030;" horiz-adv-x="963" 
d="M39 520q0 45 10.5 84.5t38.5 69.5t71 30t71 -30t38.5 -69.5t10.5 -84.5t-10.5 -84.5t-38.5 -69.5t-71 -30t-71 30t-38.5 69.5t-10.5 84.5zM195 405v230q0 57 -36 57t-36 -57v-230q0 -57 36 -57t36 57zM370 170q0 45 10.5 84.5t38.5 69.5t71 30t71 -30t38.5 -69.5
t10.5 -84.5t-10.5 -84.5t-38.5 -69.5t-71 -30t-71 30t-38.5 69.5t-10.5 84.5zM526 55v230q0 57 -36 57t-36 -57v-230q0 -57 36 -57t36 57zM840 55v230q0 57 -36 57t-36 -57v-230q0 -57 36 -57t36 57zM684 170q0 45 10.5 84.5t38.5 69.5t71 30t71 -30t38.5 -69.5t10.5 -84.5
t-10.5 -84.5t-38.5 -69.5t-71 -30t-71 30t-38.5 69.5t-10.5 84.5zM77 -24l459 738h36l-459 -738h-36z" />
    <glyph glyph-name="guilsinglleft" unicode="&#x2039;" horiz-adv-x="240" 
d="M147 90l-105 163l105 163h51l-105 -163l105 -163h-51z" />
    <glyph glyph-name="guilsinglright" unicode="&#x203a;" horiz-adv-x="240" 
d="M93 416l105 -163l-105 -163h-51l105 163l-105 163h51z" />
    <glyph glyph-name="fraction" unicode="&#x2044;" horiz-adv-x="167" 
d="M-164 -24l459 738h36l-459 -738h-36z" />
    <glyph glyph-name="Euro" unicode="&#x20ac;" 
d="M443 566h-23q-12 87 -93 87q-57 0 -84.5 -59t-34.5 -177h192l-16 -43h-177v-31v-33h154l-16 -44h-138q11 -230 121 -230q35 0 60.5 21.5t31.5 64.5h23l-6 -86q-39 -49 -141 -49q-103 0 -156 69.5t-63 209.5h-62l16 44h41q-1 10 -1 34v30h-56l16 43h43q12 145 64 215.5
t158 70.5q101 0 141 -48z" />
    <glyph glyph-name="afii61289" unicode="&#x2113;" horiz-adv-x="402" 
d="M364 131l24 -20q-58 -123 -168 -123q-73 0 -105 39q-18 25 -24.5 52.5t-6.5 91.5v76l-48 -35l-14 31l61 47v142q0 103 10.5 151.5t38.5 88.5q43 63 101 63q46 0 71 -37.5t25 -98.5q0 -82 -31.5 -145.5t-96.5 -134.5v-85q0 -97 14.5 -134t54.5 -37q49 0 94 68zM201 482
v-106q30 36 48 96.5t18 123.5q0 104 -33 104q-20 0 -26.5 -41t-6.5 -177z" />
    <glyph glyph-name="trademark" unicode="&#x2122;" horiz-adv-x="1000" 
d="M99 300v24q37 0 44 8t7 38v310h-44q-51 0 -66 -64h-24v88h370v-88h-24q-15 64 -66 64h-44v-310q0 -30 7 -38t44 -8v-24h-204zM444 300v24q34 0 43 14.5t9 55.5v234q-24 52 -71 52v24h148l135 -283l145 283h127v-24q-33 0 -42.5 -10t-9.5 -36v-264q0 -17 0.5 -23.5
t5.5 -13t15 -8t29 -1.5v-24h-202v24q36 0 43 8t7 38v220h-2l-145 -290h-14l-137 290h-2v-196q0 -42 8.5 -56t43.5 -14v-24h-134z" />
    <glyph glyph-name="Omega" unicode="&#x2126;" horiz-adv-x="628" 
d="M600 163l-23 -163h-218l-8 19q2 5 22 65.5t26 82t19 69.5t17.5 84t4.5 69q-1 146 -36 211.5t-92 65.5q-59 0 -91.5 -62t-32.5 -218q0 -127 87 -367l-9 -19h-218l-20 163h31q13 -42 27 -54.5t42 -12.5h81q-32 29 -52 50.5t-48 60t-42 86t-14 101.5q0 139 75 223.5
t188 84.5t186 -82.5t73 -220.5q0 -51 -13.5 -95.5t-43.5 -86t-48.5 -62t-57.5 -59.5h92q26 0 38.5 12t25.5 55h32z" />
    <glyph glyph-name="estimated" unicode="&#x212e;" horiz-adv-x="864" 
d="M830 334h-645q-5 0 -5 -4v-195q0 -12 8 -22q103 -106 244 -106q154 0 257 118h57q-54 -63 -137.5 -100.5t-177.5 -37.5q-164 0 -281 104.5t-117 252.5t117 253t281 105q166 0 282.5 -104.5t116.5 -253.5v-10zM684 360v196q0 13 -10 23q-104 102 -242 102
q-140 0 -243 -105q-9 -9 -9 -24v-192q0 -6 5 -6h494q5 0 5 6z" />
    <glyph glyph-name="partialdiff" unicode="&#x2202;" horiz-adv-x="494" 
d="M245 424h1q64 0 102 -52q9 76 12 113q6 89 -20 149q-31 65 -107 65q-61 0 -127 -58q-12 0 -26 32t-7 51q59 38 128 38q131 0 201 -144q48 -102 48 -241q0 -140 -44 -239q-30 -69 -81 -109.5t-119 -40.5q-77 0 -123 50.5t-46 140.5q0 97 56 170q26 33 67 54t85 21z
M270 379h-1q-47 0 -77 -56q-42 -86 -42 -218q0 -84 58 -84q44 0 85 110q31 77 44 194q-6 19 -25 36.5t-42 17.5z" />
    <glyph glyph-name="Delta" unicode="&#x2206;" horiz-adv-x="583" 
d="M553 0h-523v35l231 654l49 13l243 -667v-35zM406 60l-159 452l-154 -452h313z" />
    <glyph glyph-name="product" unicode="&#x220f;" horiz-adv-x="646" 
d="M622 694v-33q-59 -5 -72.5 -20.5t-13.5 -75.5v-517q0 -64 13.5 -80t70.5 -22v-32h-270v32q46 4 56 19.5t10 81.5v570q0 24 -6.5 30.5t-29.5 6.5h-118q-22 0 -27.5 -5.5t-5.5 -27.5v-574v-7q0 -59 8.5 -74t50.5 -20v-32h-264v32q57 5 70.5 21.5t13.5 79.5v518
q0 61 -13.5 76t-73.5 20v33h601z" />
    <glyph glyph-name="summation" unicode="&#x2211;" horiz-adv-x="507" 
d="M487 113l-43 -207h-419v30l198 314l-196 412v32h418q0 -7 4.5 -69t6.5 -99l-33 -6q-14 60 -32 95q-11 23 -30 31t-69 8h-121l153 -311l-204 -331h201q63 0 85 17t48 92z" />
    <glyph glyph-name="minus" unicode="&#x2212;" horiz-adv-x="600" 
d="M47 205v96h506v-96h-506z" />
    <glyph glyph-name="uni2215" unicode="&#x2215;" horiz-adv-x="167" 
d="M-164 -24l459 738h36l-459 -738h-36z" />
    <glyph glyph-name="uni2219" unicode="&#x2219;" horiz-adv-x="240" 
d="M45 290q0 30 22.5 52.5t52.5 22.5t52.5 -22.5t22.5 -52.5t-22.5 -52.5t-52.5 -22.5t-52.5 22.5t-22.5 52.5z" />
    <glyph glyph-name="radical" unicode="&#x221a;" horiz-adv-x="520" 
d="M508 865l-165 -1039l-26 -11l-190 540l-81 -35l-13 39l173 73l125 -383h3l127 825z" />
    <glyph glyph-name="infinity" unicode="&#x221e;" horiz-adv-x="712" 
d="M668 286v-1q0 -75 -45 -120t-105 -45q-43 0 -81 22t-80 81q-40 -51 -78.5 -77t-89.5 -26q-59 0 -103 45t-44 115q0 71 44 116.5t111 45.5q87 0 162 -99q2 3 7 8q24 28 39.5 43t48.5 31.5t69 16.5q61 0 103 -43t42 -113zM198 191h1q33 0 59.5 21.5t59.5 63.5
q-26 37 -37 51t-35 30t-51 16q-38 0 -59.5 -26t-21.5 -68q0 -37 24.5 -62.5t59.5 -25.5zM516 373h-1q-13 0 -26.5 -5t-22 -10t-22 -18.5l-17.5 -17.5t-18 -22l-14 -17q41 -54 66.5 -73t58.5 -19q34 0 55 28t21 60q0 41 -22 67.5t-58 26.5z" />
    <glyph glyph-name="integral" unicode="&#x222b;" horiz-adv-x="381" 
d="M150 -12l-20 397q-5 106 3.5 187t25.5 127.5t42 76t49 39.5t50 10q27 0 49.5 -15t22.5 -42q0 -28 -17.5 -43t-41.5 -15q-17 0 -25.5 15t-14 30.5t-13.5 15.5q-31 0 -24 -145l19 -358q12 -239 -39.5 -356t-137.5 -117q-29 0 -50 17t-21 41q-1 27 19.5 45t46.5 18
q14 0 23 -16.5t15 -33.5t14 -17q33 0 25 139z" />
    <glyph glyph-name="approxequal" unicode="&#x2248;" horiz-adv-x="474" 
d="M394 443l48 -41q-21 -44 -53 -72t-69 -28q-44 0 -94 35q-46 32 -72 32q-18 0 -33 -11.5t-22.5 -22t-20.5 -33.5l-49 40q19 43 54.5 71t76.5 28q9 0 17.5 -1t16 -3.5l13.5 -4.5t13 -5.5t10.5 -5.5t10.5 -6.5t9 -5.5q51 -33 71 -33q22 0 37.5 16.5t35.5 50.5zM394 267
l48 -40q-21 -44 -53 -72t-69 -28q-42 0 -94 34q-47 33 -72 33q-6 0 -12 -1t-11.5 -4t-9.5 -5.5t-8.5 -7.5t-7.5 -8t-7.5 -10t-6.5 -9.5t-7 -11t-6 -10.5l-49 39q19 44 54.5 72t76.5 28q11 0 21 -2t17 -3.5t16.5 -6t13 -6.5t12.5 -7.5t10 -6.5q5 -3 18 -12t18.5 -12
t15.5 -6.5t18 -3.5q22 0 37.5 16t36.5 51z" />
    <glyph glyph-name="notequal" unicode="&#x2260;" horiz-adv-x="474" 
d="M354 494l-32 -77h110v-76h-136l-50 -122h186v-75h-212l-41 -99l-58 21l33 78h-113v75h139l49 122h-188v76h214l41 98z" />
    <glyph glyph-name="lessequal" unicode="&#x2264;" horiz-adv-x="474" 
d="M429 100l-382 208v82l382 207v-88l-312 -159v-2l312 -159v-89zM434 -11h-391v76h391v-76z" />
    <glyph glyph-name="greaterequal" unicode="&#x2265;" horiz-adv-x="474" 
d="M49 597l383 -208v-81l-383 -208v89l313 159v2l-313 159v88zM433 -11h-389v76h389v-76z" />
    <glyph glyph-name="lozenge" unicode="&#x25ca;" horiz-adv-x="516" 
d="M472 335l-167 -401h-94l-166 401l169 403h91zM389 335l-128 323h-3l-131 -323l131 -324h3z" />
    </font>
</defs>
</svg>
