<svg id="Layer_1" data-name="Layer 1" xmlns="http://www.w3.org/2000/svg" viewBox="0 0 17.13201 12.79136"><defs><style>.cls-1{fill:#c7caca;}</style></defs><title>icono-footer</title><g id="_Group_" data-name="&lt;Group&gt;"><path id="_Compound_Path_" data-name="&lt;Compound Path&gt;" class="cls-1" d="M.89885,12.39568H.3707v-12H.89885Z"/><path id="_Compound_Path_2" data-name="&lt;Compound Path&gt;" class="cls-1" d="M6.64494.9718h1.548V6.53958H8.793v.8999h-.6001v1.9562H7.18509V7.43948H4.85714V6.56357Zm.54015,1.12774L5.817,6.53958H7.18509Z"/><path id="_Compound_Path_3" data-name="&lt;Compound Path&gt;" class="cls-1" d="M9.27216,2.65168a1.71073,1.71073,0,0,1,.44369-1.44A1.86784,1.86784,0,0,1,11,.81591c1.60792,0,1.60792,1.19969,1.60792,1.71585v.85193h-.98383V2.45981c0-.732-.43222-.768-.67206-.768-.66006,0-.66006.51617-.66006.88791V4.71581a1.228,1.228,0,0,1,1.0438-.50417c1.30813,0,1.30813,1.14025,1.30813,1.66788v1.9562a1.83028,1.83028,0,0,1-.22784,1.00782,1.62245,1.62245,0,0,1-1.476.63608,1.83889,1.83889,0,0,1-1.0683-.2878,1.60411,1.60411,0,0,1-.59958-1.512Zm2.36392,3.26381c0-.31178,0-.804-.66006-.804-.68405,0-.68405.55214-.68405.816V7.82373c0,.27581,0,.828.68405.828.66006,0,.66006-.54015.66006-.768Z"/><path id="_Compound_Path_4" data-name="&lt;Compound Path&gt;" class="cls-1" d="M13.29406,1.00778h3.17987v.91189a14.54407,14.54407,0,0,0-1.0683,3.42023,21.90568,21.90568,0,0,0-.4317,4.05578H13.74974a18.36847,18.36847,0,0,1,1.78832-7.428h-2.244Z"/></g></svg>